<?xml version="1.0" encoding="UTF-8" standalone="no"?>
<!-- Created with Inkscape (http://www.inkscape.org/) -->

<svg
   xmlns:dc="http://purl.org/dc/elements/1.1/"
   xmlns:cc="http://creativecommons.org/ns#"
   xmlns:rdf="http://www.w3.org/1999/02/22-rdf-syntax-ns#"
   xmlns:svg="http://www.w3.org/2000/svg"
   xmlns="http://www.w3.org/2000/svg"
   xmlns:sodipodi="http://sodipodi.sourceforge.net/DTD/sodipodi-0.dtd"
   xmlns:inkscape="http://www.inkscape.org/namespaces/inkscape"
   width="100.50266mm"
   height="100.52035mm"
   viewBox="0 0 135.50266 126.52035"
   version="1.1"
   id="svg8"
   inkscape:version="0.92.3 (unknown)"
   sodipodi:docname="Astana.svg">
  <defs
     id="defs2" />
  <sodipodi:namedview
     id="base"
     pagecolor="#ffffff"
     bordercolor="#666666"
     borderopacity="1.0"
     inkscape:pageopacity="0.0"
     inkscape:pageshadow="2"
     inkscape:zoom="0.9899495"
     inkscape:cx="431.04703"
     inkscape:cy="128.0911"
     inkscape:document-units="mm"
     inkscape:current-layer="layer1"
     showgrid="false"
     inkscape:window-width="1855"
     inkscape:window-height="1056"
     inkscape:window-x="65"
     inkscape:window-y="24"
     inkscape:window-maximized="1"
     fit-margin-top="0"
     fit-margin-left="0"
     fit-margin-right="0"
     fit-margin-bottom="0"
     inkscape:snap-nodes="true" />
  <metadata
     id="metadata5">
    <rdf:RDF>
      <cc:Work
         rdf:about="">
        <dc:format>image/svg+xml</dc:format>
        <dc:type
           rdf:resource="http://purl.org/dc/dcmitype/StillImage" />
        <dc:title></dc:title>
      </cc:Work>
    </rdf:RDF>
  </metadata>
  <g
     inkscape:label="Layer 1"
     inkscape:groupmode="layer"
     id="layer1"
     transform="translate(-232.96422,-40.412974)">
    <path
       style="fill:none;stroke:#000000;stroke-width:0.21344782px;stroke-linecap:butt;stroke-linejoin:miter;stroke-opacity:1"
       d="m 236.75983,72.839607 0.6962,-0.744978 -0.0409,-1.028793 0.45048,-0.744983 1.02382,-1.915673 -0.0409,-0.815936 -0.40954,-0.603082 2.12953,-3.441119 1.51524,-3.441118 10.60668,3.83135 0.45048,-0.603084 13.26858,5.108464 0.98286,0.886885 0.69619,0.780462 0.73714,0.957834 0.6962,0.603083 9.95143,3.760401 0.77809,0.03544 4.13621,1.489972 0.61428,0.709509 4.21809,1.419017 1.39239,0.744986 -0.24571,0.922359 -1.14668,0.815935 -1.26951,0.461179 -2.86668,0.42571 1.88382,7.840072 -0.32763,0.744986 -0.98286,-1.880205 -0.86,-0.815934 -1.0238,-0.03544 -1.39239,0.780457 -1.18761,0.319276 -1.4743,-0.283799 -0.85999,-0.461179 -0.57334,-0.42571 -0.40952,-0.638553 -1.67905,-0.106426 -2.17048,-0.106433 -6.7981,-0.390224 -0.90095,-0.354755 -0.7781,-0.886889 -0.98286,-0.815934 -0.90095,-0.532135 h -1.59714 l -1.31049,0.03544 -1.18761,-0.709509 -1.10572,-1.09974 -3.19429,-1.454495 -2.00666,-0.07095 -0.57334,-0.248329 -0.65524,-1.028785 -0.49143,-0.46118 -0.86,-0.212859 -0.73714,-0.03544 -0.28667,0.106426 -0.77809,0.390232 -0.90096,0.212851 -1.02381,0.106425 -0.90095,-0.248328 -3.31715,-0.603083 -1.47429,-0.03552 -1.10571,-1.09974 -1.67905,-0.92236 -0.0409,-0.922359 -0.81905,-0.780457 0.45048,-0.319284 0.0409,-1.383539 z"
       id="path10"
       inkscape:connector-curvature="0" />
    <path
       style="fill:none;stroke:#000000;stroke-width:0.21344782px;stroke-linecap:butt;stroke-linejoin:miter;stroke-opacity:1"
       d="m 286.7393,91.761968 0.92665,0.652211 0.69498,-0.250852 1.44789,0.903056 2.08496,-1.655603 1.21622,-0.351188 0.92665,-0.802719 0.7529,0.150508 3.18535,-2.458322 0.34749,-0.602039 1.04248,-0.100336 0.57916,-1.45493 0.92665,-0.150508 1.21622,-1.254243 0.81082,-0.301024 -0.0579,-0.602039 1.44788,-0.551867 1.67956,-2.60883 0.98456,0.250844 1.27413,0.05016 2.83787,1.304415 0.57915,-0.301016 0.86873,0.150508 0.92665,-0.752548 -0.0579,-0.802719 1.15831,-0.652203 0.63707,-1.354587 1.04248,-0.20068 1.10039,-0.301023 2.14288,-0.351188 0.92665,-0.903055 0.63707,-0.802719 1.10039,-0.20068 0.92664,-0.802719 1.27415,-0.802712 0.81081,-0.702383 0.63707,-0.551866 -2.43245,-5.418345 0.17375,-0.501698 10.71436,-9.482103 -6.54445,-9.532271 -5.32823,5.769532 -1.44788,0.953228 -0.11583,1.755944 -0.7529,1.204077 -1.5058,0.351188 -1.62164,1.856285 -20.38624,-6.371571 6.25487,-6.873269 v -2.357985 l -5.79155,1.404756 -1.62163,2.608834 -4.80699,2.558662 -5.67571,-0.752547 -6.89194,2.508492 -4.28575,-11.739746 -7.47109,1.755945 2.83785,8.880065 -4.45949,1.655603 -0.92664,-0.401358 -0.57916,0.451528 -0.52123,-0.602037 -1.62164,0.953227 -7.29735,10.4855 0.92665,0.602038 11.98851,4.565457 1.33205,1.003397 0.57915,0.903057 0.63707,0.903057 1.04248,0.752549 0.92665,0.30102 8.86106,3.411552 1.04248,-0.05016 3.99617,1.555267 0.40541,0.602039 5.6178,2.157298 -0.75291,1.254251 -1.27413,0.652203 -3.76451,0.752548 2.14287,7.926839 z"
       id="path20"
       inkscape:connector-curvature="0" />
    <path
       style="fill:none;stroke:#000000;stroke-width:0.21344782px;stroke-linecap:butt;stroke-linejoin:miter;stroke-opacity:1"
       d="m 289.86677,92.91583 2.14287,-1.454923 1.21623,-0.451532 0.75289,-0.752547 0.69499,0.20068 3.53284,-2.558665 0.17375,-0.551868 0.98456,-0.05016 0.81082,-1.505094 0.92665,-0.100336 1.15831,-1.354587 0.63707,-0.150508 v -0.652211 l 0.63707,-0.451524 h 0.98456 l 1.56372,-2.759345 0.46332,0.250852 1.73747,0.100336 2.72202,1.254243 0.57916,-0.351188 0.92664,0.100344 0.75291,-0.60204 0.23166,-0.752547 0.98456,-0.652211 0.7529,-1.304415 1.56372,-0.551868 0.92665,-0.05016 1.73746,-0.301016 0.23166,-0.501696 0.75291,-0.551875 0.23166,-0.451524 1.04248,-0.351188 0.81081,-0.551875 0.52124,-0.401359 0.92665,-0.551868 0.98456,-0.802711 0.7529,-0.301024 1.33206,1.404759 9.03481,3.511885 6.7182,16.204867 6.66027,-0.401359 h 4.74907 l 6.54445,3.010189 -2.08496,6.170889 9.26648,2.30782 0.40541,1.05357 -0.81082,0.80271 0.0579,0.90306 -0.69498,0.40136 -1.21622,-0.5017 -0.34749,-0.40136 -0.40541,-0.80271 v -0.50171 l -0.92665,-0.10033 -0.46332,0.35118 -0.17375,0.75255 -0.63708,0.55187 -0.57915,0.15051 -0.69499,-0.35119 -1.10039,0.30101 -0.81081,0.55188 0.46332,0.6522 v 0.70238 l -1.33205,0.60204 -0.57916,-0.35119 -0.81082,0.60204 -0.4054,0.5017 -0.92665,-0.85289 -0.34749,-0.60204 -0.69499,0.55187 h -0.92665 l -0.81081,0.30102 -0.46333,0.5017 -0.52124,1.0034 -0.28957,0.45152 -1.73747,0.10035 -1.04248,-0.55187 -13.37847,-3.61223 -1.85329,2.80951 -5.09657,-1.80612 -16.62174,-1.75594 -2.66411,1.10374 -3.3591,-1.10374 -2.66411,1.55526 -2.60619,-0.35119 -1.1004,-0.60204 -0.63707,-0.75254 -0.86873,-0.15051 h -2.6062 l -1.21622,-0.30102 -1.21622,-0.80272 -0.17376,-1.90645 -1.10039,-1.55527 -0.0579,-0.80272 1.27414,-0.65221 0.3475,-0.75254 -0.23167,-0.551868 -1.04248,-0.852884 -0.23165,-1.103735 -0.57916,-0.752555 -0.86874,-1.505094 -0.0579,-0.501696 -0.17374,-1.153907 z"
       id="path22"
       inkscape:connector-curvature="0" />
    <path
       style="fill:none;stroke:#000000;stroke-width:0.21344782px;stroke-linecap:butt;stroke-linejoin:miter;stroke-opacity:1"
       d="m 241.54221,84.521045 3.11238,0.354754 3.19429,-1.56092 -0.0819,-0.709509 -1.6381,-0.425702 -0.65524,-1.348069 0.73714,-0.638561 h 2.21144 l 1.39238,-0.638553 h 1.39238 l 0.73714,0.283806 1.55619,1.773772 1.88381,-0.07096 3.35811,1.560921 2.62095,1.773771 2.53905,-0.212851 1.8019,1.419017 1.4743,1.348069 2.78475,-0.07096 8.02668,0.496657 1.22857,1.34807 1.88381,0.496657 1.14667,-0.07095 1.22858,-0.496658 0.65523,-0.425702 0.90096,-0.07095 0.73714,0.638553 0.40952,0.709508 0.40953,0.922368 0.24572,0.851411 0.81905,0.49665 h 0.81904 l 0.65524,0.212859 0.81905,0.993307 0.32762,0.780464 0.0819,0.780457 0.16381,0.780463 0.40953,0.92236 0.57332,0.851412 0.32763,0.851412 0.40952,0.709508 0.57333,0.425702 0.24572,0.496652 0.0819,0.63857 -0.65524,0.49665 -0.65524,0.42571 -0.16381,0.49665 0.40953,0.85141 0.65523,0.70951 v 2.19948 l 1.39239,0.85141 0.90095,0.4257 2.21143,0.21286 1.14667,-0.21286 0.49142,0.071 0.73715,0.7095 1.06476,0.56761 1.31048,0.28381 1.22857,0.071 0.81905,-0.21285 0.81905,-0.63856 0.73715,-0.35475 0.73714,-0.1419 0.90095,0.21284 1.39239,0.42571 1.39237,0.28381 1.14667,-0.63856 0.90096,-0.35476 0.98286,0.071 0.81904,0.1419 1.47429,0.1419 1.47429,0.1419 5.24191,0.4257 6.63429,0.70951 5.16,1.84473 -2.53904,3.26374 -0.81905,0.78046 -0.65525,0.70951 -0.81904,0.63856 -0.49143,0.78045 -0.81905,0.63857 -1.06476,0.49665 -0.49143,0.56761 -0.49143,0.8514 -1.96572,2.34139 -2.70285,3.76039 -2.29334,-0.49665 -0.65524,0.70951 -0.98286,0.4257 -0.32761,0.4257 4.58666,10.71359 -3.03048,0.85141 -0.40952,0.70951 -1.06476,0.78046 -0.57334,1.98662 0.57334,5.10847 4.09524,3.97325 0.65523,3.26374 -0.65523,3.19279 -0.65524,4.32801 v 4.6118 l -15.56192,0.49666 -1.06476,-2.83804 -2.86667,0.70952 -1.31048,-3.26375 -1.80191,-0.071 0.65525,-3.83135 -3.11239,-0.49665 0.57333,-7.5208 -0.81905,-0.2838 0.24572,-6.24368 -13.10477,-2.62518 -17.52764,-2.76709 -1.39238,-0.85141 -4.09524,-0.78046 -1.22858,0.56761 -2.45715,0.1419 -3.35809,0.2838 -5.0781,-4.39895 -0.0819,-1.20617 -0.90096,-0.92236 -2.62095,-2.69613 -0.24572,-3.33469 0.57334,-0.99332 -0.98286,-1.70282 -1.6381,-0.78046 -0.40952,0.35476 -7.53524,-14.33208 2.04762,-1.20617 0.32762,-1.70282 0.40952,-1.77377 1.72,-2.696134 -0.24571,-5.88892 0.57333,-0.212858 -0.0819,-0.851412 1.14666,-0.141896 v -1.631875 l 2.86667,-0.425702 z"
       id="path24"
       inkscape:connector-curvature="0" />
    <path
       style="fill:#000000;fill-opacity:1;stroke-width:0.43122974"
       d="m 304.59425,165.45976 c -0.24853,-0.56623 -0.45186,-1.19837 -0.45186,-1.40476 0,-0.47794 -0.56429,-0.4747 -2.04118,0.0117 -1.09617,0.36102 -1.21172,0.28036 -1.72514,-1.20408 -0.39483,-1.14161 -0.80359,-1.59103 -1.44706,-1.59103 -0.80825,0 -0.86572,-0.19567 -0.58208,-1.98218 l 0.31471,-1.98217 -1.54537,-0.25047 -1.54537,-0.25047 0.24072,-3.6874 c 0.13239,-2.02806 0.0899,-3.78322 -0.0945,-3.90035 -0.18438,-0.11712 -0.39695,-1.64533 -0.47239,-3.39603 l -0.13714,-3.18308 -5.55989,-1.11663 c -3.05793,-0.61415 -9.62555,-1.75813 -14.5947,-2.54219 -4.96914,-0.78406 -10.00903,-1.77761 -11.19975,-2.2079 -2.45041,-0.88549 -3.95904,-0.96825 -8.25984,-0.45313 l -3.01161,0.36071 -2.66411,-2.24105 c -1.46526,-1.23257 -2.66411,-2.48522 -2.66411,-2.78364 0,-0.29843 -0.86353,-1.42973 -1.91896,-2.514 -1.86881,-1.9199 -1.91193,-2.03039 -1.65,-4.22876 0.2776,-2.32998 -0.11813,-3.0171 -2.5221,-4.37918 -0.3896,-0.22075 -2.23847,-3.34213 -4.10859,-6.93639 -3.36805,-6.4732 -3.39107,-6.54059 -2.43299,-7.12191 0.59287,-0.35972 1.09194,-1.24794 1.28945,-2.29486 0.17722,-0.93939 0.70703,-2.34013 1.17737,-3.11274 0.58464,-0.96039 0.90101,-2.474011 1.00013,-4.784899 0.0956,-2.229122 0.33979,-3.436392 0.71708,-3.545336 0.31466,-0.09086 0.57211,-0.488794 0.57211,-0.884299 0,-0.477914 0.46619,-0.799871 1.38997,-0.959917 1.38612,-0.240149 1.38997,-0.248618 1.38997,-3.06036 v -2.819547 h 1.37425 c 3.15438,0 6.17098,-2.371102 3.72231,-2.925804 -1.12087,-0.253914 -1.24424,-1.489142 -0.14873,-1.489142 0.42786,0 1.46816,-0.216212 2.31178,-0.480471 1.41111,-0.442022 1.63822,-0.393847 2.83819,0.602038 0.71738,0.59538 1.66815,1.082508 2.11281,1.082508 0.98747,0 3.28077,0.998283 5.20776,2.266962 0.86537,0.569736 2.06909,0.943909 3.03655,0.943909 1.21245,0 1.97222,0.330135 3.1194,1.355434 1.51515,1.354167 1.52144,1.355598 6.71965,1.527959 4.65902,0.154484 5.31397,0.268586 6.26359,1.091206 1.07794,0.933775 2.75613,1.006509 5.491,0.237983 0.91384,-0.256799 1.16271,-0.0618 1.9908,1.559874 0.62816,1.23014 1.23163,1.853362 1.79464,1.853362 1.10773,0 1.70551,0.68152 2.11227,2.408153 0.18201,0.772617 0.83158,2.195104 1.44347,3.161084 1.30417,2.058833 1.33931,2.318833 0.421,3.114333 -0.61318,0.53118 -0.61318,0.73034 0,1.75752 0.38035,0.63715 0.69155,1.60871 0.69155,2.15902 0,1.34079 1.61033,2.25017 3.98461,2.25017 1.14188,0 2.15868,0.24377 2.49916,0.59916 0.31572,0.32953 1.39383,0.79038 2.39581,1.0241 1.5435,0.36004 2.04837,0.30662 3.30513,-0.34967 1.29036,-0.67385 1.69431,-0.71092 3.10497,-0.28489 1.29607,0.39142 1.91223,0.38478 3.06912,-0.0331 1.22238,-0.44152 2.66342,-0.39817 9.26647,0.27877 4.53198,0.4646 8.9334,1.15167 10.4699,1.63437 l 2.6509,0.83278 -1.33705,1.68343 c -0.73537,0.92588 -2.46418,2.66675 -3.84179,3.86859 -1.37762,1.20184 -3.60349,3.65404 -4.94639,5.44934 -1.96802,2.63101 -2.61919,3.22395 -3.35696,3.05682 -1.23517,-0.27981 -3.17105,0.66915 -3.17105,1.55443 0,0.39381 0.93823,2.90035 2.08496,5.57009 1.14672,2.66975 2.08495,4.92155 2.08495,5.00399 0,0.0824 -0.5933,0.26278 -1.31844,0.40075 -0.72514,0.13797 -1.80382,0.81956 -2.39707,1.51466 -0.89915,1.05352 -1.06474,1.70045 -0.99515,3.88808 0.1102,3.46493 0.31453,3.9509 2.47836,5.89462 2.4552,2.20545 2.81396,3.76049 1.97707,8.56957 -0.36627,2.10477 -0.66718,4.83761 -0.66868,6.07298 l -0.003,2.24614 -5.63262,0.26236 c -9.06722,0.42233 -9.14931,0.41582 -9.66853,-0.76717 z"
       id="path28"
       inkscape:connector-curvature="0" />
    <path
       style="fill:#000000;fill-opacity:1;stroke-width:0.43122974"
       d="m 278.9193,88.171725 c -1.03358,-0.704285 -2.20006,-0.91148 -6.60629,-1.173436 -5.12574,-0.304735 -5.41301,-0.370126 -6.82166,-1.552848 -1.08058,-0.907269 -1.90646,-1.234717 -3.11418,-1.234717 -1.08304,0 -1.94462,-0.288333 -2.52622,-0.845426 -1.16661,-1.117443 -4.03891,-2.365444 -5.44412,-2.365444 -0.68711,0 -1.41826,-0.38973 -1.88243,-1.003397 -0.80339,-1.062137 -2.16903,-1.275067 -4.09964,-0.639214 -1.46856,0.483671 -6.49159,-0.524088 -8.26117,-1.657422 -0.88015,-0.563691 -1.43267,-1.348731 -1.61221,-2.290673 -0.15024,-0.78819 -0.39216,-1.70399 -0.53761,-2.035113 -0.39269,-0.893979 -0.11934,-2.459646 0.65638,-3.759451 0.37768,-0.632841 0.57527,-1.519679 0.4391,-1.97075 -0.14194,-0.470202 0.21449,-1.520511 0.83535,-2.461611 0.59562,-0.902814 1.33074,-2.318773 1.6336,-3.146573 0.30287,-0.827803 0.61934,-1.505097 0.70327,-1.505097 0.0839,0 2.3952,0.813908 5.13615,1.808685 2.74096,0.994776 5.21019,1.779815 5.48719,1.744529 0.277,-0.03529 1.9631,0.528102 3.7469,1.251973 1.78379,0.723872 4.80698,1.907652 6.71819,2.630625 2.65601,1.004713 3.765,1.679755 4.70579,2.864397 1.03248,1.300107 2.11524,1.888789 6.71819,3.652594 3.01804,1.15648 5.74489,2.102436 6.05968,2.102122 0.31479,-3.98e-4 2.5534,0.899861 4.97471,2.00039 4.2328,1.923889 4.36244,2.022638 3.36591,2.563783 -0.57006,0.309552 -1.81832,0.681585 -2.77392,0.826738 -0.95561,0.145153 -1.73004,0.39119 -1.72096,0.546747 0.009,0.155559 0.31856,1.366502 0.68774,2.690985 0.85427,3.064752 0.89476,4.154529 0.12974,3.491823 -0.67441,-0.584217 -2.52313,-0.635057 -2.91895,-0.08027 -0.48353,0.677739 -2.35699,0.446546 -3.67853,-0.453947 z"
       id="path30"
       inkscape:connector-curvature="0" />
    <path
       style="fill:#000000;fill-opacity:1;stroke-width:0.43122974"
       d="m 288.50521,92.068946 c -0.67064,-0.271961 -1.04531,-0.78249 -1.05042,-1.431313 -0.004,-0.554712 -0.41335,-2.361054 -0.90885,-4.014095 -0.49551,-1.653045 -0.75256,-3.112642 -0.57122,-3.243555 0.18134,-0.130906 1.19108,-0.449903 2.24387,-0.708879 3.8681,-0.951518 3.80593,-2.991965 -0.12995,-4.26502 -1.23615,-0.399828 -2.56028,-0.955737 -2.94252,-1.23535 -0.38225,-0.279616 -3.19694,-1.360419 -6.25488,-2.401786 -7.50541,-2.555936 -8.90392,-3.212828 -11.09519,-5.211484 -1.45073,-1.323211 -3.16886,-2.197372 -7.55359,-3.843159 -3.12164,-1.171694 -5.67571,-2.267349 -5.67571,-2.434788 0,-0.262087 6.28086,-9.491554 6.75932,-9.932544 0.0953,-0.08789 1.06334,-0.235968 2.15108,-0.329061 1.08774,-0.09309 2.87004,-0.510094 3.96066,-0.926668 2.24495,-0.857475 2.22283,-0.381604 0.2881,-6.197976 -0.58517,-1.759207 -0.99225,-3.260671 -0.90461,-3.336587 0.0876,-0.07591 1.17126,-0.370133 2.40805,-0.653817 1.23679,-0.283684 2.69157,-0.638439 3.23284,-0.788345 0.91431,-0.253218 1.13726,0.141127 3.14249,5.558151 1.1871,3.206888 2.26727,5.830706 2.40037,5.830706 0.1331,0 1.73116,-0.548941 3.55123,-1.21987 3.0683,-1.131056 3.51341,-1.192419 6.11365,-0.842818 2.65601,0.357099 2.93443,0.313255 5.26136,-0.828525 1.42833,-0.700848 2.9169,-1.836736 3.55557,-2.713144 0.69916,-0.959418 1.57469,-1.59748 2.40795,-1.754852 0.72013,-0.136007 1.77844,-0.363003 2.35181,-0.504437 2.02413,-0.499301 1.23494,1.500898 -1.99215,5.049087 -1.66905,1.835117 -2.8679,3.471929 -2.66411,3.637361 0.3919,0.318149 19.64842,6.401657 20.26358,6.401657 0.1979,0 0.76982,-0.451528 1.27094,-1.003397 0.50112,-0.551868 1.13363,-1.003397 1.40558,-1.003397 0.68218,0 1.72232,-1.257023 1.74017,-2.103017 0.0216,-1.021654 6.11395,-7.222942 6.64454,-6.763311 0.23871,0.206783 1.64847,2.141057 3.1328,4.298387 l 2.6988,3.922418 -5.35031,4.772856 c -5.86393,5.231036 -5.69294,4.858582 -3.94694,8.597304 l 0.9754,2.088629 -3.39051,2.381248 c -2.37132,1.665435 -3.95026,2.463168 -5.25258,2.653767 -1.34976,0.197544 -2.00343,0.541302 -2.37592,1.249488 -0.28262,0.537332 -0.70251,0.976968 -0.93307,0.976968 -0.23057,0 -0.52827,0.361222 -0.66155,0.802718 -0.28854,0.955831 -1.86819,1.044571 -3.57234,0.200679 -1.77987,-0.88139 -3.58242,-0.752879 -4.2222,0.301019 -0.78731,1.296923 -4.22953,4.314608 -4.9216,4.314608 -0.3223,0 -0.586,0.198173 -0.586,0.440387 0,0.431419 -4.53734,4.174624 -5.0618,4.175873 -0.14653,3.98e-4 -1.1004,0.448904 -2.11972,0.996783 -1.01931,0.547882 -2.06179,1.101381 -2.31661,1.229999 -0.25483,0.12862 -0.93244,0.04362 -1.50581,-0.188898 z"
       id="path32"
       inkscape:connector-curvature="0" />
    <path
       style="fill:#000000;fill-opacity:1;stroke-width:0.43122974"
       d="m 304.65385,164.83094 c -0.46311,-1.15081 -0.63957,-1.23818 -2.08905,-1.03443 -1.38492,0.19469 -1.61808,0.10218 -1.86171,-0.7387 -0.15318,-0.52869 -0.7163,-1.31457 -1.25137,-1.7464 -0.7565,-0.61052 -0.93305,-1.14674 -0.79387,-2.41105 0.18593,-1.68892 -0.15908,-2.04369 -1.98749,-2.04369 -0.84652,0 -0.90196,-0.25784 -0.79826,-3.71256 0.0613,-2.04192 -0.0638,-5.28441 -0.27799,-7.20555 l -0.38942,-3.49298 -3.29183,-0.65539 c -1.8105,-0.36047 -7.98297,-1.45545 -13.7166,-2.43329 -5.73363,-0.97784 -11.88425,-2.15816 -13.66805,-2.62292 -2.70316,-0.70431 -3.9831,-0.80699 -7.68584,-0.61656 l -4.44258,0.22847 -2.11914,-1.88571 c -1.16554,-1.03714 -3.07567,-3.1066 -4.24475,-4.59879 -1.87969,-2.3992 -2.1256,-2.96517 -2.1256,-4.89223 0,-1.97719 -0.17742,-2.35674 -1.91422,-4.09508 -1.76758,-1.76915 -4.17817,-5.78573 -6.88339,-11.46926 -1.01204,-2.12627 -1.03797,-2.35285 -0.34513,-3.01604 1.10923,-1.06177 3.11136,-6.91071 3.43209,-10.026344 0.3297,-3.202867 1.15434,-4.81986 2.72124,-5.33592 1.05713,-0.348168 1.13612,-0.570209 1.13612,-3.193628 v -2.819446 h 1.59983 c 3.2285,0 5.55699,-1.901542 3.73878,-3.053244 -1.11806,-0.708206 -0.55499,-1.245346 1.64262,-1.566974 1.40025,-0.204932 2.08514,-0.114148 2.68468,0.355868 0.44268,0.347041 1.66027,0.892424 2.70575,1.211958 1.04549,0.319537 2.74254,1.063466 3.77124,1.653182 1.02869,0.589714 2.75169,1.243747 3.82887,1.453405 1.07719,0.209658 2.66084,0.915373 3.51924,1.568258 0.86402,0.657161 2.12229,1.199792 2.81873,1.215584 4.98216,0.112967 9.4378,0.705921 10.2829,1.368442 0.7655,0.60012 1.40467,0.681798 3.70527,0.473497 l 2.7802,-0.251726 0.89498,1.519693 c 0.49224,0.835831 1.4272,1.729752 2.07768,1.986492 0.69075,0.272634 1.30694,0.93158 1.48141,1.584188 0.1643,0.614562 0.83307,2.173401 1.48617,3.464084 0.97617,1.929152 1.08883,2.483501 0.63318,3.115521 -0.44117,0.61195 -0.3968,1.19778 0.21744,2.87097 1.01374,2.76144 1.66676,3.35425 4.00933,3.63965 1.07371,0.13082 2.77815,0.60599 3.78764,1.05595 2.1749,0.9694 3.53292,1.02828 5.31406,0.2304 0.94271,-0.4223 1.71611,-0.48728 2.74805,-0.23091 0.88678,0.22031 2.09194,0.19992 3.15066,-0.0533 2.42279,-0.5795 14.50683,0.59811 19.61074,1.9111 l 2.39152,0.61522 -0.80802,1.07924 c -0.44443,0.59359 -2.07591,2.31889 -3.62553,3.834 -1.54962,1.51511 -3.85996,4.02565 -5.13411,5.57898 -2.3844,2.90687 -2.72992,3.16236 -5.09656,3.76853 -2.01664,0.51653 -1.97909,1.55011 0.25504,7.01952 1.07499,2.6317 1.87437,4.82425 1.7764,4.87233 -0.098,0.0481 -0.80363,0.36087 -1.56811,0.6951 -2.21062,0.96645 -3.14989,3.08466 -2.76137,6.22735 0.28116,2.27436 0.59421,2.92548 2.34608,4.87983 2.44322,2.72559 2.7487,3.92699 2.08491,8.1997 -0.28122,1.81017 -0.51131,4.41284 -0.51131,5.78371 v 2.4925 l -1.73747,0.24878 c -0.9556,0.13682 -4.27114,0.25076 -7.36785,0.25319 l -5.63039,0.004 -0.50584,-1.25699 z"
       id="path34"
       inkscape:connector-curvature="0" />
    <path
       style="fill:#000000;fill-opacity:1;stroke-width:0.43122974"
       d="m 343.75657,110.27252 c -3.56759,-1.04938 -6.92042,-1.92423 -7.45072,-1.94411 -0.58171,-0.0218 -1.21009,0.36188 -1.58409,0.96724 -0.7428,1.20232 -1.16589,1.23012 -3.8052,0.25009 -1.1158,-0.41432 -4.31264,-0.97035 -7.1041,-1.23562 -2.79145,-0.26527 -6.62125,-0.65104 -8.51065,-0.85727 -2.68701,-0.29328 -3.64104,-0.2566 -4.37993,0.16839 -0.7774,0.44714 -1.28947,0.45345 -2.89212,0.0356 -1.73427,-0.45214 -2.13362,-0.42129 -3.64794,0.28179 -1.80798,0.83942 -3.09222,0.73237 -4.55243,-0.37949 -0.47047,-0.35823 -1.4795,-0.5958 -2.3004,-0.54161 -2.34759,0.15495 -4.04305,-0.64524 -4.04305,-1.90816 0,-0.59327 -0.29781,-1.42926 -0.66181,-1.85776 -0.58677,-0.69075 -0.55611,-0.87709 0.27045,-1.64344 l 0.93227,-0.86436 -1.50994,-2.346514 c -0.83047,-1.290583 -1.65282,-3.018621 -1.82745,-3.840084 -0.36066,-1.696634 0.0128,-2.122898 3.05239,-3.483831 1.03265,-0.462355 2.6747,-1.473158 3.64899,-2.246231 0.97431,-0.773072 1.83299,-1.405585 1.90819,-1.405585 0.36331,0 3.91671,-3.291232 3.91671,-3.627738 0,-0.212217 0.31612,-0.38585 0.70248,-0.38585 0.38637,0 1.03727,-0.608156 1.44645,-1.351456 0.6791,-1.23364 0.87126,-1.326584 2.20419,-1.066166 0.80313,0.15691 1.87232,0.473705 2.37598,0.703989 1.48419,0.678603 3.15135,0.402784 3.73896,-0.61858 0.99963,-1.737516 2.38793,-2.777091 4.07478,-3.051223 0.92634,-0.15054 2.15094,-0.631977 2.72135,-1.069859 4.62666,-3.551748 5.05055,-3.780768 5.66043,-3.058254 0.32206,0.381537 2.62895,1.49099 5.12643,2.465449 l 4.54088,1.771746 3.31339,7.955181 3.31339,7.955183 5.65904,-0.120535 5.65904,-0.120534 3.22602,1.50941 c 1.7743,0.830176 3.22601,1.607437 3.22601,1.727247 0,0.119811 -0.41481,1.474391 -0.92182,3.010185 -0.507,1.53579 -0.76762,2.90715 -0.57916,3.04746 0.18848,0.14032 2.11489,0.67328 4.28093,1.18437 4.8686,1.14877 5.16055,1.3197 4.46684,2.61525 -0.61465,1.1479 -1.26742,1.1016 -1.9126,-0.13568 -0.57829,-1.109 -1.9013,-1.13124 -2.57348,-0.0432 -0.28333,0.45861 -0.75978,0.75326 -1.05878,0.65478 -1.12663,-0.37112 -2.69301,0.48221 -2.54253,1.3851 0.11244,0.67461 -0.16484,0.94651 -1.21674,1.19319 -0.74929,0.17571 -1.58327,0.16131 -1.85329,-0.032 -0.91209,-0.65303 -3.12869,0.0483 -3.90906,1.23679 -0.41349,0.62974 -1.06454,1.11791 -1.44678,1.08483 -0.38224,-0.0331 -3.61393,-0.91872 -7.18152,-1.9681 z"
       id="path36"
       inkscape:connector-curvature="0" />
  </g>
</svg>
