<?xml version="1.0" encoding="UTF-8" standalone="no"?>
<svg
   xmlns:dc="http://purl.org/dc/elements/1.1/"
   xmlns:cc="http://creativecommons.org/ns#"
   xmlns:rdf="http://www.w3.org/1999/02/22-rdf-syntax-ns#"
   xmlns:svg="http://www.w3.org/2000/svg"
   xmlns="http://www.w3.org/2000/svg"
   xmlns:sodipodi="http://sodipodi.sourceforge.net/DTD/sodipodi-0.dtd"
   xmlns:inkscape="http://www.inkscape.org/namespaces/inkscape"
   version="1.1"
   id="svg28"
   sodipodi:docname="Актюбинская.svg"
   width="466.16949"
   height="278.74881"
   inkscape:version="0.92.3 (unknown)">
  <metadata
     id="metadata34">
    <rdf:RDF>
      <cc:Work
         rdf:about="">
        <dc:format>image/svg+xml</dc:format>
        <dc:type
           rdf:resource="http://purl.org/dc/dcmitype/StillImage" />
        <dc:title />
      </cc:Work>
    </rdf:RDF>
  </metadata>
  <defs
     id="defs32" />
  <sodipodi:namedview
     pagecolor="#ffffff"
     bordercolor="#666666"
     borderopacity="1"
     objecttolerance="10"
     gridtolerance="10"
     guidetolerance="10"
     inkscape:pageopacity="0"
     inkscape:pageshadow="2"
     inkscape:window-width="928"
     inkscape:window-height="1028"
     id="namedview30"
     showgrid="false"
     fit-margin-top="0"
     fit-margin-left="0"
     fit-margin-right="0"
     fit-margin-bottom="0"
     inkscape:zoom="13.350176"
     inkscape:cx="158.24201"
     inkscape:cy="235.68323"
     inkscape:window-x="771"
     inkscape:window-y="24"
     inkscape:window-maximized="0"
     inkscape:current-layer="svg28" />
  <path
     d="m 362.67986,156.84821 -25.63932,1.24813 -1.86468,2.08022 -6.52637,13.72942 -4.19552,8.32086 -4.6617,8.7369 -9.78956,0.41604 -9.78956,-0.83208 v 9.15294 l -9.32339,0.41605 -6.52637,0.83208 -17.71444,12.48129 -11.18807,9.15295 -9.78956,10.40107 -6.52637,6.65669 -3.72936,1.24813 3.72936,31.20323 -24.70698,-11.64921 -38.2259,8.32086 -2.79702,-7.48877 -4.19552,-8.32086 22.8423,0.41604 1.86468,-18.72194 -13.98509,-14.14546 -0.46617,-2.49626 v -3.32834 l 0.93234,-2.08021 -0.93234,-2.49626 -0.93233,-2.49626 v -2.9123 l 1.3985,-2.9123 1.39851,-2.08022 1.86468,-1.66417 -0.93234,-2.08021 -3.72935,-7.07274 2.79701,-2.08021 v -5.8246 l 4.6617,-3.74439 v -4.99252 l 9.78956,-5.40855 0.46617,-4.99252 -0.46617,-1.24813 v -2.49626 l 2.33084,-0.83208 1.39851,-0.41605 0.93234,-2.49626 0.46617,-1.66417 1.86468,-1.24813 1.39851,-2.49625 0.93234,-2.08022 0.46617,-5.8246 -1.86468,-1.24813 v -3.32834 l 2.79701,-5.40856 3.72936,-3.32835 1.39851,-3.74438 1.39851,-4.16043 4.19552,-2.91231 0.93234,7.48878 0.46617,0.83208 h 0.93234 l 4.19553,-3.32834 7.92488,-5.8246 2.79701,1.66417 -2.79701,2.49626 v 1.66417 l 1.39851,2.9123 3.26318,3.32835 0.46617,1.24812 1.86468,-0.41604 0.46617,-1.66417 2.33085,-1.66417 h 2.33084 l 0.93234,0.83208 0.93234,1.24813 -0.93234,0.41605 -2.33084,0.83208 h -1.86468 l -1.86468,1.24813 0.46617,1.24813 1.86468,0.83209 3.72935,0.41604 5.12787,0.41604 0.93234,-2.9123 0.46617,-2.08021 v -2.08022 l -1.39851,-1.24813 -0.93234,-0.83208 -0.46617,-3.32835 -2.79702,-1.24813 -2.79701,-0.41604 0.46616,-7.07273 3.26319,-0.41604 2.33085,-2.08022 0.46617,-2.08021 -0.46617,-1.66418 v -1.66417 l 5.59403,0.41604 2.33085,1.24813 0.46617,2.08022 0.46617,0.83208 6.99254,0.41605 2.79702,1.66417 1.86468,1.66417 5.12786,5.40856 3.72936,0.41604 0.93234,2.9123 17.24827,13.31338 6.0602,0.83209 40.09058,1.66417 3.26318,2.08021 v 3.32835 l 4.19553,4.57647 3.26318,-0.83209 15.84977,2.49626"
     id="path4"
     inkscape:connector-curvature="0"
     style="stroke-width:1.43919492" />
  <path
     d="m 278.30319,118.15621 4.66169,-2.9123 -4.19552,-4.16043 0.46617,-6.65669 3.26318,1.24813 2.33085,-3.32834 3.26319,-2.912302 4.19552,-2.080215 3.26319,-1.664172 v -5.824602 l 1.39851,-0.832086 h 3.26318 l 2.79702,-0.416043 2.79702,-2.496258 4.19552,-5.408559 4.19553,-5.408559 19.11295,-0.416043 v 2.496258 l 0.46617,2.496258 2.79701,-0.416043 3.72936,2.496258 h 3.26319 l 2.79701,2.912301 3.72936,1.664172 h 5.12786 l 9.32339,-0.832086 8.85722,-0.416043 2.79702,-1.664172 7.45871,8.736903 -1.39851,0.832086 -1.39851,-0.416043 -4.66169,0.416043 v 0.832086 l 3.72936,0.416043 5.59403,7.904818 12.58658,6.65669 7.45871,-4.16043 5.12786,2.9123 v 2.08021 l -2.79701,2.9123 1.3985,3.32835 13.98509,2.49626 3.72935,2.08021 4.6617,0.83209 7.92488,3.32834 5.12786,3.74439 7.92489,8.32086 5.12786,7.07273 2.33085,2.08021 2.33085,1.66418 3.72935,1.24813 -11.65424,9.98503 -33.5642,17.4738 -13.98508,9.15295 -1.86468,-2.9123 h -12.58658 l 0.46617,-4.16043 -13.05274,-8.7369 -5.12787,-0.41605 -6.0602,-7.90481 -6.06021,-4.57648 6.52638,-8.32086 -15.84977,-2.49626 -3.26318,0.83209 -4.19553,-4.57647 v -3.32835 l -3.26318,-2.08021 -40.09058,-1.66417 -6.0602,-0.83209 -17.24827,-13.31338"
     id="path6"
     inkscape:connector-curvature="0"
     style="stroke-width:1.43919492" />
  <path
     d="m 248.93451,104.01075 -0.46617,-9.152945 -5.12787,-1.248129 0.46617,-4.16043 1.39851,-3.744387 2.79702,-2.912301 0.93234,-2.912301 h 8.85722 V 69.479182 l -0.93234,-1.248129 -0.93234,-0.832086 -2.33085,-0.416043 h -2.79701 l -1.39851,-0.832086 0.46617,-2.912301 v -4.576473 l 1.39851,-2.496258 v -2.496258 l 10.25572,-0.416043 -0.46616,1.664172 h 2.33084 l 0.46617,2.496258 1.39851,0.416043 1.39851,-0.832086 3.26319,-2.080215 1.86467,-0.832086 2.79702,-0.416043 -0.46617,-6.656688 h -5.59403 l -6.06021,-4.576473 -6.99254,-4.992517 8.39105,-0.416043 1.86468,-2.496258 2.33085,-1.664172 2.79701,-2.080215 v -4.992516 l 0.93234,-0.832086 h 2.33085 1.39851 l 2.33085,-1.248129 1.39851,-0.416043 1.86467,1.664172 -1.86467,1.664172 6.52637,4.576473 h 20.04529 l 25.17315,-7.488774 1.86468,-9.152946 2.33084,-10.4010749 5.12787,-0.4160431 3.72935,-0.832086 L 346.8301,0 l 3.26319,2.496258 1.39851,4.5764731 2.33084,2.496258 0.46617,1.2481289 h 2.33085 V 9.1529461 l 1.86468,-1.248129 h 2.33085 l 4.66169,2.4962579 v 2.080215 l -2.33085,1.664172 2.79702,2.080215 7.45871,4.576473 -5.59403,0.832086 -0.93234,1.248129 -2.79702,0.416043 2.79702,3.744387 -1.86468,1.664172 0.46617,1.664172 2.79702,-0.832086 5.12786,-1.664172 3.26319,4.16043 v 2.496258 l 1.86468,1.664172 -0.93234,0.416043 v 1.248129 h 1.86468 l 0.46617,1.664172 1.3985,0.416044 2.33085,1.248129 0.46617,1.664172 2.79702,2.496258 0.46617,2.080215 1.86468,1.248129 5.12786,4.576473 0.93234,2.080215 3.26319,2.496258 -0.46617,2.080215 v 3.328344 h -2.79702 l -2.79702,-1.664172 -1.86468,-0.416043 h -1.86467 l -2.33085,1.248129 -2.79702,2.080215 v 3.328344 l -1.39851,2.496258 -1.86467,1.664172 -2.79702,0.832086 1.39851,2.496258 0.46617,3.328344 -3.26319,-0.416043 -1.86468,-0.416043 -1.86468,3.328344 3.72936,2.496258 -2.79702,1.664172 -8.85722,0.416043 -9.32339,0.832086 h -5.12786 l -3.72936,-1.664172 -2.79701,-2.912301 h -3.26319 l -3.72936,-2.496258 -2.79701,0.416043 -0.46617,-2.496258 v -2.496258 l -19.11295,0.416043 -4.19553,5.408559 -4.19552,5.408559 -2.79702,2.496258 -2.79702,0.416043 h -3.26318 l -1.39851,0.832086 v 5.824602 l -7.45871,3.744387 -3.26319,2.912302 -2.33085,3.32834 -3.26318,-1.24813 -0.46617,6.65669 4.19552,4.16043 -4.66169,2.9123 -3.72936,-0.41604 -6.99254,-7.07273 -2.79702,-1.66417 -6.99254,-0.41605 -0.46617,-0.83208 -0.46617,-2.08022 -2.33085,-1.24813"
     id="path8"
     inkscape:connector-curvature="0"
     style="stroke-width:1.43919492" />
  <path
     d="m 195.79119,160.5926 -3.72936,-0.83209 -4.19552,-1.66417 -6.06021,-1.24813 -12.12041,-2.08021 -8.85722,-2.9123 -1.86467,-2.9123 v -2.49626 l -9.78956,-4.16043 -2.79702,-1.66417 -1.86468,-4.16043 -7.92488,-4.57648 -6.0602,-4.16043 -1.39851,-2.9123 -4.19553,-8.7369 -3.72935,-1.24813 -1.86468,-2.49626 -3.26319,-2.08021 -2.33084,-2.49626 -1.39851,-2.49626 -2.33085,0.41604 -1.39851,2.49626 -2.33085,-0.41604 -2.79701,-1.66417 -2.33085,4.16043 -3.263187,1.66417 -4.195525,0.83208 -2.797017,0.41605 -2.797017,-0.83209 -1.398509,1.24813 -1.864678,0.83209 -3.729355,1.66417 -4.195526,-0.83209 -2.330847,-1.24813 -2.797017,-0.41604 -5.127865,-0.41604 -3.263186,0.41604 -1.864678,0.41604 -3.263187,-0.83208 -4.195525,4.99251 v 6.65669 l -2.330847,5.8246 -0.46617,2.9123 1.398509,2.49626 2.330847,2.08022 -0.932339,2.9123 -0.466169,4.57647 5.594033,5.8246 0.46617,9.15295 -1.398509,3.74439 -0.932339,4.57647 v 5.40856 l -2.330847,3.32834 -0.932339,4.16043 v 4.57648 l 4.195525,5.8246 0.46617,2.08021 2.330847,2.08022 1.864678,4.99251 10.255729,7.07274 12.586576,4.16043 9.78956,2.08021 14.917424,3.74439 0.46617,5.8246 5.12786,5.8246 1.39851,3.74439 v 1.66417 l 3.26319,1.66417 0.46617,4.16043 2.33085,3.32835 0.93233,9.56899 1.86468,8.32086 1.39851,9.15294 0.93234,7.07273 47.54929,-9.98503 -2.79702,-7.48877 -4.19552,-8.32086 22.8423,0.41604 1.86468,-18.72194 -13.98509,-14.14546 -0.46617,-2.49626 v -3.32834 l 0.93234,-2.08021 -0.93234,-2.49626 -0.93233,-2.49626 v -2.9123 l 1.3985,-2.9123 1.39851,-2.08022 1.86468,-1.66417 -4.66169,-9.15295 2.79701,-2.08021 v -5.8246 l 4.6617,-3.74439 v -4.99252 l 9.78956,-5.40855 0.46617,-4.99252"
     id="path10"
     inkscape:connector-curvature="0"
     style="stroke-width:1.43919492" />
  <path
     d="m 54.075661,118.15621 -7.458712,-1.66417 -0.466169,-1.24813 -1.398509,-1.24813 h -0.932339 l -0.932339,1.24813 h -2.330847 v 2.9123 l -2.330848,2.9123 h -4.195525 l -7.924881,-3.32834 -10.721899,-3.32834 0.46617,-1.24813 0.466169,-1.66417 -1.398508,-2.49626 0.932339,-2.08022 v -1.66417 l -0.932339,-1.66417 0.466169,-1.24813 v -1.66417 -4.576476 l -2.330847,0.416043 -0.932339,2.080215 -0.932339,0.832086 -1.8646782,-0.416043 -0.932339,-0.416043 V 97.354063 L 6.5263729,96.93802 4.1955254,96.105934 2.3308475,94.857805 0,92.77759 v -2.912301 l 1.3985085,-2.496258 0.932339,-3.328344 0.9323389,-1.248129 -2.33084742,-1.248129 v -2.912301 l 2.33084742,0.416043 0.932339,0.832086 1.3985085,-0.416043 0.932339,-2.080215 2.7970169,-0.416043 3.2631862,-0.416043 5.127865,0.416043 1.864678,-0.416043 2.797017,0.416043 4.195525,0.832086 h 2.797017 l 3.263186,-1.664172 -2.330847,-2.080215 h 2.797017 l 2.330847,-2.912301 h 4.195526 l 10.721898,0.416043 5.594034,-2.496258 1.864678,0.832086 0.466169,2.496258 11.654238,0.832086 0.932339,2.080215 h 10.721898 l -0.466169,1.664172 -0.46617,1.664172 V 80.2963 l 0.46617,2.496258 -0.932339,2.080215 -4.195526,4.576473 -2.330847,2.496258 -5.127865,2.080215 0.932339,2.496258 -1.398508,5.824603 -1.398509,10.81712 -3.263186,0.41604 -1.864678,0.41604 -3.263187,-0.83208"
     id="path12"
     inkscape:connector-curvature="0"
     style="stroke-width:1.43919492" />
  <path
     d="m 39.624407,71.143354 -1.864678,-3.328344 3.263186,-4.16043 1.398509,-3.328344 v -2.080215 l -2.797017,-1.248129 -0.46617,-1.248129 H 36.82739 v -4.992516 l 1.398508,-0.832086 -0.466169,-2.080215 -0.46617,-1.664172 -3.263186,-0.832086 4.661695,-3.328344 1.864678,-2.496259 2.330847,-1.664172 0.932339,-2.496258 1.864678,-0.832086 0.932339,0.832086 2.797017,-1.664172 1.864678,-1.248129 V 29.12301 l -1.864678,-2.080215 0.46617,-1.248129 -0.46617,-2.080215 v -1.248129 l 0.932339,-1.248129 v -1.664172 l -1.864678,-0.416043 h -1.398508 -1.864678 -0.932339 l -0.46617,-1.664172 h 1.864678 v -1.248129 l -0.466169,-0.416043 -0.46617,-1.248129 0.932339,-0.832086 1.398509,-0.416043 h 2.797017 l 1.864678,-0.416043 h 1.398508 l 1.864678,0.832086 1.398508,1.664172 3.729356,1.664172 0.46617,2.080215 3.263186,0.416043 0.932339,-0.416043 1.864678,-0.416043 3.263187,2.080215 -3.263187,2.912301 3.263187,1.248129 8.391051,6.240645 1.398508,-0.832086 h 1.398509 l 2.797016,0.416043 1.398509,0.416043 v 2.080215 l 1.398508,0.416043 h 2.330848 l 0.466169,1.664172 1.864678,0.832086 1.398509,-0.416043 2.330847,-1.248129 2.797017,-1.248129 2.330847,-0.416043 -0.466169,2.912301 4.195529,4.992517 h 8.85722 v 2.912301 H 110.016 v 2.080215 h 3.72936 l 2.33084,1.664172 -0.46617,0.416043 -1.3985,0.416043 -0.46617,0.832086 0.93233,1.248129 -1.3985,1.248129 -0.46617,1.248129 v 1.664172 l -0.46617,3.328344 v 1.664172 l -0.46617,1.664172 -0.46617,1.664172 0.46617,1.248129 2.33085,-0.416043 0.93233,1.248129 0.93234,1.664172 v 1.664172 l -0.93234,1.248129 -0.93233,1.248129 -1.86468,2.080215 -2.33085,2.080215 -1.86468,-0.832086 h -2.79701 l -2.33085,1.248129 -1.39851,2.496258 v 4.16043 l -0.46617,2.912301 -9.78956,1.248129 h -6.060203 l 0.466169,-3.328344 2.330848,-1.664172 2.330847,-0.832086 0.932339,-0.832086 -2.330847,-2.912301 -1.864678,-1.664172 -3.263187,-0.416043 -2.330847,0.832086 H 70.857763 l -0.932339,-2.080215 -11.654238,-0.832086 -0.466169,-2.496258 -1.864678,-0.832086 -5.594034,2.496258"
     id="path14"
     inkscape:connector-curvature="0"
     style="stroke-width:1.43919492" />
  <path
     d="m 100.22644,32.867397 6.0602,-2.080215 4.19553,-3.328344 -0.46617,-2.912301 2.79702,-5.824602 5.12786,2.496258 h 2.79702 l 0.46617,-3.328344 h 2.79701 l -0.46616,-3.744387 3.72935,-1.664172 2.79702,2.496258 1.86468,2.080215 4.19552,0.832086 -2.33085,-4.576473 5.12787,-0.832086 3.26318,1.664172 2.79702,-1.248129 1.86468,1.664172 4.66169,-1.248129 3.72936,-2.080215 1.86468,4.16043 1.86468,-0.416043 1.39851,2.080215 0.93233,1.664172 5.59404,3.744387 2.79701,-2.496258 h 5.12787 v 4.16043 l -1.86468,0.832086 -0.46617,0.416043 0.93234,0.416043 1.39851,0.416043 v 0.832086 l -0.93234,0.832086 -1.39851,0.416043 h -2.33085 l -0.93233,0.416043 0.46616,1.248129 -0.46616,0.832086 -0.93234,0.416043 -1.86468,-0.832086 -1.39851,-0.416043 -1.39851,-0.416043 -1.39851,1.248129 -0.93234,1.248129 -0.93233,1.248129 -1.39851,1.248129 -0.93234,1.248129 -2.33085,0.416043 -0.46617,3.328344 -1.86468,1.664173 -1.39851,-0.416043 0.46617,-3.744388 h -1.86467 l -0.93234,0.832086 -1.86468,1.664172 -2.33085,0.832087 -0.93234,1.248129 -2.33085,1.248129 -0.93233,0.832086 -1.39851,1.248129 -1.86468,-2.080215 -0.93234,-0.832086 -1.39851,2.496258 -1.86468,1.664172 -2.79701,0.416043 -3.26319,0.416043 -2.33085,-2.080215 -1.39851,-0.832086 -3.26318,0.416043 -2.33085,1.664172 0.93234,1.248129 v 1.248129 l 2.33085,2.080215 -1.86468,1.248129 -5.12787,-1.664172 -0.93233,-1.248129 0.46617,-0.832086 1.3985,-0.416043 0.46617,-0.416043 -2.33084,-1.664172 H 110.016 v -2.080215 h 2.79702 v -2.912301 h -8.85722 l -4.195529,-4.992517"
     id="path16"
     inkscape:connector-curvature="0"
     style="stroke-width:1.43919492" />
  <path
     d="m 174.81356,19.970064 3.26319,0.416043 v -9.568989 h 3.26318 l 1.39851,1.248129 h 1.39851 l 1.39851,-0.416043 0.93234,1.248129 h 1.39851 l 2.79701,-1.248129 1.39851,-0.416043 0.93234,0.832086 -0.46617,0.832086 1.39851,0.832086 2.79702,-1.664172 0.46616,-1.248129 3.26319,-1.2481289 h 1.86468 l 1.39851,1.2481289 0.93234,2.496258 0.46617,0.832086 2.79701,-0.416043 2.79702,-0.416043 3.26319,1.664172 1.39851,2.912301 -1.86468,0.832086 v 1.248129 l 0.46617,2.496258 3.26318,-0.416043 v 2.080215 h -0.93234 v 1.664172 l 5.12787,-0.416043 1.86468,2.080215 2.33084,3.328344 v 2.496258 l -2.33084,1.248129 -3.72936,0.832086 -2.79702,-1.248129 -2.33084,0.416043 h -3.72936 l -1.39851,1.664172 h -2.33085 l -1.3985,-0.832086 -1.39851,-0.416043 -0.93234,-2.080215 -1.86468,0.416043 -0.46617,1.664172 0.46617,2.080215 0.93234,1.248129 0.46617,1.248129 -0.93234,0.416044 -2.33085,-0.416044 -2.33085,-0.416043 -2.33084,0.416043 -0.46617,-1.664172 -1.86468,-0.416043 -2.33085,0.416043 -1.39851,2.080216 -10.25572,0.832086 -4.19553,-0.416043 h -2.79702 l -1.86468,-0.832087 -1.3985,-0.832086 -1.86468,0.832086 -1.39851,0.416044 -2.33085,-0.832087 -2.79701,-0.832086 -1.86468,-2.496258 0.93234,-1.248129 1.39851,-1.248129 0.93233,-1.248129 0.93234,-1.248129 1.39851,-1.248129 1.39851,0.416043 1.39851,0.416043 1.86468,0.832086 0.93234,-0.416043 0.46616,-0.832086 -0.46616,-1.248129 0.93233,-0.416043 h 2.33085 l 1.39851,-0.416043 0.93234,-0.832086 v -0.832086 l -1.39851,-0.416043 -0.93234,-0.416043 0.46617,-0.416043 1.86468,-0.832086"
     id="path18"
     inkscape:connector-curvature="0"
     style="stroke-width:1.43919492" />
  <path
     d="m 225.62603,30.787182 h 6.52638 l 1.39851,0.832086 1.86467,-0.832086 1.86468,0.832086 h 1.86468 l 2.33085,1.248129 6.99254,-0.416043 h 1.86468 l 0.93234,1.664172 2.33084,0.416043 0.93234,0.832086 -0.46617,0.832086 h -3.26318 -0.93234 v 0.832086 l 0.46617,0.416043 1.39851,0.416043 v 1.248129 l 3.72935,-1.664172 13.05275,9.56899 h 5.59403 l 0.46617,6.656688 -2.79702,0.416043 -1.86467,0.832086 -3.26319,2.080215 -1.39851,0.832086 -1.39851,-0.416043 -0.46617,-2.496258 h -2.33084 l 0.46616,-1.664172 -10.25572,0.416043 v 2.496258 l -1.39851,2.496258 v 4.576473 l -0.46617,2.912301 1.39851,0.832086 h 2.79701 l 2.33085,0.416043 0.93234,0.832086 0.93234,1.248129 v 10.401075 h -8.85722 l -3.26319,-1.664172 -3.72935,1.248129 -5.12787,0.416043 h -3.26318 l -2.33085,-0.832086 -2.33085,-0.832086 -1.86468,-1.664172 -1.39851,-1.248129 -3.26318,-1.248129 -3.72936,-0.832086 -2.33085,-1.248129 -5.12786,-0.416043 -1.39851,-0.416043 -1.86468,-1.664172 h -2.79701 -2.33085 v -1.248129 l -0.46617,-0.832086 1.39851,-0.416043 1.39851,-0.416043 0.93234,-0.416043 -1.39851,-0.832086 -2.79702,0.416043 -3.72936,0.416043 -3.26318,-0.416043 -1.86468,-0.416043 V 64.486666 63.65458 l -0.93234,-0.416043 -0.93234,-0.416043 -2.79702,-0.416043 h -2.33084 l -1.86468,-0.416043 -1.39851,0.832086 -1.39851,0.416043 -1.39851,-0.416043 -0.93234,-0.416043 h -4.19552 v -4.16043 l -4.19553,-0.416043 v -4.576473 h 2.79702 l 1.39851,-1.664172 1.86468,-1.248129 0.46617,-1.248129 0.93234,-0.832086 V 47.01286 l -0.46617,-0.416043 -1.86468,-0.416043 -0.46617,-0.832086 2.33085,-1.664172 0.93234,-2.912301 10.25572,-0.832086 1.39851,-2.080216 2.33085,-0.416043 1.86468,0.416043 0.46617,1.664172 2.33084,-0.416043 2.33085,0.416043 2.33085,0.416044 0.93234,-0.416044 -0.46617,-1.248129 -0.93234,-1.248129 -0.46617,-2.080215 0.46617,-1.664172 1.86468,-0.416043 0.93234,2.080215 1.39851,0.416043 1.3985,0.832086 h 2.33085 l 1.39851,-1.664172 h 3.72936 l 2.33084,-0.416043 2.79702,1.248129 3.72936,-0.832086 2.33084,-1.248129"
     id="path20"
     inkscape:connector-curvature="0"
     style="stroke-width:1.43919492" />
  <path
     d="m 202.78373,69.479182 -5.59404,2.912301 -2.79701,2.912301 -6.06021,1.664172 -5.12786,0.832086 -0.93234,-3.328344 -2.79702,-2.080215 -1.86467,-0.832086 -1.86468,-0.416043 -2.33085,2.080215 -0.93234,1.248129 -3.72935,-0.832086 -3.72936,1.664172 -4.66169,-0.416043 h -3.26319 l -3.26319,0.832086 -4.19552,2.080215 -1.86468,-0.416043 -0.93234,-1.664172 -2.79702,-0.416043 -6.0602,1.248129 -3.26319,1.248129 -0.93234,1.664172 -3.72935,0.832086 -0.46617,1.664172 -2.33085,0.416043 -2.33085,-0.832086 -1.3985,-2.080215 -1.86468,-1.664172 0.46617,-2.080215 1.39851,-0.416043 0.46616,-1.664172 -1.86467,-0.416043 -1.86468,0.416043 -2.79702,0.416043 h -1.86468 l -0.46617,-0.832086 v -0.832086 l -0.93233,-1.664172 0.93233,-1.248129 0.93234,-1.248129 v -1.664172 l -0.93234,-1.664172 -0.93233,-1.248129 -2.33085,0.416043 -0.46617,-1.248129 0.46617,-1.664172 0.46617,-1.664172 v -1.664172 l 0.46617,-3.328344 v -1.664172 l 0.46617,-1.248129 1.3985,-1.248129 5.12787,1.664172 1.86468,-1.248129 -2.33085,-2.080215 v -1.248129 l -0.93234,-1.248129 2.33085,-1.664172 3.26318,-0.416043 1.39851,0.832086 2.33085,2.080215 3.26319,-0.416043 2.79701,-0.416043 1.86468,-1.664172 1.39851,-2.496258 0.93234,0.832086 1.86468,2.080215 0.93234,2.080215 0.93234,0.832086 2.33084,1.664172 v 1.248129 l -1.39851,1.664172 v 1.248129 h 1.86468 l 1.86468,-0.416043 0.46617,0.832086 v 0.832086 l 0.93234,1.248129 h 4.19552 l 3.26319,-0.416043 5.12787,0.416043 h 3.26318 l 2.79702,-2.080215 4.19552,-0.832086 v 4.576473 l 4.19553,0.416043 v 4.16043 h 4.19552 l 0.93234,0.416043 1.39851,0.416043 2.79702,-1.248129 1.86468,0.416043 h 2.33084 l 2.79702,0.416043 1.86468,0.832086 v 1.664172 l 1.86468,0.416043 3.26318,0.416043 6.52638,-0.832086 1.39851,0.832086 -0.93234,0.416043 -1.39851,0.416043 -1.39851,0.416043 0.46617,0.832086"
     id="path22"
     inkscape:connector-curvature="0"
     style="stroke-width:1.43919492" />
  <path
     d="m 68.526915,94.025719 5.127865,-2.080215 2.330847,-2.496258 4.195526,-4.576473 0.932339,-2.080215 -0.46617,-2.496258 v -1.664172 l 0.46617,-1.664172 0.466169,-1.664172 2.330847,-0.832086 3.263187,0.416043 1.864678,1.664172 2.330847,2.912301 -0.932339,0.832086 -2.330847,0.832086 -2.330848,1.664172 -0.466169,3.328344 h 6.060203 l 9.78956,-1.248129 0.46617,-2.912301 v -4.16043 l 1.39851,-2.496258 2.33085,-1.248129 h 2.79701 l 1.86468,0.832086 2.33085,-2.080215 1.86468,-2.080215 0.93233,1.664172 v 0.832086 l 0.46617,0.832086 h 1.86468 l 2.79702,-0.416043 1.86468,-0.416043 1.86467,0.416043 -0.46616,1.664172 -1.39851,0.416043 -0.46617,2.080215 1.86468,1.664172 1.3985,2.080215 2.33085,0.832086 0.46617,2.080215 1.39851,0.832086 0.46617,1.248129 -0.93234,1.248129 -1.86468,0.832086 -0.46617,2.080215 0.46617,2.496258 v 1.664172 h 1.86468 3.26319 5.59403 l 3.72936,0.416043 3.26318,1.248129 3.26319,-0.416043 h 3.72935 l 2.33085,-0.832086 3.26319,-0.832086 3.72935,0.832086 1.39851,1.664172 1.86468,1.248129 2.33085,0.416043 v 2.080218 l -2.79702,0.41604 -0.93234,1.66417 -2.33084,0.83209 v 2.49626 l -1.39851,1.24813 0.93234,1.66417 1.86467,1.66417 2.33085,0.41604 2.33085,1.66417 -3.26319,4.16043 -2.79701,2.49626 -0.46617,3.32835 -0.46617,2.9123 0.93234,2.9123 h -2.33085 l -3.26319,-0.41604 -0.93234,4.16043 -1.86468,1.24812 -2.33084,-1.24812 -2.33085,-1.66418 -2.79702,-2.49625 -5.59403,-2.08022 -9.78956,-0.41604 -4.19553,-9.56899 -3.72935,-1.24813 -1.86468,-2.49626 -3.26319,-2.08021 -2.33084,-2.49626 -1.39851,-2.49626 -2.33085,0.41604 -1.39851,2.49626 -2.33085,-0.41604 -2.79701,-1.66417 -2.33085,4.16043 -3.263187,1.66417 -4.195525,0.83208 -2.797017,0.41605 -2.797017,-0.83209 -1.398509,1.24813 -1.864678,0.83209 -3.729355,1.66417 -4.195526,-0.83209 -2.330847,-1.24813 -2.797017,-0.41604 -5.127865,-0.41604 1.398509,-10.81712 1.398508,-5.824603"
     id="path24"
     inkscape:connector-curvature="0"
     style="stroke-width:1.43919492" />
  <path
     d="m 183.20461,77.800042 5.12786,-0.832086 6.06021,-1.664172 2.79701,-2.912301 5.59404,-2.912301 h 2.33085 2.79701 l 1.86468,1.664172 1.39851,0.416043 5.12786,0.416043 2.33085,1.248129 3.72936,0.832086 3.26318,1.248129 3.26319,2.912301 2.33085,0.832086 2.33085,0.832086 h 3.26318 l 5.12787,-0.416043 3.72935,-1.248129 3.26319,1.664172 -0.93234,2.912301 -2.79702,2.912301 -1.39851,3.744387 -0.46617,4.16043 5.12787,1.248129 0.46617,9.152945 v 1.66417 l 0.46617,1.66418 -0.46617,2.08021 -2.33085,2.08022 -3.26319,0.41604 -0.46616,7.07273 2.79701,0.41604 2.79702,1.24813 0.46617,3.32835 0.93234,0.83208 1.39851,1.24813 v 2.08022 l -0.46617,2.08021 -0.93234,2.9123 -5.12787,-0.41604 -3.72935,-0.41604 -1.86468,-0.83209 -0.46617,-1.24813 1.86468,-1.24813 h 1.86468 l 2.33084,-0.83208 0.93234,-0.41605 -0.93234,-1.24813 -0.93234,-0.83208 h -2.33084 l -2.33085,1.66417 -0.46617,1.66417 -1.86468,0.41604 -0.46617,-1.24812 -3.26318,-3.32835 -1.39851,-2.9123 v -1.66417 l 2.79701,-2.49626 -2.79701,-1.66417 -7.92488,5.8246 -4.19553,3.32834 h -0.93234 l -0.46617,-0.83208 -0.93234,-7.48878 -4.19552,2.91231 -1.39851,4.16043 -1.39851,3.74438 -3.72936,3.32835 -2.79701,5.40856 v 3.32834 l 1.86468,1.24813 -0.46617,5.8246 -2.33085,4.57647 -1.86468,1.24813 -0.46617,1.66417 -0.93234,2.49626 -1.39851,0.41605 -2.33084,0.83208 v 2.49626 l -3.72936,-0.83209 -4.19552,-1.66417 -6.06021,-1.24813 -12.12041,-2.08021 -8.85722,-2.9123 -1.86467,-2.9123 v -2.49626 l -9.78956,-4.16043 -2.79702,-1.66417 -1.86468,-4.16043 -7.92488,-4.57648 -6.0602,-4.16043 -1.39851,-2.08021 9.78956,0.41604 5.59403,2.08022 2.79702,2.49625 2.33085,1.66418 2.33084,1.24812 1.86468,-1.24812 0.93234,-4.16043 3.26319,0.41604 h 2.33085 l -0.93234,-2.9123 0.46617,-2.9123 0.46617,-3.32835 2.79701,-2.49626 3.26319,-4.16043 -2.33085,-1.66417 -2.33085,-0.41604 -1.86467,-1.66417 -0.93234,-1.66417 1.39851,-1.24813 v -2.49626 l 2.33084,-0.83209 0.93234,-1.66417 2.79702,-0.41604 v -2.080218 l -2.33085,-0.416043 -1.86468,-1.248129 -1.39851,-1.664172 -3.72935,-0.832086 -3.26319,0.832086 -2.33085,0.832086 h -3.72935 l -3.26319,0.416043 -3.26318,-1.248129 -3.72936,-0.416043 h -5.59403 -3.26319 -1.86468 v -1.664172 l -0.46617,-2.496258 0.46617,-2.080215 1.86468,-0.832086 0.93234,-1.248129 -0.46617,-1.248129 -1.39851,-0.832086 -0.46617,-2.080215 2.33085,-0.416043 0.46617,-1.664172 3.72935,-0.832086 0.93234,-1.664172 3.26319,-1.248129 6.0602,-1.248129 2.79702,0.416043 0.93234,1.664172 1.86468,0.416043 4.19552,-2.080215 3.26319,-0.832086 h 3.26319 l 4.66169,0.416043 3.72936,-1.664172 3.72935,0.832086 0.93234,-1.248129 2.33085,-2.080215 1.86468,0.416043 1.86467,0.832086 2.79702,2.080215"
     id="path26"
     inkscape:connector-curvature="0"
     style="stroke-width:1.43919492" />
  <path
     style="fill:none;stroke:#000000;stroke-width:1px;stroke-linecap:butt;stroke-linejoin:miter;stroke-opacity:1"
     d="m 139.85085,44.932645 2.33084,-2.080215 2.33085,-1.248129 0.93234,-1.248129 2.33085,-0.832087 2.79702,-2.496258 h 1.86467 l -0.46617,3.744388 1.39851,0.416043 1.86468,-1.664173 0.46617,-3.328344 2.33085,-0.416043 1.86468,2.496258 5.12786,1.664173 3.26319,-1.24813 3.26318,1.664173 h 2.79702 l 4.19553,0.416043 -0.93234,2.912301 -2.33085,1.664172 0.46617,0.832086 1.86468,0.416043 0.46617,0.416043 v 1.248129 l -0.93234,0.832086 -0.46617,1.248129 -1.86468,1.248129 -1.39851,1.664172 h -2.79702 l -4.19552,0.832086 -2.79702,2.080215 h -3.26318 l -5.12787,-0.416043 -3.26319,0.416043 h -4.19552 l -0.93234,-1.248129 v -0.832086 l -0.46617,-0.832086 -1.86468,0.416043 h -1.86468 v -1.248129 l 1.39851,-1.664172 v -1.248129 l -3.26318,-2.496258 z"
     id="path19"
     inkscape:connector-curvature="0" />
  <path
     style="fill:#000000;fill-opacity:1;stroke:#ffffff;stroke-width:0.07490538;stroke-opacity:1"
     d="m 147.72904,55.212985 c -0.27328,-0.384305 -0.31835,-0.501187 -0.31835,-0.825495 0,-0.299164 -0.0617,-0.4901 -0.29625,-0.917335 -0.50322,-0.9165 -0.34284,-0.855302 -1.53539,-0.585892 -0.73605,0.166282 -1.22564,0.233619 -1.69859,0.233619 h -0.66447 v -0.265305 c 0,-0.224634 0.10321,-0.388263 0.67328,-1.067401 l 0.67329,-0.802097 8.6e-4,-0.876753 8.6e-4,-0.876753 -1.67806,-1.284491 -1.67807,-1.28449 -0.30493,-0.692546 c -0.1677,-0.380901 -0.32414,-0.742643 -0.34764,-0.803872 -0.029,-0.07565 0.27826,-0.39473 0.95882,-0.995613 0.8798,-0.776797 1.14197,-0.959509 2.1568,-1.50313 1.1419,-0.61169 1.16093,-0.626073 1.64632,-1.244164 l 0.49106,-0.62532 1.1194,-0.397168 1.1194,-0.397168 1.38341,-1.232024 1.38341,-1.232024 h 0.50795 c 0.27938,0 0.50772,0.02528 0.50743,0.05618 -3e-4,0.0309 -0.0991,0.83145 -0.21952,1.779003 -0.12046,0.947553 -0.19606,1.745133 -0.16802,1.772399 0.0281,0.02727 0.506,0.182315 1.06211,0.344552 l 1.01112,0.294977 1.01133,-0.900625 c 0.55623,-0.495344 1.05458,-0.939235 1.10746,-0.986426 0.0562,-0.0502 0.18792,-0.733381 0.31733,-1.646377 0.12166,-0.858318 0.23008,-1.569295 0.24094,-1.57995 0.0109,-0.01065 0.37753,-0.08433 0.81483,-0.163731 l 0.7951,-0.144359 0.87388,1.182674 0.87388,1.182674 2.00139,0.647365 c 1.10076,0.356051 2.33846,0.755924 2.75044,0.888608 l 0.74906,0.241244 1.60908,-0.614965 1.60908,-0.614965 1.58074,0.816233 1.58075,0.816233 1.52921,-0.0012 c 1.01603,-7.92e-4 2.08224,0.05306 3.17713,0.160459 0.90636,0.08891 1.65693,0.168678 1.66794,0.177267 0.011,0.0086 -0.13161,0.486548 -0.31695,1.062131 l -0.33698,1.046514 -1.23687,0.881159 c -0.68027,0.484638 -1.2531,0.907441 -1.27296,0.939564 -0.0198,0.03212 0.13991,0.378939 0.35502,0.770704 l 0.39111,0.712302 0.97409,0.208121 c 0.53575,0.114467 1.01622,0.240801 1.06772,0.280743 0.054,0.0419 0.0936,0.240791 0.0936,0.470125 0,0.386313 -0.0121,0.40908 -0.4307,0.808643 -0.35336,0.337303 -0.46845,0.512858 -0.64085,0.977557 l -0.21013,0.566419 -0.90167,0.616004 c -0.75585,0.516388 -1.00645,0.740728 -1.54964,1.387266 l -0.64799,0.771262 h -1.34408 c -1.3319,0 -1.36345,0.0038 -3.47938,0.423493 l -2.13529,0.423493 -1.38806,1.037162 -1.38806,1.037162 h -1.31184 c -0.79911,0 -2.39544,-0.08857 -4.08425,-0.226597 l -2.77241,-0.226596 -1.75823,0.226596 c -1.54537,0.199165 -1.98065,0.226356 -3.59546,0.224605 l -1.83723,-0.002 z"
     id="path23"
     inkscape:connector-curvature="0" />
</svg>
