<?xml version="1.0" encoding="UTF-8" standalone="no"?>
<svg
   xmlns:dc="http://purl.org/dc/elements/1.1/"
   xmlns:cc="http://creativecommons.org/ns#"
   xmlns:rdf="http://www.w3.org/1999/02/22-rdf-syntax-ns#"
   xmlns:svg="http://www.w3.org/2000/svg"
   xmlns="http://www.w3.org/2000/svg"
   xmlns:sodipodi="http://sodipodi.sourceforge.net/DTD/sodipodi-0.dtd"
   xmlns:inkscape="http://www.inkscape.org/namespaces/inkscape"
   version="1.1"
   id="svg40"
   sodipodi:docname="Акмолинская.svg"
   width="543.23608"
   height="378.25424"
   inkscape:version="0.92.3 (unknown)">
  <metadata
     id="metadata46">
    <rdf:RDF>
      <cc:Work
         rdf:about="">
        <dc:format>image/svg+xml</dc:format>
        <dc:type
           rdf:resource="http://purl.org/dc/dcmitype/StillImage" />
        <dc:title></dc:title>
      </cc:Work>
    </rdf:RDF>
  </metadata>
  <defs
     id="defs44" />
  <sodipodi:namedview
     pagecolor="#ffffff"
     bordercolor="#666666"
     borderopacity="1"
     objecttolerance="10"
     gridtolerance="10"
     guidetolerance="10"
     inkscape:pageopacity="0"
     inkscape:pageshadow="2"
     inkscape:window-width="1280"
     inkscape:window-height="960"
     id="namedview42"
     showgrid="false"
     fit-margin-top="0"
     fit-margin-left="0"
     fit-margin-right="0"
     fit-margin-bottom="0"
     inkscape:zoom="1.18"
     inkscape:cx="370.5571"
     inkscape:cy="100.33953"
     inkscape:window-x="640"
     inkscape:window-y="92"
     inkscape:window-maximized="0"
     inkscape:current-layer="svg40" />
  <path
     d="m 528.0214,121.37602 -4.7218,-0.57864 v -4.05053 l -23.08433,-1.73595 -3.14787,-4.62918 -3.14787,-0.57865 -1.57393,-3.47189 -3.67251,-1.1573 -5.77108,0.57865 -2.09857,-2.31459 -4.7218,-0.57865 -4.19715,-1.15729 -5.77109,2.31458 -3.6725,1.73595 -4.72181,0.57865 -1.04928,4.62918 -0.52465,4.05054 -2.62322,4.62919 -0.52464,2.89324 -1.57393,0.57864 -1.04929,4.62918 -3.14787,6.36514 4.19716,1.73593 0.52464,4.05054 -1.04929,1.1573 -0.52464,10.41566 2.62322,2.3146 -2.09858,1.73594 v 3.47189 l 3.6725,3.47189 v 1.73595 h -8.39429 v 2.31458 l 2.09858,3.4719 -2.09858,2.89324 -3.67251,2.31458 -3.67251,2.89324 4.19715,5.78648 3.14787,6.36513 2.09858,5.78648 -15.21469,2.89324 v -5.20783 l 1.04929,-2.89324 0.52464,-4.05053 -0.52464,-1.73595 -11.01752,5.20783 -5.24645,1.1573 -3.6725,0.57865 -4.7218,7.52243 v 5.20783 l -4.19716,7.52243 5.24645,6.36512 1.04929,4.62919 v 8.10106 4.05054 h 6.82038 2.62321 l 1.04929,2.89324 1.57392,1.73595 3.14787,0.57864 3.67251,0.57865 -0.52464,8.67973 3.14786,0.57864 4.19715,4.62919 3.14787,4.05053 4.19715,2.89325 3.14787,4.05053 1.57394,4.05054 0.52464,3.47189 2.09857,1.73594 h 9.44359 l 1.57393,-1.15729 h 3.14787 l 0.52465,1.73593 0.52463,0.57865 h 2.09859 v 2.31459 l -1.57393,2.89325 4.19715,-1.1573 h 3.14787 l 2.09857,2.31459 4.19715,-2.31459 4.7218,-1.73595 4.72179,-1.73593 5.77108,-3.47189 2.09859,-3.47189 3.6725,-2.31459 -6.29573,-5.78648 -6.82037,5.20783 -2.09858,-5.20783 -2.09857,-4.05054 h -3.67251 l -2.09857,-5.78648 2.09857,-1.73595 1.04929,-2.89324 3.14785,3.47189 3.14787,0.57865 2.09858,-3.47189 3.14786,0.57865 1.04929,3.47189 2.62323,-4.62919 9.96823,3.47189 5.24644,-8.67972 3.6725,-2.89324 0.52466,-5.78649 9.44359,-5.78647 h 8.39431 l 3.14786,-2.3146 5.24644,0.57865 -1.57394,-4.05052 -5.77108,-1.73595 -2.62322,-1.15729 h -3.6725 l -1.57394,-5.78649 -5.77108,2.31459 h -4.19716 l -2.09857,-4.62918 v -9.25837 l 3.6725,-6.36513 4.19715,-4.62919 5.24644,-2.31459"
     id="path6"
     inkscape:connector-curvature="0"
     style="stroke-width:1.80060399" />
  <path
     d="m 462.4409,105.75253 -8.91896,-26.617815 -9.44358,1.15729 -17.31327,0.57865 -4.72179,3.47189 -16.78862,-1.1573 -10.49287,-0.57864 -5.24644,-2.3146 -4.7218,-4.62918 0.52464,-4.62918 7.34501,-3.47189 -0.52463,-5.78648 3.14786,-8.10107 -8.91894,-10.99432 -2.62323,-4.62918 -0.52464,-3.47189 h -5.24644 l -2.62323,3.47189 -6.29573,3.47189 -2.09857,2.31459 h -6.82037 v -2.89324 l -7.86966,0.57865 1.04929,-3.47189 1.57393,-4.62919 -3.6725,-1.73594 h -5.77109 l -0.52465,5.20783 h -2.09857 v 8.67972 l -1.57394,0.57865 -0.52464,9.25837 2.62321,4.62918 h -3.14786 l -3.6725,-3.47189 -3.14787,1.1573 -0.52464,5.78648 h 8.91894 l -1.04928,5.20783 -7.34502,0.57865 0.52464,7.52243 -4.19715,0.57865 v 1.73594 h 1.04928 l -0.52463,1.73594 h -3.67251 v 1.73595 l 2.62322,1.73594 v 3.47189 h -9.4436 v 5.20783 l -1.57392,1.73595 v 2.89324 l 0.52464,4.050545 h 6.82038 v 7.52242 l -3.67252,-1.73594 -4.19715,1.73594 0.52465,3.47189 2.09858,5.20783 -2.62323,1.73595 -0.52464,2.31459 2.09857,4.05052 2.09858,2.89324 2.09857,-0.57864 2.62323,1.73595 v 4.05054 h 4.72178 l 1.57394,4.62917 6.29574,-1.73593 2.62321,-0.57866 3.67251,3.47189 2.09858,4.05054 1.04929,1.1573 2.62321,-2.89324 3.67251,-1.73595 3.14787,-3.47188 2.09857,-3.4719 h 3.14786 v -10.9943 l 3.14787,-5.20783 2.62322,-4.62919 4.19715,-2.31459 4.7218,-2.89324 26.2322,20.83132 5.77109,-5.20783 9.96824,6.36513 7.86966,-1.1573 -0.52465,-2.3146 h 5.77109 v -2.31459 h 3.6725 l 2.09859,5.78649 1.57393,4.62919 5.24644,4.05053 2.09857,-4.05053 3.14787,-6.36514 1.04929,-4.62918 1.57393,-0.57864 0.52464,-2.89324 2.62322,-4.62919 1.57393,-8.67972"
     id="path8"
     inkscape:connector-curvature="0"
     style="stroke-width:1.80060399" />
  <path
     d="m 479.22951,281.66154 v 5.78648 l -4.72181,2.31459 -5.24643,3.47189 h -4.7218 l -7.86966,-2.3146 -7.86967,15.04486 -9.44359,1.1573 -5.77108,6.36512 v 2.89324 l 3.6725,2.89325 v 4.05053 l -2.62322,1.1573 -2.62322,-0.57865 -5.24644,-1.73594 -2.09858,2.89324 -3.14786,2.89323 -0.52464,5.78648 1.04929,2.31459 h -4.72179 l -0.52465,4.62919 -3.14787,-3.47189 -3.14786,-2.31459 h -12.06681 v 4.05053 h -5.24644 v -1.15729 l 3.6725,-4.05054 0.52465,-4.05053 0.52464,-3.47189 1.57393,-2.89324 -0.52464,-3.47188 -2.09858,-1.15731 1.57394,-3.47188 h 1.57392 l 1.04929,-1.73595 -1.04929,-1.73594 -2.62321,-1.73594 -1.57394,-2.3146 v -2.89324 l 5.24644,-3.47189 v -4.05053 l -1.57393,-1.1573 v -2.3146 l -3.67251,0.57866 0.52465,-8.10108 -4.19715,-4.05053 -2.62322,1.15729 -1.57393,-8.10107 2.09857,-2.31459 1.04929,-3.47188 2.62321,-3.4719 2.62323,-0.57864 3.14786,-2.3146 v -1.73594 h -2.09857 l -1.57394,-2.3146 v -2.31458 l 2.09858,-1.1573 v -6.36513 h 5.77108 l 5.24645,-1.73595 4.72179,-2.89324 4.19715,-3.47189 0.52466,-5.78648 h 2.62321 l 1.04929,2.89324 1.57392,1.73595 3.14787,0.57864 3.67251,0.57865 -0.52464,8.67973 3.14786,0.57864 4.19715,4.62919 3.14787,4.05053 4.19715,2.89325 3.14787,4.05053 1.57394,4.05054 0.52464,3.47189 2.09857,1.73594 h 9.44359 l 1.57393,-1.15729 h 3.14787 l 0.52465,1.73593 0.52463,0.57865 h 2.09859 v 2.31459 l -1.57393,2.89325 4.19715,-1.1573 h 3.14787 l 2.09857,2.31459"
     id="path10"
     inkscape:connector-curvature="0"
     style="stroke-width:1.80060399" />
  <path
     d="m 405.25468,212.22378 -5.77108,1.73593 h -4.72179 l -7.86967,4.62919 -3.14786,0.57866 v 16.20213 l -3.6725,1.73595 -3.67251,1.15729 v 2.89324 l 4.72179,8.67973 -8.39431,3.47188 -2.62322,-9.25837 -2.09857,-5.20783 -3.67251,-4.62918 -2.09857,2.31458 -0.52466,-3.47188 1.04929,-1.15729 -0.52463,-4.62919 -3.14787,4.05053 v 2.31459 l -2.09857,1.15731 h -6.29574 l -0.52464,-8.67973 -9.96824,0.57866 -3.6725,3.47188 -1.57394,2.31459 h -6.82037 l -1.57393,1.15729 -11.54217,-4.62918 1.57393,13.30891 2.09858,5.78648 v 6.36513 l -5.24645,15.04486 11.01754,6.94376 v 10.41567 l 4.19714,4.62918 4.7218,1.1573 v 6.36513 l 5.77108,10.41567 -5.77108,8.67972 2.09858,2.89324 5.77108,13.3089 h 7.34502 l 2.09857,-2.89325 3.14787,-1.15729 v -4.62918 l 5.77108,-5.78647 3.67251,-0.57865 1.04929,-3.47189 6.29573,-0.57865 11.54218,-12.73026 2.09857,0.57865 4.72179,-1.1573 2.09858,4.05054 4.72179,0.57864 v -1.73594 l 5.24644,-3.47189 v -4.05053 l -1.57393,-1.1573 v -2.3146 l -3.67251,0.57866 0.52465,-8.10108 -4.19715,-4.05053 -2.62322,1.15729 -1.57393,-8.10107 2.09857,-2.31459 1.04929,-3.47188 2.62321,-3.4719 2.62323,-0.57864 3.14786,-2.3146 v -1.73594 h -2.09857 l -1.57394,-2.3146 v -2.31458 l 2.09858,-1.1573 v -6.36513 h 5.77108 l 5.24645,-1.73595 4.72179,-2.89324 4.19715,-3.47189 0.52466,-5.78648 h -6.82038 v -12.1516 l -1.04929,-4.62919"
     id="path12"
     inkscape:connector-curvature="0"
     style="stroke-width:1.80060399" />
  <path
     d="m 303.99838,276.4537 -3.6725,-1.73593 -1.57394,-2.31459 v -2.3146 l -2.09857,-2.31459 -4.7218,5.20783 -6.29573,-0.57864 0.52465,-9.83702 -10.49289,-3.4719 -1.57393,9.83702 -32.00329,-2.31458 -0.52464,-15.62351 -6.29573,-15.04485 -7.34502,7.52242 -5.77108,3.4719 -8.39431,8.10107 v 2.31459 h -2.09857 l -3.67252,4.05054 1.0493,15.6235 h 13.64074 l -1.04928,19.67403 -2.09859,3.47189 0.52466,25.46051 5.77108,-4.62918 h 9.44359 l 11.54217,-4.05053 v -2.89325 l -1.04928,-4.05053 -0.52466,-2.89324 h 6.29573 l 5.77109,1.15729 7.34502,0.57865 1.04929,-4.62918 -1.57394,-3.4719 4.72179,1.1573 2.62323,-1.73594 2.09858,-3.47189 12.59146,1.15729 5.24644,2.3146 h 6.29572 l 4.19716,-1.73595 1.57393,-3.47189 1.57393,-5.78647 v -6.94378"
     id="path14"
     inkscape:connector-curvature="0"
     style="stroke-width:1.80060399" />
  <path
     d="m 219.53068,300.17828 -15.21467,0.57864 -3.14787,4.05054 -7.86965,3.47189 v 3.47189 l -6.82038,5.20784 -4.72179,2.31459 -3.14787,-4.05054 h -10.49288 l -4.72179,-6.36513 -3.14787,-7.52243 0.52464,-13.30891 h 4.72181 l 12.59145,-6.36512 0.52464,-6.94377 -3.67251,-6.36513 -2.09857,-5.78648 -2.09857,-4.05054 v -7.52243 l 3.6725,-6.94378 -8.39431,-20.83132 v -6.36513 l 3.67252,-5.20783 2.09857,-6.36513 0.52464,-5.78648 5.77109,-4.05054 -1.0493,-11.57297 -1.57392,-9.25835 -2.62322,-5.78649 9.44359,-2.3146 v -2.89324 l 3.14786,-0.57864 2.09858,-2.31459 -0.52465,-2.89324 -1.04928,-3.47189 4.19715,0.57865 12.06681,2.89324 v 6.36513 l 1.04929,3.47189 6.82037,-2.3146 h 2.62323 l 3.6725,3.47189 h 6.82038 l 4.19716,10.99431 5.24644,-0.57865 5.24642,-4.05054 7.34502,-4.62918 3.67251,6.94378 -2.62322,2.89324 0.52465,5.78647 3.6725,1.73595 -3.6725,9.83702 -4.19715,8.10107 -6.82038,0.57865 -4.72179,8.67973 -1.04929,10.9943 5.24644,9.83702 -7.34502,7.52242 -5.77108,3.4719 -8.39431,8.10107 v 2.31459 h -2.09857 l -3.67252,4.05054 1.0493,15.6235 h 13.64074 l -1.04928,19.67403"
     id="path16"
     inkscape:connector-curvature="0"
     style="stroke-width:1.80060399" />
  <path
     d="m 160.77055,288.02666 h -1.57393 l -2.09857,-2.31459 -10.49289,-5.20783 -6.82036,-2.89324 -3.14787,-9.83701 h -12.06682 l -0.52464,-6.36513 -3.67251,-6.36513 h -5.24644 l -3.67251,-5.78648 -1.04929,-6.94378 v -9.25837 l -12.591459,-6.94378 -5.24644,-15.62349 3.67251,-5.78648 -2.09857,-4.62919 -15.73933,7.52243 1.57394,4.62919 2.09857,3.47188 0.52465,4.62919 -0.52465,2.89324 -3.67251,6.94377 -5.24644,4.05054 h -9.96823 l -5.24644,-7.52242 -5.24645,2.89323 0.52465,2.3146 -3.14787,4.05053 -2.09857,5.20783 -3.14787,4.05054 -2.09857,-1.1573 h -8.91895 v -3.47189 l -4.7218,-3.47188 -6.82037,9.25836 2.09857,4.62919 2.09858,2.89324 -2.09858,3.47189 10.49289,13.30891 v 1.73595 l -1.57393,2.31459 -0.52465,4.62918 -0.52464,13.88755 2.62322,2.89324 h 7.86966 l 3.67251,-2.3146 0.52464,-10.99431 4.7218,2.89324 2.09857,-1.15729 5.24644,5.20783 2.62322,12.15161 3.67251,-0.57865 3.14787,-3.47189 1.57393,1.1573 5.77108,12.73026 6.82038,-0.57865 9.96823,6.94378 4.19716,-0.57865 1.57393,1.73595 2.623219,-1.1573 8.39431,-2.89324 h 6.82037 l 3.67251,4.62919 v 5.78647 l -4.19716,5.78647 6.29573,12.73027 22.03505,-10.41567 16.26397,-1.15729 11.01752,-6.94378 v -5.78647 l -3.14786,-0.57865 v -4.05054 l -4.72179,-6.36513 -3.14787,-7.52243"
     id="path18"
     inkscape:connector-curvature="0"
     style="stroke-width:1.80060399" />
  <path
     d="m 29.084891,237.10564 -2.62322,-2.89324 4.7218,-10.41567 v -6.36512 l -2.62322,-6.36513 -7.86966,-2.3146 -1.04929,-9.83702 9.44359,-0.57864 13.64075,-9.25837 2.62322,-7.52243 2.09857,-6.94376 1.04929,-10.99433 5.77109,-6.36512 2.62322,-4.62919 v -19.67404 l 3.14786,-1.73594 9.96824,10.41567 18.36254,-1.73595 1.04929,8.67972 15.739319,0.57866 8.39431,1.73594 h 7.86965 l -4.19715,16.7808 v 4.05054 l 3.14787,2.31457 0.52464,4.62919 -7.86966,8.10108 -5.77108,3.47188 2.09858,6.94378 -4.19716,4.62919 0.52465,2.31459 5.24644,3.47189 v 15.04485 l 4.19715,2.3146 -4.7218,8.10106 -12.591459,-6.94378 -5.24644,-15.62349 3.67251,-5.78648 -2.09857,-4.62919 -15.73933,7.52243 1.57394,4.62919 2.09857,3.47188 0.52465,4.62919 -0.52465,2.89324 -3.67251,6.94377 -5.24644,4.05054 h -9.96823 l -5.24644,-7.52242 -5.24645,2.89323 0.52465,2.3146 -3.14787,4.05053 -2.09857,5.20783 -3.14787,4.05054 -2.09857,-1.1573 h -8.91895 v -3.47189"
     id="path20"
     inkscape:connector-curvature="0"
     style="stroke-width:1.80060399" />
  <path
     d="m 133.48906,133.52763 h 14.69003 l 1.57394,4.05054 4.19715,2.31459 4.19716,1.1573 3.6725,3.47189 -2.62322,6.36513 -1.57394,5.78648 -0.52463,7.52243 13.64075,2.31458 2.09857,2.3146 2.62322,5.78649 1.57392,9.25835 1.0493,11.57297 -5.77109,4.05054 -0.52464,5.78648 -2.09857,6.36513 -3.67252,5.20783 v 6.36513 l 8.39431,20.83132 -3.6725,6.94378 v 7.52243 l 2.09857,4.05054 2.09857,5.78648 3.67251,6.36513 -0.52464,6.94377 -12.59145,6.36512 h -4.72181 -1.57393 l -2.09857,-2.31459 -10.49289,-5.20783 -6.82036,-2.89324 -3.14787,-9.83701 h -12.06682 l -0.52464,-6.36513 -3.67251,-6.36513 h -5.24644 l -3.67251,-5.78648 -1.04929,-6.94378 v -9.25837 l 4.7218,-8.10106 -4.19715,-2.3146 v -15.04485 l -5.24644,-3.47189 -0.52465,-2.31459 4.19716,-4.62919 -2.09858,-6.94378 5.77108,-3.47188 7.86966,-8.10108 -0.52464,-4.62919 -3.14787,-2.31457 v -4.05054 l 4.19715,-16.7808 11.54218,5.20783"
     id="path22"
     inkscape:connector-curvature="0"
     style="stroke-width:1.80060399" />
  <path
     d="m 161.81984,144.52195 4.19715,4.62919 3.14787,-4.62919 -1.04929,-1.73595 1.57394,-2.89324 2.62321,1.73595 2.09858,-2.31459 1.04929,-4.05054 2.09857,-3.47189 v -3.47189 l -3.14786,-0.57865 -0.52465,-6.36513 9.44359,0.57866 0.52466,-5.20783 3.14785,0.57865 1.0493,-1.73595 6.29573,-0.57865 1.57392,-4.62918 h 2.62323 l 1.04928,-5.20784 3.67251,-5.207835 3.14787,1.735955 2.62322,-4.050545 3.14786,-2.3146 1.57393,1.1573 3.67251,-2.31459 3.14786,-1.1573 1.57394,4.05054 1.04929,0.57865 v 2.893245 l 2.09858,1.1573 -2.09858,2.31458 9.4436,11.57297 3.14785,-2.31459 v -3.47189 h 4.19716 l 2.62322,2.89324 h 1.57393 v -2.31459 l 0.52464,-0.57865 1.57393,1.73595 h 2.62322 l 2.62322,2.31458 v 4.05054 l 3.14787,2.31459 -4.19716,5.20783 1.57394,0.57864 -1.04928,2.89324 3.6725,6.94378 2.09858,-1.73593 3.14786,-0.57866 1.57393,3.4719 1.0493,7.52242 -1.0493,5.78648 -1.04928,6.94378 -0.52465,6.36512 -1.04929,1.15731 -2.09857,-1.73595 -2.09858,1.1573 -6.29573,2.89324 -3.14787,3.47188 -7.34502,4.62918 -5.24642,4.05054 -5.24644,0.57865 -4.19716,-10.99431 h -6.82038 l -3.6725,-3.47189 h -2.62323 l -6.82037,2.3146 -1.04929,-3.47189 v -6.36513 l -12.06681,-2.89324 -4.19715,-0.57865 1.04928,3.47189 0.52465,2.89324 -2.09858,2.31459 -3.14786,0.57864 v 2.89324 l -9.44359,2.3146 -2.09857,-2.3146 -13.64075,-2.31458 0.52463,-7.52243 1.57394,-5.78648"
     id="path24"
     inkscape:connector-curvature="0"
     style="stroke-width:1.80060399" />
  <path
     d="m 213.7596,96.494155 1.0493,-4.62918 -2.62323,-2.89324 0.52465,-0.57866 h 2.09858 l -3.67252,-6.36512 0.52465,-5.20783 3.6725,-2.31459 6.29574,-6.36513 -1.0493,-2.3146 -3.14786,-2.31459 v -1.15729 l 2.62323,-0.57865 v -6.94378 l -4.19716,-1.73594 v -4.62919 h -6.29573 l -1.57394,-6.94377 -2.09857,-0.57865 v -2.89324 l 0.52465,-0.57865 -0.52465,-1.1573 -1.57393,-1.73594 1.04929,-1.1573 -0.52465,-1.73594 -2.09857,-3.47189 0.52464,-1.1573 1.04929,-0.57864 2.09858,0.57864 1.57392,-0.57864 1.57394,-1.73595 0.52464,-2.89324 1.57394,-0.57865 1.04929,0.57865 v -4.05054 h 7.34502 v -3.47188 l -2.62323,-2.3146 1.04929,-2.3145897 3.14787,-1.15729 1.57393,-1.1573 2.62322,0.57865 2.62322,2.3145897 1.57393,1.1573 h 5.77108 V 5.0677653 h 5.24644 l 0.52465,8.1010697 h 5.24644 l 3.14787,3.47189 v 2.31459 h 2.09857 v 4.62918 h 4.19716 l 0.52464,0.57865 2.09857,-1.73594 v -4.05054 l -3.14786,-2.31459 v -2.31459 l 1.57393,-1.73595 h 1.57393 l 0.52465,-2.3145897 h 2.62322 v -2.31459 h 2.09857 l -0.52463,-2.31459 17.31325,0.57865 1.04929,2.89324 2.09857,0.57864 V 20.112615 l 4.72179,1.15729 2.09858,-1.15729 2.62323,1.73594 3.14786,1.1573 v 5.78648 l -3.67251,3.47189 v 4.05053 l -3.14787,2.89324 v 3.47189 l 4.72181,1.1573 2.62321,1.73594 0.52464,1.73595 v 3.47188 l -3.67251,1.1573 -11.01752,1.73595 -1.04928,3.47188 -2.62323,3.47189 -3.14787,-2.89324 h -2.62321 v 3.47189 l -2.62322,2.31459 0.52464,4.62919 1.57393,4.05053 4.7218,-3.47189 3.14787,3.47189 2.09857,0.57865 h 2.09858 v 2.31459 l -3.14786,2.3146 -2.09859,4.62918 h -4.19715 l -5.24644,15.04485 h -4.19715 l -1.04929,2.31459 V 101.702 l 1.04929,2.31458 -2.62321,3.4719 -6.29574,-4.05054 -2.09857,2.31459 v 2.89324 l 1.04929,1.1573 v 4.62919 h 2.09858 l -0.52466,3.47188 1.57394,1.1573 v 1.15729 h -4.7218 l -3.14787,-2.31459 v -4.05054 l -2.62322,-2.31458 h -2.62322 l -1.57393,-1.73595 -0.52464,0.57865 v 2.31459 h -1.57393 l -2.62322,-2.89324 h -4.19716 v 3.47189 l -3.14785,2.31459 -9.4436,-11.57297 2.09858,-2.31458 -2.09858,-1.1573 v -2.893245 l -1.04929,-0.57865 -1.57394,-4.05054 -3.14786,1.1573"
     id="path26"
     inkscape:connector-curvature="0"
     style="stroke-width:1.80060399" />
  <path
     d="m 306.09696,38.629355 5.24644,8.10107 0.52465,5.20783 h 5.24644 l 2.62321,-2.31459 -0.52464,-7.52243 4.19715,-1.15729 4.19716,-1.1573 -0.52465,-8.67972 18.36255,0.57865 -0.52465,5.20783 h -2.09857 v 8.67972 l -1.57394,0.57865 -0.52464,9.25837 2.62321,4.62918 h -3.14786 l -3.6725,-3.47189 -3.14787,1.1573 -0.52464,5.78648 h 8.91894 l -1.04928,5.20783 -7.34502,0.57865 0.52464,7.52243 -4.19715,0.57865 v 1.73594 h 1.04928 l -0.52463,1.73594 h -3.67251 v 1.73595 l 2.62322,1.73594 v 3.47189 h -9.4436 v 5.20783 l -1.57392,1.73595 v 2.89324 l 0.52464,4.050545 h 6.82038 v 7.52242 l -3.67252,-1.73594 -4.19715,1.73594 h -2.62322 l -2.09857,-4.62918 h -1.57394 l 0.52465,6.94378 -4.19715,2.89324 -3.67252,1.15729 -8.3943,9.83701 5.24643,2.89324 -4.19714,4.05054 -1.57394,-0.57865 -2.09857,-4.62918 -1.04929,-2.89323 -14.69004,1.15728 -0.52463,4.62919 -3.67252,0.57864 -2.62322,3.4719 -4.19715,2.31458 -2.09858,-4.05053 -3.6725,2.31459 -0.52465,-1.1573 -3.14786,0.57866 -2.09858,1.73593 -3.6725,-6.94378 1.04928,-2.89324 -1.57394,-0.57864 4.19716,-5.20783 h 4.7218 v -1.15729 l -1.57394,-1.1573 0.52466,-3.47188 h -2.09858 v -4.62919 l -1.04929,-1.1573 v -2.89324 l 2.09857,-2.31459 6.29574,4.05054 2.62321,-3.4719 -1.04929,-2.31458 v -2.314605 l 1.04929,-2.31459 h 4.19715 l 5.24644,-15.04485 h 4.19715 l 2.09859,-4.62918 3.14786,-2.3146 v -2.31459 h -2.09858 l -2.09857,-0.57865 -3.14787,-3.47189 -4.7218,3.47189 -1.57393,-4.05053 -0.52464,-4.62919 2.62322,-2.31459 v -3.47189 h 2.62321 l 3.14787,2.89324 2.62323,-3.47189 1.04928,-3.47188 11.01752,-1.73595 3.67251,-1.1573 v -3.47188 l -0.52464,-1.73595 -2.62321,-1.73594 -4.72181,-1.1573 v -3.47189 l 1.04929,-1.15729"
     id="path28"
     inkscape:connector-curvature="0"
     style="stroke-width:1.80060399" />
  <path
     d="m 315.01591,229.00456 -12.06682,-4.62917 -3.6725,-2.31459 v -4.62919 l -4.72179,-5.78648 -2.62323,-1.73595 -3.67251,-4.05054 -0.52464,-3.47188 1.57394,-0.57865 1.57392,5.20783 h 3.67252 l 2.09857,-2.89324 h 3.14785 l 2.62323,-4.05054 v -5.78648 h 14.16539 l 5.24644,1.1573 v -2.89324 l 6.82037,-1.1573 0.52465,4.05054 h 6.29573 l 15.73933,5.78648 6.29572,-5.78648 h 4.19714 l 4.72181,1.73594 3.6725,2.89324 6.29574,-0.57864 2.09857,-0.57866 v -2.89324 h 7.34502 l 0.52465,-2.31459 18.36254,-1.15729 0.52463,4.62918 4.19716,2.3146 v 5.20783 l -4.19716,7.52243 -5.77108,1.73593 h -4.72179 l -7.86967,4.62919 -3.14786,0.57866 v 16.20213 l -3.6725,1.73595 -3.67251,1.15729 v 2.89324 l 4.72179,8.67973 -8.39431,3.47188 -2.62322,-9.25837 -2.09857,-5.20783 -3.67251,-4.62918 -2.09857,2.31458 -0.52466,-3.47188 1.04929,-1.15729 -0.52463,-4.62919 -3.14787,4.05053 v 2.31459 l -2.09857,1.15731 h -6.29574 l -0.52464,-8.67973 -9.96824,0.57866 -3.6725,3.47188 -1.57394,2.31459 h -6.82037 l -1.57393,1.15729"
     id="path30"
     inkscape:connector-curvature="0"
     style="stroke-width:1.80060399" />
  <path
     d="m 248.91075,177.50489 3.14787,-1.73595 h 7.86966 v 19.67404 l 3.14786,1.73594 -0.52463,1.73594 1.57392,2.3146 h 2.09858 v -4.05054 h 5.24644 v 2.89324 l 2.09858,2.3146 4.19715,-1.73595 2.09857,-1.73595 3.14787,-5.78648 h 2.62322 l 2.09858,-6.94378 13.11609,-12.15161 1.0493,4.62919 0.52464,15.6235 v 5.78648 l -2.62323,4.05054 h -3.14785 l -2.09857,2.89324 h -3.67252 l -1.57392,-5.20783 -1.57394,0.57865 0.52464,3.47188 3.67251,4.05054 2.62323,1.73595 4.72179,5.78648 v 4.62919 l 3.6725,2.31459 12.06682,4.62917 1.57393,13.30891 2.09858,5.78648 v 6.36513 l -5.24645,15.04486 -4.72179,-1.73595 0.52464,6.94378 -5.24644,1.73593 -3.6725,-1.73593 -1.57394,-2.31459 v -2.3146 l -2.09857,-2.31459 -4.7218,5.20783 -6.29573,-0.57864 0.52465,-9.83702 -10.49289,-3.4719 -1.57393,9.83702 -32.00329,-2.31458 -0.52464,-15.62351 -6.29573,-15.04485 -5.24644,-9.83702 1.04929,-10.9943 4.72179,-8.67973 6.82038,-0.57865 4.19715,-8.10107 3.6725,-9.83702 -3.6725,-1.73595 -0.52465,-5.78647"
     id="path32"
     inkscape:connector-curvature="0"
     style="stroke-width:1.80060399" />
  <path
     d="m 260.45293,134.68493 3.6725,-2.31459 2.09858,4.05053 4.19715,-2.31458 2.62322,-3.4719 3.67252,-0.57864 0.52463,-4.62919 14.69004,-1.15728 1.04929,2.89323 2.09857,4.62918 1.57394,0.57865 4.19714,-4.05054 -5.24643,-2.89324 8.3943,-9.83701 3.67252,-1.15729 4.19715,-2.89324 -0.52465,-6.94378 h 1.57394 l 2.09857,4.62918 h 2.62322 l 0.52465,3.47189 2.09858,5.20783 -2.62323,1.73595 -0.52464,2.31459 2.09857,4.05052 2.09858,2.89324 2.09857,-0.57864 2.62323,1.73595 v 4.05054 h 4.72178 l 1.57394,4.62917 6.29574,-1.73593 2.62321,-0.57866 3.67251,3.47189 2.09858,4.05054 1.04929,1.1573 1.04929,-1.73595 5.77108,8.10107 -11.54218,0.57866 1.57394,5.20783 2.09858,3.47189 -1.04929,1.73594 h -4.19716 l -1.57393,1.73595 h -1.04929 l -0.52463,-2.89325 -2.09858,-3.47188 v -6.94378 l -3.14787,-1.1573 -3.14786,4.05054 -7.34502,4.05054 -5.77108,2.31459 -1.57394,-4.05054 -5.77108,4.05054 -2.09857,4.05054 h -4.72181 l -3.14787,4.05053 v 4.05054 l 1.04929,1.73593 -13.11609,12.15161 -2.09858,6.94378 h -2.62322 l -3.14787,5.78648 -2.09857,1.73595 -4.19715,1.73595 -2.09858,-2.3146 v -2.89324 h -5.24644 v 4.05054 h -2.09858 l -1.57392,-2.3146 0.52463,-1.73594 -3.14786,-1.73594 v -19.67404 h -7.86966 l -3.14787,1.73595 -3.67251,-6.94378 3.14787,-3.47188 8.39431,-4.05054 2.09857,1.73595 1.04929,-1.15731 0.52465,-6.36512 2.09858,-12.73026 -1.0493,-7.52242"
     id="path34"
     inkscape:connector-curvature="0"
     style="stroke-width:1.80060399" />
  <path
     d="m 419.42008,129.4771 7.86966,-1.1573 -0.52465,-2.3146 h 5.77109 v -2.31459 h 3.6725 l 2.09859,5.78649 1.57393,4.62919 5.24644,4.05053 2.09857,-4.05053 4.19716,1.73593 0.52464,4.05054 -1.04929,1.1573 -0.52464,10.41566 2.62322,2.3146 -2.09858,1.73594 v 3.47189 l 3.6725,3.47189 v 1.73595 h -8.39429 v 2.31458 l 2.09858,3.4719 -2.09858,2.89324 -7.34502,5.20782 4.19715,5.78648 3.14787,6.36513 2.09858,5.78648 -15.21469,2.89324 v -5.20783 l 1.04929,-2.89324 0.52464,-4.05053 -0.52464,-1.73595 -11.01752,5.20783 -5.24645,1.1573 -3.6725,0.57865 -4.7218,7.52243 -4.19716,-2.3146 -0.52463,-4.62918 -18.36254,1.15729 -0.52465,2.31459 h -7.34502 v 2.89324 l -2.09857,0.57866 -6.29574,0.57864 -3.6725,-2.89324 -4.72181,-1.73594 h -4.19714 l -6.29572,5.78648 -15.73933,-5.78648 h -6.29573 l -0.52465,-4.05054 -6.82037,1.1573 v 2.89324 l -5.24644,-1.1573 h -14.16539 l -0.52464,-15.6235 -1.0493,-4.62919 -1.04929,-1.73593 v -4.05054 l 3.14787,-4.05053 h 4.72181 l 2.09857,-4.05054 5.77108,-4.05054 1.57394,4.05054 5.77108,-2.31459 7.34502,-4.05054 3.14786,-4.05054 3.14787,1.1573 v 6.94378 l 2.09858,3.47188 0.52463,2.89325 h 1.04929 l 1.57393,-1.73595 h 4.19716 l 1.04929,-1.73594 -2.09858,-3.47189 -1.57394,-5.20783 11.54218,-0.57866 -5.77108,-8.10107 1.57392,-1.15729 3.67251,-1.73595 3.14787,-3.47188 2.09857,-3.4719 h 3.14786 v -10.9943 l 3.14787,-5.20783 2.62322,-4.62919 4.19715,-2.31459 4.7218,-2.89324 26.2322,20.83132 5.77109,-5.20783"
     id="path36"
     inkscape:connector-curvature="0"
     style="stroke-width:1.80060399" />
  <path
     d="m 308.72018,267.77399 4.72179,1.73595 11.01754,6.94376 -0.2024,10.9648 4.18296,4.51357 4.7058,1.12841 v 6.20617 l 5.75156,10.15558 -5.75156,8.46295 2.09148,2.82098 5.75157,12.97651 -4.18297,4.51359 -0.52285,17.49013 -5.22871,-3.94939 -10.45735,6.77039 4.18295,7.33453 -4.70582,4.51358 -3.13724,0.56422 -5.22866,2.82099 -6.27442,4.51355 -5.75157,-0.56418 1.04575,-5.07778 -0.52288,-3.38517 1.04572,-3.9494 1.04575,-4.51358 h -3.66006 v -2.25676 l -1.56863,-2.25682 -4.70581,2.25682 -5.2287,-0.56422 -6.27441,1.69258 -6.27442,2.821 -5.75156,-1.12842 v -4.51353 l -0.52287,-2.82099 -1.5686,-2.25681 -2.61437,-0.56417 -1.5686,-1.69261 -0.52287,-5.64199 -1.04571,-1.69258 h -1.56863 v 5.64198 l -4.18295,-5.64198 -5.75156,3.38519 v 5.64199 l 0.52288,2.82098 -1.04573,2.25676 h -2.61435 l -1.5686,-2.82098 h -3.66008 l 1.04573,4.51358 -1.5686,3.38516 -4.18297,1.12842 h -8.36589 l -14.11746,-6.20618 2.09148,-2.82098 0.52289,-3.38519 1.56859,-7.33456 1.5686,-2.25678 -0.52288,-3.38517 1.04574,-11.84817 5.75157,-4.51356 h 9.41162 l 11.50312,-3.9494 v -2.82097 l -1.04572,-3.94939 -0.52288,-2.82098 h 6.27442 l 5.75155,1.1284 7.32018,0.56418 1.04572,-4.51359 -1.56861,-3.38516 4.70584,1.1284 2.61435,-1.6926 2.09146,-3.38516 12.54885,1.12836 5.22869,2.2568 h 6.27441 l 4.18297,-1.69257 1.5686,-3.38523 1.5686,-5.64195 v -6.77036 l -0.91258,-6.45124 5.24644,-1.73593"
     id="path38"
     inkscape:connector-curvature="0"
     style="stroke-width:1.77496779"
     sodipodi:nodetypes="cccccccccccccccccccccccccccccccccccccccccccccccccccccccccccccccccccccccccccccccccccc" />
  <ellipse
     style="fill:#000000;fill-opacity:1;stroke:#ffffff;stroke-opacity:1"
     id="path76"
     cx="63.507256"
     cy="20.627119"
     rx="18.855932"
     ry="18.432203" />
  <text
     xml:space="preserve"
     style="font-style:normal;font-weight:normal;font-size:14.56755352px;line-height:1.25;font-family:sans-serif;letter-spacing:0px;word-spacing:0px;fill:#000000;fill-opacity:1;stroke:none;stroke-width:0.36418885"
     x="26.721043"
     y="47.272572"
     id="text99-3-2"
     transform="scale(0.87634461,1.1411036)"><tspan
       sodipodi:role="line"
       id="tspan97-5-9"
       x="26.721043"
       y="47.272572"
       style="stroke-width:0.36418885">г. Кокшетау</tspan></text>
  <ellipse
     style="fill:#000000;fill-opacity:1;stroke:#ffffff;stroke-opacity:1"
     id="path76-5"
     cx="62.711864"
     cy="76.559326"
     rx="18.855932"
     ry="18.432203" />
  <text
     xml:space="preserve"
     style="font-style:normal;font-weight:normal;font-size:14.56755352px;line-height:1.25;font-family:sans-serif;letter-spacing:0px;word-spacing:0px;fill:#000000;fill-opacity:1;stroke:none;stroke-width:0.36418885"
     x="26.388548"
     y="98.365776"
     id="text99-3-2-3"
     transform="scale(0.87634461,1.1411036)"><tspan
       sodipodi:role="line"
       id="tspan97-5-9-5"
       x="26.388548"
       y="98.365776"
       style="stroke-width:0.36418885">г. Степногорск</tspan></text>
</svg>
