<?xml version="1.0" encoding="UTF-8" standalone="no"?>
<svg
   xmlns:dc="http://purl.org/dc/elements/1.1/"
   xmlns:cc="http://creativecommons.org/ns#"
   xmlns:rdf="http://www.w3.org/1999/02/22-rdf-syntax-ns#"
   xmlns:svg="http://www.w3.org/2000/svg"
   xmlns="http://www.w3.org/2000/svg"
   xmlns:sodipodi="http://sodipodi.sourceforge.net/DTD/sodipodi-0.dtd"
   xmlns:inkscape="http://www.inkscape.org/namespaces/inkscape"
   version="1.1"
   id="svg40"
   sodipodi:docname="Алматинская.svg"
   width="475.62198"
   height="333.8288"
   inkscape:version="0.92.3 (unknown)">
  <metadata
     id="metadata46">
    <rdf:RDF>
      <cc:Work
         rdf:about="">
        <dc:format>image/svg+xml</dc:format>
        <dc:type
           rdf:resource="http://purl.org/dc/dcmitype/StillImage" />
        <dc:title />
      </cc:Work>
    </rdf:RDF>
  </metadata>
  <defs
     id="defs44">
    <inkscape:path-effect
       effect="spiro"
       id="path-effect29"
       is_visible="true" />
  </defs>
  <sodipodi:namedview
     pagecolor="#ffffff"
     bordercolor="#666666"
     borderopacity="1"
     objecttolerance="10"
     gridtolerance="10"
     guidetolerance="10"
     inkscape:pageopacity="0"
     inkscape:pageshadow="2"
     inkscape:window-width="1855"
     inkscape:window-height="1056"
     id="namedview42"
     showgrid="false"
     fit-margin-top="0"
     fit-margin-left="0"
     fit-margin-right="0"
     fit-margin-bottom="0"
     inkscape:zoom="1.668772"
     inkscape:cx="210.23186"
     inkscape:cy="199.9717"
     inkscape:window-x="65"
     inkscape:window-y="24"
     inkscape:window-maximized="1"
     inkscape:current-layer="svg40" />
  <path
     d="m 344.20358,332.65059 -16.63968,-16.49507 -24.7218,-1.57096 -7.60671,-10.99671 -5.70503,-0.78548 -2.85252,-10.60397 -7.60671,2.35644 -12.3609,-2.35644 -9.03297,-2.74918 -8.08212,-4.32014 -25.19723,2.74918 -4.75419,-4.32014 h -38.50896 l -5.70504,-5.10562 -0.47542,-2.35643 6.65588,0.39274 2.37709,2.74917 h 7.13129 l 3.32794,-4.32013 23.77096,0.39274 5.22961,3.92739 h 9.98381 v -3.14191 h 7.60671 l -0.47542,-3.14192 h -8.08213 l -0.47542,-2.35644 -4.27877,-3.14192 3.80335,-1.9637 9.03297,4.32014 5.22961,-2.74918 0.47542,-3.14192 5.70503,-2.74918 7.60671,0.78548 h 6.18045 l 5.70503,-3.14191 5.22962,1.17821 9.50838,-5.89109 2.85252,8.64027 1.90168,5.8911 7.13129,3.9274 10.45922,-4.32014 7.13129,0.78548 3.80335,-3.53466 10.45923,-4.32014 2.85251,3.14192 23.77097,-1.17822 4.27877,-5.10561 3.32794,-1.57096 2.85251,2.35644 0.47542,3.14191 4.7542,-2.35643 -0.47542,11.38945 h -4.7542 l -6.65587,3.53466 -6.65587,2.35644 -1.90167,2.74917 1.90167,2.74918 6.18046,2.74918 v 2.74918 l -9.50839,4.32014 -3.80336,-1.17822 -2.37709,0.78548 -0.95084,9.03301 -2.85252,1.57096 -0.47542,3.14192 2.85252,3.14192 2.3771,2.74918 v 2.35643 l -1.90168,1.17822 v 7.46206 l 2.85252,0.78548 v 10.60397"
     id="path4"
     inkscape:connector-curvature="0"
     style="stroke-width:1.41211295" />
  <path
     d="m 286.20242,254.10264 -4.27877,-4.71288 -3.32794,-4.32014 2.3771,-1.57096 -0.95084,-8.24753 -1.42626,-3.9274 1.90168,-3.9274 3.80336,-3.14192 4.27877,-1.17821 2.85251,0.78548 15.21342,-7.06932 8.08213,3.53466 1.42626,2.35644 4.27877,0.78548 6.65587,5.10561 2.3771,-0.78548 1.90168,1.17822 0.47542,1.57096 7.13129,-1.17822 6.65587,1.57096 5.70503,-2.35644 4.75419,1.17822 3.80336,-3.53466 4.75419,9.8185 5.22961,12.17493 1.90168,5.10562 -4.7542,5.49836 -2.85251,-2.35644 -3.32794,1.57096 -4.27877,5.10561 -23.77097,1.17822 -2.85251,-3.14192 -10.45923,4.32014 -3.80335,3.53466 -7.13129,-0.78548 -10.45922,4.32014 -7.13129,-3.9274 -1.90168,-5.8911"
     id="path6"
     inkscape:connector-curvature="0"
     style="stroke-width:1.41211295" />
  <path
     d="m 227.72585,267.45579 -5.22961,1.9637 -9.50839,0.78548 h -6.65587 l -3.80336,-1.57096 v -4.32014 l -1.90167,-3.9274 -5.70503,-0.78547 -1.42626,-1.9637 h -5.22961 l -1.42626,-3.14192 -4.27878,-5.49836 1.42626,-4.32014 2.85252,-5.49835 4.27877,-1.57096 0.95084,-5.8911 3.32793,-5.10562 9.98381,1.17822 18.06593,0.39274 10.93465,-3.9274 8.55755,-1.17821 9.50838,2.74917 8.08213,0.78548 19.96761,0.78548 -1.90168,3.9274 1.42626,3.9274 0.95084,8.24753 -2.3771,1.57096 3.32794,4.32014 4.27877,4.71288 -9.50838,5.89109 -5.22962,-1.17821 -5.70503,3.14191 h -6.18045 l -7.60671,-0.78548 -5.70503,2.74918 -0.47542,3.14192 -5.22961,2.74918 -9.03297,-4.32014"
     id="path8"
     inkscape:connector-curvature="0"
     style="stroke-width:1.41211295" />
  <path
     d="m 142.15037,283.55812 -4.27877,-6.28383 -0.95084,-4.32014 0.95084,-3.53466 -0.95084,-5.10562 2.3771,-4.71287 4.75419,-3.9274 -8.08213,-10.60398 -1.42626,-4.32013 0.47542,-3.14192 4.7542,-1.57096 2.37709,3.9274 4.7542,5.10561 4.27877,3.14192 3.80335,-4.32014 4.7542,1.9637 -0.95084,3.53466 9.03297,3.9274 -0.95084,9.42575 0.47542,4.71288 6.18045,3.9274 1.42625,4.71288 0.47542,2.35643 -13.78716,0.39274 -7.6067,4.32014"
     id="path10"
     inkscape:connector-curvature="0"
     style="stroke-width:1.41211295" />
  <path
     d="m 142.15037,283.55812 -6.18045,-0.39274 -5.22961,-2.35644 -10.93464,-0.78548 -22.820131,0.39274 -5.229613,-3.53465 -1.426258,-4.32014 -4.278774,-2.74918 -6.65587,-3.14192 -2.377096,-8.24753 0.950838,-5.8911 4.278774,-4.71288 -0.475419,-4.32014 -5.705032,-3.53465 -10.459225,-2.35644 -4.754193,-3.14192 1.426258,-3.9274 7.606709,-2.35644 5.705032,-5.89109 0.475419,-21.60069 -12.360902,-8.64028 -14.262579,-6.67657 -8.082128,-1.17822 -7.606709,-7.46206 -1.426258,-8.24753 1.901677,-5.49836 -2.852516,-2.74918 36.607287,3.53466 10.459225,-6.67658 6.65587,1.57096 3.327935,2.74918 v 3.14192 l 6.180451,-1.17822 9.983808,1.57096 10.45922,2.74918 -0.95084,10.21123 3.80336,8.64028 5.22961,8.64027 0.47542,6.28384 4.75419,1.9637 -0.47542,7.46205 -4.27877,4.71288 -3.80335,-0.39274 -2.3771,1.17822 9.50838,7.46206 6.65588,-3.53466 6.65587,10.21123 h 3.80335 v 2.74918 l -4.27877,2.74918 -4.7542,1.57096 -0.47542,3.14192 1.42626,4.32013 8.08213,10.60398 -4.75419,3.9274 -2.3771,4.71287 0.95084,5.10562 -0.95084,3.53466 0.95084,4.32014"
     id="path12"
     inkscape:connector-curvature="0"
     style="stroke-width:1.41211295" />
  <path
     d="m 115.05147,167.69989 16.16426,-8.24754 7.13129,9.42576 9.9838,1.17822 8.08213,16.10233 -2.85251,1.57096 -0.47542,3.53465 4.75419,7.46206 5.70503,-1.57096 0.47542,5.8911 5.22961,3.53465 v 6.28384 l 6.65587,7.46206 2.3771,6.28383 -0.47542,9.42576 -2.85252,3.9274 -5.22961,1.17822 -0.47542,4.71287 2.85252,0.78548 v 3.14192 l -4.75419,3.14192 -8.55755,-3.53466 0.95084,-3.53466 -4.7542,-1.9637 -3.80335,4.32014 -4.27877,-3.14192 -4.7542,-5.10561 -2.37709,-3.9274 4.27877,-2.74918 v -2.74918 h -3.80335 l -6.65587,-10.21123 -6.65588,3.53466 -9.50838,-7.46206 2.3771,-1.17822 3.80335,0.39274 4.27877,-4.71288 0.47542,-7.46205 -4.75419,-1.9637 -0.47542,-6.28384 -5.22961,-8.64027 -3.80336,-8.64028"
     id="path14"
     inkscape:connector-curvature="0"
     style="stroke-width:1.41211295" />
  <path
     d="m 280.49739,227.39633 -0.47542,-11.38945 v -2.74918 h -5.22961 l -0.47542,-9.03301 -5.70503,-12.56768 3.80335,-1.9637 4.7542,-2.74917 7.6067,2.74917 1.90168,-0.78548 -0.47542,-2.74917 -0.95084,-3.14192 7.13129,-1.9637 1.42626,-6.67658 h 3.32794 l 0.95084,1.17822 h 2.85251 l 0.47542,-3.53466 7.60671,-3.14191 3.32793,1.17822 4.7542,-3.14192 14.26258,-4.32014 8.55754,-1.9637 9.50839,1.17822 6.18045,3.53466 0.95084,3.53466 -4.27877,2.35643 -0.47542,3.53466 -1.90168,6.67658 1.90168,13.74589 1.90167,13.74589 5.22962,11.38946 0.95084,5.89109 -3.80336,3.53466 -4.75419,-1.17822 -5.70503,2.35644 -6.65587,-1.57096 -7.13129,1.17822 -0.47542,-1.57096 -1.90168,-1.17822 -2.3771,0.78548 -6.65587,-5.10561 -4.27877,-0.78548 -1.42626,-2.35644 -8.08213,-3.53466 -15.21342,7.06932 -2.85251,-0.78548 -4.27877,1.17821"
     id="path16"
     inkscape:connector-curvature="0"
     style="stroke-width:1.41211295" />
  <path
     d="m 185.41353,191.65701 -4.75419,-2.35644 v -4.32013 l -7.13129,-2.35644 -4.7542,-5.8911 -2.37709,-5.49836 1.42626,-3.53465 4.75419,3.14191 2.85251,-3.14191 13.31174,17.28055 19.01678,-0.39274 6.65587,1.17822 3.32793,-3.53466 10.45923,-2.35644 11.41006,-1.17822 6.18045,-0.78548 7.13129,2.35644 0.47542,-4.71288 h 2.85252 v -1.9637 h 2.85251 v -4.71287 l 5.70503,1.17822 -0.47542,-2.35644 h 3.32794 l 7.60671,2.35644 6.18045,-4.32014 10.45922,-2.74918 5.70504,-1.57096 1.90167,-2.74918 h 1.90168 l 0.47542,2.74918 5.70503,0.78548 5.70503,1.17822 3.32794,-3.9274 7.13129,-3.53466 4.75419,1.9637 2.85252,4.71288 -14.26258,4.32014 -4.7542,3.14192 -3.32793,-1.17822 -7.60671,3.14191 -0.47542,3.53466 h -2.85251 l -0.95084,-1.17822 h -3.32794 l -1.42626,6.67658 -7.13129,1.9637 1.42626,5.89109 -1.90168,0.78548 -7.6067,-2.74917 -4.7542,2.74917 -3.80335,1.9637 5.70503,12.56768 0.47542,9.03301 h 5.22961 v 2.74918 l 0.47542,11.38945 -19.96761,-0.78548 -8.08213,-0.78548 -9.50838,-2.74917 -8.55755,1.17821 -10.93465,3.9274 h -9.9838 v -6.28383 l 1.42626,-1.9637 -2.85252,-1.9637 4.27877,-4.71288 -6.18045,-4.32014 -3.80335,1.17822 -17.1151,-7.06931 -0.95083,-3.9274 -0.47542,-1.9637 2.85251,-1.9637 0.47542,-3.14192 -1.90168,-1.17822"
     id="path18"
     inkscape:connector-curvature="0"
     style="stroke-width:1.41211295" />
  <path
     d="m 31.377674,160.23783 -4.754193,-0.78548 -7.131289,-5.8911 L 7.6067089,148.0629 8.0821282,143.74276 8.5575475,129.60413 1.9016772,117.03645 0.47541931,107.6107 0,92.686588 7.1312896,79.333436 19.492192,67.551242 31.853094,55.769049 55.624059,43.986855 75.11625,36.13206 l 18.065934,-1.963699 22.344706,1.570959 14.26258,3.534658 -3.80335,62.838362 -0.95084,7.46206 3.80335,5.49836 4.7542,6.28383 7.13128,3.14192 3.80336,1.57096 2.3771,7.8548 0.95083,6.28383 3.80336,4.71288 7.60671,1.57096 5.22961,6.67657 2.3771,3.9274 0.95084,10.60398 -1.42626,3.53465 2.37709,5.49836 4.7542,5.8911 7.13129,2.35644 v 4.32013 l 4.75419,2.35644 -8.55755,-1.17822 h -11.41006 l -3.80336,-1.17822 -4.75419,2.35644 -1.90168,2.35644 -1.90167,-2.74918 0.47542,-3.53465 2.85251,-1.57096 -8.08213,-16.10233 -9.9838,-1.17822 -7.13129,-9.42576 -16.16426,8.24754 -10.45922,-2.74918 -9.983808,-1.57096 -6.180451,1.17822 v -3.14192 l -3.327935,-2.74918 -6.65587,-1.57096 -10.459225,6.67658"
     id="path20"
     inkscape:connector-curvature="0"
     style="stroke-width:1.41211295" />
  <path
     d="m 159.26547,146.49194 3.80335,-2.35644 3.80336,-0.39274 2.85251,1.17822 7.13129,-4.32014 4.7542,1.9637 7.6067,0.39274 2.85252,-1.17822 6.18045,1.17822 7.13129,3.14192 h 9.03297 l 12.83632,6.67657 4.75419,-2.35643 3.80336,5.49835 2.85251,3.9274 5.70503,3.14192 4.27878,1.17822 1.90167,5.49836 2.3771,1.17821 0.47542,4.71288 -0.47542,4.71288 -7.13129,-2.35644 -6.18045,0.78548 -11.41006,1.17822 -10.45923,2.35644 -3.32793,3.53466 -6.65587,-1.17822 -19.01678,0.39274 -13.31174,-17.28055 -2.85251,3.14191 -4.75419,-3.14191 -0.95084,-10.60398 -2.3771,-3.9274"
     id="path22"
     inkscape:connector-curvature="0"
     style="stroke-width:1.41211295" />
  <path
     d="m 129.78947,39.273978 5.22961,0.39274 8.08213,3.534658 12.3609,2.749178 9.98381,1.17822 h 14.26258 l 8.08213,-3.927398 6.65587,-1.963699 3.32793,6.676576 3.32794,4.712878 7.13129,3.141918 5.70503,2.749178 -0.95084,12.174934 -0.95084,12.567673 8.55755,1.178219 3.80335,0.785479 1.90168,5.105618 7.13129,7.854795 1.42626,9.818495 0.95084,3.53466 h -1.90168 l -0.95084,1.9637 0.95084,4.32013 1.90168,5.10562 4.27877,7.06932 5.22961,-1.9637 2.85252,-0.39274 -1.90168,3.14192 -1.42626,3.92739 2.85252,7.06932 -4.75419,-0.78548 h -3.32794 l -4.27877,3.9274 -4.7542,0.39274 -2.37709,1.57096 -1.90168,1.9637 v 3.14192 l -11.88548,-5.8911 h -9.03297 l -7.13129,-3.14192 -6.18045,-1.17822 -2.85252,1.17822 -7.6067,-0.39274 -4.7542,-1.9637 -7.13129,4.32014 -2.85251,-1.17822 -3.80336,0.39274 -3.80335,2.35644 -7.60671,-1.57096 -3.80336,-4.71288 -0.95083,-6.28383 -2.3771,-7.8548 -10.93464,-4.71288 -4.7542,-6.28383 -3.80335,-5.49836 0.95084,-7.46206"
     id="path24"
     inkscape:connector-curvature="0"
     style="stroke-width:1.41211295" />
  <path
     d="m 248.16888,127.64043 1.42626,-2.74918 2.37709,-0.78548 3.80336,1.57096 1.90167,3.14192 3.32794,3.9274 0.95084,7.06931 1.42626,6.28384 10.45922,3.14192 9.03297,3.53465 -0.47542,-3.14191 h 4.75419 l 3.80336,1.9637 1.90167,2.74917 5.22962,0.78548 7.6067,0.39274 6.65587,-1.57096 5.22962,-1.17822 6.18045,-0.39274 v 3.53466 l -7.13129,3.53466 -3.32794,3.9274 -5.70503,-1.17822 -5.70503,-0.78548 -0.47542,-2.74918 h -1.90168 l -1.90167,2.74918 -5.70504,1.57096 -10.45922,2.74918 -6.18045,4.32014 -7.60671,-2.35644 h -3.32794 l 0.47542,2.35644 -5.70503,-1.17822 v 4.71287 h -2.85251 v 1.9637 h -2.85252 l -0.47542,-4.71288 -2.3771,-1.17821 -1.90167,-5.49836 -4.27878,-1.17822 -5.70503,-3.14192 -2.85251,-3.9274 -3.80336,-5.49835 -4.75419,2.35643 -0.95084,-0.78547 v -3.14192 l 1.90168,-1.9637 2.37709,-1.57096 4.7542,-0.39274 4.27877,-3.9274 h 3.32794 l 4.75419,0.78548 -2.85252,-7.06932 1.42626,-3.92739"
     id="path26"
     inkscape:connector-curvature="0"
     style="stroke-width:1.41211295" />
  <path
     d="m 213.93869,58.518227 7.13129,-1.178219 7.60671,0.78548 13.31174,3.141918 11.41006,-1.963699 v 8.640275 l -17.11509,7.462056 -0.47542,4.712877 19.96761,11.782194 7.13129,-9.818495 3.80335,6.283837 v 3.927397 l -0.95084,1.963699 4.7542,3.534658 9.9838,-4.320137 10.45923,4.320137 4.75419,-5.891096 5.70503,3.534658 6.65587,-1.570959 8.08213,7.462052 -0.47542,4.32014 -0.95084,2.35644 4.75419,2.35644 3.80336,5.10562 -3.80336,2.74917 -1.42625,3.14192 2.37709,3.14192 2.3771,1.9637 -3.80336,3.9274 -0.95083,4.32013 1.42625,3.53466 4.27878,1.17822 5.22961,-1.17822 3.80335,-4.71287 4.7542,-0.39274 3.32793,3.14191 -0.95084,2.74918 0.47542,8.64028 -5.70503,-0.78548 -10.93464,9.03301 v -3.53466 l -6.18045,0.39274 -11.88549,2.74918 -7.6067,-0.39274 -5.22962,-0.78548 -1.90167,-2.74917 -3.80336,-1.9637 h -4.75419 l 0.47542,3.14191 -9.03297,-3.53465 -10.45922,-3.14192 -1.42626,-6.28384 -0.95084,-7.06931 -3.32794,-3.9274 -1.90167,-3.14192 -3.80336,-1.57096 -2.37709,0.78548 -1.42626,2.74918 -2.85252,0.39274 -5.22961,1.9637 -4.27877,-7.06932 -1.90168,-5.10562 -0.95084,-4.32013 0.95084,-1.9637 h 1.90168 l -0.95084,-3.53466 -1.42626,-9.818495 -7.13129,-7.854795 -1.90168,-5.105618 -3.80335,-0.785479 -8.55755,-1.178219 0.95084,-12.567673"
     id="path28"
     inkscape:connector-curvature="0"
     style="stroke-width:1.41211295" />
  <path
     d="m 253.39849,59.303707 8.08213,-1.963699 7.13129,-3.534658 10.45922,-6.283837 h 2.3771 l 3.80335,6.283837 5.22962,1.570959 7.60671,3.141918 2.37709,3.141919 2.3771,7.462055 2.37709,2.356439 0.47542,10.996714 3.80336,1.963699 -7.60671,1.963699 3.80335,3.534658 6.18046,-2.749179 1.42625,-2.356438 h 2.85252 l 3.80335,1.963699 3.80336,-1.17822 4.27877,3.141918 -4.27877,1.963699 v 5.891097 l 6.18045,3.141918 4.75419,-2.749178 4.27878,-1.963699 1.42625,3.141918 0.47542,4.712875 -1.42626,1.17822 1.42626,3.14192 6.65587,-3.9274 8.55755,0.78548 0.47542,10.60398 2.85252,1.17822 -4.27878,3.14191 v 2.35644 h 7.13129 l 3.80336,2.74918 v 11.38945 l -1.42626,0.78548 0.47542,6.28384 h -8.55755 l -2.3771,2.74918 -0.95084,1.17822 -9.03296,0.39274 -3.80336,0.78548 -0.47542,-8.64028 0.95084,-2.74918 -3.32793,-3.14191 -4.7542,0.39274 -3.80335,4.71287 -5.22961,1.17822 -4.27878,-1.17822 -1.42625,-3.53466 0.95083,-4.32013 3.80336,-3.9274 -4.75419,-5.10562 1.42625,-3.14192 3.80336,-2.74917 -3.80336,-5.10562 -4.75419,-2.35644 0.95084,-2.35644 0.47542,-4.32014 -8.08213,-7.462052 -6.65587,1.570959 -5.70503,-3.534658 -4.75419,5.891096 -10.45923,-4.320137 -9.9838,4.320137 -4.7542,-3.534658 0.95084,-1.963699 v -3.927397 l -3.80335,-6.283837 -7.13129,9.818495 -19.96761,-11.782194 0.47542,-4.712877 17.11509,-7.462056"
     id="path30"
     inkscape:connector-curvature="0"
     style="stroke-width:1.41211295" />
  <path
     d="M 194.4465,41.237677 V 12.960413 l -3.32794,-6.2838367 2.85252,-2.3564387 9.50838,3.1419182 h 7.13129 l 3.80336,-6.2838365 6.65587,4.7128774 3.80335,-0.3927398 L 233.43088,0 l 8.08213,5.1056172 9.50838,4.7128773 6.65587,0.3927395 1.42626,4.320138 h 25.67264 l 13.78716,18.45877 12.83633,-0.39274 13.31174,-4.320138 7.13129,-1.963699 7.6067,2.356439 3.80336,5.891097 10.45922,3.534658 21.39387,6.676576 19.96761,7.069316 8.55755,5.105617 7.60671,-3.141918 6.65587,-0.78548 v 2.749179 l -4.27877,4.712877 0.95084,3.141918 3.80335,3.927398 4.75419,6.676577 6.65587,10.996713 7.60671,8.640276 6.18045,4.320137 5.70503,8.640275 -1.42625,2.74918 v 3.53466 l 4.27877,2.35644 6.18045,3.14191 7.60671,3.53466 6.65587,1.17822 v 6.28384 l -0.95084,1.9637 -0.47542,4.71287 -2.37709,4.32014 -3.32794,3.14192 -10.93464,-7.06932 -5.22962,0.78548 -11.41006,3.9274 -6.65587,-3.53466 -3.32793,-3.53465 -0.95084,-3.9274 -5.70503,-3.14192 -8.55755,5.10562 -17.1151,2.35643 -13.78716,5.8911 -16.63967,1.9637 -0.47542,-6.28384 1.42626,-0.78548 v -11.38945 l -3.80336,-2.74918 h -7.13129 v -2.35644 l 4.27878,-3.14191 -2.85252,-1.17822 -0.47542,-10.60398 -8.55755,-0.78548 -6.65587,3.9274 -1.42626,-3.14192 1.42626,-1.17822 -0.47542,-4.712875 -1.42625,-3.141918 -4.27878,1.963699 -4.75419,2.749178 -6.18045,-3.141918 v -5.891097 l 4.27877,-1.963699 -4.27877,-3.141918 -3.80336,1.17822 -3.80335,-1.963699 h -2.85252 l -1.42625,2.356438 -6.18046,2.749179 -3.80335,-3.534658 7.60671,-1.963699 -3.80336,-1.963699 -0.47542,-10.996714 -2.37709,-2.356439 -2.3771,-7.462055 -2.37709,-3.141919 -7.60671,-3.141918 -5.22962,-1.570959 -3.80335,-6.283837 h -2.3771 l -10.45922,6.283837 -7.13129,3.534658 -8.08213,1.963699 -11.41006,1.963699 -13.31174,-3.141918 -7.60671,-0.78548 -7.13129,1.178219 -5.70503,-2.749178 -7.13129,-3.141918 -3.32794,-4.712878"
     id="path32"
     inkscape:connector-curvature="0"
     style="stroke-width:1.41211295" />
  <path
     style="fill:none;stroke:#000000;stroke-width:1px;stroke-linecap:butt;stroke-linejoin:miter;stroke-opacity:1"
     d="m 157.83921,198.72633 -2.85252,-4.71288 1.90168,-2.35644 4.75419,-2.35644 3.80336,1.17822 h 11.41006 l 8.55755,1.17822 3.80335,-0.78548 1.90168,1.17822 -0.47542,3.14192 -2.85251,1.9637 1.42625,5.8911 17.1151,7.06931 3.80335,-1.17822 6.18045,4.32014 -4.27877,4.71288 2.85252,1.9637 -1.42626,1.9637 v 6.28383 l -18.06594,-1.57096 h -17.11509 l -2.3771,-6.28383 -6.65587,-7.46206 v -6.28384 l -5.22961,-3.53465 -0.47542,-5.8911 -5.70503,1.57096 -2.85252,-4.71288"
     id="path31"
     inkscape:connector-curvature="0" />
  <path
     style="fill:#000000;fill-opacity:1;stroke:#00ff00;stroke-width:0.07490538"
     d="m 203.94372,226.8201 -8.35195,-0.7375 -8.46917,-0.003 -8.46917,-0.003 -1.1411,-3.01644 -1.1411,-3.01644 -3.29138,-3.69188 -3.29138,-3.69187 -0.0195,-3.19447 -0.0195,-3.19446 -2.46258,-1.66722 c -1.35441,-0.91697 -2.52806,-1.7107 -2.6081,-1.76385 -0.13283,-0.0882 -0.16751,-0.36686 -0.3974,-3.19368 -0.13852,-1.70338 -0.26639,-3.11158 -0.28414,-3.12933 -0.0177,-0.0177 -1.31896,0.32262 -2.89158,0.75638 -1.57262,0.43376 -2.90029,0.7885 -2.95037,0.78832 -0.0854,-3e-4 -2.50028,-3.9099 -2.47751,-4.01101 0.006,-0.0257 0.35721,-0.47697 0.78094,-1.00277 l 0.77042,-0.95601 2.2231,-1.10957 2.2231,-1.10958 1.8648,0.57488 1.86481,0.57487 5.73026,-7.4e-4 5.73026,-7.4e-4 4.284,0.5894 4.284,0.5894 1.83562,-0.37734 1.83562,-0.37735 0.72158,0.43658 c 0.6998,0.42339 0.72033,0.44356 0.67998,0.66802 -0.0229,0.1273 -0.11258,0.70207 -0.19935,1.27728 -0.13323,0.8833 -0.18292,1.06373 -0.3198,1.16103 -0.0891,0.0634 -0.75215,0.52344 -1.47338,1.02238 -0.72123,0.49894 -1.30732,0.93713 -1.30242,0.97377 0.005,0.0366 0.35571,1.50359 0.77958,3.25991 l 0.77067,3.19331 8.73341,3.60566 c 4.80337,1.98312 8.78396,3.60458 8.84576,3.60324 0.0618,-10e-4 0.91896,-0.25328 1.90481,-0.55989 l 1.79245,-0.55747 2.71742,1.88815 c 1.49458,1.03849 2.71858,1.90502 2.72,1.92562 0.001,0.0206 -0.94207,1.07903 -2.09665,2.35208 -1.15458,1.27305 -2.08969,2.34171 -2.07803,2.37481 0.0117,0.0331 0.65281,0.49559 1.42477,1.02778 l 1.40356,0.96762 -0.59833,0.82612 -0.59833,0.82612 v 2.92875 2.92874 l -0.31835,-0.008 c -0.17509,-0.004 -4.07672,-0.33999 -8.6703,-0.74562 z"
     id="path33"
     inkscape:connector-curvature="0" />
  <path
     style="fill:none;stroke:#000000;stroke-width:1px;stroke-linecap:butt;stroke-linejoin:miter;stroke-opacity:1"
     d="m 173.52805,271.38319 1.42625,4.71288 6.65588,0.39274 2.37709,2.74917 h 7.13129 l 3.32794,-4.32013 23.77096,0.39274 5.22961,3.92739 h 9.98381 v -3.14191 h 7.60671 l -0.47542,-3.14192 h -8.08213 l -0.47542,-2.35644 -4.27877,-3.14192 -5.22961,1.9637 -9.50839,0.78548 h -6.65587 l -3.80336,-1.57096 v -4.32014 l -1.90167,-3.9274 -5.70503,-0.78547 -1.42626,-1.9637 h -5.22961 l -1.42626,-3.14192 -4.27878,-5.49836 1.42626,-4.32014 2.85252,-5.49835 4.27877,-1.57096 0.95084,-5.8911 3.32793,-5.10562 h -17.11509 l -0.47542,9.42576 -2.85252,3.9274 -5.22961,1.17822 -0.47542,4.71287 2.85252,0.78548 v 3.14192 l -4.27877,3.53466 -0.95084,9.42575 0.47542,4.71288 6.18045,3.9274"
     id="path35"
     inkscape:connector-curvature="0" />
  <path
     style="fill:#000000;fill-opacity:1;stroke:#00ff00;stroke-width:0.07490538"
     d="m 183.08427,277.36278 c -0.65039,-0.75187 -1.18484,-1.37232 -1.18766,-1.37879 -0.003,-0.006 -1.46943,-0.10001 -3.25915,-0.20787 -1.78972,-0.10787 -3.26164,-0.20373 -3.27094,-0.21303 -0.0224,-0.0223 -1.30264,-4.25124 -1.30264,-4.30272 0,-0.0219 -0.10138,-0.0196 -0.22529,0.005 -0.22304,0.0446 -0.22411,0.0433 -0.10735,-0.13495 0.11601,-0.17706 0.11114,-0.18435 -0.2989,-0.44665 -0.40611,-0.25978 -5.53429,-3.50749 -5.56215,-3.52255 -0.008,-0.004 -0.11486,-0.96754 -0.23814,-2.14085 l -0.22414,-2.13329 0.4613,-4.64512 0.4613,-4.64512 2.15508,-1.78155 2.15509,-1.78155 v -1.90151 c 0,-1.74666 -0.0107,-1.90457 -0.13109,-1.93918 -0.0721,-0.0207 -0.7055,-0.19506 -1.40757,-0.38741 l -1.27648,-0.34974 0.19081,-1.89646 c 0.10495,-1.04306 0.21355,-1.91919 0.24133,-1.94698 0.0278,-0.0278 1.15674,-0.30094 2.5088,-0.60703 1.67826,-0.37993 2.49637,-0.59748 2.57832,-0.6856 0.11102,-0.11938 2.82158,-3.84405 2.93554,-4.03383 0.0382,-0.0635 0.50258,-8.42844 0.50258,-9.0522 0,-0.10138 0.86466,-0.11404 7.79016,-0.11404 4.28458,0 7.79016,0.0217 7.79016,0.0482 0,0.0265 -0.63,1.01243 -1.39999,2.19098 l -1.39999,2.14281 -0.45735,2.8363 c -0.43987,2.72788 -0.46438,2.83978 -0.64119,2.9276 -0.1011,0.0502 -1.04393,0.40453 -2.09517,0.78736 l -1.91134,0.69605 -1.4594,2.80921 -1.4594,2.8092 -0.76778,2.29271 c -0.42228,1.26098 -0.76778,2.33859 -0.76778,2.39469 0,0.0561 0.98594,1.36978 2.19098,2.91931 l 2.19098,2.81731 0.76629,1.68829 0.76628,1.68828 2.67723,0.0375 2.67722,0.0374 0.62053,0.85808 c 0.34129,0.47195 0.65252,0.89009 0.69163,0.92919 0.0391,0.0391 1.32823,0.24285 2.86471,0.45276 l 2.79361,0.38166 0.87322,1.76027 0.87322,1.76028 0.0256,2.31225 0.0257,2.31226 2.0599,0.85215 2.05989,0.85216 3.55801,10e-4 3.558,0.001 4.64414,-0.37854 4.64413,-0.37855 2.49523,-0.93307 c 1.37237,-0.51319 2.52615,-0.93307 2.56394,-0.93307 0.0512,0 3.51764,2.50111 3.8321,2.76495 0.0384,0.0322 0.58426,2.46821 0.58426,2.60744 0,0.0114 1.81487,0.0208 4.03303,0.0208 h 4.03303 l 0.13065,0.91759 c 0.0719,0.50468 0.14687,0.97658 0.16672,1.04868 0.034,0.12359 -0.18049,0.13108 -3.7517,0.13108 h -3.78777 v 1.57302 1.57301 h -4.59409 -4.59409 l -2.64687,-1.98499 -2.64687,-1.985 -0.68028,-3e-4 c -0.62297,-3.3e-4 -14.55445,-0.22638 -20.86729,-0.33861 l -2.65914,-0.0473 -1.67243,2.17809 -1.67243,2.17809 h -3.28215 -3.28215 z"
     id="path37"
     inkscape:connector-curvature="0" />
  <ellipse
     style="fill:#000000;fill-opacity:1;stroke:#ffffff;stroke-opacity:1"
     id="path76"
     cx="438.34744"
     cy="187.00676"
     rx="18.855932"
     ry="18.432203" />
  <ellipse
     style="fill:#000000;fill-opacity:1;stroke:#ffffff;stroke-opacity:1"
     id="path76-5"
     cx="438.5593"
     cy="255.01524"
     rx="18.855932"
     ry="18.432203" />
  <text
     xml:space="preserve"
     style="font-style:normal;font-weight:normal;font-size:14.56755352px;line-height:1.25;font-family:sans-serif;letter-spacing:0px;word-spacing:0px;fill:#000000;fill-opacity:1;stroke:none;stroke-width:0.36418885"
     x="463.61551"
     y="254.2206"
     id="text99"
     transform="scale(0.87634461,1.1411036)"><tspan
       sodipodi:role="line"
       id="tspan97"
       x="463.61551"
       y="254.2206"
       style="stroke-width:0.36418885">г. Текели</tspan></text>
  <text
     xml:space="preserve"
     style="font-style:normal;font-weight:normal;font-size:14.56755352px;line-height:1.25;font-family:sans-serif;letter-spacing:0px;word-spacing:0px;fill:#000000;fill-opacity:1;stroke:none;stroke-width:0.36418885"
     x="437.70325"
     y="191.55475"
     id="text99-3"
     transform="scale(0.87634461,1.1411036)"><tspan
       sodipodi:role="line"
       id="tspan97-5"
       x="437.70325"
       y="191.55475"
       style="stroke-width:0.36418885">г. Талдыкорган</tspan></text>
</svg>
