<?xml version="1.0" encoding="UTF-8" standalone="no"?>
<svg
   xmlns:dc="http://purl.org/dc/elements/1.1/"
   xmlns:cc="http://creativecommons.org/ns#"
   xmlns:rdf="http://www.w3.org/1999/02/22-rdf-syntax-ns#"
   xmlns:svg="http://www.w3.org/2000/svg"
   xmlns="http://www.w3.org/2000/svg"
   xmlns:sodipodi="http://sodipodi.sourceforge.net/DTD/sodipodi-0.dtd"
   xmlns:inkscape="http://www.inkscape.org/namespaces/inkscape"
   version="1.1"
   id="svg18"
   sodipodi:docname="Алматы.svg"
   width="410.33377"
   height="455"
   inkscape:version="0.92.3 (unknown)">
  <metadata
     id="metadata24">
    <rdf:RDF>
      <cc:Work
         rdf:about="">
        <dc:format>image/svg+xml</dc:format>
        <dc:type
           rdf:resource="http://purl.org/dc/dcmitype/StillImage" />
        <dc:title></dc:title>
      </cc:Work>
    </rdf:RDF>
  </metadata>
  <defs
     id="defs22" />
  <sodipodi:namedview
     pagecolor="#ffffff"
     bordercolor="#666666"
     borderopacity="1"
     objecttolerance="10"
     gridtolerance="10"
     guidetolerance="10"
     inkscape:pageopacity="0"
     inkscape:pageshadow="2"
     inkscape:window-width="640"
     inkscape:window-height="480"
     id="namedview20"
     showgrid="false"
     fit-margin-top="0"
     fit-margin-left="0"
     fit-margin-right="0"
     fit-margin-bottom="0"
     inkscape:zoom="2.36"
     inkscape:cx="-4.3331152"
     inkscape:cy="303.30508"
     inkscape:window-x="75"
     inkscape:window-y="34"
     inkscape:window-maximized="0"
     inkscape:current-layer="svg18" />
  <path
     d="m 110.1767,207.84686 4.76439,-2.3822 h 11.31545 l 2.97775,-1.78665 17.86649,-9.5288 5.35995,-1.78664 4.7644,-2.3822 5.95549,-2.3822 12.50655,-1.78665 8.93324,-1.78665 9.5288,31.56414 -39.90183,8.33769 -24.41754,5.9555 -4.16885,1.1911 -1.78665,1.78665 -4.16885,4.16885 -0.59555,-5.9555 -2.97775,-2.3822 0.59555,-2.97775 -6.55104,-8.3377"
     id="path2"
     inkscape:connector-curvature="0" />
  <path
     d="m 44.070681,241.79319 -7.742147,-17.27094 1.1911,-1.1911 -2.977749,-5.9555 5.955497,-3.57329 1.1911,1.78665 2.382199,-2.3822 1.191099,-0.59555 2.382195,1.1911 1.1911,2.97774 0.59555,-0.59555 v -2.97774 l -4.168845,-4.16885 v -4.7644 l 2.382195,-2.3822 -4.764394,-7.1466 5.955494,-5.35994 3.5733,-2.97775 1.1911,-2.3822 -1.1911,-11.911 -1.1911,-1.1911 -0.59555,-4.16884 -1.78665,-1.78665 -1.78665,-1.1911 -1.19109,2.3822 -0.595555,2.3822 1.191095,1.1911 -5.359943,3.57329 v -2.97774 l -1.786649,-1.1911 v -1.78665 -1.1911 l 0.59555,-0.59555 -1.1911,-1.1911 -1.191099,-1.1911 -22.63089,-10.7199 -2.382199,-8.33769 H 8.9332458 l -0.595549,-1.78665 -1.1911,-2.3822 -5.359948,-5.9555 v -2.97775 L -1.8324607e-7,128.63874 13.102094,123.2788 l 5.955498,5.95549 1.191099,-0.59555 8.933246,-3.57329 -0.595549,-1.78665 4.764398,-1.78665 4.764397,-0.59555 v -2.97775 -1.78665 l 1.1911,-0.59555 v -2.3822 h 1.786649 l 1.786649,-2.97775 1.78665,-2.3822 h 8.337694 l 0.59555,-4.7644 1.1911,-5.955493 1.1911,-5.359947 1.1911,-7.146597 2.3822,-4.168848 1.78665,-2.977749 1.1911,-4.764398 h 4.16885 l 4.16884,1.786649 1.78665,0.59555 4.7644,-0.59555 2.97775,-1.191099 h 5.35995 l 1.1911,-1.1911 7.14659,0.59555 -0.59555,1.1911 v 2.382198 h -1.78665 l 0.59555,0.59555 0.59555,1.786649 v 1.78665 l 1.78665,1.191099 1.1911,1.1911 v 2.977748 h 1.78665 l 1.78665,2.382199 v 0.59555 l -2.3822,3.573298 v 2.382199 l -1.78665,2.382199 1.1911,2.382199 2.97775,0.595554 1.191095,1.78665 1.78665,-0.59555 0.59555,-2.382203 v -1.78665 h 2.3822 l 1.78665,-14.293193 6.55105,-0.59555 0.59554,1.191099 h 1.1911 l 1.1911,0.59555 -1.1911,0.59555 v 0.59555 l 0.59555,0.595549 h 0.59555 v 1.1911 h 1.78665 l 0.59555,0.59555 v 1.191099 1.786649 h -0.59555 v 1.786649 l 1.78665,0.59555 v 0.59555 0.59555 1.786649 l 0.59555,0.59555 -0.59555,1.191099 h -1.1911 v 0.59555 l 0.59555,0.59555 -0.59555,1.191103 v 0.59555 0.59555 h -1.1911 l -0.59555,1.19109 0.59555,1.1911 0.59555,1.1911 -0.59555,0.59555 h -0.59555 v 1.1911 l 3.5733,2.3822 0.59555,-2.97775 1.78665,-3.5733 2.3822,-4.168843 1.78665,1.191099 1.1911,-1.786649 v -4.764398 l 1.1911,-2.382199 0.59555,-1.786649 0.59555,-1.786649 4.16885,-3.573299 2.38219,-2.382199 2.3822,-1.786649 1.1911,-2.382199 13.1021,4.168848 -0.59555,4.764398 -0.59555,4.168848 -3.5733,8.337697 -4.16885,8.933243 -3.5733,7.1466 -1.1911,5.9555 -3.5733,10.12434 -3.57329,13.1021 -4.7644,19.05759 -1.1911,5.35995 -0.59555,5.95549 v 25.01309 l 1.78665,2.3822 v 2.3822 l -2.3822,1.78665 h -11.31545 l -4.76439,2.3822 -5.35995,5.35995 -4.7644,1.78665 -4.168845,1.78664 -4.16885,1.78665 -4.76439,3.5733 -11.911,5.35995 -5.9555,2.3822 -4.76439,1.78665 -5.9555,4.7644 -3.5733,2.3822 -1.1911,2.38219 -1.1911,-1.1911 -4.7644,0.59555"
     id="path4"
     inkscape:connector-curvature="0" />
  <path
     d="m 64.319375,231.66885 4.76439,-1.78665 5.9555,-2.3822 5.35995,-2.3822 6.55105,-2.97775 4.76439,-3.5733 4.16885,-1.78665 4.168845,-1.78664 4.7644,-1.78665 5.35995,-5.35995 v 9.52879 l 2.3822,3.5733 4.16884,4.7644 -0.59555,2.97775 2.97775,2.3822 0.59555,5.9555 5.35995,3.57329 2.97775,0.59555 4.16885,5.35995 3.5733,3.5733 1.78664,4.7644 0.59555,4.7644 -1.78664,0.59555 1.78664,4.16884 -16.07984,6.55105 2.3822,3.5733 2.97775,2.97775 -4.16885,2.97775 -2.3822,1.1911 -0.59555,-0.59555 h -4.7644 l -2.38219,1.1911 -1.78665,1.1911 -0.59555,-2.3822 v -2.97775 l -3.5733,0.59555 -2.97775,-4.16885 -2.97775,3.5733 -2.382195,-1.78665 -1.1911,-1.78665 -2.97775,-4.16885 -2.3822,-4.7644 v -1.78665 l -3.57329,-2.97774 -3.5733,-3.5733 -4.7644,-7.74215 -2.97775,-4.7644 -3.5733,-1.78665 -3.5733,-2.97775 -2.97774,-3.57329"
     id="path6"
     inkscape:connector-curvature="0" />
  <path
     d="m 194.14921,215.58901 -39.90183,8.33769 -24.41754,5.9555 -4.16885,1.1911 -1.78665,1.78665 -4.16885,4.16885 5.35995,3.57329 2.97775,0.59555 4.16885,5.35995 3.5733,3.5733 1.78664,4.7644 0.59555,4.7644 -1.78664,0.59555 1.78664,4.16884 -16.07984,6.55105 2.3822,3.5733 2.97775,2.97775 -4.16885,2.97775 -2.3822,1.1911 4.7644,9.52879 8.93325,10.12435 -7.1466,1.1911 6.55105,4.76439 5.95549,2.97775 2.97775,1.78665 v 1.78665 l 5.9555,4.16885 -1.1911,2.3822 v 1.78665 h 1.78665 l 4.7644,3.5733 4.7644,2.97775 1.19109,1.19109 0.59555,2.97775 2.3822,-1.1911 5.9555,5.9555 1.78665,2.97775 -2.3822,3.5733 v 2.97775 l 2.97775,-1.1911 1.78665,0.59555 1.1911,1.78665 1.78665,2.97775 -2.3822,0.59555 -6.55105,4.16884 0.59555,5.35995 1.78665,1.78665 2.3822,3.5733 1.78665,2.97775 1.1911,5.35995 1.1911,7.74214 1.1911,4.7644 2.97775,8.3377 1.1911,5.35994 0.59555,2.3822 2.38219,2.3822 2.97775,1.1911 4.7644,-0.59555 8.3377,-3.5733 11.31544,-5.35994 5.9555,-0.59555 h 13.10209 l 7.1466,0.59555 4.7644,2.97774 6.55105,4.7644 1.78664,4.7644 0.59555,5.9555 -1.78664,4.16885 v 2.97774 l -5.35995,7.74215 -4.7644,3.5733 -3.5733,3.5733 h -4.7644 v 1.78665 l -1.78665,0.59555 -1.78665,1.78665 -1.19109,1.19109 0.59555,4.16885 2.38219,1.1911 2.97775,0.59555 2.97775,5.35995 h 1.1911 l 2.3822,-4.7644 1.1911,-2.3822 2.97775,-2.3822 3.5733,-2.97774 5.35994,-5.35995 2.3822,-3.5733 5.9555,1.78665 7.74215,1.78665 5.35994,0.59555 h 2.97775 l 1.78665,-1.1911 2.3822,-0.59555 1.78665,-1.78665 v -1.78665 -4.16885 l -1.78665,-1.1911 -2.3822,-1.1911 v -1.1911 l 0.59555,-1.1911 -0.59555,-1.78665 -1.78665,-1.19109 -1.78665,-0.59555 -1.78664,0.59555 -0.59555,-2.97775 0.59555,-2.3822 1.19109,-1.78665 1.78665,-1.78665 -0.59555,-4.16885 -0.59555,-2.3822 -1.1911,-2.3822 -1.78664,-1.1911 -2.97775,-1.1911 -2.97775,-1.1911 -4.7644,-5.35994 -2.3822,-1.1911 -2.97775,-1.1911 h -2.97775 l -2.3822,-1.78665 h -1.19109 l -2.3822,0.59555 -3.5733,-1.78665 -6.55105,-5.35995 h -2.97775 l -11.91099,-8.93324 h -1.78665 l -3.5733,1.1911 -2.97775,1.19109 h -4.16885 l -1.1911,1.1911 h -3.57329 l -0.59555,-1.78665 -0.59555,-1.19109 -0.59555,-0.59555 -0.59555,0.59555 h -2.97775 l -2.3822,-1.78665 -1.78665,-0.59555 -0.59555,-1.78665 v -0.59555 l -0.59555,-1.78665 -1.78665,-2.97775 -1.1911,-1.78665 -4.16885,-3.5733 -3.5733,-3.5733 v -1.78665 l 5.9555,3.5733 11.31545,-4.16885 19.65314,-6.55104 10.71989,-1.78665 -8.33769,-11.31545 -1.1911,-2.97775 -3.5733,-3.57329 13.10209,-17.8665 1.78665,2.3822 v -4.7644 l -7.74214,-11.91099 -0.59555,-4.16885 -1.78665,-1.78665 h -3.5733 l -0.59555,-3.5733 1.1911,-1.78664 -2.3822,-1.1911 h -2.3822 l -7.74215,-8.93325 -2.38219,-1.1911 -6.55105,-5.35995 -3.5733,-2.3822 -2.97775,-0.59555 -2.97775,-0.59555 -4.16885,-5.95549 1.78665,-1.1911 8.93325,1.78665 v -1.1911 l -2.3822,-1.78665 -4.7644,-1.78665 1.78665,-4.16885 -12.50654,-0.59555 8.33769,-8.93325 7.1466,-7.14659 6.55105,-1.1911"
     id="path8"
     inkscape:connector-curvature="0" />
  <path
     d="m 141.14528,76.825916 2.97775,-5.359947 1.1911,-1.78665 1.78665,-1.786649 h 1.1911 v -3.573298 l 1.1911,-1.786649 v -2.382199 l 2.3822,-1.1911 1.1911,-3.573298 5.35995,-10.124346 -2.3822,-1.786649 1.78665,-8.933246 3.57329,0.59555 v 4.764397 h 2.3822 l 0.59555,-2.977748 1.1911,-2.382199 2.97775,-0.59555 2.3822,-0.59555 2.97775,-0.595549 2.97775,1.191099 2.3822,0.59555 2.3822,-0.59555 1.78664,0.59555 h 1.78665 l 1.78665,-2.977749 6.55105,2.977749 -2.97775,5.359947 -2.3822,2.382199 -2.97775,2.977749 -0.59555,1.786649 -1.1911,2.382199 1.1911,2.382199 v 2.977749 l -2.38219,2.977749 -1.1911,1.786649 -1.78665,1.191099 h -2.3822 v 1.78665 l -1.1911,0.595549 h -1.78665 v 0 h -1.1911 l -1.1911,5.955498 -1.78665,5.955497 -1.1911,2.977749 -1.78665,2.977748 0.59555,20.248696 -0.59555,16.07984 v 8.33769 l 0.59555,3.5733 v 10.7199 l 0.59555,4.16885 4.7644,8.93324 8.93325,-0.59555 4.76439,-2.3822 h 3.5733 l 4.7644,1.78665 5.9555,-0.59555 11.31544,-0.59555 0.59555,3.5733 -1.1911,2.3822 -2.3822,2.3822 -1.1911,2.97775 v 3.5733 l -1.1911,2.97775 -0.59555,2.38219 -0.59555,2.97775 2.3822,2.97775 -0.59555,2.97775 -22.63089,4.16885 -8.93324,1.78665 -12.50655,1.78665 -5.95549,2.3822 -4.7644,2.3822 -5.35995,1.78664 -18.46204,9.5288 v -2.3822 l -1.78665,-2.3822 v -25.01309 l 0.59555,-5.95549 1.1911,-5.35995 4.7644,-19.05759 3.57329,-13.1021 3.5733,-10.12434 1.1911,-5.9555 3.5733,-7.1466 4.16885,-8.933243 3.5733,-8.337697 0.59555,-4.168848 0.59555,-4.764398"
     id="path10"
     inkscape:connector-curvature="0" />
  <path
     d="m 255.49083,113.15445 17.27095,8.3377 -8.93325,7.14659 -7.1466,7.1466 -4.16885,4.16885 2.3822,4.7644 -8.93324,4.16884 2.97775,8.3377 0.59555,0.59555 1.78664,-1.1911 1.1911,1.78665 -2.38219,1.78665 2.38219,3.5733 1.1911,4.16885 0.59555,4.76439 1.78665,2.97775 v 1.1911 l -1.1911,1.1911 h -1.78665 l -2.3822,-0.59555 h -2.97774 l -0.59555,2.3822 v 1.78665 l 4.16884,0.59555 1.1911,1.1911 h 2.97775 l 1.1911,0.59555 h 1.78665 1.1911 l 11.31545,10.12434 1.1911,0.59555 1.1911,-1.1911 h 1.19109 l 1.1911,1.78665 h 0.59555 l 1.1911,-1.1911 2.97775,4.7644 h 1.78665 l 0.59555,0.59555 v 1.1911 1.78665 l 4.7644,3.5733 v 3.5733 h 1.1911 l 1.78665,-1.78665 4.7644,5.35995 h 2.38219 l 1.78665,1.78665 1.78665,2.38219 h 2.3822 l 5.9555,6.55105 2.3822,3.5733 2.3822,2.97775 3.5733,5.35995 4.16884,6.55104 2.97775,4.16885 2.3822,2.97775 3.5733,1.78665 4.16885,1.1911 4.7644,1.1911 4.76439,1.78665 5.9555,1.78665 7.1466,2.3822 1.78665,4.16884 2.3822,4.7644 h 5.95549 l 1.1911,-1.78665 v -1.1911 l 2.3822,-1.1911 1.78665,-1.1911 0.59555,-1.78664 1.1911,-0.59555 1.1911,-1.78665 v -2.97775 l -1.1911,-4.16885 -1.78665,-5.35995 -1.78665,-6.55105 0.59555,-3.57329 2.97775,-1.1911 1.78665,-2.3822 5.35995,2.97775 14.29319,1.1911 10.12435,8.93324 v 3.5733 l 1.78665,4.7644 1.78664,4.16885 -9.52879,15.48429 -7.74215,-1.78665 -5.35995,3.5733 0.59555,10.71989 -1.19109,1.1911 -1.1911,1.1911 -0.59555,2.3822 0.59555,2.97775 -4.16885,0.59555 -3.5733,1.1911 -5.35995,-4.7644 h -1.78665 l -2.97775,-2.3822 h -4.76439 l -2.3822,-1.1911 h -5.9555 l -3.5733,2.97775 h -2.97775 l -1.78665,-0.59555 -1.78665,-1.78665 -2.3822,-1.1911 -7.74214,-1.78665 -1.1911,1.78665 -0.59555,2.3822 -2.3822,1.1911 -2.3822,1.1911 -2.3822,0.59555 3.5733,4.16885 5.35995,4.7644 -2.3822,8.33769 2.97775,0.59555 3.5733,2.3822 2.97774,2.97775 h 4.7644 l 1.78665,2.3822 1.78665,1.78665 v 1.1911 l 4.16885,1.78665 3.5733,1.1911 2.97775,1.78665 h 2.97775 l 1.78664,-1.1911 17.27095,9.52879 3.5733,1.1911 h 2.38219 l 1.1911,1.78665 1.1911,2.97775 v 2.3822 l -4.16884,0.59555 v -2.97775 h -2.97775 l -2.97775,0.59555 -1.78665,0.59555 -2.3822,-1.78665 -2.3822,-0.59555 -2.97775,2.3822 -2.3822,1.78665 h -2.3822 l -2.3822,-4.16885 h -1.78664 l -2.97775,1.1911 -2.97775,1.78665 0.59555,6.55105 1.78665,7.14659 0.59555,2.3822 4.76439,9.5288 10.7199,22.63089 -1.78665,27.39529 -2.3822,17.86649 -19.65314,4.16885 -13.69764,-1.1911 -13.1021,-1.1911 -3.5733,-5.35995 -38.11518,0.59555 v -4.16885 l -1.78665,-1.1911 -2.3822,-1.1911 v -1.1911 l 0.59555,-1.1911 -0.59555,-1.78665 -1.78665,-1.19109 -1.78665,-0.59555 -1.78664,0.59555 -0.59555,-2.97775 0.59555,-2.3822 1.19109,-1.78665 1.78665,-1.78665 -0.59555,-4.16885 -0.59555,-2.3822 -1.1911,-2.3822 -1.78664,-1.1911 -2.97775,-1.1911 -2.97775,-1.1911 -4.7644,-5.35994 -2.3822,-1.1911 -2.97775,-1.1911 h -2.97775 l -2.3822,-1.78665 h -1.19109 l -2.3822,0.59555 -3.5733,-1.78665 -6.55105,-5.35995 h -2.97775 l -11.91099,-8.93324 h -1.78665 l -3.5733,1.1911 -2.97775,1.19109 h -4.16885 l -1.1911,1.1911 h -3.57329 l -0.59555,-1.78665 -0.59555,-1.19109 -0.59555,-0.59555 -0.59555,0.59555 h -2.97775 l -2.3822,-1.78665 -1.78665,-0.59555 -0.59555,-1.78665 v -0.59555 l -0.59555,-1.78665 -1.78665,-2.97775 -1.1911,-1.78665 -4.16885,-3.5733 -3.5733,-3.5733 v -1.78665 l 5.9555,3.5733 0.59555,-0.59555 10.7199,-3.5733 19.65314,-6.55104 10.71989,-1.78665 -8.33769,-11.31545 -1.1911,-2.97775 -3.5733,-3.57329 13.10209,-17.8665 1.78665,2.3822 v -4.7644 l -7.74214,-11.91099 -0.59555,-4.16885 -1.78665,-1.78665 h -3.5733 l -0.59555,-3.5733 1.1911,-1.78664 -2.3822,-1.1911 h -2.3822 l -7.74215,-8.93325 -2.38219,-1.1911 -6.55105,-5.35995 -3.5733,-2.3822 -2.97775,-0.59555 -2.97775,-0.59555 -4.16885,-5.95549 1.78665,-1.1911 8.93325,1.78665 v -1.1911 l -2.3822,-1.78665 -4.7644,-1.78665 1.78665,-4.16885 -12.50654,-0.59555 8.33769,-8.93325 7.1466,-7.14659 6.55105,-1.1911 -14.88875,-47.64398 22.63089,-4.16885 0.59555,-2.97775 -2.3822,-2.97775 0.59555,-2.97775 0.59555,-2.38219 1.1911,-2.97775 v -3.5733 l 1.1911,-2.97775 2.3822,-2.3822 1.1911,-2.3822 -0.59555,-3.5733 2.3822,-2.97774 5.9555,-1.1911 5.35995,-1.78665 7.74214,1.1911 8.93325,-9.5288 5.35995,-5.9555 m 100.6479,-85.16361 4.16885,-4.168848 4.16885,3.573298 1.1911,0.59555 1.1911,-0.59555 h 1.78665 l 2.3822,-0.595549 1.78664,0.595549 2.97775,1.1911 h 3.5733 l 4.7644,3.573298 4.16885,-2.382199 h 2.97775 l 1.1911,1.78665 0.59555,1.191099 2.97774,2.382199 2.3822,2.977749 1.78665,2.977748 v 2.977749 l -1.1911,2.977749 -1.1911,2.382199 -1.78665,2.382199 -2.97774,1.786649 h -1.78665 l -3.5733,0.59555 -0.59555,2.382199 -1.1911,2.382198 -1.1911,1.1911 -1.78665,1.191099 -1.78665,-1.191099 -1.78665,-0.59555 -2.3822,-1.191099 -2.97775,-1.786649 -2.38219,-0.59555 v -1.1911 0 h 1.78664 0.59555 v -1.191099 l -1.1911,-1.1911 -0.59555,-0.595549 v -1.1911 l 0.59555,-0.59555 0.59555,-0.595549 0.59555,-0.59555 1.78665,0.59555 v -1.78665 l -0.59555,-1.786649 -1.1911,-1.191099 -2.38219,-1.786649 -1.78665,-1.78665 -5.9555,-5.955497 -0.59555,-1.786649 h -2.3822 V 45.85733"
     id="path12"
     inkscape:connector-curvature="0" />
  <path
     d="m 193.55366,34.541885 4.16885,-6.551047 h 1.78665 l 1.1911,-1.78665 V 23.82199 l 1.1911,-0.59555 1.1911,-0.59555 1.1911,0.59555 1.78664,-2.977749 2.3822,-1.786649 v -3.573299 l -1.1911,-1.191099 1.78665,-1.191099 v -1.78665 l 0.59555,-1.7866489 -0.59555,-1.1910995 1.1911,-1.1910995 h 0.59555 L 210.22905,5.3599476 210.8246,3.5732984 214.3979,0 l 0.59555,2.382199 4.16885,3.5732984 4.16885,-0.5955498 2.97775,2.382199 h 0.59555 l 2.38219,-1.7866492 -0.59555,2.9777487 v 1.1910999 1.191099 l 1.1911,2.382199 1.1911,1.191099 2.3822,-0.595549 1.1911,1.191099 v 1.1911 l -0.59555,1.191099 -1.1911,2.382199 h 2.97775 v 1.1911 l 7.74215,1.191099 -0.59555,1.1911 -1.78665,2.977748 -1.78665,3.573299 v 4.764398 l 0.59555,0.595549 v 1.78665 l 1.78665,0.595549 -1.1911,5.955498 0.59555,5.955497 0.59555,3.573298 -0.59555,5.359948 9.52879,-4.168848 22.03535,-1.786649 21.43979,-16.675393 1.1911,2.382199 3.57329,1.786649 2.97775,-2.382199 1.78665,2.382199 -3.5733,3.573299 -5.95549,6.551047 -2.97775,3.573298 -3.5733,2.977749 h -2.97775 l -11.31544,9.528796 2.97774,5.359947 -8.33769,4.168848 -1.78665,-4.168848 -4.7644,3.573299 9.5288,11.910995 -5.35995,10.719895 -5.35995,10.124343 -2.97775,4.16885 -1.78665,-1.1911 v 1.78665 l -7.74214,17.27094 -14.2932,15.4843 -7.74214,-1.1911 -5.35995,1.78665 -5.9555,1.1911 -2.3822,2.97774 -11.31544,0.59555 -5.9555,0.59555 -4.7644,-1.78665 h -3.5733 l -4.76439,2.3822 -8.93325,0.59555 -4.7644,-8.93324 -0.59555,-4.16885 v -10.7199 l -0.59555,-3.5733 v -8.33769 l 0.59555,-16.07984 -0.59555,-20.248696 1.78665,-2.977748 1.1911,-2.977749 1.78665,-5.955497 1.1911,-5.955498 h 1.1911 v 0 h 1.78665 l 1.1911,-0.595549 v -1.78665 h 2.3822 l 1.78665,-1.191099 1.1911,-1.786649 2.38219,-2.977749 v -2.977749 l -1.1911,-2.382199 1.1911,-2.382199 0.59555,-1.786649 2.97775,-2.977749 2.3822,-2.382199"
     id="path14"
     inkscape:connector-curvature="0" />
  <path
     d="m 64.319375,231.66885 -5.9555,4.7644 -3.5733,2.3822 -1.1911,2.38219 -1.1911,-1.1911 -4.7644,0.59555 -5.955493,1.1911 -7.742147,1.78665 -7.146597,1.78665 1.78665,2.3822 1.786649,2.97775 v 2.97775 l 6.551047,-1.1911 v 4.7644 l -6.551047,0.59555 0.59555,4.16884 3.573298,5.35995 1.786649,3.5733 2.382199,5.35995 1.786649,4.16885 1.1911,-0.59555 v -0.59555 -1.1911 l 0.59555,-0.59555 h 1.191099 l 2.977744,2.97775 0.59555,2.97775 2.3822,2.97774 2.97775,-0.59555 1.1911,1.78665 0.59555,1.78665 v 1.1911 l -0.59555,1.78665 v 1.78665 l 1.78665,4.16885 1.1911,4.16885 -3.5733,0.59555 6.55105,13.10209 -2.3822,0.59555 -4.7644,2.97775 4.16885,2.3822 -8.93325,2.97775 1.78665,3.5733 h 14.88875 l 4.16885,3.57329 2.38219,8.3377 7.74215,-1.1911 1.78665,13.1021 14.88874,-2.3822 12.506545,2.3822 -1.78665,2.38219 0.59555,8.3377 1.78665,1.1911 4.16885,-1.1911 3.57329,-1.1911 1.78665,3.5733 3.5733,-1.1911 h 3.5733 v -5.35995 l 1.1911,-3.5733 -1.1911,-2.3822 v -3.57329 h 1.1911 l 1.78665,2.97775 2.3822,-1.78665 4.16885,2.97774 1.78665,-2.97774 h 1.19109 l 5.9555,6.55104 h 4.16885 l 0.59555,-1.1911 5.9555,-0.59555 7.74214,-0.59555 5.35995,1.1911 6.55105,-4.16884 2.3822,-0.59555 -1.78665,-2.97775 -1.1911,-1.78665 -1.78665,-0.59555 -2.97775,1.1911 v -2.97775 l 2.3822,-3.5733 -1.78665,-2.97775 -5.9555,-5.9555 -2.3822,1.1911 -0.59555,-2.97775 -1.19109,-1.19109 -4.7644,-2.97775 -4.7644,-3.5733 h -1.78665 v -1.78665 l 1.1911,-2.3822 -5.9555,-4.16885 v -1.78665 l -2.97775,-1.78665 -5.95549,-2.97775 -6.55105,-4.76439 7.1466,-1.1911 -8.93325,-10.12435 -4.7644,-9.52879 -0.59555,-0.59555 h -4.7644 l -2.38219,1.1911 -1.78665,1.1911 -0.59555,-2.3822 v -2.97775 l -3.5733,0.59555 -2.97775,-4.16885 -2.97775,3.5733 -2.382195,-1.78665 -1.1911,-1.78665 -2.97775,-4.16885 -2.3822,-4.7644 v -1.78665 l -3.57329,-2.97774 -3.5733,-3.5733 -4.7644,-7.74215 -2.97775,-4.7644 -3.5733,-1.78665 -3.5733,-2.97775 -2.97774,-3.57329"
     id="path16"
     inkscape:connector-curvature="0" />
</svg>
