<?xml version="1.0" encoding="UTF-8" standalone="no"?>
<svg
   xmlns:dc="http://purl.org/dc/elements/1.1/"
   xmlns:cc="http://creativecommons.org/ns#"
   xmlns:rdf="http://www.w3.org/1999/02/22-rdf-syntax-ns#"
   xmlns:svg="http://www.w3.org/2000/svg"
   xmlns="http://www.w3.org/2000/svg"
   xmlns:sodipodi="http://sodipodi.sourceforge.net/DTD/sodipodi-0.dtd"
   xmlns:inkscape="http://www.inkscape.org/namespaces/inkscape"
   version="1.1"
   id="svg18"
   sodipodi:docname="Атырауская.svg"
   width="540.74579"
   height="257.30688"
   inkscape:version="0.92.3 (unknown)">
  <metadata
     id="metadata24">
    <rdf:RDF>
      <cc:Work
         rdf:about="">
        <dc:format>image/svg+xml</dc:format>
        <dc:type
           rdf:resource="http://purl.org/dc/dcmitype/StillImage" />
        <dc:title />
      </cc:Work>
    </rdf:RDF>
  </metadata>
  <defs
     id="defs22" />
  <sodipodi:namedview
     pagecolor="#ffffff"
     bordercolor="#666666"
     borderopacity="1"
     objecttolerance="10"
     gridtolerance="10"
     guidetolerance="10"
     inkscape:pageopacity="0"
     inkscape:pageshadow="2"
     inkscape:window-width="1855"
     inkscape:window-height="1056"
     id="namedview20"
     showgrid="false"
     fit-margin-top="0"
     fit-margin-left="0"
     fit-margin-right="0"
     fit-margin-bottom="0"
     inkscape:zoom="1.668772"
     inkscape:cx="312.44028"
     inkscape:cy="56.748975"
     inkscape:window-x="65"
     inkscape:window-y="24"
     inkscape:window-maximized="1"
     inkscape:current-layer="svg18" />
  <path
     d="m 491.53789,201.931 -5.9482,-5.72854 -9.73343,10.02495 -10.81491,-0.47738 -12.97789,1.43214 -16.76312,6.68329 -3.78523,0.47739 -11.35565,3.81902 h -8.1112 l -2.16297,1.43212 -4.32597,-0.47737 -0.54074,3.34165 -4.32598,6.20592 -11.8964,8.11543 h 7.02969 l -2.70371,3.81903 -4.86672,3.81901 -19.46686,8.11544 -5.94819,-0.47738 -2.16298,5.25116 -2.16299,-0.95476 -2.70373,-0.47736 -0.54075,-4.29642 -1.08149,-1.90951 -1.62223,-0.95475 -1.08149,-0.47738 0.54074,-1.90951 1.08149,-0.95477 2.70373,-1.43212 1.62225,-1.43215 1.08148,-0.95474 1.08149,-1.90953 v -3.81902 l 1.0815,-1.43213 1.08148,-1.43214 1.0815,-1.90951 1.08148,-2.38689 1.08151,-1.90952 v -2.86427 -3.34164 l 0.54073,-5.72855 -1.08148,-0.95475 -1.0815,-0.47737 -1.08149,-0.47739 -1.08148,-0.95476 -1.0815,-0.47737 -1.08149,-0.47737 3.78522,-2.86428 1.08148,-1.43213 v -1.90951 l -2.70371,-1.90952 h 0.54073 l 0.54075,-0.47737 v -0.47739 -1.43213 l -0.54075,-0.95476 -1.08148,-0.47737 v -1.43214 h -0.54075 l 0.54075,-2.86427 0.54075,-0.95476 -0.54075,-1.43214 -0.54075,-0.95475 -1.08149,-0.47737 -1.62223,-0.95476 -1.62225,-1.43213 -1.08149,-1.90953 v -2.38689 -1.43212 l 1.08149,-0.95477 v -1.43212 -0.95477 l -1.62224,-0.95475 -1.62223,-1.43215 -2.70372,-0.95474 -2.16299,-1.43213 -0.54075,-1.43214 -3.24447,-1.90952 -2.70373,-1.43212 h -3.78523 l -0.54075,0.47736 -0.54073,1.43215 0.54073,0.47738 1.08151,0.95475 -3.78522,0.47737 h -2.163 v -5.72854 l 0.54076,-4.2964 10.27416,-4.77378 2.16299,-0.47739 h 2.70373 l 2.16299,1.43215 8.11117,-0.95476 2.70374,-1.43214 14.60013,-12.41183 v -3.34164 l 5.9482,-2.86428 h 1.62224 l 0.54075,3.81903 v 3.34165 h 7.02969 l 0.54075,-1.90952 -1.0815,-1.90952 -3.24447,-2.86425 -0.54075,-3.34166 2.16299,-4.77379 h -2.16299 l 4.32597,-19.09512 0.54075,-1.43213 13.51863,2.86427 2.16299,-0.47738 3.78523,-1.43214 20.54833,2.86427 2.70374,-0.47738 2.16298,-1.90951 h 3.24447 l 3.24448,0.47738 1.62222,-7.16067 7.0297,0.47737 h 2.163 2.16297 l 4.86672,-1.43213 h 1.08148 l -1.08148,4.77378 -0.54076,9.54757 v 10.02493 l -1.08148,2.38689 -0.54075,16.23087 6.48894,8.5928 1.08151,3.81904 2.16298,2.38689 3.24447,5.72853 3.24448,5.72854 9.19267,7.63806 14.0594,4.2964 15.68163,2.86428 15.68161,4.2964 2.16299,8.11542 7.57044,9.0702 0.54075,3.34165 1.62223,2.86425 -0.54074,2.86428 -5.40746,0.47737 -1.62224,-0.95474 h -3.24447 l -4.86672,0.95474 -3.78522,-1.43212 -4.86671,-3.34166 h -3.24446 l -1.62225,-2.38689 -2.16297,1.43214 -4.86672,-1.43214 -1.08149,-1.43212 2.16298,-2.3869 -1.62225,-2.38689 -0.54073,-2.86427 -1.0815,-1.43214 -2.70372,0.47739 -3.24449,0.47737 -1.62223,-0.95476"
     id="path4"
     inkscape:connector-curvature="0"
     style="stroke-width:1.66037595" />
  <path
     d="m 332.01789,168.03714 h -13.51864 l -5.40745,-9.07018 -2.16299,-9.54757 8.65194,-4.77377 3.24447,-0.47739 4.32597,-0.95476 4.8667,-2.38689 3.78522,-1.90951 2.163,-2.38689 4.32596,-3.81902 -2.16298,-7.16068 14.05938,-7.16067 0.54075,-2.86427 8.65193,-2.38689 1.0815,1.90951 2.16298,1.43213 v 2.86427 l 4.86671,-1.90951 7.57044,-3.34165 3.24447,-0.95475 4.32597,-2.38689 3.78522,1.43213 -4.32597,19.09512 h 2.16299 l -2.16299,4.77379 0.54075,3.34166 3.24447,2.86425 1.0815,1.90952 -0.54075,1.90952 h -7.02969 l -0.54075,-7.16068 h -1.62224 l -5.9482,2.86428 v 3.34164 l -14.60013,12.41183 -2.70374,1.43214 -8.11117,0.95476 -2.16299,-1.43215 h -2.70373 l -2.16299,0.47739 -10.27416,4.77378"
     id="path6"
     inkscape:connector-curvature="0"
     style="stroke-width:1.66037595" />
  <path
     d="m 310.92881,149.41939 -0.54074,-2.86427 0.54074,-4.29641 0.54075,-2.86425 2.16298,-5.25117 3.78522,-9.54757 0.54076,-2.86425 2.70372,-10.97971 2.70372,-7.63806 2.163,-4.773779 v -3.341647 l 0.54073,-4.296405 1.0815,-4.296403 5.40746,-11.934458 -3.24447,-1.909512 -3.24449,-7.638054 -1.08149,-0.477377 0.54076,-1.909512 -3.24449,-2.386892 -1.62223,-4.296405 h -2.70372 l -1.62226,-5.728538 4.32598,-13.84397 2.70372,1.432135 2.163,0.477377 1.08148,-1.909512 -1.62224,-17.185617 4.32598,1.432134 1.62223,-2.864269 1.62224,-2.386892 6.48894,1.432135 17.30387,0.477379 7.02969,-2.864271 -2.16297,-2.864269 9.73341,-6.2059171 L 375.27756,0 l 3.24448,3.819026 4.32596,2.3868914 3.78522,0.9547565 v 1.4321348 l 2.70374,1.4321343 1.62223,-4.296404 4.8667,-1.4321347 1.62224,10.5023217 -1.08148,3.341648 1.62224,2.86427 v 5.728539 l 2.16298,4.773782 -0.54076,3.819026 5.94821,1.432135 2.16299,0.954757 4.86671,0.954756 8.65194,3.341647 2.16297,1.432135 3.24448,-0.477378 1.08148,-5.25116 v -5.251161 l 2.70374,0.477378 1.08148,-1.909513 h 2.163 l 3.78521,1.909513 0.54075,2.386891 8.65193,1.909514 1.62224,10.502321 -0.54075,2.386892 v 3.819026 l -1.62224,1.432134 1.0815,0.954757 -0.54075,6.683296 3.78522,4.773782 1.62224,1.909513 -1.0815,5.728539 0.54075,6.205917 6.48895,8.592809 1.08149,2.386891 2.16298,11.934458 -5.9482,1.43213 h -2.16297 -2.163 l -7.0297,-0.47737 -1.62222,7.16067 -3.24448,-0.47738 h -3.24447 l -2.16298,1.90951 -2.70374,0.47738 -20.54833,-2.86427 -3.78523,1.43214 -2.16299,0.47738 -13.51863,-2.86427 -0.54075,1.43213 -3.78522,-1.43213 -4.32597,2.38689 -3.24447,0.95475 -12.43715,5.25116 v -2.86427 l -2.16298,-1.43213 -1.0815,-1.90951 -8.65193,2.38689 -0.54075,2.86427 -14.05938,7.16067 2.16298,7.16068 -4.32596,3.81902 -2.163,2.38689 -3.78522,1.90951 -4.8667,2.38689 -4.32597,0.95476 -3.24447,0.47739"
     id="path8"
     inkscape:connector-curvature="0"
     style="stroke-width:1.66037595" />
  <path
     d="m 332.01789,168.03714 h -13.51864 l -5.40745,-9.07018 -2.16299,-9.54757 8.65194,-4.77377 3.24447,-0.47739 4.32597,-0.95476 4.8667,-2.38689 3.78522,-1.90951 2.163,-2.38689 4.32596,-3.81902 -2.16298,-7.16068 14.05938,-7.16067 0.54075,-2.86427 8.65193,-2.38689 1.0815,1.90951 2.16298,1.43213 v 2.86427 l 4.86671,-1.90951 7.57044,-3.34165 3.24447,-0.95475 4.32597,-2.38689 3.78522,1.43213 -4.32597,19.09512 h 2.16299 l -2.16299,4.77379 0.54075,3.34166 3.24447,2.86425 1.0815,1.90952 -0.54075,1.90952 h -7.02969 l -0.54075,-7.16068 h -1.62224 l -5.9482,2.86428 v 3.34164 l -14.60013,12.41183 -2.70374,1.43214 -8.11117,0.95476 -2.16299,-1.43215 h -2.70373 l -2.16299,0.47739 -10.27416,4.77378"
     id="path10"
     inkscape:connector-curvature="0"
     style="stroke-width:1.66037595" />
  <path
     d="m 306.06211,81.154303 -8.1112,2.864271 -4.86671,3.819027 -15.68162,7.160673 h -2.16299 l -5.94819,2.38689 -5.40747,0.477379 -5.40746,0.954756 0.54075,9.547561 -13.51864,-3.81902 -10.27417,-4.773784 h -7.0297 l -5.40746,1.909514 -4.86671,-0.95476 -5.40745,1.43214 -1.0815,3.34165 3.24448,1.43213 2.70373,-0.47738 12.97789,4.77378 h 3.78522 l 8.65194,19.09514 12.9779,12.8892 1.62223,0.47739 -2.70373,5.25116 -3.78521,2.38689 -6.48895,2.38689 1.62223,1.43213 -0.54074,2.86428 2.16298,7.16067 h 5.9482 l 4.32598,1.90951 2.70372,-0.95476 h 2.16298 l 1.62224,0.47738 1.62223,0.95477 1.62224,1.43212 v 1.90952 l -0.54074,0.95476 h -2.70373 l -2.16299,-0.95476 h -2.70373 l -2.16298,-0.47739 h -4.32596 l -2.70373,0.95476 -3.78522,1.43214 0.54074,0.95475 3.24448,1.43214 2.16297,0.95476 3.78523,0.95474 6.48895,0.47739 5.94821,1.90951 1.62224,0.47738 2.70371,-3.81902 0.54075,-1.90951 3.24447,-4.77379 0.54076,-2.86427 -2.16299,-1.90951 1.0815,-3.81902 v -1.43215 l 2.16298,-1.90951 2.70373,0.47739 1.08149,-0.47739 h 0.54075 v 0.47739 l -1.62224,1.43212 v 0.47739 l 1.08149,0.47738 h 5.40746 v -1.43214 l -0.54075,-0.95475 0.54075,-0.95476 -1.0815,-1.43213 -0.54073,-0.95476 v -1.90952 l 0.54073,-0.47737 v -1.43214 h -1.62223 l -0.54076,-0.95476 0.54076,-1.43213 0.54074,-0.47738 v -1.43214 -1.9095 l 11.89642,-8.11544 4.86671,-0.47738 4.8667,2.86427 4.32597,-0.47738 5.9482,-13.84397 0.54076,-2.86425 2.70372,-10.97971 2.70372,-7.63806 2.163,-4.773779 v -3.341647 l 0.54073,-4.296405 1.0815,-4.296403 -13.51865,-2.386892"
     id="path12"
     inkscape:connector-curvature="0"
     style="stroke-width:1.66037595" />
  <path
     d="m 317.95852,55.853256 -7.02971,2.386891 -7.57044,-2.864269 -5.94819,-3.341648 -2.16299,-0.477378 -4.86672,2.386892 -8.65193,-0.477379 -2.16298,-0.954756 h -3.78522 l 0.54075,-2.386891 2.70372,-0.47738 -1.08149,-4.773781 -7.02969,-2.386891 -12.97789,-0.954757 -11.89642,0.477377 -9.19267,3.341649 -3.78522,-0.954757 -2.16299,4.296405 -0.54075,3.341647 -4.32595,3.819026 h -2.16299 l -4.32597,3.819026 -2.70374,0.477379 -28.11878,15.753482 -13.51863,14.798726 -3.24448,0.477378 8.11119,3.819027 3.78522,-0.477378 2.16298,2.38689 2.16299,0.954757 8.65193,-5.251161 3.78522,1.432136 1.62223,1.432135 5.40746,1.909511 2.70374,1.432135 1.62223,1.909511 0.54075,1.43214 5.40745,-1.43214 4.86671,0.95476 5.40746,-1.909514 h 7.0297 l 10.27417,4.773784 13.51864,3.81902 -0.54075,-9.547561 10.81493,-1.432135 5.94819,-2.38689 h 2.16299 l 15.68162,-7.160673 4.86671,-3.819027 8.1112,-2.864271 7.57043,2.864271 13.51865,2.386892 5.40746,-11.934458 -3.24447,-1.909512 -3.24449,-7.638054 -1.08149,-0.477377 0.54076,-1.909512 -3.24449,-2.386892 -1.62223,-4.296405"
     id="path14"
     inkscape:connector-curvature="0"
     style="stroke-width:1.66037595" />
  <path
     d="m 171.95715,91.179247 h -7.02969 l -4.32597,1.909514 -18.38536,0.954757 -0.54073,5.25116 3.7852,2.864272 -3.7852,4.77378 5.40745,1.43213 13.51864,10.9797 h 2.70373 l 3.78522,3.34166 -10.27418,4.29639 v 12.41185 l 3.24449,6.68329 2.70372,8.11542 5.40746,7.16068 -4.32597,7.63805 -1.08149,4.77378 4.86672,3.34164 -1.62223,4.29642 -1.62225,0.95475 -2.70373,2.38689 v 3.34166 l 4.86671,-1.43215 3.78522,-1.90951 h 4.32598 v 15.75349 l -0.54076,4.29641 1.62224,4.77377 2.16298,-4.2964 1.0815,-0.47737 1.62224,-1.90952 1.62223,-0.95476 2.70372,-0.95476 1.62225,-1.43213 v -1.43212 l 1.62224,-1.90953 1.08149,-0.95475 h 0.54074 l -0.54074,0.47739 -0.54076,1.9095 -0.54073,1.90951 v 1.43213 h 2.16299 l 2.16297,-0.47737 1.08149,-1.43213 v -4.29641 h 0.54076 l 1.62222,-2.3869 1.0815,-2.38688 1.0815,-1.90951 v -0.47738 l 0.54073,-0.47738 0.54075,0.47738 v 1.43212 0.95477 l 1.08149,1.90951 h 1.0815 V 184.268 l 0.54075,-0.95475 h 1.62223 l 1.08148,-0.47737 0.54076,-1.90952 v 0 h 0.54075 0.54073 v 0.47738 0.47737 l -0.54073,0.47738 v 1.90951 h 1.62223 1.62224 l 1.08148,-0.95475 1.0815,-1.43214 0.54074,-0.95475 1.0815,-0.95476 0.54073,-0.47738 0.54075,-1.90951 0.54075,-0.47739 h 1.08149 2.16299 l 1.08149,-0.47736 1.08149,-0.47738 v -2.3869 l 1.08148,-0.95475 h 3.24449 l 0.54074,-0.47737 0.54075,-0.47738 0.54074,-0.47739 h 1.08149 1.08149 v -0.47737 l 0.54075,-0.95475 0.54075,-0.47739 h 6.48895 l 0.54074,-0.95475 0.54074,-0.95475 h 1.62224 l 1.0815,-0.47739 0.54074,-0.47738 h 1.0815 1.62224 1.08148 l 1.0815,-0.47738 0.54073,-0.95475 h 2.70374 l -2.16298,-7.16067 0.54074,-2.86428 -1.62223,-1.43213 6.48895,-2.38689 3.78521,-2.38689 2.70373,-5.25116 -1.62223,-0.47739 -12.9779,-12.8892 -8.65194,-19.09514 h -3.78522 l -12.97789,-4.77378 -2.70373,0.47738 -3.24448,-1.43213 1.0815,-3.34165 -0.54075,-1.43214 -1.62223,-1.909511 -2.70374,-1.432135 -5.40746,-1.909511 -1.62223,-1.432135 -3.78522,-1.432136 -8.65193,5.251161 -2.16299,-0.954757 -2.16298,-2.38689 -3.78522,0.477378"
     id="path16"
     inkscape:connector-curvature="0"
     style="stroke-width:1.66037595" />
  <path
     d="M 145.4606,102.15895 129.23824,97.862543 110.31214,90.701869 83.815593,88.314977 48.667119,81.154303 38.392949,81.631682 16.222374,77.812657 11.355661,77.335278 6.4889491,75.903143 3.2444746,76.8579 v 5.25116 l 1.6222373,2.386892 -3.2444745,5.25116 5.9482033,2.86427 L 0,97.385164 l 5.4074576,10.979696 -2.7037287,3.34165 4.325966,3.81903 13.5186451,8.59281 2.703728,-11.93446 11.896407,5.25116 18.385356,1.43214 4.866712,-0.95476 4.866711,0.95476 7.029695,8.11542 10.814916,17.18562 4.866711,1.43214 10.814915,22.91416 18.926099,25.77842 -6.48895,4.2964 -7.57044,-0.47736 -3.244471,-4.7738 -6.488949,-1.43213 -7.029695,2.86427 -3.244474,6.6833 5.407457,5.25116 -2.162983,2.38689 v 0.95476 l 2.162983,1.43213 2.703728,0.47737 5.948204,0.95476 4.86671,1.43215 4.32597,4.2964 15.68162,6.20591 7.57045,3.81903 7.02969,5.25116 12.9779,-0.95476 8.11119,-0.47739 9.19267,-5.25115 v -2.38689 -1.90951 -2.38689 l 1.62224,-1.43214 2.70374,-1.43213 2.70371,-2.3869 1.62224,-2.38689 1.62224,-3.34165 -1.62224,-4.77377 0.54076,-4.29641 v -15.75349 h -4.32598 l -3.78522,1.90951 -4.86671,1.43215 v -3.34166 l 2.70373,-2.38689 1.62225,-0.95475 1.62223,-4.29642 -4.86672,-3.34164 1.08149,-4.77378 4.32597,-7.63805 -5.40746,-7.16068 -2.70372,-8.11542 -3.24449,-6.68329 v -12.41185 l 10.27418,-4.29639 -3.78522,-3.34166 h -2.70373 l -13.51864,-10.9797 -5.40745,-1.43213"
     id="path18"
     inkscape:connector-curvature="0"
     style="stroke-width:1.66037595" />
  <path
     style="fill:none;stroke:#000000;stroke-width:1px;stroke-linecap:butt;stroke-linejoin:miter;stroke-opacity:1"
     d="m 303.89911,181.40374 v 1.43214 l -0.54074,0.47737 h -5.40746 l -3.24447,-1.90951 h -3.78522 l -2.70373,2.86426 h -7.57045 l -1.08148,-1.43212 h -5.40745 v -1.90952 l -1.62224,-0.47737 -0.54076,-0.47739 h -1.62222 l 2.70371,-3.81902 0.54075,-1.90951 3.24447,-4.77379 0.54076,-2.86427 -1.62224,-3.81902 0.54075,-1.90951 v -1.43215 l 2.16298,-1.90951 2.70373,0.47739 1.08149,-0.47739 h 0.54075 v 0.47739 l -1.62224,1.43212 1.08149,0.95477 h 5.40746 v -1.43214 l -0.54075,-0.95475 0.54075,-0.95476 -1.62223,-2.38689 v -1.90952 l 0.54073,-0.47737 v -1.43214 h -1.62223 l -0.54076,-0.95476 1.0815,-1.90951 v -3.34164 l 11.89642,-8.11544 4.86671,-0.47738 4.8667,2.86427 4.32597,-0.47738 -1.08149,8.11543 2.70373,12.41184 5.40745,9.07018 h 13.51864 v 5.72854 h -4.32596 l -5.94819,-3.81901 h -2.16299 l -11.35566,-3.34166 -0.54075,0.47738 3.24447,1.43214 2.16299,2.38689 1.08149,2.86426 v 1.43214 l -2.70373,2.38689 -1.62224,0.95476 v 5.25117 l -1.0815,0.47736 -1.62223,-2.86426 -4.32596,-1.90952 -1.0815,-1.90951 3.78522,-1.43213 1.0815,-0.47738 v -1.43213 l -2.70374,-0.95476 h -1.62222 l -2.70374,0.95476 -1.08149,0.95475 -1.08148,2.38689 0.54073,1.43214 z"
     id="path15"
     inkscape:connector-curvature="0" />
  <path
     style="fill:#000000;fill-opacity:1;stroke:#ffffff;stroke-width:0.29962152;stroke-opacity:1"
     d="m 280.35491,182.81894 c -0.45962,-0.70149 -0.6521,-0.74906 -3.03067,-0.74906 h -2.53988 v -0.86552 c 0,-0.73722 -0.14433,-0.89406 -0.97377,-1.05812 -0.53557,-0.10593 -1.21919,-0.37868 -1.51916,-0.60611 -0.51848,-0.3931 -0.50076,-0.47513 0.3591,-1.66213 0.49747,-0.68674 1.06474,-1.74358 1.26061,-2.34854 0.19587,-0.60496 1.06871,-2.14038 1.93966,-3.41204 1.07572,-1.57066 1.69135,-2.83144 1.91972,-3.93149 0.30951,-1.4909 0.27466,-1.75846 -0.4393,-3.37286 -0.65722,-1.48608 -0.74473,-2.00602 -0.57384,-3.40925 0.16377,-1.3447 0.37364,-1.80129 1.11721,-2.43054 0.72188,-0.61089 1.10985,-0.73441 1.83398,-0.58389 0.7154,0.1487 0.89882,0.32986 0.82979,0.81953 -0.0587,0.41649 0.20966,0.84102 0.7953,1.25804 0.75839,0.54002 1.31564,0.62942 3.92334,0.62942 h 3.03939 l -0.10834,-2.34698 c -0.0855,-1.85228 -0.25313,-2.55032 -0.79526,-3.31168 -0.52645,-0.73933 -0.64057,-1.18848 -0.48847,-1.92263 0.10916,-0.52686 0.27241,-1.46354 0.36278,-2.08151 0.16393,-1.12096 0.1618,-1.12358 -0.91584,-1.12358 -1.18215,0 -1.3701,-0.40097 -0.64024,-1.36593 0.26148,-0.34571 0.44377,-1.26146 0.44943,-2.25777 l 0.01,-1.67616 5.60193,-3.84294 c 5.71763,-3.92231 6.52586,-4.29854 9.29561,-4.32712 0.97933,-0.0101 1.78988,0.29741 3.5915,1.36256 2.29421,1.35637 2.35353,1.37273 4.24286,1.1704 1.8986,-0.20332 1.91463,-0.19877 1.75241,0.49703 -0.0901,0.38623 -0.32522,2.11794 -0.5226,3.84826 l -0.35888,3.14602 1.36797,6.22029 1.36797,6.22029 2.78393,4.64099 2.78392,4.64099 h 6.66812 6.66811 v 2.24717 2.24716 h -1.79044 c -1.69506,0 -1.95081,-0.10374 -4.80123,-1.94754 -2.50879,-1.62281 -3.22412,-1.94754 -4.29015,-1.94754 -0.70364,0 -3.82179,-0.75186 -6.92922,-1.67079 l -5.64989,-1.67079 -0.72795,0.72796 -0.72796,0.72795 1.94275,0.82569 c 1.06851,0.45412 2.42189,1.31659 3.0075,1.9166 1.05909,1.08512 1.9893,3.12434 1.9893,4.36098 0,0.62499 -1.4854,2.06381 -3.35907,3.25371 -0.76895,0.48833 -0.8169,0.65573 -0.89886,3.13828 l -0.0866,2.62243 -0.74906,-1.26473 c -0.62265,-1.05131 -1.11805,-1.42576 -2.9358,-2.21903 -3.17109,-1.38388 -3.25341,-1.79013 -0.57743,-2.84983 2.16451,-0.85716 2.16496,-0.85757 2.25544,-2.09724 0.0901,-1.23384 0.0836,-1.24228 -1.32677,-1.72282 -1.7784,-0.60597 -3.55831,-0.61468 -5.22795,-0.0256 -1.64767,0.58133 -2.26657,1.14944 -3.14996,2.89142 -0.65514,1.2919 -0.67758,1.48015 -0.28773,2.41319 0.37416,0.89549 0.75286,1.14261 3.28973,2.14669 3.73352,1.4777 3.80402,1.97889 0.27836,1.97889 -2.35179,0 -2.72217,-0.0822 -4.04939,-0.89887 -1.29779,-0.79853 -1.72363,-0.89886 -3.81516,-0.89886 H 290.441 l -1.24281,1.34829 -1.24282,1.3483 h -3.55483 c -3.46119,0 -3.56775,-0.0197 -4.04563,-0.74905 z"
     id="path17"
     inkscape:connector-curvature="0" />
</svg>
