<?xml version="1.0" encoding="UTF-8" standalone="no"?>
<svg
   xmlns:dc="http://purl.org/dc/elements/1.1/"
   xmlns:cc="http://creativecommons.org/ns#"
   xmlns:rdf="http://www.w3.org/1999/02/22-rdf-syntax-ns#"
   xmlns:svg="http://www.w3.org/2000/svg"
   xmlns="http://www.w3.org/2000/svg"
   xmlns:sodipodi="http://sodipodi.sourceforge.net/DTD/sodipodi-0.dtd"
   xmlns:inkscape="http://www.inkscape.org/namespaces/inkscape"
   version="1.1"
   id="svg40"
   sodipodi:docname="Восточно-Казахстанская.svg"
   width="449.50848"
   height="343.578"
   inkscape:version="0.92.3 (unknown)">
  <metadata
     id="metadata46">
    <rdf:RDF>
      <cc:Work
         rdf:about="">
        <dc:format>image/svg+xml</dc:format>
        <dc:type
           rdf:resource="http://purl.org/dc/dcmitype/StillImage" />
        <dc:title />
      </cc:Work>
    </rdf:RDF>
  </metadata>
  <defs
     id="defs44" />
  <sodipodi:namedview
     pagecolor="#ffffff"
     bordercolor="#666666"
     borderopacity="1"
     objecttolerance="10"
     gridtolerance="10"
     guidetolerance="10"
     inkscape:pageopacity="0"
     inkscape:pageshadow="2"
     inkscape:window-width="1855"
     inkscape:window-height="1056"
     id="namedview42"
     showgrid="false"
     fit-margin-top="0"
     fit-margin-left="0"
     fit-margin-right="0"
     fit-margin-bottom="0"
     inkscape:zoom="2.36"
     inkscape:cx="288.07809"
     inkscape:cy="118.74004"
     inkscape:window-x="65"
     inkscape:window-y="24"
     inkscape:window-maximized="1"
     inkscape:current-layer="svg40"
     inkscape:measure-start="0,0"
     inkscape:measure-end="0,0" />
  <path
     d="m 190.59161,84.077998 4.49508,2.076 h 5.3941 l -0.44951,1.557 -0.44951,3.114 v 4.152 l 5.39411,1.038 3.59606,3.114 4.9446,0.519 0.89902,1.557002 v 2.076 l -0.44952,1.557 -2.24754,0.519 v 2.595 h 3.14656 l 6.74263,5.19 8.99017,6.228 0.4495,3.633 1.34853,2.076 4.49509,1.038 2.69705,-0.519 3.59606,3.633 1.79804,-1.038 h 4.04558 l 2.69705,2.595 -4.9446,2.595 -4.94459,0.519 -0.44951,1.557 0.44951,1.038 -6.29312,5.19 1.79803,1.557 -0.4495,2.076 -3.59607,0.519 -3.59607,0.519 -0.89901,1.557 v 6.228 l -3.14657,2.076 -2.69705,2.595 -0.4495,1.557 -3.14657,2.595 -3.59606,0.519 -2.69705,1.038 -1.34853,3.114 -1.34852,5.709 -4.04558,8.823 -7.19214,0.519 -5.3941,-1.557 -3.14655,1.557 h -4.04558 l -4.49509,2.595 -2.24754,-1.557 -4.49509,3.114 h -5.3941 l -1.34852,-2.595 -4.04558,-0.519 v -3.633 h -8.99017 l 0.44951,-10.38 1.79803,-9.342 -1.34852,-3.114 v -12.456 l 2.24754,-5.19 2.24754,-9.861 -6.74263,-5.709 -0.89901,-3.633 1.34853,-3.114 -2.69705,-5.19 -3.14657,-7.266 -0.89901,-8.304002 h 9.88918 l 3.59608,1.038 5.3941,1.557 h 5.3941 l 0.4495,-1.038 -1.79803,-4.152 1.79803,-1.038 v -3.114 l 1.79804,-3.114 3.14656,-3.633 4.94459,1.557 3.59607,-1.038"
     id="path2"
     inkscape:connector-curvature="0"
     style="stroke-width:0.93064761" />
  <path
     d="m 329.93923,215.385 11.68722,-0.519 0.89901,-3.114 0.44952,-2.595 1.34852,-2.076 -1.34852,-0.519 v -1.557 h 4.04558 l 8.54065,-4.671 6.74263,-3.114 6.74262,-1.038 12.58625,-1.038 3.59606,17.127 0.89902,4.152 v 5.709 l 2.69705,2.595 1.79804,3.633 v 4.152 l 0.4495,4.152 -5.84361,7.266 v 3.633 l -5.84361,-0.519 -1.79803,0.519 -2.69705,0.519 -2.24754,-0.519 -1.79804,0.519 -3.59607,4.152 -2.69705,2.595 -2.69705,0.519 v 3.114 l -2.69705,-0.519 -5.3941,-4.152 -4.49509,-2.595 -2.69705,0.519 -4.04558,1.038 -2.69705,0.519 -2.69705,-0.519 -2.24753,-0.519 v -4.671 l -3.59607,-5.709 -4.04558,-3.114 1.34853,-1.557 v -3.114 l -0.44952,-5.19 0.44952,-2.076 -0.89902,-5.709 v -2.595"
     id="path4"
     inkscape:connector-curvature="0"
     style="stroke-width:0.93064761" />
  <path
     d="m 319.15103,72.659998 -0.44951,2.595 4.49509,2.595 2.69705,-1.038 1.34852,-1.038 2.69705,2.076 3.59607,-0.519 4.04558,1.557 1.34852,2.595 3.59606,-0.519 0.44952,2.595 h 4.49508 l 2.24755,1.557 1.79803,0.519 0.4495,1.557 -0.4495,2.076 -1.34853,0.519 v 2.595 l 2.24755,1.557 2.69705,2.076 2.24753,3.633 2.69706,2.595002 0.44951,5.709 h 2.69705 v 2.076 l -3.59607,3.633 h -4.49508 l -4.49509,-0.519 -3.59606,-2.595 -3.14657,0.519 -4.49508,-0.519 -1.34853,4.152 -3.14655,0.519 2.24753,2.595 -1.34852,1.557 -3.59607,-0.519 h -2.69705 v 2.595 l -5.84361,1.557 -4.49508,-0.519 -5.84362,5.19 -4.94458,-3.633 -4.04559,-2.595 -7.19213,-1.038 -2.24754,-1.557 -4.04558,-2.076 -3.59606,-1.557 -1.34853,-2.595 -3.14656,-1.038 v -3.114 l -4.49508,1.038 -6.74263,-0.519 -4.49509,-1.038 -1.34852,-3.114 -3.14656,-5.709002 4.9446,-2.595 3.59606,-0.519 7.19214,0.519 2.69705,-2.076 3.14655,-1.557 -5.8436,-4.152 0.4495,-4.152 5.84362,-0.519 4.49508,-1.557 0.89902,-2.595 h 9.88918 l 4.9446,-0.519 8.09115,-5.19 1.34852,1.038 h 1.34853 l 0.89902,-2.595"
     id="path6"
     inkscape:connector-curvature="0"
     style="stroke-width:0.93064761" />
  <path
     d="m 319.60054,135.459 -1.34853,1.557 -3.14656,1.038 -5.84361,2.076 -4.9446,1.038 -4.49508,2.076 -4.49508,3.114 -4.49509,3.114 -2.24754,3.633 -0.44951,3.633 -0.44951,4.671 0.89902,1.557 0.44951,3.114 -0.89902,2.076 -3.14656,0.519 0.44951,4.671 1.79804,1.038 0.4495,4.152 4.49509,2.076 -0.44951,2.595 -3.14656,0.519 -1.79804,1.038 h -2.69705 l -3.14655,-1.557 -1.34853,0.519 -2.69705,1.038 -1.34852,1.557 -2.69705,-0.519 -0.89902,-2.076 -3.14656,2.076 2.24754,4.152 -7.19214,0.519 -9.43967,0.519 h -5.84362 l -0.4495,-9.342 -2.24755,-2.076 v -2.595 l -4.94458,-1.038 -6.74263,-2.076 h -7.64165 l -8.09115,0.519 -8.09115,-1.038 1.34852,-5.709 1.34853,-3.114 2.69705,-1.038 3.59606,-0.519 3.14657,-2.595 0.4495,-1.557 2.69705,-2.595 3.14657,-2.076 v -6.228 l 0.89901,-1.557 3.59607,-0.519 3.59607,-0.519 0.4495,-2.076 -1.79803,-1.557 6.29312,-5.19 -0.44951,-1.038 0.44951,-1.557 4.94459,-0.519 4.9446,-2.595 0.89901,3.114 1.79804,0.519 2.69705,-1.038 h 2.69705 l 1.34852,2.076 4.49509,1.038 5.3941,-0.519 0.44951,-4.152 4.94459,-0.519 0.44951,-2.595 h 4.9446 l 0.4495,1.038 h 1.34853 l 1.79803,-0.519 1.79804,2.595 2.69705,-0.519 v -2.595 l 0.89901,-1.557 -1.34853,-2.076 5.39411,-3.114 v -3.114 l 2.24754,1.557 7.19213,1.038 4.04559,2.595 4.94458,3.633 3.59607,3.114"
     id="path8"
     inkscape:connector-curvature="0"
     style="stroke-width:0.93064761" />
  <path
     d="m 427.48257,142.206 3.59607,3.114 0.4495,2.076 -2.69705,2.595 1.79804,2.076 -0.44951,1.557 -3.14656,4.152 -3.59607,4.152 v 1.557 l -7.64164,4.671 -1.79804,-1.038 -1.79803,0.519 -3.14656,3.114 -10.7882,0.519 -6.29312,1.038 -2.69705,1.557 -2.24754,2.595 -0.44951,3.633 -2.24754,3.633 -2.24755,3.633 -0.4495,4.152 v 3.633 l -12.58625,1.038 -6.74262,1.038 -6.74263,3.114 -8.54065,4.671 h -4.04558 v 1.557 l 1.34852,0.519 -1.34852,2.076 -0.44952,2.595 -0.89901,3.114 -11.68722,0.519 -11.68722,-6.747 -6.29312,-2.595 -2.69705,0.519 -4.49508,-3.633 -8.54067,-4.152 -8.09115,-2.076 -4.04558,2.076 -6.29312,-4.152 -6.74262,-4.671 -2.24754,-4.152 3.14656,-2.076 0.89902,2.076 2.69705,0.519 1.34852,-1.557 2.69705,-1.038 1.34853,-0.519 3.14655,1.557 h 2.69705 l 1.79804,-1.038 3.14656,-0.519 0.44951,-2.595 -4.49509,-2.076 -0.4495,-4.152 -1.79804,-1.038 -0.44951,-4.671 3.14656,-0.519 0.89902,-2.076 -0.44951,-3.114 -0.89902,-1.557 0.44951,-4.671 0.44951,-3.633 2.24754,-3.633 4.49509,-3.114 4.49508,-3.114 4.49508,-2.076 4.9446,-1.038 5.84361,-2.076 3.14656,-1.038 1.34853,-1.557 0.4495,4.152 -1.79803,6.228 8.54066,0.519 2.24754,-4.152 1.79803,0.519 h 5.39411 l 3.59606,2.076 1.79804,0.519 0.44951,-1.557 8.99017,0.519 3.14656,-0.519 4.49508,-4.152 4.94459,1.557 2.69705,1.038 1.79804,-0.519 5.84361,-1.038 1.79803,-1.038 2.24755,1.038 -1.34853,2.595 v 3.114 h 3.59607 l 2.69705,-2.595 2.69705,-0.519 3.59607,-3.114 2.24754,-0.519 2.24754,-1.038 2.24755,-0.519 2.69705,3.633 3.14656,3.114 2.24754,0.519 0.89901,-2.595 1.79804,-1.557 2.69705,1.038 1.79803,-1.038 2.24755,1.557 2.24754,-2.595 2.24754,0.519 2.24754,-2.076 h 1.34853 l 0.89902,2.595"
     id="path10"
     inkscape:connector-curvature="0"
     style="stroke-width:0.93064761" />
  <path
     d="m 363.20286,110.028 h 1.79803 l 2.69705,-3.114 4.04558,2.076 h 2.69705 l 1.79804,-1.557 3.59606,3.114 1.79804,-0.519 h 2.69705 l 1.79803,1.038 1.79804,-1.038 h 3.59606 v 2.595 l 1.34852,1.038 2.24755,-2.076 h 4.04558 l 2.69705,2.595 2.24754,-5.709 1.34853,-1.557 h 2.69705 l 4.94459,-4.152 4.04558,-4.671002 -0.89902,-3.633 3.59607,-0.519 2.24753,1.038 2.69706,0.519 -0.89902,2.595 1.34853,2.076002 -0.44951,1.557 -2.69706,0.519 -2.24753,2.595 -1.79804,0.519 0.89902,2.595 2.24754,-0.519 2.69705,-0.519 3.59607,1.038 1.79804,3.114 -0.89902,1.038 0.4495,1.038 2.69705,1.557 2.24755,0.519 v 2.076 l -0.89902,1.038 2.69705,2.595 1.79804,0.519 v 2.076 h 12.13672 v 7.266 l -1.34852,1.038 -2.69705,-1.038 -1.79803,-1.038 -1.79804,0.519 -1.79803,0.519 -5.84362,0.519 -1.79803,0.519 -0.89902,2.076 v 1.557 l -2.69705,1.557 -1.34852,1.557 v 3.633 l -4.94459,-1.038 -0.89902,-2.595 h -1.34853 l -2.24754,2.076 -2.24754,-0.519 -2.24754,2.595 -2.24755,-1.557 -1.79803,1.038 -2.69705,-1.038 -1.79804,1.557 -0.89901,2.595 -2.24754,-0.519 -3.14656,-3.114 -2.69705,-3.633 -2.24755,0.519 -2.24754,1.038 -2.24754,0.519 -3.59607,3.114 -2.69705,0.519 -2.69705,2.595 h -3.59607 v -3.114 l 1.34853,-2.595 -2.24755,-1.038 -1.79803,1.038 -5.84361,1.038 -1.79804,0.519 -2.69705,-1.038 -4.94459,-1.557 -4.49508,4.152 -3.14656,0.519 -8.99017,-0.519 -0.44951,1.557 -1.79804,-0.519 -3.59606,-2.076 h -5.39411 l -1.79803,-0.519 -2.24754,4.152 -8.54066,-0.519 1.79803,-6.228 -0.4495,-4.152 -2.69706,-4.671 -3.59607,-3.114 5.84362,-5.19 4.49508,0.519 5.84361,-1.557 v -2.595 h 2.69705 l 3.59607,0.519 1.34852,-1.557 -2.24753,-2.595 3.14655,-0.519 1.34853,-4.152 4.49508,0.519 3.14657,-0.519 3.59606,2.595 4.49509,0.519 h 4.49508"
     id="path12"
     inkscape:connector-curvature="0"
     style="stroke-width:0.93064761" />
  <path
     d="m 214.86506,227.322 6.29312,3.633 -0.89902,3.114 8.54067,5.709 4.49508,3.114 4.94459,1.557 6.29312,-2.076 6.29312,2.076 4.49509,-0.519 4.04557,1.038 6.74263,-1.038 8.99016,-1.557 0.44952,4.152 -3.14657,6.228 -0.89901,4.152 -3.14656,9.342 h -2.24754 l -0.89902,9.342 -1.79803,6.228 -1.79804,3.633 -4.04558,8.304 -2.69705,5.19 -1.34852,4.671 -0.89902,4.671 -1.34853,2.595 -3.14655,0.519 -1.34853,1.038 v 4.152 l 0.89902,1.038 -0.44951,2.076 -1.79803,2.595 v 5.709 l -1.34853,2.076 0.44951,3.114 h -3.14656 l -4.04558,-5.19 0.44951,-4.152 0.44951,-3.114 -2.69705,-3.633 -1.79804,-3.633 v -5.19 l -1.34852,-3.114 v -3.633 l 0.89902,-3.633 -2.24755,-0.519 -1.79803,-2.595 v -3.114 l -3.14656,-2.595 -4.04558,-1.038 -0.4495,-1.557 -1.34853,-1.038 -3.59607,-0.519 -1.34852,-1.557 -2.24754,-0.519 -2.24755,2.076 -2.69705,-1.557 -4.04557,3.114 -2.24755,-1.038 -1.34852,-2.595 -0.89902,-1.038 -2.24754,2.076 -2.69705,-1.557 1.34853,-2.076 0.4495,-6.228 -2.69705,-0.519 -2.69705,0.519 -4.04557,0.519 -2.69706,1.038 -3.59607,-1.557 -3.59606,-1.557 -3.14656,-0.519 -4.9446,0.519 0.44952,2.595 -10.78821,-4.671 -7.64164,-3.633 -0.44951,-3.114 -8.09116,-2.076 v -10.899 l -1.34852,-3.114 v -3.114 l -3.14656,-3.114 2.24755,-5.19 5.8436,-5.19 0.44951,-2.076 0.89902,-1.557 1.34852,-2.595 3.14657,-0.519 v -2.076 l -2.69705,-2.076 0.4495,-3.633 h 2.69705 l 2.69705,-1.557 1.34853,1.557 -1.34853,2.076 1.79803,2.076 1.79804,7.785 h 6.29312 l 4.94459,10.38 h 10.7882 l 6.29313,-4.671 -3.59608,-4.152 2.24755,-2.595 5.84361,3.114 5.84361,-1.038 -0.44951,-1.038 1.34852,-1.038 2.24755,2.076 7.64164,0.519 4.04558,1.038"
     id="path14"
     inkscape:connector-curvature="0"
     style="stroke-width:0.93064761" />
  <path
     d="m 208.57194,52.418993 4.9446,-0.519 2.69705,-3.633 1.34852,0.519 v 2.076 l 3.14656,-1.55699 h 1.79804 l 1.34852,0.51899 2.24754,0.519 3.14656,1.557 3.59607,1.038 2.24754,-0.519 0.89902,-2.076 1.79803,1.557 1.79804,-1.557 2.24754,0.519 4.04557,1.038 2.69705,-0.519 5.84362,-5.19 v -4.67099 l 10.7882,1.55699 0.89902,5.709 -1.34853,6.22801 -8.54066,6.228 h -4.49508 l -3.14657,2.59499 -0.89901,5.19 -1.79804,3.633 h -4.94458 l -2.69706,-1.55699 h -4.49509 -2.69705 l -2.24753,2.07599 -1.34853,3.11401 v 2.59499 3.11401 l -4.49509,-1.55701 -2.24754,0.519 -2.69705,2.076 -4.04558,-2.595 -0.4495,-4.671 0.4495,-3.114 0.44952,-2.076 -1.79804,-1.557 0.89902,-1.038 1.34852,-2.07599 -0.89902,-2.07601 -2.24754,-2.076 v -2.076 l -0.44951,-3.114 -2.24754,-2.076"
     id="path16"
     inkscape:connector-curvature="0"
     style="stroke-width:0.93064761" />
  <path
     d="m 151.93388,112.104 2.69705,5.19 -1.34853,3.114 0.89901,3.633 6.74263,5.709 -2.24754,9.861 -2.24754,5.19 v 12.456 l 1.34852,3.114 -0.89902,3.633 -0.89901,5.709 -0.44951,10.38 h -1.79803 l -7.64165,1.557 -6.74262,-1.557 -4.49508,-1.038 -2.24755,2.076 -1.79803,0.519 -2.24755,2.076 h -3.14655 l 0.89901,-4.152 0.89902,-2.076 -7.19214,0.519 -5.3941,0.519 -2.69705,3.114 v 4.152 l -7.19214,-1.038 -4.04558,-4.671 -3.146559,-0.519 -3.596066,-3.114 h -4.495084 l -5.3941,-3.114 -0.449514,-4.152 -4.04557,-4.671 -3.596067,-0.519 -4.944598,0.519 -3.596067,-2.076 v -8.304 l 0.449514,-9.342 v -5.709 l 0.899016,-1.557 4.045571,-4.152 v -3.114 l -1.798034,-1.038 0.899016,-2.595 8.540666,-4.152 3.596067,-2.076 1.798033,-1.557 2.697051,-1.038 -0.449504,-3.114 -1.34853,-2.076 1.798034,-2.076 3.146563,-2.076 h 4.045571 l 4.495081,-3.633 6.74264,-1.557 1.79803,-3.114 1.79803,-1.557001 2.24755,1.557001 4.49508,0.519 0.89902,1.557 2.24754,1.038 h 3.14656 l 2.24754,2.595 3.59607,1.038 1.79803,-0.519 h 3.59608 l 2.69705,2.076 3.14655,0.519 4.49508,2.595"
     id="path24"
     inkscape:connector-curvature="0"
     style="stroke-width:0.93064761" />
  <path
     d="m 93.947275,69.026997 -4.045576,-1.038 0.449508,-13.494 -8.091152,-5.19 -0.449509,-2.076 -4.045576,-1.038 -4.495085,-3.114 -2.247543,-6.228 -4.045575,-3.114 -0.449508,-3.633 4.495083,-3.114 4.045577,0.519 2.697051,-3.633 2.697051,2.076 4.944593,-0.519 4.495085,-2.595 2.69705,-1.557 3.14656,0.519 v -3.632998 l -1.798034,-0.519 v -3.633 L 100.24039,12.975 103.83646,14.012999 108.33156,9.861 106.98303,7.266 110.12959,6.228 114.62467,3.114 113.27614,2.594999 115.07418,0.519 119.11976,0 l 27.86952,51.899997 1.79803,4.671 3.14657,4.152 4.49508,1.557 0.4495,4.152 -1.79803,2.595 -6.29312,-2.076 -1.79803,-2.076 -1.79804,2.076 -5.3941,1.038 -5.3941,-1.038 -3.59606,-1.557 -3.14657,-2.595 -4.94458,-2.595 -0.44952,4.152 -4.04557,2.076 h -4.04558 l -4.04557,1.038 -7.19215,1.557 h -4.495083 l -4.045573,-2.076"
     id="path26"
     inkscape:connector-curvature="0"
     style="stroke-width:0.93064761" />
  <path
     d="m 206.3244,182.169 4.04558,-8.823 8.09115,1.038 8.09115,-0.519 h 7.64165 l 6.74263,2.076 4.94458,1.038 v 2.595 l 2.24755,2.076 0.44951,9.342 h 5.84362 l 9.43967,-0.519 7.19214,-0.519 6.74262,4.671 6.29312,4.152 4.04558,-2.076 8.09115,2.076 8.54067,4.152 4.49508,3.633 2.69705,-0.519 6.29312,2.595 11.68722,6.747 -2.24754,3.114 v 2.595 l 0.4495,3.114 0.44952,2.595 -0.44952,2.076 0.44952,5.19 v 3.114 l -1.34853,1.557 4.04558,3.114 3.59606,5.709 v 4.671 l -4.04558,0.519 h -5.3941 l -2.69705,1.557 -5.3941,-0.519 -4.04559,0.519 -6.29311,-2.595 -2.69705,1.038 -0.44951,-1.557 -5.3941,-0.519 -0.89902,-1.038 -4.49508,-2.595 -0.89902,1.038 -2.69706,-3.114 h -6.29311 l -2.69705,-3.114 -5.39411,0.519 -8.99015,1.557 -6.74264,1.038 -4.04557,-1.038 -4.49509,0.519 -6.29312,-2.076 -6.29312,2.076 -4.94459,-1.557 -4.49508,-3.114 -8.54067,-5.709 0.89902,-3.114 -6.29312,-3.633 -0.89902,-8.823 -5.84361,-4.671 -0.4495,-1.557 2.24753,-2.595 2.69706,-0.519 v -4.671 l -1.79804,-2.076 v -2.595 l 1.79804,-1.038 v -2.076 l -7.19214,-3.114 3.14657,-6.747"
     id="path28"
     inkscape:connector-curvature="0"
     style="stroke-width:0.93064761" />
  <path
     d="m 265.21001,43.077006 4.49508,-3.633001 0.44952,-2.595 2.69705,-0.519 0.89901,1.557 2.69705,-1.557 2.24754,0.519 h 1.34853 l 2.24754,-0.519 4.04558,3.633001 5.3941,-0.519001 2.69705,3.114001 h 4.04558 l 7.64164,5.189999 -1.34852,2.076 3.14655,2.595001 -3.59607,1.038 -10.7882,5.709 h -14.83378 v 1.557 l 1.34853,1.03799 v 3.11401 l -1.34853,4.671 -3.59607,3.114 v 2.076 l -1.34852,0.519 -0.44951,3.633 2.69705,2.076 0.44951,2.07599 2.24754,1.55701 -0.4495,4.152 5.8436,4.151999 -3.14655,1.55699 -2.69705,2.07601 -7.19214,-0.519 -3.59606,0.519 -4.9446,2.595 3.14656,5.708995 h -4.04558 l -1.79803,-2.07599 -5.3941,-0.519 -4.49509,-1.038 -4.04558,-4.152004 -0.4495,-5.709 -4.9446,-1.038 -2.69705,-3.633 -0.89901,-5.19 -9.43968,0.519 v -3.114 -2.595 l 1.34853,-3.114 2.24753,-2.076 h 7.19214 l 2.69706,1.557 h 4.94458 l 1.79804,-3.633 0.89901,-5.19 3.14657,-2.595 h 4.49508 l 8.54066,-6.228 1.34853,-6.228"
     id="path30"
     inkscape:connector-curvature="0"
     style="stroke-width:0.93064761" />
  <path
     d="m 29.218058,164.523 4.944588,-4.152 8.540664,-2.076 7.641647,-6.747 8.540655,3.633 8.540664,-1.038 v 8.304 l 3.596067,2.076 4.944598,-0.519 3.596067,0.519 4.04557,4.671 0.449514,4.152 5.394099,3.114 h 4.495085 l 3.596064,3.114 3.14656,0.519 4.04558,4.671 7.19214,1.038 v -4.152 l 2.69705,-3.114 5.3941,-0.519 7.19214,-0.519 -0.89902,2.076 -0.89901,4.152 h 3.14655 l 2.24755,-2.076 1.79803,-0.519 2.24755,-2.076 4.49508,1.038 6.74262,1.557 7.64165,-1.557 h 10.7882 v 3.633 l 4.04558,0.519 1.34852,2.595 h 5.3941 l 4.49509,-3.114 2.24754,1.557 4.49509,-2.595 h 4.04558 l 3.14655,-1.557 5.3941,1.557 7.19214,-0.519 2.24754,4.671 -3.14656,6.747 7.19214,3.114 v 2.076 l -1.79804,1.038 v 2.595 l 1.79804,2.076 v 4.671 l -2.69706,0.519 -2.24753,2.595 0.4495,1.557 3.59607,3.114 2.24754,1.557 0.89902,8.823 -2.69705,3.633 -4.04558,-1.038 -7.64164,-0.519 -2.24755,-2.076 -1.34852,1.038 0.44951,1.038 -5.84361,1.038 -5.84361,-3.114 -2.24755,2.595 3.59608,4.152 -6.29313,4.671 h -10.7882 l -4.94459,-10.38 h -6.29312 l -1.79804,-7.785 -1.79803,-2.076 1.34853,-2.076 -1.34853,-1.557 -2.69705,1.557 h -2.69705 l -0.4495,3.633 2.69705,2.076 v 2.076 l -3.14657,0.519 -1.34852,2.595 -0.89902,1.557 -0.44951,2.076 -5.8436,5.19 -1.34853,2.595 -0.89902,2.595 3.14656,3.114 v 3.114 l 1.34852,3.114 v 10.899 l -7.19213,2.076 -7.19213,1.557 -3.59607,1.038 h -3.14656 l -2.69706,1.557 -0.89901,-3.114 -6.74262,-5.709 -6.29313,-7.785 -10.338692,0.519 h -9.889194 l -1.34852,-3.633 -5.394101,-1.038 -5.843614,-3.114 -3.146554,-1.557 -2.247547,-3.114 h -2.247546 l -3.146554,3.114 -2.697051,2.595 -3.596067,-1.557 v -1.557 l -1.798033,-1.557 -2.697051,1.557 -2.69705,2.595 h -4.04558 l -5.394101,-2.076 -1.798034,0.519 -3.596067,2.076 -4.495084,-0.519 -2.69705,-1.038 h -2.69705 l -1.34853,2.595 -1.348521,2.595 h -2.69705 l -10.338697,-6.228 -2.2475468,-2.595 -3.5960671,-1.038 3.5960671,-1.557 1.34853,-3.633 0.8990168,-4.671 h 5.394101 l 2.247545,1.557 -0.899016,-9.861 -2.247546,-2.076 0.449503,-4.152 2.247546,-2.076 0.899017,-4.152 0.449513,-3.114 3.596067,0.519 0.899017,-4.671 2.247537,-0.519 -0.899016,-3.114 6.293117,-2.595 -1.798034,-1.038 -4.944587,-0.519 -4.944597,-5.19 0.449513,-2.076 0.899017,-0.519 h 3.596067 v -1.557 l -4.495084,-0.519 h -2.69705 l -2.247546,-2.595 -4.0455804,-2.595 v -2.595 h 3.1465634 l 0.449504,-3.633 2.697059,-1.038 1.798033,0.519 h 6.742621"
     id="path34"
     inkscape:connector-curvature="0"
     style="stroke-width:0.93064761" />
  <path
     d="m 146.98928,51.899998 v -4.671 l 1.79803,-0.519 v 1.557 h 3.14657 v -3.633 h 2.24753 v -1.557 h 4.9446 l 2.24755,-2.076 h 1.79803 v -7.266 l -1.34853,-1.557 v -3.114 l 1.34853,-1.557 h 6.74262 v -3.114 l 1.79803,-3.114 10.78821,3.633 -0.44951,2.076 5.84362,2.076 1.34852,-2.076 2.69705,2.076 v 2.595 l -1.34852,3.114 -1.79804,3.114 -0.89901,3.633 h 4.94458 l 4.04558,-1.557 h 5.39411 l 0.89901,3.633 v 2.595 l 2.24754,2.595 -1.79803,0.519 v 3.114 h 4.94459 l 0.44951,2.076 2.24754,2.076 0.44951,3.114 v 2.076 l 2.24754,2.076 0.89902,2.076 -1.34852,2.076 -0.89902,1.038 1.79804,1.557 -0.44952,2.076 -0.4495,3.114 0.4495,4.671 -2.69705,-0.519 -2.24754,-2.076 -1.34852,-1.038 -2.69705,0.519 -3.14657,-0.519 h -2.24754 l -1.34853,1.038 -8.09115,-4.671 -4.04557,-2.076 -16.63181,-12.456 -2.69705,1.557 -2.24755,1.038 -3.59607,-1.038 -4.49508,2.076 -4.49508,-1.557 -3.14657,-4.152"
     id="path36"
     inkscape:connector-curvature="0"
     style="stroke-width:0.93064761" />
  <path
     d="m 294.87756,118.851 v 3.11401 l -5.39411,3.11399 1.34853,2.076 -0.89901,1.557 v 2.595 l -2.69705,0.51901 -1.79804,-2.59501 -1.79803,0.519 h -1.34853 l -0.4495,-1.038 h -4.9446 l -0.44951,2.595 -4.94459,0.51901 -0.44951,4.15199 -5.3941,0.519 -4.49509,-1.038 -1.34852,-2.076 h -2.69705 l -2.69705,1.038 -1.79803,-0.519 -0.89902,-3.114 -2.69705,-2.595 h -4.04558 l -1.79804,1.038 -3.59606,-3.633 -2.69705,0.519 -4.49509,-1.038 -1.34853,-2.07599 -0.44949,-3.63301 -8.99017,-6.22799 -6.74263,-5.19 h -3.14656 v -2.595 l 2.24754,-0.519 0.44952,-1.55701 v -2.07599 l -0.89902,-1.557004 -4.9446,-0.519011 -3.59606,-3.114 -5.39411,-1.03799 v -4.15201 l 0.44951,-3.114 0.44951,-1.556999 h -5.3941 l -4.49508,-2.07599 -0.44952,-3.11401 1.79804,-0.519001 0.44951,-0.519 1.79803,-0.519 1.79804,1.038 h 2.69705 l -0.44952,-2.595 1.34853,-1.038 h 2.24754 l 3.14657,0.519 2.69705,-0.519 1.34852,1.038 2.24754,2.076 2.69705,0.519 4.04558,2.595 2.69705,-2.075999 2.24754,-0.519001 4.49509,1.557 9.43968,-0.519 0.89901,5.19 2.69705,3.633 4.9446,1.038 0.4495,5.709001 4.04557,4.152004 4.49509,1.038 5.3941,0.519 1.79803,2.076 h 4.04558 l 1.34852,3.114 4.49509,1.038 6.74263,0.519 4.49508,-1.038 v 3.114 l 3.14656,1.038 1.34853,2.595 3.59606,1.557"
     id="path38"
     inkscape:connector-curvature="0"
     style="stroke-width:0.93064761" />
  <path
     style="fill:none;stroke:#000000;stroke-width:1px;stroke-linecap:butt;stroke-linejoin:miter;stroke-opacity:1"
     d="m 278.69526,84.597006 -2.24754,-1.55701 -0.4495,-2.075993 -2.69706,-2.075997 0.44951,-3.633003 1.34852,-2.594997 3.59607,-3.114 1.34853,-4.671 v -3.114003 l -1.34853,-1.038 v -1.557 l 14.83378,3e-6 10.7882,-5.709 3.59607,-1.038003 4.04558,4.671 h 1.79804 l 0.89901,3.114 h 1.34852 l 1.79804,1.557 -0.44951,1.557 -0.89901,1.557 2.69705,6.228 -0.44951,1.557 h -2.69706 l -0.89901,2.595 h -0.89902 l -1.34852,-1.038 -8.09115,5.19 -4.9446,0.519 h -9.88918 l -0.89901,2.595 -4.49509,1.557 z"
     id="path40"
     inkscape:connector-curvature="0" />
  <path
     style="fill:#000000;fill-opacity:1;stroke:#ffffff;stroke-width:0.29962152;stroke-opacity:1"
     d="m 277.76637,83.189138 c -0.4352,-0.377552 -0.88511,-1.12921 -0.9998,-1.670354 -0.14398,-0.679343 -0.60897,-1.282181 -1.50218,-1.94754 -1.28124,-0.954401 -1.2921,-0.97801 -1.13232,-2.46175 0.0887,-0.823959 0.3274,-1.700352 0.53038,-1.94754 0.20298,-0.247188 0.44978,-0.790821 0.54843,-1.208075 0.10328,-0.436846 0.99621,-1.434361 2.10509,-2.351659 1.89903,-1.570932 1.93656,-1.631195 2.70728,-4.347039 0.42985,-1.514712 0.78155,-3.440919 0.78155,-4.28046 0,-1.297573 -0.11231,-1.600025 -0.74905,-2.017237 -0.41198,-0.269939 -0.74906,-0.62252 -0.74906,-0.783513 0,-0.182332 2.68701,-0.292714 7.12549,-0.292714 h 7.12548 l 5.63369,-2.975001 c 4.90954,-2.592596 8.35832,-4.024972 8.6607,-3.597042 0.0506,0.0716 0.94327,1.107695 1.98374,2.302436 1.47706,1.696088 2.0696,2.172256 2.7031,2.172256 0.7227,0 0.85333,0.163718 1.19532,1.498108 0.3431,1.33868 0.47111,1.498107 1.20291,1.498107 0.47402,0 1.09975,0.2989 1.48565,0.709678 l 0.66671,0.709678 -0.66416,1.367038 -0.66416,1.367039 1.33489,3.091755 c 0.73419,1.700465 1.28733,3.320668 1.22921,3.60045 -0.0773,0.372235 -0.47562,0.532985 -1.48475,0.599243 -1.2748,0.0837 -1.40518,0.168464 -1.72451,1.121135 -0.39942,1.191642 -0.80566,1.426439 -1.34455,0.777121 -0.2097,-0.252676 -0.58654,-0.459411 -0.83743,-0.459411 -0.25088,0 -2.22311,1.130912 -4.38273,2.513138 -2.29783,1.470689 -4.42371,2.60934 -5.12506,2.745064 -0.65917,0.127559 -4.08639,0.311236 -7.61606,0.408171 l -6.41756,0.176246 -0.41769,1.255067 c -0.40343,1.212266 -0.49622,1.280938 -2.72089,2.013666 -1.41973,0.46761 -3.33758,0.824151 -4.9998,0.929495 -2.50983,0.159063 -2.75139,0.123357 -3.48786,-0.515556 z"
     id="path42"
     inkscape:connector-curvature="0" />
  <path
     style="fill:none;stroke:#000000;stroke-width:1px;stroke-linecap:butt;stroke-linejoin:miter;stroke-opacity:1"
     d="m 1.7980432,117.29401 4.4950839,-1.557 7.6416379,-1.038 5.3941,-2.076 5.3941,-4.671 1.798045,-2.595 v -2.076 h -1.798044 l 1.34853,-5.190007 -0.449513,-2.076 2.69706,-3.114 1.798034,0.519 2.69705,-2.595 5.394101,-1.038 11.237705,-9.342 v -1.557 l 2.69705,-1.038 2.247546,3.114 23.374446,8.304 h 3.596058 l 4.04558,-2.076 4.495084,-5.19 1.798033,-3.633 2.247547,-2.595 -2e-6,-6.747006 0.449507,-2.075994 4.045575,2.076 h 4.495093 l 11.2377,-2.595 h 4.04559 l 4.04557,-2.076006 0.44952,-4.152 4.94458,2.595006 6.74263,4.152 5.3941,1.037994 5.3941,-1.037994 1.79805,-2.076 1.79803,2.076 2.24755,0.519 4.04557,1.557 1.79803,-2.595 -0.44951,-4.152005 4.49509,-2.075995 3.59607,1.038 4.9446,-2.595 16.63181,12.456 12.13671,6.746992 0.44952,2.595 h -2.69705 l -1.79804,-1.038 -1.79802,0.519008 -2.24755,1.038 0.44951,3.114003 -4.49508,-0.519003 -3.59607,1.038 -4.9446,-1.557005 -4.9446,6.747 v 3.114005 l -1.79803,1.038 1.34853,5.189995 h -5.3941 l -8.99018,-2.594995 -9.88918,-5e-6 0.89901,8.304002 3.14657,7.26601 -6.74264,-0.51901 -4.49508,-2.595 -3.14655,-0.51899 -2.69705,-2.07601 h -3.59608 l -5.3941,-0.519 -2.24754,-2.595 -5.3941,-1.038 -0.89902,-1.557 -4.49508,-0.51899 -2.24755,-1.557011 -3.59606,4.671001 -6.74264,1.557 -4.495078,3.633 h -4.045581 l -3.146554,2.07601 -1.798033,2.076 1.348527,2.07599 0.449506,3.11401 -2.697053,1.03799 -13.934762,7.785 -0.89902,2.595 1.798037,1.038 v 3.114 l -4.04558,4.152 -0.899017,1.557 -0.449506,15.051 -8.540662,1.038 -8.540657,-3.633 -7.641645,6.747 -8.540665,2.076 -4.944587,4.152 0.899017,-5.709 -1.34853,-5.709 -8.091151,1.557 h -4.495084 l -3.146564,1.557 -2.69705,-3.633 0.899017,-3.633 -0.899017,-5.709 2.247547,-1.038 h 2.69705 l 2.697049,-1.557 -4.045579,-3.114 -3.596067,-1.038 L 8.0911607,130.788 4.9445971,127.674 2.2475468,126.11701 0,120.40801 Z"
     id="path44"
     inkscape:connector-curvature="0" />
  <path
     style="fill:#000000;fill-opacity:1;stroke:#ffffff;stroke-width:0.21186441;stroke-opacity:1"
     d="m 30.175004,162.57997 c 0.0023,-0.20658 0.127619,-1.13832 0.278422,-2.07052 0.266415,-1.6469 0.254722,-1.778 -0.41279,-4.62758 -0.377835,-1.61296 -0.733168,-3.05303 -0.789628,-3.20016 -0.07862,-0.20489 -1.086608,-0.0767 -4.30543,0.5477 -3.338737,0.64762 -4.69403,0.81553 -6.592291,0.8167 -2.23248,0.001 -2.472263,0.0433 -3.64862,0.63707 -0.692506,0.34957 -1.338773,0.63559 -1.436147,0.63559 -0.249391,0 -2.164969,-2.6469 -2.168263,-2.99605 -0.0015,-0.15832 0.159016,-0.97935 0.356689,-1.82452 0.337446,-1.44278 0.337612,-1.68246 0.0027,-3.92281 -0.196179,-1.31238 -0.35669,-2.53383 -0.35669,-2.71434 0,-0.55254 1.367068,-1.04228 2.909396,-1.04228 1.296467,0 1.555783,-0.0823 3.170027,-1.00635 0.966931,-0.5535 1.73456,-1.06901 1.705842,-1.14558 -0.02872,-0.0766 -1.100943,-0.94096 -2.382722,-1.92087 -2.026167,-1.54897 -2.552753,-1.84418 -4.032354,-2.26058 l -1.701846,-0.47894 -1.0233167,-2.68494 c -0.9833356,-2.58004 -1.0865339,-2.74969 -2.6413746,-4.34206 -0.889932,-0.91141 -2.2511616,-2.03631 -3.0249549,-2.49978 l -1.4068968,-0.84266 -1.0047135,-2.62956 -1.00471349,-2.62957 0.82262729,-1.30829 0.8226272,-1.30829 2.0127119,-0.70375 c 1.4618985,-0.51115 3.0896846,-0.85264 5.9480486,-1.24782 3.607783,-0.4988 4.16737,-0.63622 6.723056,-1.651 2.711702,-1.07672 2.85994,-1.16944 5.436251,-3.4001 1.727513,-1.49574 3.018094,-2.81774 3.711265,-3.80161 1.003935,-1.42495 1.062735,-1.58234 1.062735,-2.84452 v -1.3361 H 26.35721 c -0.466102,0 -0.847458,-0.0392 -0.847458,-0.087 0,-0.0479 0.248475,-1.0206 0.552165,-2.16161 0.429072,-1.612079 0.522219,-2.33927 0.417825,-3.261984 L 26.3454,96.07833 l 1.118337,-1.230595 1.118337,-1.230593 0.825059,0.227809 0.825062,0.227811 1.447316,-1.339993 1.447315,-1.339992 2.49443,-0.478587 c 1.371935,-0.263224 2.732776,-0.626241 3.024089,-0.806709 0.291314,-0.180466 2.98464,-2.368123 5.98517,-4.861458 5.127616,-4.260871 5.455508,-4.575627 5.455508,-5.236951 0,-0.623717 0.09672,-0.742314 0.851746,-1.044416 0.46846,-0.18744 0.885771,-0.3408 0.927358,-0.3408 0.04159,0 0.545928,0.643538 1.120759,1.430084 l 1.045144,1.430085 11.800133,4.184322 11.800134,4.184322 1.958296,-0.01087 c 1.935199,-0.01072 1.983568,-0.02385 4.10128,-1.112289 2.055328,-1.056375 2.234489,-1.206438 4.379928,-3.668627 1.64257,-1.885074 2.491665,-3.074385 3.195608,-4.476019 0.527267,-1.049851 1.487975,-2.515732 2.134905,-3.257513 l 1.176235,-1.348684 0.0029,-3.603254 c 0.004,-5.010468 -0.147186,-4.751945 2.104284,-3.597688 1.810377,0.928118 1.891059,0.947824 3.880687,0.947824 1.74791,0 2.8653,-0.192464 7.9952,-1.377119 5.12102,-1.182605 6.24917,-1.377119 7.98707,-1.377119 h 2.02374 l 2.08815,-1.092003 c 1.14848,-0.600601 2.12991,-1.24414 2.18095,-1.430084 0.051,-0.185945 0.15573,-0.98162 0.23263,-1.768167 0.0769,-0.786547 0.19517,-1.430085 0.26282,-1.430085 0.2965,0 4.45791,2.343712 7.44976,4.195718 l 3.26326,2.020013 2.84492,0.573896 2.84492,0.573896 2.79013,-0.529455 c 2.66042,-0.504841 2.83047,-0.568221 3.65795,-1.363377 l 0.86784,-0.833923 0.68378,0.778789 c 0.54247,0.617841 0.97611,0.855096 2.09827,1.148023 0.77797,0.20308 2.30594,0.716132 3.39549,1.140116 1.08956,0.423984 2.01621,0.770881 2.05923,0.770881 0.043,0 0.55991,-0.713842 1.14864,-1.586315 l 1.07044,-1.586314 -0.2343,-1.926981 c -0.12886,-1.05984 -0.20246,-1.952599 -0.16355,-1.98391 0.0389,-0.03131 0.92879,-0.448344 1.97752,-0.926739 l 1.90678,-0.869809 1.78088,0.517901 1.78088,0.5179 2.41553,-1.253546 2.41554,-1.253546 8.30358,6.195297 c 8.02094,5.984415 8.4947,6.301276 13.918,9.308767 3.08792,1.712409 5.71983,3.184195 5.84868,3.270636 0.12884,0.08644 0.30001,0.514688 0.38036,0.951659 l 0.14609,0.794491 h -0.8723 c -0.55813,0 -1.21233,-0.199276 -1.81644,-0.553304 -0.87787,-0.514469 -1.01435,-0.535906 -1.9445,-0.305427 -0.5502,0.136333 -1.64739,0.544048 -2.4382,0.906034 l -1.43782,0.658157 0.13148,0.971421 c 0.0723,0.534284 0.18019,1.146549 0.23973,1.360594 0.10175,0.365849 -0.0183,0.380199 -2.00288,0.239498 -1.84543,-0.130835 -2.31226,-0.08996 -3.70942,0.324813 l -1.59831,0.474487 -2.43516,-0.766951 c -1.33934,-0.421822 -2.53299,-0.766949 -2.65256,-0.766949 -0.11957,0 -1.41547,1.642222 -2.87977,3.649383 l -2.66237,3.649382 v 1.429038 1.429036 l -0.84583,0.483021 c -0.4652,0.265661 -0.84656,0.595316 -0.84746,0.732564 -8.4e-4,0.137248 0.23648,1.138307 0.5275,2.224576 0.29102,1.086269 0.52937,2.094208 0.52966,2.239864 4.2e-4,0.194676 -0.57479,0.264831 -2.1713,0.264831 -2.01892,0 -2.48506,-0.0895 -6.62054,-1.271187 l -4.44871,-1.271186 h -5.3498 -5.34979 v 0.498718 c 0,0.274295 0.19669,2.299307 0.43709,4.500027 l 0.4371,4.00132 1.36106,3.16509 c 0.74858,1.7408 1.33843,3.18703 1.31078,3.21385 -0.0277,0.0268 -1.27749,-0.0501 -2.77743,-0.17087 l -2.72716,-0.21964 -2.23175,-1.28055 c -1.76037,-1.01008 -2.55901,-1.33747 -3.78112,-1.54999 -1.32896,-0.23109 -1.7507,-0.42183 -2.96464,-1.34081 l -1.41526,-1.07138 h -2.30726 c -1.269,0 -3.23306,-0.10075 -4.36459,-0.22388 l -2.05733,-0.22388 -1.27119,-1.33303 c -1.24549,-1.30609 -1.3033,-1.33839 -2.86017,-1.59817 -3.41447,-0.56974 -3.4978,-0.60044 -3.98571,-1.46855 l -0.45029,-0.80119 -2.26954,-0.247813 c -2.11537,-0.230977 -2.36222,-0.308191 -3.63375,-1.136625 -1.16837,-0.761227 -1.39856,-0.843385 -1.60356,-0.572349 -0.13164,0.174055 -0.98268,1.281603 -1.89119,2.461217 l -1.65185,2.14476 -1.94985,0.44945 c -1.07242,0.24719 -2.57557,0.59198 -3.34033,0.7662 -1.22899,0.27997 -1.646857,0.52497 -3.598154,2.10963 l -2.207678,1.79287 H 93.5199 91.501763 l -1.715106,1.14827 c -1.464377,0.98041 -3.683665,3.14436 -3.683665,3.59182 0,0.0766 0.330976,0.63838 0.735504,1.24834 0.597648,0.90116 0.746561,1.34386 0.794491,2.36193 l 0.05899,1.25289 -1.165255,0.47714 c -0.64089,0.26243 -4.306758,2.23742 -8.146375,4.38887 l -6.981123,3.91173 -0.487097,1.44399 c -0.267905,0.7942 -0.4871,1.55088 -0.4871,1.68152 0,0.13063 0.381356,0.45184 0.847458,0.71381 0.841972,0.47321 0.847458,0.48455 0.847458,1.75056 v 1.27427 l -2.098678,2.28578 c -1.154274,1.25719 -2.239373,2.56061 -2.411333,2.8965 -0.242102,0.47291 -0.36596,2.25594 -0.548894,7.90165 -0.129932,4.01002 -0.271621,7.32632 -0.31486,7.36956 -0.104153,0.10415 -6.639805,0.90677 -7.405579,0.90945 -0.328428,0.001 -2.5075,-0.81541 -4.842383,-1.81458 -4.213731,-1.80319 -4.24861,-1.81368 -4.699468,-1.41413 -0.249827,0.2214 -2.011068,1.77536 -3.913869,3.45324 l -3.45964,3.05068 -4.273411,1.03777 -4.273411,1.03777 -1.853813,1.5678 c -1.316907,1.11373 -1.852587,1.45902 -1.849579,1.1922 z"
     id="path46"
     inkscape:connector-curvature="0" />
  <ellipse
     style="fill:#000000;fill-opacity:1;stroke:#ffffff;stroke-width:1.03431928;stroke-opacity:1"
     id="path76-3-3-3-3"
     cx="53.813564"
     cy="292.73056"
     rx="21.283499"
     ry="17.469942" />
  <text
     xml:space="preserve"
     style="font-style:normal;font-weight:normal;font-size:11.8438282px;line-height:1.25;font-family:sans-serif;letter-spacing:0px;word-spacing:0px;fill:#000000;fill-opacity:1;stroke:none;stroke-width:0.29609579"
     x="6.022676"
     y="259.02646"
     id="text99-3-2-6-6-6-6"
     transform="scale(0.79581267,1.2565771)"><tspan
       sodipodi:role="line"
       id="tspan97-5-9-7-7-7-7"
       x="6.022676"
       y="259.02646"
       style="stroke-width:0.29609579">г. Усть-Каменогорск</tspan><tspan
       sodipodi:role="line"
       x="6.022676"
       y="273.83124"
       style="stroke-width:0.29609579"
       id="tspan81" /></text>
  <ellipse
     style="fill:#000000;fill-opacity:1;stroke:#ffffff;stroke-width:1.03431928;stroke-opacity:1"
     id="path76-3-3-3-3-5"
     cx="167.7966"
     cy="294.84921"
     rx="21.283499"
     ry="17.469942" />
  <text
     xml:space="preserve"
     style="font-style:normal;font-weight:normal;font-size:11.8438282px;line-height:1.25;font-family:sans-serif;letter-spacing:0px;word-spacing:0px;fill:#000000;fill-opacity:1;stroke:none;stroke-width:0.29609579"
     x="170.8627"
     y="260.323"
     id="text99-3-2-6-6-6-6-3"
     transform="scale(0.79581268,1.2565771)"><tspan
       sodipodi:role="line"
       id="tspan97-5-9-7-7-7-7-5"
       x="170.8627"
       y="260.323"
       style="stroke-width:0.29609579">г. Курчатов</tspan><tspan
       sodipodi:role="line"
       x="170.8627"
       y="275.12778"
       style="stroke-width:0.29609579"
       id="tspan81-6" /></text>
</svg>
