<?xml version="1.0" encoding="UTF-8" standalone="no"?>
<svg
   xmlns:dc="http://purl.org/dc/elements/1.1/"
   xmlns:cc="http://creativecommons.org/ns#"
   xmlns:rdf="http://www.w3.org/1999/02/22-rdf-syntax-ns#"
   xmlns:svg="http://www.w3.org/2000/svg"
   xmlns="http://www.w3.org/2000/svg"
   xmlns:sodipodi="http://sodipodi.sourceforge.net/DTD/sodipodi-0.dtd"
   xmlns:inkscape="http://www.inkscape.org/namespaces/inkscape"
   version="1.1"
   id="svg24"
   sodipodi:docname="Жамбылская.svg"
   width="611.07013"
   height="362.01993"
   inkscape:version="0.92.3 (unknown)">
  <metadata
     id="metadata30">
    <rdf:RDF>
      <cc:Work
         rdf:about="">
        <dc:format>image/svg+xml</dc:format>
        <dc:type
           rdf:resource="http://purl.org/dc/dcmitype/StillImage" />
        <dc:title />
      </cc:Work>
    </rdf:RDF>
  </metadata>
  <defs
     id="defs28" />
  <sodipodi:namedview
     pagecolor="#ffffff"
     bordercolor="#666666"
     borderopacity="1"
     objecttolerance="10"
     gridtolerance="10"
     guidetolerance="10"
     inkscape:pageopacity="0"
     inkscape:pageshadow="2"
     inkscape:window-width="958"
     inkscape:window-height="731"
     id="namedview26"
     showgrid="false"
     fit-margin-top="0"
     fit-margin-left="0"
     fit-margin-right="0"
     fit-margin-bottom="0"
     inkscape:zoom="1.668772"
     inkscape:cx="361.62585"
     inkscape:cy="297.7322"
     inkscape:window-x="427"
     inkscape:window-y="69"
     inkscape:window-maximized="0"
     inkscape:current-layer="svg24" />
  <path
     d="m 0,11.994636 98.993362,1.635633 117.936528,1.090422 -1.22213,19.082376 0.61107,2.726053 v 15.265901 l 1.83321,3.271265 -1.83321,5.452107 v 8.178162 l -3.66642,4.906896 -1.83321,8.178161 v 9.268583 l 1.22213,7.63295 -5.49963,20.172805 -6.1107,-0.54521 -0.61107,-2.18085 h -23.22066 l -1.22214,10.90421 -3.05535,-0.54521 -3.66642,-1.63563 -5.49963,-0.54521 -5.49963,6.54253 -0.61107,8.17816 -3.05535,-0.54521 -14.66569,22.89886 -2.44428,-1.09043 -6.1107,-3.27126 -9.77712,1.09042 -9.77713,2.18084 0.61107,4.36169 6.11071,16.35632 1.22214,2.72605 -6.1107,4.9069 0.61106,2.18084 1.83322,0.54521 v 1.63564 l -3.05535,2.18084 -5.49964,3.27126 4.27749,7.08774 5.49963,2.72605 3.66642,-0.5452 1.22215,1.63563 -1.22215,5.45211 -3.05535,-0.54521 -3.05535,-1.63564 -2.44428,2.72605 v 4.36169 l 8.55498,9.26859 -0.61107,7.63294 -0.61106,8.17817 5.49963,2.18083 v 2.18085 h -4.2775 l -5.49963,-1.63563 h -3.66642 l -1.83321,2.18085 -1.22214,2.72605 -14.05461,-1.63564 -6.110701,-0.5452 -5.499632,3.81646 -4.27749,2.72607 -4.277491,4.36167 -3.05535,4.36169 -3.055351,4.9069 -2.444281,5.99732 -2.44428,-3.81648 -1.22214,-1.63563 -1.222141,0.54522 -0.61107,1.63562 -0.61107,1.63564 -1.833211,0.54521 -9.166052,-3.81647 -7.943912,0.5452 -1.22214,-1.63563 0.61107,-3.27126 h -2.44428 l -2.44428,1.63563 -3.055351,-3.27127 -2.44428,-4.36169 2.44428,-4.90689 -5.499631,-1.09042 -4.888561,-1.63563 0.611069,-3.27126 3.055351,-1.63564 6.110701,-4.9069 6.721773,-9.81379 2.444279,-6.54253 4.277492,-4.9069 1.22214,-10.359 1.83321,-7.08774 3.055351,-2.18084 -3.66642,-4.9069 6.721771,-5.99732 v -2.72605 l 4.888561,-3.81647 -11.610332,-67.60614 -5.499632,-5.45211 -4.888561,-21.263215 -5.499632,-16.356322 -8.554981,-15.811112 -4.888561,-16.356323 -1.222141,-7.63295 -1.83321,-0.545211"
     id="path2"
     inkscape:connector-curvature="0"
     style="stroke-width:1.88628066" />
  <path
     d="m 139.32399,161.38239 h 6.1107 l 17.10997,5.99731 4.27748,0.54521 9.16605,3.27127 4.2775,-0.54522 6.1107,0.54522 7.94391,2.72605 17.10996,8.17816 9.16606,1.63563 -1.83321,5.45211 -1.22215,7.08774 4.88857,9.26858 -2.44429,10.359 -1.8332,7.08774 -1.22215,8.17817 -1.22213,12.53984 -4.2775,4.9069 -11.61033,0.54521 -1.83321,1.63563 -11.61033,-0.5452 -1.22214,-1.63564 h -3.05535 l -3.05535,1.63564 -2.44428,4.36168 -1.83321,2.18085 -5.49963,7.08773 -12.2214,-4.9069 -9.16606,5.99732 -3.05535,0.54521 -6.1107,4.9069 2.44428,3.27127 0.61107,4.9069 -1.83321,4.36167 -3.66642,1.63564 -4.88857,1.09043 3.66643,2.18084 1.22214,2.72605 -3.66642,2.72606 -0.61107,2.72605 3.66642,2.72605 -0.61107,2.18084 -3.05535,-0.5452 -3.66643,-2.72606 -4.27748,1.63563 -4.2775,-4.36168 -1.8332,-0.54522 -1.83321,1.63564 -1.22215,1.63563 -5.49963,1.09042 -1.83321,-1.09042 -3.05535,1.09042 -4.27749,2.18084 0.61107,2.18085 -10.38819,0.54521 1.83321,-1.63564 -2.44428,-2.72605 v -3.27126 l -3.055351,-2.72605 -2.444281,-1.63564 3.055351,-1.63564 0.61107,-1.63562 -1.22214,-0.54521 -2.444281,0.54521 -6.721771,-4.9069 1.22214,-2.18084 v -2.72605 h -3.666421 l -3.66642,-2.18085 h -6.110702 l 2.444281,-5.99732 3.055351,-4.9069 3.05535,-4.36169 4.277491,-4.36167 4.27749,-2.72607 5.499632,-3.81646 6.110701,0.5452 14.05461,1.63564 1.22214,-2.72605 1.83321,-2.18085 h 3.66642 l 5.49963,1.63563 h 4.2775 v -2.18085 l -5.49963,-2.18083 0.61106,-8.17817 0.61107,-7.63294 -8.55498,-9.26859 v -4.36169 l 2.44428,-2.72605 3.05535,1.63564 3.05535,0.54521 1.22215,-5.45211 -1.22215,-1.63563 -3.66642,0.5452 -5.49963,-2.72605 -4.27749,-7.08774 5.49964,-3.27126 3.05535,-2.18084 v -1.63564 l -1.83322,-0.54521 -0.61106,-2.18084 6.1107,-4.9069 -1.22214,-2.72605 -6.11071,-16.35632 -0.61107,-4.36169 9.77713,-2.18084 9.77712,-1.09042 6.1107,3.27126"
     id="path4"
     inkscape:connector-curvature="0"
     style="stroke-width:1.88628066" />
  <path
     d="m 162.54466,344.57319 -3.66643,5.99732 -0.61107,3.81647 -4.88856,3.27127 -1.22214,4.36169 -6.72177,-3.81648 -0.61107,-3.27126 h -3.66642 l 3.05535,-4.90689 -5.49963,-1.63564 h -6.1107 l -1.83321,-3.81648 -3.05535,-4.36169 -6.1107,-3.81647 -7.33285,-3.81648 -0.61107,-2.72605 -4.88856,-0.54521 -1.22214,-2.72605 -2.44428,-1.09043 h -4.27749 l -0.61107,-2.18084 -2.444278,-0.54521 h -3.055351 l -4.888561,-3.27126 3.05535,-3.81648 -3.05535,-2.18084 1.222139,-1.63563 -1.222139,-2.72606 1.83321,-2.18083 -1.22214,-3.27127 10.38819,-0.54521 -0.61107,-2.18085 7.33284,-3.27126 1.83321,1.09042 5.49963,-1.09042 1.22215,-1.63563 1.83321,-1.63564 1.8332,0.54522 4.2775,4.36168 4.27748,-1.63563 3.66643,2.72606 3.05535,0.5452 0.61107,-2.18084 -3.66642,-2.72605 0.61107,-2.72605 3.66642,-2.72606 -1.22214,-2.72605 -3.66643,-2.18084 4.88857,-1.09043 3.66642,-1.63564 1.83321,-4.36167 2.44428,0.5452 0.61107,1.63564 2.44428,1.09042 -1.83321,1.63563 -1.83321,2.18085 6.72177,3.81647 3.66643,1.09042 2.44427,1.09042 3.05536,-0.54521 h 2.44427 l 0.61108,2.18085 -1.22215,1.09041 1.22215,3.27127 6.1107,0.54521 2.44428,-0.54521 1.8332,1.09042 -3.05535,1.63564 -3.66641,2.18084 h -4.88857 l 1.22215,2.18084 -2.44428,2.18085 h -4.2775 l -0.61107,-1.09043 -2.44428,1.09043 -1.22213,2.18083 -0.61108,2.18084 -6.1107,2.18085 3.66643,3.27127 5.49963,0.54521 1.22213,1.09041 3.66642,-0.5452 3.66643,1.09042 3.05535,2.72606 8.55498,2.72605 7.94391,2.18084 -0.61108,2.72605 -1.22213,3.27126 -6.1107,1.09043 -8.55498,1.09042 -0.61108,2.72605 6.11071,5.99732 -0.61108,2.18085 -3.05535,-0.54521"
     id="path6"
     inkscape:connector-curvature="0"
     style="stroke-width:1.88628066" />
  <path
     d="m 216.92989,14.720691 190.65389,-0.545212 -6.1107,6.54253 0.61107,3.271263 -1.83322,1.635633 -1.8332,1.635632 -0.61108,3.816476 v 2.726054 l -4.27748,0.54521 -2.44429,-2.180842 -5.49963,-1.635633 -2.44428,2.180843 -3.66642,0.54521 -0.61106,2.180843 3.66641,1.635633 5.49964,-0.545211 3.05534,1.090422 4.2775,0.545211 -2.44428,2.180843 h -3.05535 v 5.452107 l -3.05536,0.545211 -3.66642,-1.090422 -1.83321,0.545211 0.61108,7.632951 2.44428,1.635632 h 2.44427 l 4.27749,-0.545211 3.05535,3.271264 4.2775,1.635633 3.66642,3.816475 2.44428,3.271265 2.44428,5.452107 5.49963,4.361686 6.1107,2.726054 3.05535,4.906897 2.44428,3.271264 10.3882,7.63295 0.61107,6.54253 8.55498,2.18084 2.44428,7.63296 0.61107,4.90689 20.77639,8.17816 16.49889,13.08506 -1.83321,13.08506 0.61106,4.90689 -16.49889,2.18085 v -4.9069 l -18.3321,-0.54521 -3.66643,-2.18084 -0.61106,-6.54253 -8.55498,-0.54521 -9.16605,-2.18085 v 7.63295 h 4.88855 l 1.83321,4.36169 -3.05535,4.36169 6.1107,5.4521 h 10.99927 l 3.66641,4.9069 1.22215,5.99732 3.05535,1.63563 0.61107,4.90689 1.83321,3.27128 2.44428,2.72605 h 3.66642 v 2.72605 h -8.55498 l -5.49963,0.54521 -1.83322,2.18084 -4.88855,0.54521 -3.05536,2.18084 -4.27748,1.09043 -1.83322,5.45211 -0.61107,3.81648 h -11.61033 l -3.66642,2.18084 h -4.27749 l 0.61107,1.63562 -3.66642,3.81648 -3.05535,-0.5452 -2.44428,1.09041 -5.49963,-4.90689 -6.1107,-0.54521 -7.33285,-8.17817 -4.88856,-0.54521 3.05535,-7.08774 -4.88855,-3.81647 -17.10998,29.44138 -5.49963,-2.72605 -4.88855,3.27126 h -6.11071 l -3.66642,2.18084 h -3.66642 l -9.16604,-5.4521 h -3.66643 l -2.44428,2.18084 -4.88856,-1.63563 -6.72177,1.09041 -6.72177,-1.09041 -2.44428,-2.72606 -3.66642,-1.09042 -4.88856,-8.72337 -8.55498,0.54521 -3.66643,2.72605 -4.88856,-1.09041 -9.16606,2.72605 0.61108,-3.81648 -12.22141,-1.09042 -6.11069,-1.63563 -3.66642,2.72605 -6.11071,2.72605 -7.33284,-0.54521 h -9.77712 l -4.88857,-9.26858 1.22215,-7.08774 1.83321,-5.45211 -9.16606,-1.63563 -17.10996,-8.17816 -7.94391,-2.72605 -6.1107,-0.54522 -4.2775,0.54522 -9.16605,-3.27127 -4.27748,-0.54521 -17.10997,-5.99731 h -6.1107 l 14.66569,-22.89886 3.05535,0.54521 0.61107,-8.17816 5.49963,-6.54253 5.49963,0.54521 3.66642,1.63563 3.05535,0.54521 1.22214,-10.90421 h 23.22066 l 0.61107,2.18085 6.1107,0.54521 5.49963,-20.172805 -1.22213,-7.63295 v -9.268583 l 1.83321,-8.178161 3.66642,-4.906896 v -8.178162 l 1.83321,-5.452107 -1.83321,-3.271265 V 36.52912 l -0.61107,-2.726053"
     id="path8"
     inkscape:connector-curvature="0"
     style="stroke-width:1.88628066" />
  <path
     d="m 482.7454,155.38506 21.99853,9.8138 17.72103,1.09042 -12.2214,10.90421 -1.22213,5.99733 v 7.63294 3.81648 l -2.44429,3.81647 2.44429,2.72605 -0.61108,4.36169 -1.22214,1.63564 v 3.81647 l 2.44428,3.81648 4.27749,1.09041 1.83321,1.63564 2.44428,2.72605 -0.61106,2.72605 -6.11071,2.18085 -6.72177,-0.54521 -4.88856,-1.09042 -2.44429,4.36168 -0.61106,4.90689 6.72177,2.72607 -10.38819,5.4521 -3.66643,2.72605 -5.49962,1.63564 -1.22215,3.81647 -4.27748,0.54522 -3.05536,1.63562 -4.27749,-2.18084 -8.55498,5.99732 -3.66643,1.09042 -8.55498,5.45211 1.83322,5.45211 h 5.49963 l 1.22213,3.27126 v 2.72605 l 2.44429,1.63564 v 2.72605 h -4.88856 l -4.27749,0.54521 -3.66642,0.54522 -3.66643,1.63562 -7.33283,-5.4521 -0.61107,3.81648 -10.99926,-5.45212 -7.94392,2.18085 -7.33284,2.18084 -3.66642,-0.54521 0.61107,-3.81648 -3.05535,-2.18084 -3.05535,0.54522 -1.83321,-4.36169 2.44428,-2.72605 v -3.81648 l -18.33211,-8.17816 -0.61107,-5.45212 -5.49963,-1.09041 -3.66642,-2.72605 -6.1107,-4.36169 -3.05535,-4.9069 -2.44428,-3.27126 -1.22214,-3.27127 -3.66642,-0.54521 h -6.72178 l -6.72177,0.54521 -9.16604,4.36169 -0.61107,-3.81648 -1.83322,-2.72605 -2.44428,-5.45211 -1.22213,-5.4521 9.16604,5.4521 h 3.66642 l 3.66642,-2.18084 h 6.11071 l 4.88855,-3.27126 5.49963,2.72605 17.10998,-29.44138 4.88855,3.81647 -3.05535,7.08774 4.88856,0.54521 7.33285,8.17817 6.1107,0.54521 5.49963,4.90689 2.44428,-1.09041 3.05535,0.5452 3.66642,-3.81648 -0.61107,-1.63562 h 4.27749 l 3.66642,-2.18084 h 11.61033 l 0.61107,-3.81648 1.83322,-5.45211 4.27748,-1.09043 3.05536,-2.18084 4.88855,-0.54521 1.83322,-2.18084 5.49963,-0.54521 h 8.55498 v -2.72605 h -3.66642 l -2.44428,-2.72605 -1.83321,-3.27128 -0.61107,-4.90689 -3.05535,-1.63563 -1.22215,-5.99732 -3.66641,-4.9069 H 435.693 l -6.1107,-5.4521 3.05535,-4.36169 -1.83321,-4.36169 h -4.88855 v -7.63295 l 9.16605,2.18085 8.55498,0.54521 0.61106,6.54253 3.66643,2.18084 18.3321,0.54521 v 4.9069"
     id="path10"
     inkscape:connector-curvature="0"
     style="stroke-width:1.88628066" />
  <path
     d="m 522.46496,166.28928 4.88856,3.27126 h 3.66642 l 6.11071,4.36169 h 3.66642 l 6.72176,5.45211 8.555,4.90689 1.8332,4.9069 -0.61107,9.26858 -3.66642,5.45211 0.61107,3.81648 3.05535,6.54253 -2.44428,3.27126 -5.49963,0.54521 -18.33211,14.72068 v 2.18085 l 6.11071,3.81648 h 4.27749 l 3.66642,2.18084 2.44427,-1.63563 5.49964,-0.54521 v 3.81648 l 9.77712,-0.54522 4.27749,-0.54521 1.83321,4.9069 -10.99926,11.99463 -0.61107,7.08774 6.1107,1.63564 -1.83321,4.36169 2.44428,4.36168 0.61108,2.72606 4.88855,1.09041 h 4.2775 l 7.33284,3.27126 7.33284,1.63564 3.66642,2.18084 -4.88856,5.45211 8.55498,-0.54521 -0.61107,2.18084 h 6.72177 l 4.2775,-2.18084 v 4.36169 l 4.88855,0.54521 -6.1107,9.26858 -4.88856,4.9069 -10.99927,-1.09042 -9.77711,-1.09043 -14.66568,-1.09041 -9.77713,-0.54521 -18.33211,-5.99733 -12.2214,-3.81648 -5.49963,-2.72605 -9.77711,0.54522 -8.555,-4.90691 -7.9439,-7.63294 -10.38819,-1.09042 -10.99927,-5.45211 -12.22141,-5.45211 -1.22213,-3.27126 h -5.49963 l -1.83322,-5.45211 8.55498,-5.45211 3.66643,-1.09042 8.55498,-5.99732 4.27749,2.18084 3.05536,-1.63562 4.27748,-0.54522 1.22215,-3.81647 5.49962,-1.63564 3.66643,-2.72605 10.38819,-5.4521 -6.72177,-2.72607 0.61106,-4.90689 2.44429,-4.36168 4.88856,1.09042 6.72177,0.54521 6.11071,-2.18085 0.61106,-2.72605 -2.44428,-2.72605 -1.83321,-1.63564 -4.27749,-1.09041 -2.44428,-3.81648 v -3.81647 l 1.22214,-1.63564 0.61108,-4.36169 -2.44429,-2.72605 2.44429,-3.81647 v -3.81648 -7.63294 l 1.22213,-5.99733"
     id="path12"
     inkscape:connector-curvature="0"
     style="stroke-width:1.88628066" />
  <path
     d="m 436.91515,278.6027 -3.66643,7.08774 -7.94391,-1.63564 -7.33284,3.81648 -8.55498,3.27126 -9.16606,2.72605 -1.22213,7.08774 -3.66642,2.72606 1.22214,4.90689 v 4.9069 l -0.61107,4.90689 -2.44428,2.72606 -3.05535,7.08774 v 9.26858 l 3.05535,5.45212 3.66641,3.27126 1.83322,1.63563 0.61107,2.72605 -3.05535,1.09042 -5.49964,-0.54521 -10.38819,-1.63563 -1.8332,-1.09042 v -6.54253 l -6.11071,-1.09042 h -5.49963 l -5.49964,-1.63563 -10.99926,0.5452 0.61108,-5.99731 6.72177,-4.36169 v -1.63563 l -14.05462,-1.09042 -1.83321,-1.63563 v -1.63564 l 1.83321,-1.09042 h 3.05535 l 1.22215,-2.72605 1.22214,-2.18084 -1.22214,-2.72605 1.8332,-4.36169 2.44428,-7.08774 -1.22213,-1.63564 -0.61108,-3.81647 4.88856,1.09042 3.66643,-3.27126 4.88856,-3.27127 1.83321,-4.9069 1.22214,-3.81647 -2.44428,-1.63563 -1.83321,-3.81648 -0.61107,-2.18084 -3.66643,-2.72606 -2.44428,-3.81647 -4.88855,-3.27127 -6.72178,-3.27126 -4.88855,-3.81648 h -6.72178 l -3.05535,-1.63562 -3.66642,-3.81648 -4.27749,-7.08774 -4.88857,-4.9069 -1.22213,-6.54253 -3.66642,-5.45211 -5.49963,0.54521 -3.05535,7.08774 -4.88856,0.54522 -1.22215,1.63563 h -4.88855 l -1.83322,-5.99732 -1.22214,-3.81648 1.22214,-1.09041 v -3.81648 l -3.66641,-2.18085 -1.22215,-3.27126 0.61107,-4.90689 v -4.9069 -2.72605 l -1.8332,-3.81648 8.55498,-0.54521 4.88856,8.72337 3.66642,1.09042 2.44428,2.72606 6.72177,1.09041 6.72177,-1.09041 4.88856,1.63563 2.44428,-2.18084 h 3.66643 l 1.22213,5.4521 2.44428,5.45211 1.83322,2.72605 0.61107,3.81648 9.16604,-4.36169 6.72177,-0.54521 h 6.72178 l 3.66642,0.54521 1.22214,3.27127 2.44428,3.27126 3.05535,4.9069 6.1107,4.36169 3.66642,2.72605 5.49963,1.09041 0.61107,5.45212 18.33211,8.17816 v 3.81648 l -2.44428,2.72605 1.83321,4.36169 3.05535,-0.54522 3.05535,2.18084 -0.61107,3.81648 3.66642,0.54521 7.33284,-2.18084 7.94392,-2.18085"
     id="path14"
     inkscape:connector-curvature="0"
     style="stroke-width:1.88628066" />
  <path
     d="m 350.75425,339.66629 h -9.77712 l -2.44428,-1.63562 h -4.88856 l -1.8332,-3.27127 -3.66643,-3.81647 -6.72177,-1.63564 -5.49963,-2.72605 -5.49963,-0.54521 -6.1107,1.63563 -4.88856,-3.81647 -7.33285,-2.18084 -6.1107,-2.18085 h -7.33284 -4.88856 l -3.05535,1.63563 h -3.66643 l -3.66641,-3.27126 -6.72177,-0.54521 -3.05536,-2.18085 -4.88855,-1.63563 -4.88857,-1.63563 h -4.27749 l -2.44428,-2.72606 4.88856,-5.99731 v -4.9069 l 4.88856,-0.54521 0.61107,-6.54253 -3.66642,-2.72605 8.55498,-5.99732 -1.22213,-3.27127 -3.05536,-2.18084 -0.61107,-3.81648 3.05535,-1.63562 4.2775,-1.09043 0.61106,-2.72605 -0.61106,-2.72606 2.44428,-0.5452 h 3.05535 l 4.88856,-3.27128 5.49963,-1.63562 1.83321,-3.81648 -4.27749,-8.17816 4.27749,-1.63563 v -3.81648 l -1.22214,-5.99731 7.33284,-4.9069 v -3.81648 l -3.05535,-4.9069 1.22214,-7.08774 0.61107,-5.99731 3.66642,-3.81648 3.66643,-2.72605 1.8332,3.81648 v 2.72605 4.9069 l -0.61107,4.90689 1.22215,3.27126 3.66641,2.18085 v 3.81648 l -1.22214,1.09041 3.05536,9.8138 h 4.88855 l 1.22215,-1.63563 4.88856,-0.54522 3.05535,-7.08774 5.49963,-0.54521 3.66642,5.45211 1.22213,6.54253 4.88857,4.9069 4.27749,7.08774 3.66642,3.81648 3.05535,1.63562 h 6.72178 l 4.88855,3.81648 6.72178,3.27126 4.88855,3.27127 2.44428,3.81647 3.66643,2.72606 0.61107,2.18084 1.83321,3.81648 2.44428,1.63563 -1.22214,3.81647 -1.83321,4.9069 -4.88856,3.27127 -3.66643,3.27126 -4.88856,-1.09042 0.61108,3.81647 1.22213,1.63564 -2.44428,7.08774 -1.8332,4.36169 1.22214,2.72605 -1.22214,2.18084 -1.22215,2.72605 h -3.05535 l -1.83321,1.09042 v 1.63564 l 1.83321,1.63563 14.05462,1.09042 v 1.63563 l -6.72177,4.36169"
     id="path16"
     inkscape:connector-curvature="0"
     style="stroke-width:1.88628066" />
  <path
     d="m 241.98377,298.23028 -13.44354,-1.09043 -1.83321,4.36169 1.22214,4.36169 -3.66642,2.72605 -7.94391,-2.72605 -7.33285,-1.63564 -8.55498,-3.27126 v -3.81648 l -3.66642,-0.5452 v -4.9069 l -5.49963,-4.36169 4.2775,-2.72605 -3.66643,-4.9069 -7.33283,-2.18084 -4.2775,-4.36169 1.22213,-10.359 -3.66641,-1.09042 0.61107,-2.18084 2.44428,-2.72605 h -5.49963 l -6.1107,7.08773 -12.2214,-4.9069 -9.16606,5.99732 -3.05535,0.54521 -6.1107,4.9069 2.44428,3.27127 0.61107,4.9069 2.44428,0.5452 0.61107,1.63564 2.44428,1.09042 -1.83321,1.63563 -1.83321,2.18085 6.72177,3.81647 3.66643,1.09042 2.44427,1.09042 3.05536,-0.54521 h 2.44427 l 0.61108,2.18085 -1.22215,1.09041 1.22215,3.27127 6.1107,0.54521 2.44428,-0.54521 1.8332,1.09042 -3.05535,1.63564 -3.66641,2.18084 h -4.88857 l 1.22215,2.18084 -2.44428,2.18085 h -4.2775 l -0.61107,-1.09043 -2.44428,1.09043 -1.22213,2.18083 -0.61108,2.18084 -6.1107,2.18085 3.66643,3.27127 5.49963,0.54521 1.22213,1.09041 3.66642,-0.5452 3.66643,1.09042 3.05535,2.72606 8.55498,2.72605 7.94391,2.18084 3.05535,-1.09043 3.05535,-2.72605 0.61107,-4.36169 4.88856,0.54522 h 4.27749 l 2.44428,-3.27127 4.88856,0.54521 4.2775,0.54522 4.27749,-1.09043 6.72177,2.18085 6.72177,-4.36169 3.66642,1.09043 8.55498,-2.72606 -2.44428,-2.72606 4.88856,-5.99731"
     id="path18"
     inkscape:connector-curvature="0"
     style="stroke-width:1.88628066" />
  <path
     d="m 239.53949,206.08966 6.11071,-2.72605 3.66642,-2.72605 6.11069,1.63563 12.22141,1.09042 -0.61108,3.81648 9.16606,-2.72605 4.88856,1.09041 -3.66642,3.81648 -0.61107,5.99731 -1.22214,7.08774 3.05535,4.9069 v 3.81648 l -7.33284,4.9069 1.22214,5.99731 v 3.81648 l -4.27749,1.63563 4.27749,8.17816 -1.83321,3.81648 -5.49963,1.63562 -4.88856,3.27128 h -3.05535 l -2.44428,0.5452 0.61106,2.72606 -0.61106,2.72605 -4.2775,1.09043 -3.05535,1.63562 0.61107,3.81648 3.05536,2.18084 1.22213,3.27127 -8.55498,5.99732 3.66642,2.72605 -0.61107,6.54253 -4.88856,0.54521 -13.44354,-1.09043 -1.83321,4.36169 1.22214,4.36169 -3.66642,2.72605 -7.94391,-2.72605 -7.33285,-1.63564 -8.55498,-3.27126 v -3.81648 l -3.66642,-0.5452 v -4.9069 l -5.49963,-4.36169 4.2775,-2.72605 -3.66643,-4.9069 -7.33283,-2.18084 -4.2775,-4.36169 1.22213,-10.359 -3.66641,-1.09042 0.61107,-2.18084 2.44428,-2.72605 h -5.49963 l 1.22214,-2.18085 2.44428,-4.36168 3.05535,-1.63564 h 3.05535 l 1.22214,1.63564 11.61033,0.5452 1.83321,-1.63563 11.61033,-0.54521 4.2775,-4.9069 1.22213,-12.53984 1.22215,-8.17817 1.8332,-7.08774 2.44429,-10.359"
     id="path20"
     inkscape:connector-curvature="0"
     style="stroke-width:1.88628066" />
  <ellipse
     style="fill:#000000;fill-opacity:1;stroke:#ffffff;stroke-width:1.03431928;stroke-opacity:1"
     id="path76-3-3-3-3"
     cx="531.52856"
     cy="33.634743"
     rx="21.283499"
     ry="17.469942" />
  <text
     xml:space="preserve"
     style="font-style:normal;font-weight:normal;font-size:11.8438282px;line-height:1.25;font-family:sans-serif;letter-spacing:0px;word-spacing:0px;fill:#000000;fill-opacity:1;stroke:none;stroke-width:0.29609579"
     x="637.09161"
     y="53.696514"
     id="text99-3-2-6-6-6-6"
     transform="scale(0.79581268,1.2565771)"><tspan
       sodipodi:role="line"
       x="637.09161"
       y="53.696514"
       style="stroke-width:0.29609579"
       id="tspan81">г. Тараз</tspan></text>
</svg>
