<?xml version="1.0" encoding="UTF-8" standalone="no"?>
<svg
   xmlns:dc="http://purl.org/dc/elements/1.1/"
   xmlns:cc="http://creativecommons.org/ns#"
   xmlns:rdf="http://www.w3.org/1999/02/22-rdf-syntax-ns#"
   xmlns:svg="http://www.w3.org/2000/svg"
   xmlns="http://www.w3.org/2000/svg"
   xmlns:sodipodi="http://sodipodi.sourceforge.net/DTD/sodipodi-0.dtd"
   xmlns:inkscape="http://www.inkscape.org/namespaces/inkscape"
   version="1.1"
   id="svg28"
   sodipodi:docname="Западно-Казахстанская.svg"
   width="306"
   height="183.90601"
   inkscape:version="0.92.3 (unknown)">
  <metadata
     id="metadata34">
    <rdf:RDF>
      <cc:Work
         rdf:about="">
        <dc:format>image/svg+xml</dc:format>
        <dc:type
           rdf:resource="http://purl.org/dc/dcmitype/StillImage" />
        <dc:title />
      </cc:Work>
    </rdf:RDF>
  </metadata>
  <defs
     id="defs32" />
  <sodipodi:namedview
     pagecolor="#ffffff"
     bordercolor="#666666"
     borderopacity="1"
     objecttolerance="10"
     gridtolerance="10"
     guidetolerance="10"
     inkscape:pageopacity="0"
     inkscape:pageshadow="2"
     inkscape:window-width="1195"
     inkscape:window-height="718"
     id="namedview30"
     showgrid="false"
     fit-margin-top="0"
     fit-margin-left="0"
     fit-margin-right="0"
     fit-margin-bottom="0"
     inkscape:zoom="1.668772"
     inkscape:cx="50.660299"
     inkscape:cy="210.81963"
     inkscape:window-x="75"
     inkscape:window-y="34"
     inkscape:window-maximized="0"
     inkscape:current-layer="svg28" />
  <path
     d="m 219.096,18.36 0.918,3.978 1.224,-0.306 1.836,-2.448 1.224,-3.366 1.224,-2.142 2.448,-1.836 2.448,2.142 3.06,0.612 2.142,-0.612 2.448,-1.53 h 3.366 l 2.142,-2.448 1.836,1.53 0.306,7.344 0.918,2.754 v 4.59 h 1.224 v 2.142 h -0.306 l -3.06,2.754 -3.366,-3.06 -1.836,2.142 -1.224,-0.918 -1.224,-2.142 -0.918,1.836 -1.224,0.918 h -1.53 l -2.448,-0.918 h -3.978 l -0.918,1.53 -2.142,1.53 -1.836,0.306 h -1.836 l -0.918,-1.224 -2.142,-0.306 -1.53,0.918 -3.06,0.306 -2.448,3.672 -2.754,0.612 -2.142,1.836 -1.224,2.142 -2.448,3.06 -3.06,2.754 -3.366,1.53 -0.306,0.918 -0.306,3.672 v 4.59 l -3.672,2.754 -1.53,-0.306 -4.59,-1.224 -1.53,-1.53 -1.224,-1.53 -1.836,-0.918 -3.366,-0.612 1.53,-2.142 0.918,-2.754 -0.306,-0.918 -0.918,-0.306 -0.612,-0.612 0.306,-1.53 2.142,-3.06 5.202,1.836 v -3.06 l 1.224,-1.224 1.836,-0.612 v -2.142 l -2.448,-3.366 h -4.284 l -2.142,-1.53 v -1.224 l 0.918,-0.306 V 29.07 h -1.836 l -0.306,-0.612 h -3.978 v -1.836 l 0.918,-1.53 -0.612,-2.142 -2.754,-1.224 1.836,-1.836 2.448,-1.836 0.612,-3.06 4.284,-0.306 1.836,-2.448 1.53,-3.366 1.53,-2.142 1.224,-1.836 1.836,0.612 1.53,1.224 0.306,0.918 -0.918,1.224 2.448,1.836 0.306,-3.06 V 4.896 L 191.556,3.06 V 1.224 l 1.53,-0.918 2.142,-0.306 1.224,0.612 V 2.448 L 195.84,3.672 V 6.12 h 5.202 l 2.142,2.142 h 3.978 l 3.978,3.366 1.224,0.306 0.918,0.612 -0.612,0.918 -1.53,1.836 h -1.224 l -1.53,-0.306 v 5.202 l 2.448,0.918 2.142,-0.306 2.448,-1.836 2.142,-2.448"
     id="path2"
     inkscape:connector-curvature="0" />
  <path
     d="m 190.638,59.976 3.672,-2.754 v -4.59 l 0.306,-3.672 0.306,-0.918 3.366,-1.53 3.06,-2.754 2.448,-3.06 1.224,-2.142 2.142,-1.836 2.754,-0.612 2.448,-3.672 3.06,-0.306 1.53,-0.918 2.142,0.306 0.918,1.224 h 1.836 l 1.836,-0.306 2.142,-1.53 0.918,-1.53 h 3.978 l 2.448,0.918 h 1.53 l 1.224,-0.918 0.918,-1.836 1.224,2.142 1.224,0.918 1.836,-2.142 3.366,3.06 -3.672,4.59 3.672,-0.306 v 3.672 l -4.284,2.754 0.612,1.836 0.612,0.306 3.06,-2.754 0.612,0.306 v 3.366 l -1.53,2.448 -0.918,2.142 -2.142,1.224 v 4.896 l -0.918,2.142 -0.612,1.836 h -5.508 l -2.448,-1.53 -2.142,-1.836 -0.306,-3.06 -3.06,-0.612 -2.754,-1.836 -2.142,-1.836 -0.612,1.224 0.306,1.53 v 1.836 l -1.53,-0.306 -1.53,0.306 -1.224,0.612 1.224,1.53 1.836,1.224 0.612,2.448 0.306,1.836 -1.224,1.53 -2.142,0.918 -1.836,1.53 0.306,2.142 2.142,3.978 -2.142,3.06 -0.612,1.224 -3.06,3.366 v 1.224 h 2.142 l 0.918,2.754 h -1.224 l -2.142,1.224 h -1.224 l -1.224,-0.918 -1.224,0.306 -2.448,2.142 -2.142,1.53 -2.754,1.836 -1.53,2.754 -3.06,1.224 -2.448,0.918 -1.53,-0.918 -1.224,-0.612 V 91.8 l 0.918,-2.448 v -2.754 l -2.448,-2.754 -1.53,-2.448 -2.142,-2.754 0.306,-3.978 2.142,-4.284 2.754,-3.672 -0.306,-3.978 h 0.918"
     id="path4"
     inkscape:connector-curvature="0" />
  <path
     d="m 220.626,49.266 2.142,1.836 2.754,1.836 3.06,0.612 0.306,3.06 2.142,1.836 2.448,1.53 h 5.508 l 0.612,-1.836 0.918,-2.142 2.448,1.53 2.448,2.754 2.754,2.448 1.224,0.918 v 0.612 l -1.53,1.53 v 3.672 l 0.612,1.224 3.366,-2.448 2.142,2.448 3.978,-3.366 6.426,3.978 -0.612,0.918 -1.53,2.754 -0.612,1.224 0.306,1.224 2.142,0.612 1.53,0.612 1.53,1.836 5.202,-0.918 v 8.262 l -4.284,3.672 -1.53,0.306 0.612,5.202 -4.896,0.306 -0.918,0.306 -1.224,2.142 -0.306,7.038 -6.732,5.814 h -4.284 l -3.366,2.754 h -5.202 l -0.918,1.224 v 2.142 l -1.53,1.224 -1.224,2.142 -0.612,1.53 -1.836,0.612 h -1.53 l -2.448,-0.918 h -2.754 l -2.754,-0.612 -1.224,-0.918 -0.306,-0.918 0.918,-0.306 v -0.918 l -2.448,-1.53 -2.142,-2.754 -1.53,-3.366 -0.612,-2.754 0.918,-3.06 1.836,-1.53 2.142,-0.918 -0.306,-2.142 -1.224,-3.366 -0.918,-3.06 v -5.202 l -1.224,-0.306 -1.224,-0.612 -0.612,-3.06 -2.142,-2.754 -0.918,-2.754 h -2.142 v -1.224 l 3.06,-3.366 0.612,-1.224 2.142,-3.06 -2.142,-3.978 -0.306,-2.142 1.836,-1.53 2.142,-0.918 1.224,-1.53 -0.306,-1.836 -0.612,-2.448 -1.836,-1.224 -1.224,-1.53 1.224,-0.612 1.53,-0.306 1.53,0.306 V 52.02 l -0.306,-1.53"
     id="path6"
     inkscape:connector-curvature="0" />
  <path
     d="m 247.554,28.764 h 4.284 l 2.448,-0.918 1.224,0.612 h 3.366 l 1.836,2.142 h 2.754 l 2.448,-1.224 2.448,0.612 h 3.06 l 0.918,3.978 2.754,0.612 2.142,1.53 0.306,3.978 -0.918,5.814 -0.306,2.142 -1.53,2.142 -2.142,1.53 -0.612,0.918 0.306,1.53 1.224,1.224 h 1.224 l 0.612,1.224 0.306,2.754 1.836,1.53 -1.224,1.224 -2.754,0.306 -1.836,2.448 -1.836,2.754 -2.142,0.612 -2.448,1.53 -0.918,1.53 -6.426,-3.978 -3.978,3.366 -2.142,-2.448 -3.366,2.448 -0.612,-1.224 V 65.79 l 1.53,-1.53 v -0.612 l -1.224,-0.918 -2.754,-2.448 -2.448,-2.754 -2.448,-1.53 v -4.896 l 2.142,-1.224 0.918,-2.142 1.53,-2.448 v -3.366 l -0.612,-0.306 -3.06,2.754 -0.612,-0.306 -0.612,-1.836 4.284,-2.754 v -3.672 l -3.672,0.306 3.672,-4.59"
     id="path8"
     inkscape:connector-curvature="0" />
  <path
     d="m 267.138,97.002 -0.612,-5.202 1.53,-0.306 4.284,-3.672 V 79.56 l -5.202,0.918 -1.53,-1.836 -1.53,-0.612 -2.142,-0.612 -0.306,-1.224 0.612,-1.224 1.53,-2.754 1.53,-2.448 2.448,-1.53 2.142,-0.612 1.836,-2.754 1.836,-2.448 2.754,-0.306 1.224,-1.224 -1.836,-1.53 -0.306,-2.754 -0.612,-1.224 h -1.224 l -1.224,-1.224 -0.306,-1.53 0.612,-0.918 2.142,-1.53 1.53,-2.142 h 2.448 l 1.224,-0.612 0.918,0.918 0.918,1.53 h 3.366 l 3.366,0.306 2.142,1.224 1.224,1.53 0.612,2.754 h 1.224 l 1.836,2.754 0.306,4.59 3.366,3.366 0.306,2.448 6.426,2.448 v 1.836 l -1.836,1.224 -1.53,1.836 -1.836,2.448 -1.836,3.06 0.612,2.754 1.224,2.754 0.612,1.53 -1.53,2.448 -3.366,3.672 -3.06,3.366 1.836,3.366 -0.306,1.836 -0.918,1.836 v 1.836 l 1.224,2.142 0.612,1.836 h -1.836 l -0.918,0.612 -2.754,0.918 -2.754,-0.918 h -4.896 l -1.53,-2.448 -1.836,-2.142 v -2.448 l 1.224,-3.978 -1.224,-2.142 -3.366,-2.142 -3.672,-0.918 h -4.284"
     id="path10"
     inkscape:connector-curvature="0" />
  <path
     d="m 230.112,123.318 2.448,0.918 h 1.53 l 1.836,-0.612 0.612,-1.53 1.224,-2.142 1.53,-1.224 v -2.142 l 0.918,-1.224 h 5.202 l 3.366,-2.754 h 4.284 l 6.732,-5.814 0.306,-7.038 1.224,-2.142 0.918,-0.306 4.896,-0.306 0.918,-1.53 h 4.284 l 3.672,0.918 3.366,2.142 1.224,2.142 -1.224,3.978 v 2.448 l 1.836,2.142 1.53,2.448 h 4.896 l 2.754,0.918 2.754,-0.918 0.918,-0.612 h 1.836 l 0.612,0.918 0.918,0.612 v 1.836 l -0.612,1.224 -1.224,2.142 -1.224,2.448 -1.836,1.836 -1.53,1.224 0.306,1.836 1.53,0.918 v 0.918 l -2.754,-0.306 -1.836,-0.306 -1.53,1.224 v 1.53 l -1.224,0.918 -0.918,1.53 1.224,1.53 -0.306,0.612 h -1.53 l -2.448,-0.612 -2.754,-0.612 -1.53,-0.612 -0.306,-0.918 h -2.142 l -1.224,0.918 -0.612,2.448 -1.836,-0.306 -0.918,-0.612 -0.306,-1.836 -2.754,3.978 -2.142,2.448 -2.448,1.836 -0.612,1.836 -0.918,2.448 -2.448,4.284 -2.754,4.284 -3.06,2.754 -3.06,2.448 0.306,-1.836 -0.918,-1.224 h -6.426 l -3.672,-1.53 -3.672,-0.918 -3.06,-0.918 -3.06,-1.224 -1.224,-0.918 v -3.06 l 0.918,-0.918 v -1.53 l -2.142,-0.306 -1.836,-0.612 v -1.224 l 1.53,-1.224 1.53,-2.142 -0.306,-3.06 -2.448,-2.142 v -1.836 l 1.836,-3.06 h 1.836 l 1.53,-1.836 0.306,-1.836"
     id="path12"
     inkscape:connector-curvature="0" />
  <path
     d="m 177.786,47.736 0.918,0.306 0.306,0.918 -0.918,2.754 -1.53,2.142 3.366,0.612 1.836,0.918 1.224,1.53 1.53,1.53 4.59,1.224 1.53,0.306 0.306,2.754 h -0.918 l 0.306,3.978 -2.754,3.672 -2.142,4.284 -0.306,3.978 2.142,2.754 1.53,2.448 2.448,2.754 v 2.754 l -0.918,2.448 v 0.918 l 1.224,0.612 1.53,0.918 2.448,-0.918 3.06,-1.224 1.53,-2.754 2.754,-1.836 2.142,-1.53 2.448,-2.142 1.224,-0.306 1.224,0.918 h 1.224 l 2.142,-1.224 h 1.224 l 2.142,2.754 0.612,3.06 1.224,0.612 1.224,0.306 v 5.202 l 0.918,3.06 1.224,3.366 0.306,2.142 -2.142,0.918 -1.836,1.53 -0.918,3.06 0.612,2.754 1.53,3.366 2.142,2.754 2.448,1.53 v 0.918 l -0.918,0.306 0.306,0.918 1.224,0.918 2.754,0.612 h 2.754 l 0.612,1.224 -0.306,1.836 -1.53,1.836 h -1.836 l -1.836,3.06 v 1.836 l 2.448,2.142 0.306,3.06 -1.53,2.142 -1.53,1.224 v 1.224 l 1.836,0.612 2.142,0.306 v 1.53 l -0.918,0.918 v 3.06 l 1.224,0.918 3.06,1.224 3.06,0.918 3.672,0.918 3.672,1.53 h 6.426 l 0.918,1.224 -0.306,1.836 -1.224,0.918 -5.202,0.306 -4.284,-0.612 -2.142,-0.612 -1.224,-2.142 -2.142,-0.612 -1.53,-0.918 h -1.836 v 2.754 l -2.142,1.836 h -1.224 l -1.224,-1.224 -0.918,0.612 -0.306,2.754 -1.224,4.59 -0.306,4.284 h -1.53 l -1.836,-1.53 -1.53,1.836 -1.53,3.366 -1.836,3.06 0.612,1.53 -0.306,1.224 -1.836,0.612 h -3.978 l -2.754,-1.224 -3.06,-1.836 -1.836,-1.53 -2.142,-0.306 -1.836,0.918 -3.366,0.306 -3.06,-1.224 -2.142,-1.53 -3.366,-1.836 0.918,-3.366 0.612,-2.142 1.53,-0.612 -3.366,-2.142 -6.12,-1.53 -2.754,-1.836 -1.53,-0.306 -3.06,1.224 -2.448,0.612 h -4.284 l -1.836,-1.53 v -0.612 l -0.918,-0.918 -3.366,-2.142 0.306,-0.918 0.918,-0.918 6.732,-0.306 2.448,-3.672 0.306,-1.836 -0.306,-1.224 -1.53,-0.918 2.142,-5.814 1.53,-3.06 2.754,-1.224 1.836,-1.836 v -2.448 l 1.224,-0.918 2.754,-0.612 0.612,-4.896 -2.142,-1.836 -1.53,-0.918 -4.896,-5.508 -2.754,-0.306 3.06,-6.12 0.918,-2.448 v -3.06 l -1.224,-1.224 -1.53,-0.612 -5.814,-7.038 0.306,-2.448 -2.448,-2.142 -3.978,-2.448 -4.59,-1.836 -3.366,-2.448 -4.59,-3.06 -1.53,-2.142 0.612,-2.142 1.53,-2.142 0.918,-3.06 0.306,-2.754 -0.918,-1.224 0.612,-0.918 v -4.284 l 1.224,-1.836 4.284,-2.448 2.142,2.142 2.142,1.53 1.53,0.306 4.284,-3.672 2.754,-3.06 3.366,-3.672 1.224,-2.448 H 169.83 V 45.9 l 1.836,1.224 1.53,0.612 2.448,0.612 h 1.53"
     id="path14"
     inkscape:connector-curvature="0" />
  <path
     d="m 119.646,40.698 3.06,-1.836 h 2.754 l 3.366,-2.142 2.754,-0.612 h 5.508 l 0.306,-5.202 -2.142,-1.53 2.142,-2.754 4.284,-3.06 2.142,-1.224 3.978,1.836 6.426,-0.306 3.978,-2.142 3.672,-1.53 5.202,-0.306 2.448,0.918 4.59,2.142 0.612,2.142 -0.918,1.53 v 1.836 h 3.978 l 0.306,0.612 h 1.836 v 1.836 l -0.918,0.306 v 1.224 l 2.142,1.53 h 4.284 l 2.448,3.366 v 2.142 l -1.836,0.612 -1.224,1.224 v 3.06 l -5.202,-1.836 -2.142,3.06 -0.306,1.53 0.612,0.612 -0.612,0.612 h -1.53 l -2.448,-0.612 -1.53,-0.612 -1.836,-1.224 v 4.59 h 0.612 l -1.224,2.448 -3.366,3.672 -2.754,3.06 -4.284,3.672 -1.53,-0.306 -2.142,-1.53 -2.142,-2.142 -2.754,1.53 -1.53,0.918 -1.224,1.836 v 4.284 l -0.612,0.918 -3.06,-0.612 h -7.038 l -2.448,-0.918 -2.142,-0.612 v -6.732 h 1.224 l 3.06,-3.978 0.306,-1.224 -0.306,-0.918 -2.142,-1.224 -3.978,-1.836 -4.284,-1.53 -2.448,-1.836 -0.612,-3.06"
     id="path16"
     inkscape:connector-curvature="0" />
  <path
     d="m 79.56,55.386 1.53,0.612 0.918,1.53 0.306,3.06 0.306,3.06 0.918,1.224 -0.306,0.612 -0.306,5.814 h 0.612 v 3.06 l 3.672,0.306 1.224,1.224 0.612,1.53 3.672,-0.306 1.836,-0.918 h 7.038 l 2.142,-0.918 2.142,-1.836 1.53,-1.53 v -2.142 l -1.53,-1.53 h -2.448 l 0.306,-1.224 3.672,-3.06 v -2.142 l -1.224,-1.836 v -4.284 l 0.612,-3.978 0.918,-7.038 0.306,-3.366 -2.142,-1.836 1.836,-0.918 0.918,-0.306 0.918,0.612 2.754,2.754 2.448,0.306 1.53,0.918 2.448,-1.53 0.918,-0.612 3.366,3.672 0.612,3.06 2.448,1.836 4.284,1.53 3.978,1.836 2.142,1.224 0.306,0.918 -0.306,1.224 -3.06,3.978 h -1.224 v 6.732 l 2.142,0.612 2.448,0.918 h 7.038 l 3.06,0.612 0.918,1.224 -0.306,2.754 -0.918,3.06 -1.53,2.142 -0.612,2.142 1.53,2.142 4.59,3.06 3.366,2.448 4.59,1.836 3.978,2.448 2.448,2.142 -0.306,2.448 -0.918,1.53 -0.306,2.142 h -6.426 l -4.59,0.918 -4.284,-0.918 -5.202,-2.142 h -2.754 l -3.06,0.306 -1.224,2.142 v 3.06 l 1.836,3.978 0.612,2.448 v 1.53 l -1.836,1.836 -2.142,0.306 -0.918,0.918 h -1.53 l -2.142,0.612 -0.306,1.224 -0.306,2.754 0.612,2.142 -3.978,0.306 -0.612,3.978 -1.836,1.836 h -2.142 l -2.448,-1.53 v -3.366 l -3.06,-0.306 -1.53,-0.918 -0.918,-1.53 -1.224,-0.306 -1.53,-0.918 v -0.918 l 0.612,-1.53 0.918,-1.53 h -3.672 l -2.448,1.836 -2.754,0.612 -4.59,-4.284 -1.224,-2.448 -2.142,-1.53 -4.59,-1.224 H 87.21 l -3.978,-1.224 -4.896,5.508 -3.366,0.612 -4.59,-5.202 -1.836,-3.06 1.224,-2.142 v -1.224 l -1.53,-0.612 -0.918,-1.53 -0.918,-3.06 -0.918,-3.06 v -2.754 l 2.754,-3.06 V 82.62 l 1.224,-1.53 -0.306,-4.896 -0.918,-1.836 -0.612,-2.142 H 65.79 v -1.224 l -2.754,-2.448 -1.224,-0.918 0.612,-0.918 V 65.79 l -0.918,-1.53 0.306,-0.918 1.53,-1.224 h 1.836 l 3.672,-1.836 3.366,-1.836 3.06,-0.612"
     id="path18"
     inkscape:connector-curvature="0" />
  <path
     d="m 32.13,99.45 -0.306,-3.06 0.306,-1.53 -1.836,-3.06 -0.918,-1.224 -1.53,-0.918 -1.53,-1.836 -1.53,-1.53 v -1.53 l 2.754,-1.836 1.224,-2.754 1.53,-3.06 2.448,-4.284 1.53,-5.202 2.142,-3.366 2.448,-2.448 3.672,-0.306 3.366,-1.224 h 3.978 l 6.12,-6.12 -0.612,-3.06 -0.306,-1.53 0.612,-0.918 1.836,-0.612 0.918,-0.612 -0.612,-1.53 0.612,-2.142 0.918,-1.224 1.53,-0.306 0.918,0.612 h 1.53 l 1.224,-0.918 1.224,-1.836 2.448,-1.836 2.142,-0.918 2.448,-0.306 v 1.224 l -0.612,0.306 0.918,1.836 2.142,3.06 1.53,3.06 0.918,3.978 1.836,2.448 v 2.448 l -4.284,2.448 -3.06,0.612 -3.366,1.836 -3.672,1.836 h -1.836 l -1.53,1.224 -0.306,0.918 0.918,1.53 v 0.918 l -0.612,0.918 1.224,0.918 2.754,2.448 v 1.224 h 1.836 l 0.612,2.142 0.918,1.836 0.306,4.896 -1.224,1.53 v 4.284 l -2.754,3.06 v 2.754 l 0.918,3.06 0.918,3.06 0.918,1.53 1.53,0.612 v 1.224 l -1.224,2.142 H 65.79 l -0.918,0.918 v 4.284 l -1.224,0.612 -3.06,-1.224 -2.142,-2.754 -3.366,-3.06 -3.06,-3.06 h -1.224 l -1.53,0.918 h -1.224 l -1.53,-1.53 h -1.224 l -2.754,2.448 -1.53,0.306 -0.918,1.224 -0.612,2.142 -4.284,-2.754 -1.224,-2.142"
     id="path20"
     inkscape:connector-curvature="0" />
  <path
     d="m 103.122,117.198 2.754,-0.612 2.448,-1.836 h 3.672 l -0.918,1.53 -0.612,1.53 v 0.918 l 1.53,0.918 1.224,0.306 0.918,1.53 1.53,0.918 3.06,0.306 v 3.366 l 2.448,1.53 h 2.142 l 1.836,-1.836 0.612,-3.978 3.978,-0.306 -0.612,-2.142 0.306,-2.754 0.306,-1.224 2.142,-0.612 h 1.53 l 0.918,-0.918 2.142,-0.306 1.836,-1.836 v -1.53 l -0.612,-2.448 -1.836,-3.978 v -3.06 l 1.224,-2.142 3.06,-0.306 h 2.754 l 5.202,2.142 4.284,0.918 4.59,-0.918 h 6.426 l 0.306,-2.142 0.918,-1.53 5.814,7.038 1.53,0.612 1.224,1.224 v 3.06 l -0.918,2.448 -3.06,6.12 2.754,0.306 4.896,5.508 1.53,0.918 2.142,1.836 -0.306,1.53 -0.306,3.366 -2.754,0.612 -1.224,0.918 v 2.448 l -1.836,1.836 -2.754,1.224 -1.53,3.06 -2.142,5.814 1.53,0.918 0.306,1.224 -0.306,1.836 -2.448,3.672 -6.732,0.306 -0.918,0.918 -0.306,0.918 3.366,2.142 0.918,0.918 -0.306,2.142 -1.53,2.142 -1.53,2.142 -0.918,0.918 -1.224,-0.612 -0.918,-1.224 -2.142,1.224 -3.366,1.836 -10.098,2.754 -11.322,3.366 -2.448,1.224 -10.404,5.814 -2.142,-0.306 -1.836,-1.224 -2.448,1.836 h -2.448 l -4.59,-1.53 -3.366,-1.53 -2.754,-0.918 v 5.508 l -1.224,0.918 -1.224,-0.612 -2.754,-2.448 -5.202,-3.366 -3.366,-2.448 -3.672,-1.53 2.142,-4.284 3.06,-5.508 12.546,-23.868 3.06,-7.956 0.918,-2.142 0.918,-3.06 v -2.448 l -0.612,-1.224 -0.306,-1.224 0.306,-1.836 0.918,-0.612"
     id="path22"
     inkscape:connector-curvature="0" />
  <path
     d="m 79.866,173.502 -5.508,-3.672 -7.65,-3.366 -7.956,-4.59 -6.732,-2.448 -8.874,-3.366 -17.748,-8.874 -3.366,-0.612 -4.59,-3.06 L 8.874,136.476 3.978,133.11 0,129.744 l 4.896,-6.12 9.18,-12.546 4.284,-6.12 7.038,-0.918 5.508,-4.59 h 1.224 l 1.836,1.224 1.224,2.142 4.284,2.754 0.612,-2.142 0.918,-1.224 1.53,-0.306 2.754,-2.448 h 1.224 l 1.53,1.53 h 1.224 l 1.53,-0.918 h 1.224 l 3.06,3.06 3.366,3.06 2.142,2.754 3.06,1.224 1.224,-0.612 v -4.284 l 0.918,-0.918 h 2.754 l 1.836,3.06 4.59,5.202 3.366,-0.612 4.896,-5.508 3.978,1.224 h 3.366 l 4.59,1.224 2.142,1.53 1.224,2.448 4.59,4.284 -0.306,2.142 -0.918,0.612 -0.306,1.836 0.306,1.224 0.612,1.224 v 2.448 l -0.918,3.06 -0.918,2.142 -3.06,7.956 -12.546,23.868 -3.06,5.508"
     id="path24"
     inkscape:connector-curvature="0" />
  <ellipse
     style="fill:#000000;fill-opacity:1;stroke:#ffffff;stroke-width:0.74089873;stroke-opacity:1"
     id="path76-3-3-3-3"
     cx="23.193451"
     cy="12.038802"
     rx="14.538914"
     ry="13.12233" />
  <text
     xml:space="preserve"
     style="font-style:normal;font-weight:normal;font-size:11.8438282px;line-height:1.25;font-family:sans-serif;letter-spacing:0px;word-spacing:0px;fill:#000000;fill-opacity:1;stroke:none;stroke-width:0.29609579"
     x="4.5586929"
     y="32.019482"
     id="text99-3-2-6-6-6-6"
     transform="scale(0.79581268,1.2565771)"><tspan
       sodipodi:role="line"
       x="4.5586929"
       y="32.019482"
       style="stroke-width:0.29609579"
       id="tspan81">г. Уральск</tspan></text>
</svg>
