<?xml version="1.0" encoding="UTF-8" standalone="no"?>
<svg
   xmlns:dc="http://purl.org/dc/elements/1.1/"
   xmlns:cc="http://creativecommons.org/ns#"
   xmlns:rdf="http://www.w3.org/1999/02/22-rdf-syntax-ns#"
   xmlns:svg="http://www.w3.org/2000/svg"
   xmlns="http://www.w3.org/2000/svg"
   xmlns:sodipodi="http://sodipodi.sourceforge.net/DTD/sodipodi-0.dtd"
   xmlns:inkscape="http://www.inkscape.org/namespaces/inkscape"
   version="1.1"
   id="svg38"
   sodipodi:docname="Карагандинская.svg"
   width="500.91525"
   height="250.24315"
   inkscape:version="0.92.3 (unknown)">
  <metadata
     id="metadata44">
    <rdf:RDF>
      <cc:Work
         rdf:about="">
        <dc:format>image/svg+xml</dc:format>
        <dc:type
           rdf:resource="http://purl.org/dc/dcmitype/StillImage" />
        <dc:title />
      </cc:Work>
    </rdf:RDF>
  </metadata>
  <defs
     id="defs42" />
  <sodipodi:namedview
     pagecolor="#ffffff"
     bordercolor="#666666"
     borderopacity="1"
     objecttolerance="10"
     gridtolerance="10"
     guidetolerance="10"
     inkscape:pageopacity="0"
     inkscape:pageshadow="2"
     inkscape:window-width="1115"
     inkscape:window-height="693"
     id="namedview40"
     showgrid="false"
     fit-margin-top="0"
     fit-margin-left="0"
     fit-margin-right="0"
     fit-margin-bottom="0"
     inkscape:zoom="0.834386"
     inkscape:cx="-44.735672"
     inkscape:cy="364.02481"
     inkscape:window-x="445"
     inkscape:window-y="121"
     inkscape:window-maximized="0"
     inkscape:current-layer="svg38" />
  <path
     d="m 411.25142,72.273899 2.00366,-1.253305 0.50092,-0.835536 2.50458,-1.671073 h 1.50274 l 1.50275,-0.835536 1.00183,-0.835537 0.50091,-1.253304 h 1.50275 l 2.00366,-0.417769 h 2.00366 l 3.50641,0.417769 2.00366,-0.835537 1.00183,-1.253304 0.50091,-0.417769 h 0.50092 l 0.50092,0.835537 h 1.00183 v 0.417768 h 2.50457 l 2.50458,-0.835536 2.00366,-0.835537 1.50275,-0.835536 h 2.50457 l 3.00549,2.088841 0.50092,-1.253305 1.50274,-0.835536 v -2.088841 h 1.50275 l 0.50092,-0.417768 -0.50092,-0.417769 h 3.00549 l 3.50641,-0.417768 4.00732,2.506609 1.50275,-1.671072 v -1.671073 -1.671073 -1.253305 l 0.50091,-1.253304 0.50092,-0.835537 0.50091,-1.253304 v -1.671073 l 1.00183,-2.924377 0.50092,-0.417769 0.50091,-0.417768 0.50092,-1.253304 3.00549,-0.417769 3.00549,-0.417768 h 1.50275 l 1.50274,0.835537 2.00366,1.253304 2.50458,2.088841 1.50275,0.417768 1.50274,0.417769 2.50458,-0.417769 1.00183,2.088841 1.50274,2.088841 v 1.671073 l 0.50092,2.088841 1.00183,0.835537 v 1.671072 l 1.00183,1.671073 -0.50092,0.835537 0.50092,0.835536 -1.00183,0.835536 0.50091,1.253305 0.50092,1.671073 v 0.835536 1.253305 l -3.00549,2.088841 v 0.417768 l -0.50092,0.835536 -0.50091,0.835537 h -1.00183 l -5.00915,2.506609 -0.50092,0.835536 h -1.00183 l -1.00183,2.088841 -0.50092,1.671073 v 1.671073 1.671073 0.835536 l 1.00183,0.417768 v 2.50661 l -0.50091,0.835536 -1.00183,2.088841 -1.50275,2.088841 2.00366,2.506609 0.50092,1.671073 h -5.51007 -1.50274 l -1.00184,1.253305 h -3.5064 l -2.50458,-0.835537 -1.00183,0.417768 h -3.50641 v 0.835537 l -0.50091,0.835536 v 0.835537 0.835536 l 0.50091,0.41777 v 0.83553 l 0.50092,1.25331 1.00183,0.83554 v 0.83553 l 1.50275,0.41777 c 0,0 1.00183,0.41777 1.50274,0.83554 0,0 0.50092,0.83553 1.00183,0.83553 0.50092,0.41777 1.50275,0.41777 1.50275,0.83554 0.50091,0.41777 1.00183,0.83554 1.00183,0.83554 l 1.00183,1.2533 v 2.08884 l 1.00183,0.83554 h 1.00183 l 1.50275,0.41777 v 0.41776 h 1.00183 l 1.00183,2.50661 -2.00366,1.25331 -1.00183,-0.83554 -3.0055,1.25331 0.50092,2.50661 0.50091,2.92437 -0.50091,0.83554 v 1.2533 l 1.00183,0.83554 6.01098,-0.83554 7.51373,-0.83553 1.50275,5.01322 -0.50092,0.41776 v 4.59545 l -4.50824,6.26653 -7.01281,-0.41777 -2.00366,0.83554 -1.00183,-0.41777 -3.00549,0.83553 -3.50641,-2.08884 -2.00366,0.83554 -2.50458,0.41777 -0.50091,-2.92438 -4.00732,-0.41777 -2.50458,-4.59545 -3.50641,1.25331 v -0.41777 l -3.5064,0.41777 -2.50458,0.83553 h -2.50458 l -1.00183,-3.34214 -4.00732,0.83553 h -1.50274 l -1.00183,-0.83553 -3.50641,-0.41777 -1.50275,-1.67107 h -1.00183 l -0.50091,-0.83554 -1.00183,-0.41777 h -1.00183 -1.50275 -1.00183 l -1.00183,-2.08884 -4.00732,2.92438 -0.50092,-2.50661 -4.50824,-2.08884 -0.50091,0.83553 -2.00366,-0.41776 -1.50275,-1.67108 -1.50274,0.41777 -1.50275,0.41777 -1.50274,-0.41777 -0.50092,-1.67107 h -3.50641 l 0.50092,5.84875 -1.50275,2.50661 -1.00183,-1.67107 -5.00915,-0.41777 -0.50092,-0.41777 -0.50091,-1.67107 -2.00366,-1.67107 1.50274,-1.25331 v -2.50661 l 2.00367,-2.50661 -2.00367,-1.2533 -1.50274,-1.67107 v -1.25331 h -2.00366 v -2.92437 l -0.50092,-0.41777 -2.00366,-2.50661 -1.00183,-0.83554 h -0.50091 l -2.00367,0.41777 -2.00366,-1.25331 v -1.2533 l -1.50274,-1.2533 1.00183,-0.83554 -1.00183,-2.08884 -3.50641,-2.088843 v -0.835536 -0.835537 l 1.50275,-1.253304 2.00366,-1.253305 2.00366,-0.417768 v -3.342146 -1.671072 -1.671073 -1.671073 -1.253305 l 0.50091,-3.342145 1.50275,0.417768 1.00183,-2.088841 1.00183,-0.417768 h 1.00183 1.00183 0.50092 v 0.835536 l -0.50092,0.417768 1.50275,1.253305 1.00183,2.506609 1.50274,0.417768 v 0.835537 l 1.50275,1.253304 h 1.50275 l 1.50274,-0.835536 1.50275,-0.417768 v -1.671073 -1.253305 -1.253304 l -0.50092,-1.671073 h 0.50092 l 1.00183,-0.417768 h 1.50274 l 1.50275,-0.417768 3.50641,-1.253305 0.50091,-1.253305 h 5.00915 l 1.50275,-1.671072 z"
     id="path2"
     inkscape:connector-curvature="0"
     style="stroke-width:1.4949559" />
  <path
     d="m 94.172068,223.92376 -6.511899,-5.01322 -8.014644,-8.35537 -6.010983,-1.67107 -15.528373,-9.60867 -10.51922,-4.59545 -9.016474,-4.59545 -1.502746,-1.2533 -2.504576,0.41777 -6.511899,-4.17769 -3.005491,-1.67107 -4.007322,-1.67107 -6.511899,-6.68429 L 0,175.46264 l 19.535695,-10.02643 29.554,-12.95082 9.51739,-7.10206 -5.009153,-6.68429 -1.502746,-7.10206 9.51739,-6.68429 -0.500915,-5.43098 11.521051,-0.41777 -2.504576,-2.92438 1.00183,-0.83554 -1.00183,-4.17768 7.513728,1.25331 3.506407,-11.27975 22.541189,7.9376 10.51922,-1.67107 1.00183,-4.17768 9.01647,1.2533 12.52288,-10.026437 5.51007,-2.924377 3.00549,-5.430987 6.5119,-5.848754 4.50824,-1.253305 11.52105,-11.69751 5.00915,7.519828 1.00183,0.835536 1.00183,1.253305 2.00366,0.835536 0.50092,2.088841 0.50092,2.088841 0.50091,1.671073 0.50092,1.253305 0.50091,0.835536 1.50275,2.088841 1.00183,1.671073 0.50091,1.253305 0.50092,1.253304 v 0.835537 l 0.50091,0.417768 0.50092,1.671073 -0.50092,2.088841 -0.50091,2.088841 0.50091,1.253306 v 0.83553 l 0.50092,0.41777 h 1.00183 l 1.00183,0.41777 3.00549,0.41777 8.51556,1.2533 10.01831,12.53305 6.01098,3.75991 9.01647,0.41777 v 5.01322 l 18.03295,24.64832 2.50458,2.08885 -1.00183,1.2533 -1.00183,1.67107 v 0.83554 1.2533 1.25331 l -7.01282,0.41777 -8.51556,1.67107 -5.51006,-1.67107 -6.5119,7.93759 h -1.50275 l 6.01099,18.3818 -6.5119,5.01322 -4.50824,3.34215 -3.00549,2.50661 -3.50641,4.17768 -6.01098,7.10206 10.51922,35.51029 -26.54851,-1.2533 -22.04027,-1.67107 -10.01831,-0.83554 -0.50091,-6.26652 -7.01281,-2.08884 -7.01282,-0.41777 -19.03478,-2.92438 -8.51556,-1.2533"
     id="path4"
     inkscape:connector-curvature="0"
     style="stroke-width:1.4949559" />
  <path
     d="m 222.40637,120.31724 3.00549,5.01322 4.50824,2.50661 12.02197,-2.08884 2.00366,-4.17768 19.53569,-1.25331 5.00916,-12.53304 1.00183,-11.279746 h 3.00549 l 2.00366,0.835537 2.00366,0.835536 v 2.506613 l 1.50275,2.08884 3.5064,1.67107 2.00366,2.50661 20.03661,-2.08884 v 2.50661 l 1.00183,0.83553 h 9.01648 v 5.84876 l 1.00183,0.83554 0.50091,1.2533 -0.50091,1.2533 1.00183,0.41777 v 1.25331 l 2.00366,1.67107 0.50092,2.08884 -1.50275,0.41777 0.50092,0.83554 0.50091,1.2533 v 2.08884 h -2.00366 l -1.00183,1.67107 v 3.75992 l -1.00183,2.92438 v 2.92437 l -0.50092,2.08884 -1.00183,3.75992 -3.5064,0.83553 0.50091,2.08885 1.00183,0.41776 v 1.67108 l 0.50092,0.83553 1.00183,1.67108 0.50091,1.2533 v 2.08884 l -1.00183,2.92438 1.50275,1.67107 v 0.83554 l 1.00183,1.2533 0.50091,2.08884 0.50092,1.25331 v 1.2533 l 1.00183,0.83554 v 1.2533 l -1.00183,0.41777 -1.50275,0.41777 h -1.50274 l -2.00366,1.2533 -1.00183,1.25331 -1.50275,0.83554 h -2.00366 l -2.50458,7.93759 -4.50823,-1.2533 -2.00366,-2.08884 -4.00733,-2.92438 -1.50274,5.84875 -2.00366,5.01322 -0.50092,8.77313 -1.00183,24.64833 -1.50275,7.10206 1.00184,7.93759 0.50091,1.25331 -0.50091,2.08884 -1.00184,1.67107 -0.50091,2.92438 v 5.43099 l -80.14644,-4.59546 -10.51922,-35.51029 9.51739,-11.27974 3.00549,-2.50661 11.02014,-8.35537 -6.01099,-18.3818 h 1.50275 l 6.5119,-7.93759 5.51006,1.67107 8.51556,-1.67107 7.01282,-0.41777 v -2.50661 l 1.00183,-2.50661 1.00183,-1.2533 -2.50458,-2.08885 -18.03295,-24.64832"
     id="path6"
     inkscape:connector-curvature="0"
     style="stroke-width:1.4949559" />
  <path
     d="m 313.57295,108.20196 h 6.5119 l 0.50091,-4.59545 18.03295,-0.41776 1.50275,-0.41777 h 1.00183 l 2.00366,-0.83554 h 9.01647 l 3.0055,-1.2533 h 1.50274 l 2.00366,0.41776 -1.50274,3.34215 h 6.51189 l 2.00367,-0.83554 1.00183,-1.67107 0.50091,-1.2533 2.00366,-0.83554 h 1.00183 l 1.00183,0.41777 h 1.00183 l 3.50641,-2.088843 3.50641,2.088843 1.00183,2.08884 -1.00183,0.83554 1.50274,1.2533 v 1.2533 l 2.00366,1.25331 2.00367,-0.41777 h 0.50091 l 1.00183,0.83554 2.00366,2.50661 0.50092,0.41777 v 2.92437 h 2.00366 v 1.25331 l 1.50274,1.67107 2.00367,1.2533 -2.00367,2.50661 v 2.50661 l -1.50274,1.25331 -3.00549,2.92437 v 2.92438 l -0.50092,0.41777 -3.50641,0.41777 -1.50274,0.41777 -0.50092,-0.41777 h -2.50457 l -2.50458,-0.41777 -0.50091,2.08884 4.00732,1.25331 -0.50092,1.2533 1.50275,1.67107 v 4.17769 l 2.00366,-0.41777 h 1.00183 1.00183 l 1.50275,0.41777 1.50274,0.41776 0.50092,0.83554 v 1.67107 l 3.5064,2.50661 0.50092,3.34215 -1.50275,4.17768 0.50092,0.41777 -2.00366,2.92438 1.50274,2.08884 -0.50091,0.41776 v 2.08885 l -1.50275,3.34214 1.00183,1.25331 0.50092,0.83553 v 2.92438 l 1.50274,1.2533 0.50092,2.08885 2.00366,2.5066 -1.00183,2.50661 2.00366,2.50661 0.50092,0.83554 1.50274,1.2533 -0.50091,8.35537 h -3.00549 l -2.00367,-0.41777 h -1.50274 l -2.00366,-0.41777 -2.50458,-0.41777 h -3.50641 l -1.50274,2.08884 -2.50458,1.25331 v 0.83554 l -2.00366,1.2533 -2.00366,-0.83554 h -1.50275 -1.50274 l 0.50091,-2.92437 -6.01098,-0.41777 -6.01098,1.67107 -8.01465,-0.41777 1.50275,2.50661 2.50458,4.17768 2.00366,8.35537 0.50091,4.17768 0.50092,4.59545 3.00549,15.03966 -0.50092,1.2533 -0.50091,2.08884 0.50091,8.35536 v 2.92438 l -2.00366,3.75992 -74.63637,-2.08884 v -5.43099 l 0.50091,-2.92438 1.00184,-1.67107 0.50091,-2.08884 -0.50091,-1.25331 -1.00184,-7.93759 1.50275,-7.10206 1.00183,-24.64833 0.50092,-8.77313 2.00366,-5.01322 1.50274,-5.84875 4.00733,2.92438 2.00366,2.08884 4.50823,1.2533 2.50458,-7.93759 h 2.00366 l 1.50275,-0.83554 1.00183,-1.25331 2.00366,-1.2533 h 1.50274 l 1.50275,-0.41777 1.00183,-0.41777 v -1.2533 l -1.00183,-0.83554 v -1.2533 l -0.50092,-1.25331 -0.50091,-2.08884 -1.00183,-1.2533 v -0.83554 l -1.50275,-1.67107 1.00183,-2.92438 v -2.08884 l -0.50091,-1.2533 -1.00183,-1.67108 -0.50092,-0.83553 v -1.67108 l -1.00183,-0.41776 -0.50091,-2.08885 3.5064,-0.83553 1.00183,-3.75992 0.50092,-2.08884 v -2.92437 l 1.00183,-2.92438 v -3.75992 l 1.00183,-1.67107 h 2.00366 v -2.08884 l -0.50091,-1.2533 -0.50092,-0.83554 1.50275,-0.41777 -0.50092,-2.08884 -2.00366,-1.67107 v -1.25331 l -1.00183,-0.41777 0.50091,-1.2533 -0.50091,-1.2533 -1.00183,-0.83554"
     id="path8"
     inkscape:connector-curvature="0"
     style="stroke-width:1.4949559" />
  <path
     d="m 390.7139,123.65939 2.00366,1.67107 0.50091,1.67107 0.50092,0.41777 h 2.50458 l 2.50457,0.41777 1.00183,1.67107 1.50275,-2.50661 -0.50092,-5.84875 h 3.50641 l 0.50092,1.67107 1.50274,0.41777 1.50275,-0.41777 1.50274,-0.41777 1.50275,1.67108 2.00366,0.41776 0.50091,-0.83553 4.50824,2.08884 0.50092,2.50661 4.00732,-2.92438 1.00183,2.08884 h 1.00183 1.50275 1.00183 l 1.00183,0.41777 0.50091,0.83554 h 1.00183 l 1.50275,1.67107 3.50641,0.41777 1.00183,0.83553 h 1.50274 l 4.00732,-0.83553 1.00183,3.34214 h 2.50458 l 2.50458,-0.83553 3.5064,-0.41777 v 0.41777 l 3.50641,-1.25331 2.50458,4.59545 4.00732,0.41777 0.50091,2.92438 2.50458,-0.41777 2.00366,-0.83554 3.50641,2.08884 3.00549,-0.83553 1.00183,0.41777 v 2.5066 0.83554 l -1.00183,0.41777 -1.50275,-0.41777 0.50092,1.67107 3.50641,2.08885 2.00366,1.67107 2.00366,0.41777 h 3.00549 v 1.2533 l -0.50092,0.41777 h -2.50457 l -0.50092,1.67107 0.50092,0.83554 0.50091,0.83553 1.50275,0.83554 1.50274,1.67107 h 4.00733 l 2.00366,1.25331 -5.51007,2.50661 1.00183,2.50661 -2.00366,0.83553 -0.50092,3.75992 h -2.50457 v 0.83553 l -1.00183,4.59545 v 1.25331 l -1.00183,1.2533 v 0.83554 0.83554 l 1.50274,1.2533 v 2.50661 l 0.50092,2.08884 0.50091,2.50661 0.50092,1.67107 -2.50458,-1.2533 H 472.864 l -0.50092,7.10206 -2.00366,1.67107 1.50275,0.83554 0.50091,0.41776 1.00184,1.25331 0.50091,0.41777 3.50641,2.08884 5.00915,2.08884 0.50092,0.41777 1.00183,-0.41777 1.00183,-2.08884 0.50091,-1.67107 1.00183,-0.41777 h 1.00183 l 1.50275,0.41777 1.50274,0.41776 h 1.00183 l 2.00367,-0.41776 7.51372,21.72394 v 1.25331 l -2.00366,-1.25331 h -1.00183 v 0.83554 h 0.50092 l 1.00183,0.41777 0.50091,0.41776 v 0.41777 l -1.00183,-0.41777 -0.50091,0.41777 -1.00183,-0.41777 h -0.50092 l -0.50091,0.41777 -0.50092,0.41777 -0.50091,-0.83554 h -1.00183 l -1.00183,0.41777 -1.50275,0.41777 h -1.00183 -2.00366 l -2.00366,1.67107 v 1.67108 h -2.50458 l -0.50091,0.41777 h -1.00183 l -0.50092,-0.41777 0.50092,-0.41777 -1.00184,-1.67107 -0.50091,-0.83554 -1.00183,-1.25331 -1.00183,-0.41776 h -1.50275 l -0.50091,0.41776 -0.50092,0.83554 -1.50274,-0.41777 -1.00183,-0.41777 -1.50275,-1.2533 -0.50092,-0.83554 -1.50274,0.41777 v 0.41777 l 0.50091,0.83554 1.50275,1.2533 1.00183,0.83554 2.50458,2.50661 h -1.00183 l -3.0055,-2.08884 -4.00732,-1.67108 -0.50091,-0.41777 0.50091,-0.41776 v -0.41777 h -1.00183 l -0.50091,0.41777 -2.50458,-1.25331 -1.50275,1.25331 h -1.00183 l -0.50091,1.67107 -2.00366,-1.25331 -2.00366,-0.41776 -0.50092,-1.25331 -2.50457,1.67107 -3.0055,-0.83553 -11.52105,0.41777 -5.00915,-0.83554 -7.51373,-0.83554 -4.00732,0.83554 h -1.50275 l -12.02196,5.84876 -8.51556,0.83553 -21.53936,17.1285 -2.50457,5.84875 -17.53204,-0.83553 2.00366,-3.75992 v -2.92438 l -0.50091,-8.35536 0.50091,-2.08884 0.50092,-1.2533 -3.00549,-15.03966 -0.50092,-4.59545 -0.50091,-4.17768 -2.00366,-8.35537 -2.50458,-4.17768 -1.50275,-2.50661 8.01465,0.41777 6.01098,-1.67107 6.01098,0.41777 -0.50091,2.92437 h 1.50274 1.50275 l 2.00366,0.83554 2.00366,-1.2533 v -0.83554 l 2.50458,-1.25331 1.50274,-2.08884 h 3.50641 l 2.50458,0.41777 2.00366,0.41777 h 1.50274 l 2.00367,0.41777 h 3.00549 l 0.50091,-8.35537 -1.50274,-1.2533 -0.50092,-0.83554 -2.00366,-2.50661 1.00183,-2.50661 -2.00366,-2.5066 -0.50092,-2.08885 -1.50274,-1.2533 v -2.92438 l -0.50092,-0.83553 -1.00183,-1.25331 1.50275,-3.34214 v -2.08885 l 0.50091,-0.41776 -1.50274,-2.08884 2.00366,-2.92438 -0.50092,-0.41777 1.50275,-4.17768 -0.50092,-3.34215 -3.5064,-2.50661 v -1.67107 l -0.50092,-0.83554 -1.50274,-0.41776 -1.50275,-0.41777 h -1.00183 -1.00183 l -2.00366,0.41777 v -4.17769 l -1.50275,-1.67107 0.50092,-1.2533 -4.00732,-1.25331 0.50091,-2.08884 2.50458,0.41777 h 2.50457 l 0.50092,0.41777 1.50274,-0.41777 3.50641,-0.41777 0.50092,-0.41777 v -2.92438"
     id="path10"
     inkscape:connector-curvature="0"
     style="stroke-width:1.4949559" />
  <path
     d="m 167.80661,67.26068 3.00549,-1.671072 8.51556,-7.937596 -1.50274,-0.835537 v -0.417768 -0.417768 0 L 177.324,55.563171 v -0.417768 l 0.50092,-0.835537 h 0.50091 l 0.50092,-0.417768 h -0.50092 v -0.835536 -0.417769 l 0.50092,-0.417768 h 1.00183 l 3.00549,-0.417768 h 0.50091 l 1.50275,-0.835536 0.50091,0.417768 2.00367,-1.671073 h 1.00183 l 2.00366,-0.417768 2.00366,-1.671073 V 46.37227 l 1.50274,-0.835536 1.00183,-0.417768 0.50092,-0.835537 0.50091,-1.253304 h -1.00183 l -1.50274,-1.671073 -0.50092,-0.835536 0.50092,-0.417769 v 0 l -0.50092,-0.417768 -1.50274,-0.417768 v 0 -0.835536 -0.835537 -1.253304 l -0.50092,-0.417769 -1.00183,-1.671072 h 5.51007 l 0.50091,1.253304 1.50275,1.253305 3.00549,-1.253305 1.50275,-0.417768 1.00183,-0.835536 1.50274,-2.088842 2.50458,-0.417768 2.50458,-0.835536 V 30.07931 l 0.50091,-0.417768 1.00183,-0.417768 h 1.00183 l 1.00183,0.417768 h 1.50275 l 5.00915,0.417768 -1.00183,10.026437 -1.00183,1.253305 -1.00183,1.671073 -0.50092,3.759914 -1.00183,2.924377 v 2.506609 h -1.00183 v 0 l -0.50091,0.417768 0.50091,0.417769 -0.50091,0.835536 -1.00183,-0.417768 h -0.50092 l -0.50091,0.417768 v 0.835536 h 1.00183 0.50091 1.00183 1.00183 l 0.50092,0.835537 1.00183,0.417768 0.50092,1.253305 1.50274,-0.835537 3.50641,1.671073 h 1.00183 4.50824 l 0.50091,-0.835536 0.50092,-1.253305 h 0.50091 1.50275 1.50274 1.50275 l -0.50092,-0.835536 -0.50091,-0.417769 0.50091,-0.417768 V 53.47433 l -1.00183,0.417768 h -1.00183 v -0.835536 l 0.50092,-0.417769 0.50091,-0.835536 v -1.253305 l 1.50275,-0.835536 1.00183,0.417768 1.00183,-0.417768 v -0.417768 h 0.50091 l 0.50092,1.253304 v 0.417769 l 0.50092,0.835536 0.50091,0.417768 v -0.417768 l 0.50092,-0.417768 v -0.835537 -0.835536 l 1.00183,0.417768 0.50091,0.417768 v 2.50661 l 0.50092,0.835536 1.00183,0.417768 1.50274,0.417768 v 3.759914 l 2.50458,0.417768 h 1.00183 0.50092 l 0.50091,0.417769 2.00366,-0.835537 3.50641,-0.417768 2.00366,-0.417768 1.50274,-0.417768 h 1.50275 l 0.50092,0.417768 v 0.835536 l -0.50092,0.835537 h 0.50092 1.50274 v -0.417769 l 1.00183,0.835537 -0.50091,0.417768 -0.50092,1.253305 -0.50091,0.417768 v 0.835536 l -0.50092,0.417768 v 0.835537 0.417768 l 0.50092,0.417768 -0.50092,0.417768 -0.50091,0.417769 0.50091,0.417768 v 0.417768 h 1.50275 1.00183 l 3.00549,-0.417768 0.50091,-0.417768 h 1.00183 l 1.50275,-0.835537 h 1.50275 l 3.5064,-2.088841 v -0.835536 l -0.50091,-0.835537 -1.00183,-2.506609 5.00915,-2.088841 1.50275,0.835537 1.00183,1.671072 1.00183,-0.417768 1.00183,-7.519827 2.00366,-1.671073 1.50274,-0.835537 2.00366,0.417769 2.00367,-1.253305 h 2.00366 v -0.835536 -0.835537 -1.253304 l 2.00366,-1.671073 h 2.50457 l 1.00183,-1.671073 h 3.0055 l 0.50091,-1.253305 v -1.671072 l 1.50275,-0.835537 2.00366,-0.417768 2.50457,-1.671073 1.00184,0.835537 3.00549,-0.417769 v 1.253305 l 1.00183,0.417768 h 1.00183 l 0.50091,-0.417768 1.00183,1.671073 1.00183,1.253304 h 0.50092 l 0.50091,0.417769 -0.50091,0.835536 -2.00366,1.671073 1.50274,1.671073 -1.00183,1.671072 v 2.088841 l -1.50274,2.088841 -1.50275,1.253305 -0.50091,2.506609 -2.00366,2.924378 4.50823,0.417768 v 7.519827 l 2.50458,0.417769 -0.50092,0.835536 v 1.253305 l 1.50275,0.835536 v 1.253305 l -0.50092,2.088841 v 1.253304 l 0.50092,0.835537 1.50275,0.417768 1.00183,1.253304 v 8.355364 l -1.00183,1.671073 -1.00184,0.417768 h -2.50457 l -2.50458,-0.835536 -2.50457,-1.671073 -1.50275,-1.253304 -2.50458,-0.835537 -0.50091,10.444205 4.00732,0.835537 -0.50091,2.506609 -1.50275,3.759914 -0.50092,2.088836 -1.00183,3.75992 -20.03661,2.08884 -2.00366,-2.50661 -3.5064,-1.67107 -1.50275,-2.08884 v -2.506613 l -4.00732,-1.671073 h -3.00549 l -1.00183,11.279746 -5.00916,12.53304 -19.53569,1.25331 -2.00366,4.17768 -12.02197,2.08884 -4.50824,-2.50661 -3.00549,-5.01322 -9.01647,-0.41777 -6.01098,-3.75991 -10.01831,-12.53305 -13.52471,-2.08884 -0.50092,-1.2533 -0.50091,-1.253306 0.50091,-2.088841 0.50092,-2.088841 -0.50092,-1.671073 -0.50091,-0.417768 v -0.835537 l -0.50092,-1.253304 -0.50091,-1.253305 -1.00183,-1.671073 -1.50275,-2.088841 -0.50091,-0.835536 -0.50092,-1.253305 -1.50275,-5.848755 -2.00366,-0.835536 -1.00183,-1.253305 -1.00183,-0.835536"
     id="path12"
     inkscape:connector-curvature="0"
     style="stroke-width:1.4949559" />
  <path
     d="m 309.06471,51.803257 3.00549,0.417768 v -1.671073 h 6.5119 l 2.50458,2.50661 v -1.671073 h 2.00366 v -3.759914 l 1.00183,-0.835536 1.00183,-0.417769 0.50092,-1.253304 3.5064,1.671073 h 1.50275 l 1.50274,-2.088841 -2.00366,-2.088841 -0.50091,-1.253305 3.00549,-2.506609 h 2.50458 3.00549 l 0.50091,-1.671073 1.00183,-1.253305 0.50092,-0.835536 1.50274,-0.835536 0.50092,-1.671073 5.00915,1.671073 h 1.00183 l 0.50092,-0.835537 5.00915,-1.671073 v -2.924377 l 4.50824,-1.253305 h 1.50274 l 1.50275,-0.417768 2.00366,-1.253305 1.50275,-1.671072 2.50457,-1.253305 -4.50824,-2.506609 -1.50274,0.835536 h -1.00183 l -0.50092,1.671073 h -1.00183 v -1.253305 l -1.00183,-1.671072 -0.50091,-2.088841 -2.00366,1.253304 -0.50092,-1.671073 -0.50092,-1.671072 2.00367,-1.253305 1.50274,1.253305 1.00183,0.417768 1.00183,-0.417768 h 0.50092 l 0.50091,-0.835537 h 1.00183 l 1.00183,2.088841 0.50092,-2.088841 h 1.50275 1.50274 l 2.50458,0.835537 2.50457,0.835536 9.51739,2.924377 -0.50091,0.835537 v 0.835536 l 0.50091,1.253305 0.50092,0.835536 0.50091,0.835537 -0.50091,1.253304 -1.50275,1.253305 v 0.835536 l 1.00183,1.253305 -0.50091,0.417768 v 0.835536 l -1.00183,0.835537 1.50274,0.835536 v 1.671073 l -0.50091,0.835537 1.50274,1.671072 -3.00549,2.088841 0.50092,2.924378 2.00366,4.177682 -0.50092,0.835536 h -0.50091 v 0 2.088841 h -2.00366 -2.00366 l -1.00183,0.835537 v -0.417769 l -1.00184,-0.417768 h -1.50274 l -1.50275,0.417768 -1.50274,0.835537 h -0.50092 l -1.00183,0.835536 -0.50091,1.253305 -0.50092,0.835536 v 4.59545 l -0.50091,0.417769 -2.00366,2.088841 -0.50092,2.924377 v 1.671073 l -2.00366,1.671073 0.50091,1.253304 -2.00366,1.671073 -1.00183,0.417768 -1.00183,-0.835536 v -1.253305 l 0.50092,-1.671073 v -1.253304 -0.835537 h 1.50274 1.00183 l 1.00183,-0.417768 -0.50091,-0.835536 -1.00183,-0.417768 -0.50092,-1.253305 -0.50091,-0.835536 -1.50275,1.253304 -1.00183,0.835537 h -1.50274 l -3.0055,-0.417769 -1.00183,-0.417768 v -1.253304 h -6.01098 l -1.50275,1.253304 -2.50457,-0.417768 -1.00183,-1.253305 -2.00366,0.417769 -0.50092,0.835536 -5.00915,0.417768 -0.50092,-0.835536 -1.00183,0.417768 -1.50274,1.253305 0.50091,1.253304 -1.00183,1.253305 v 1.671073 l -4.50823,2.088841 2.00366,2.924377 v 0.835536 l -1.50275,0.835537 -1.00183,0.417768 -0.50092,-0.417768 -1.00183,0.835536 -1.00183,0.835537 -1.50274,0.417768 -1.50275,0.417768 -3.00549,0.417768 -0.50091,-0.835536 -1.50275,-0.417768 -0.50092,-0.835537 v -1.253304 l 0.50092,-3.342146 -1.50275,-0.835536 v -1.253305 l 0.50092,-0.835536 -2.50458,-0.417769 v -7.519827 l -4.50823,-0.417768 2.00366,-2.924378"
     id="path14"
     inkscape:connector-curvature="0"
     style="stroke-width:1.4949559" />
  <path
     d="m 380.69559,45.954502 h 8.01465 l 2.00366,-0.835536 1.50274,-1.253305 h 1.50275 l 1.00183,1.253305 3.00549,0.417768 1.50275,0.835536 v 1.253305 l -1.00183,1.253305 v 1.671072 l 1.00183,1.253305 0.50091,0.835536 1.00183,-0.417768 h 1.00183 l 0.50092,-2.506609 1.00183,-0.417768 3.50641,4.177682 1.50274,-0.835537 1.00183,1.671073 0.50092,1.671073 v 2.088841 0 l 0.50091,0.835536 1.00183,1.253305 2.00366,0.835536 1.50275,0.835537 0.50092,0.835536 v 0.835537 l -1.00183,0.417768 -1.50275,0.417768 h -1.50275 l -1.00183,0.835536 h -1.50274 l -2.50458,2.50661 -2.00366,0.835536 1.50275,2.924377 h 2.00366 l 1.00183,1.253305 2.50457,-0.417768 0.50092,1.671073 -1.50275,1.671072 h -5.00915 l -0.50091,1.253305 -1.00184,0.417768 -1.50274,0.835537 h -1.00183 l -1.50275,0.417768 h -1.50274 l -1.00183,0.417768 h -0.50092 v 0.835536 l 0.50092,0.835537 v 1.253304 1.253305 1.671073 l -1.50275,0.417768 -1.50274,0.835536 h -1.50275 l -1.50275,-1.253304 v -0.835537 l -1.50274,-0.417768 -1.00183,-2.506609 -1.50275,-1.253305 0.50092,-0.417768 v -0.835536 h -0.50092 -1.00183 -1.00183 l -1.00183,0.417768 -0.50092,0.835536 -0.50091,1.253305 -1.50275,-0.417768 -0.50091,3.342145 v 1.253305 1.671073 1.671073 1.671072 3.342146 l -2.00366,0.417768 -2.00366,1.253305 -1.50275,1.253304 v 0.835537 0.835536 l -3.00549,1.671073 -1.50275,-2.088841 -1.00183,0.417768 -0.50091,-0.417768 -1.00183,-0.835536 v -1.253305 l -0.50092,-1.671073 v -2.088841 l -0.50091,-1.671073 -0.50092,-0.417768 -3.00549,0.835537 -1.50275,0.417768 -1.50274,0.417768 -1.00183,0.417768 -0.50092,1.253305 -0.50091,0.835536 -1.00183,0.417768 -1.00183,-0.417768 -0.50092,-0.835536 -0.50091,-0.835537 -1.00183,0.417769 h -2.00367 -4.00732 l -2.50457,-0.417769 -2.50458,-0.417768 -1.00183,-1.253304 -0.50092,-1.671073 -1.00183,-1.671073 -1.00183,-1.671073 -0.50091,-2.506609 -1.50275,-1.253305 -1.00183,-1.253304 -1.00183,0.417768 h -1.50274 -2.00367 l -1.00183,0.417768 -0.50091,0.835537 -1.00183,-0.417769 -1.00183,-0.417768 h -1.00183 l -1.50275,-0.417768 -0.50091,-0.835536 V 78.95819 h -2.50458 -2.00366 l -1.00183,1.253305 -1.50275,1.253304 -2.50457,1.253305 v -7.10206 l -0.50092,-0.417768 3.00549,-0.417768 3.00549,-0.835536 1.00183,-0.835537 1.00183,-0.835536 0.50092,0.417768 1.00183,-0.417768 1.50275,-0.835537 v -0.835536 l -2.00366,-2.924377 4.50823,-2.088841 v -1.671073 l 1.00183,-1.253305 -0.50091,-1.253304 1.50274,-1.253305 1.00183,-0.417768 0.50092,0.835536 5.00915,-0.417768 0.50092,-0.835536 2.00366,-0.417769 1.00183,1.253305 2.50457,0.417768 1.50275,-1.253304 h 6.01098 v 1.253304 l 1.00183,0.417768 3.0055,0.417769 h 1.50274 l 1.00183,-0.835537 1.50275,-1.253304 0.50091,0.835536 0.50092,1.253305 1.00183,0.417768 0.50091,0.835536 -1.00183,0.417768 h -1.00183 -1.50274 v 2.088841 l -0.50092,1.671073 v 1.253305 l 1.00183,0.835536 1.00183,-0.417768 2.00366,-1.671073 -0.50091,-1.253304 2.00366,-1.671073 v -1.671073 l 0.50092,-2.924377 2.00366,-2.088841 0.50091,-0.417769 v -4.59545 l 0.50092,-0.835536 1.50274,-2.088841 h 0.50092 l 1.50274,-0.835537 1.50275,-0.417768 h 1.50274 l 1.00184,0.417768 v 0.417769 l 1.00183,-0.835537 h 4.00732 v -2.088841 0"
     id="path16"
     inkscape:connector-curvature="0"
     style="stroke-width:1.4949559" />
  <path
     d="m 303.05373,91.909004 0.50091,-10.444205 2.50458,0.835537 1.50275,1.253304 2.50457,1.671073 2.50458,0.835536 h 2.50457 l 1.00184,-0.417768 1.00183,-1.671073 v -1.253304 l 2.00366,-0.835537 2.00366,-1.671072 1.00183,-1.253305 h 4.50824 v 1.253305 l 0.50091,0.835536 1.50275,0.417768 h 1.00183 l 1.00183,0.417768 1.00183,0.417769 0.50091,-0.835537 1.00183,-0.417768 h 2.00367 1.50274 l 1.00183,-0.417768 1.00183,1.253304 1.50275,1.253305 0.50091,2.506609 2.00366,3.342146 0.50092,1.671073 1.00183,1.253304 2.50458,0.417768 2.50457,0.417769 h 4.00732 2.00367 l 1.00183,-0.417769 0.50091,0.835537 0.50092,0.835536 1.00183,0.417768 1.00183,-0.417768 0.50091,-0.835536 0.50092,-1.253305 1.00183,-0.417768 1.50274,-0.417768 4.50824,-1.253305 0.50092,0.417768 0.50091,1.671073 v 2.088841 l 0.50092,1.671073 v 1.253305 l 1.00183,0.835536 0.50091,0.417768 1.00183,-0.417768 1.50275,2.088841 -0.50092,0.41777 h -1.00183 l -1.00183,-0.41777 h -1.00183 l -2.00366,0.83554 -0.50091,1.2533 -1.00183,1.67107 -2.00367,0.83554 h -6.51189 l 1.50274,-3.34215 -2.00366,-0.41776 h -1.50274 l -3.0055,1.2533 h -9.01647 l -2.00366,0.83554 h -1.00183 l -1.50275,0.41777 -18.03295,0.41776 -0.50091,4.59545 h -6.5119 -9.01648 l -1.00183,-0.83553 v -2.50661 l 1.00183,-3.75992 0.50092,-2.088836 1.50275,-3.759914 0.50091,-2.506609"
     id="path18"
     inkscape:connector-curvature="0"
     style="stroke-width:1.4949559" />
  <ellipse
     style="fill:#000000;fill-opacity:1;stroke:#ffffff;stroke-width:0.65742898;stroke-opacity:1"
     id="path76-3-3-3-3"
     cx="16.737288"
     cy="11.683827"
     rx="13.097598"
     ry="11.46915" />
  <text
     xml:space="preserve"
     style="font-style:normal;font-weight:normal;font-size:8.75381851px;line-height:1.25;font-family:sans-serif;letter-spacing:0px;word-spacing:0px;fill:#000000;fill-opacity:1;stroke:none;stroke-width:0.21884553"
     x="0.93530405"
     y="27.196287"
     id="text99-3-2-6-6-6-6"
     transform="scale(0.80537573,1.2416565)"><tspan
       sodipodi:role="line"
       x="0.93530405"
       y="27.196287"
       style="stroke-width:0.21884553"
       id="tspan81">г. Сарань</tspan></text>
  <ellipse
     style="fill:#000000;fill-opacity:1;stroke:#ffffff;stroke-width:0.63663495;stroke-opacity:1"
     id="path76-3-3-3-3-3"
     cx="76.271187"
     cy="11.471963"
     rx="12.048674"
     ry="11.691411" />
  <text
     xml:space="preserve"
     style="font-style:normal;font-weight:normal;font-size:9.41416073px;line-height:1.25;font-family:sans-serif;letter-spacing:0px;word-spacing:0px;fill:#000000;fill-opacity:1;stroke:none;stroke-width:0.23535408"
     x="62.63448"
     y="28.06811"
     id="text99-3-2-6-6-6-6-5"
     transform="scale(0.81710909,1.2238268)"><tspan
       sodipodi:role="line"
       x="62.63448"
       y="28.06811"
       style="stroke-width:0.23535408"
       id="tspan81-6">г. Сатпаев</tspan></text>
  <ellipse
     style="fill:#000000;fill-opacity:1;stroke:#ffffff;stroke-width:0.64770365;stroke-opacity:1"
     id="path76-3-3-3-3-3-2"
     cx="140.88983"
     cy="12.107555"
     rx="12.255002"
     ry="11.89774" />
  <text
     xml:space="preserve"
     style="font-style:normal;font-weight:normal;font-size:9.03419399px;line-height:1.25;font-family:sans-serif;letter-spacing:0px;word-spacing:0px;fill:#000000;fill-opacity:1;stroke:none;stroke-width:0.2258549"
     x="140.76306"
     y="27.386747"
     id="text99-3-2-6-6-6-6-5-9"
     transform="scale(0.83551172,1.1968713)"><tspan
       sodipodi:role="line"
       x="140.76306"
       y="27.386747"
       style="stroke-width:0.2258549"
       id="tspan81-6-1">г. Темиртау</tspan></text>
  <ellipse
     style="fill:#000000;fill-opacity:1;stroke:#ffffff;stroke-width:0.62482458;stroke-opacity:1"
     id="path76-3-3-3-3-3-2-7"
     cx="19.70339"
     cy="54.904163"
     rx="12.266442"
     ry="11.061723" />
  <text
     xml:space="preserve"
     style="font-style:normal;font-weight:normal;font-size:9.7031908px;line-height:1.25;font-family:sans-serif;letter-spacing:0px;word-spacing:0px;fill:#000000;fill-opacity:1;stroke:none;stroke-width:0.24257983"
     x="-0.24046901"
     y="61.447636"
     id="text99-3-2-6-6-6-6-5-9-0"
     transform="scale(0.80645937,1.2399881)"><tspan
       sodipodi:role="line"
       x="-0.24046901"
       y="61.447636"
       style="stroke-width:0.24257983"
       id="tspan81-6-1-9">г. Шахтинск</tspan></text>
  <ellipse
     style="fill:#000000;fill-opacity:1;stroke:#ffffff;stroke-width:0.64114362;stroke-opacity:1"
     id="path76-3-3-3-3-3-2-7-3"
     cx="87.076271"
     cy="53.421112"
     rx="12.682012"
     ry="11.265428" />
  <text
     xml:space="preserve"
     style="font-style:normal;font-weight:normal;font-size:9.86154556px;line-height:1.25;font-family:sans-serif;letter-spacing:0px;word-spacing:0px;fill:#000000;fill-opacity:1;stroke:none;stroke-width:0.24653871"
     x="76.287552"
     y="60.00206"
     id="text99-3-2-6-6-6-6-5-9-0-6"
     transform="scale(0.78132179,1.2798824)"><tspan
       sodipodi:role="line"
       x="76.287552"
       y="60.00206"
       style="stroke-width:0.24653871"
       id="tspan81-6-1-9-0">г. Караганда</tspan></text>
  <ellipse
     style="fill:#000000;fill-opacity:1;stroke:#ffffff;stroke-width:0.68090963;stroke-opacity:1"
     id="path76-3-3-3-3-3-2-6"
     cx="249.15254"
     cy="12.743148"
     rx="12.873993"
     ry="12.516731" />
  <text
     xml:space="preserve"
     style="font-style:normal;font-weight:normal;font-size:9.89787865px;line-height:1.25;font-family:sans-serif;letter-spacing:0px;word-spacing:0px;fill:#000000;fill-opacity:1;stroke:none;stroke-width:0.24744703"
     x="285.05548"
     y="28.853683"
     id="text99-3-2-6-6-6-6-5-9-2"
     transform="scale(0.78420038,1.2751843)"><tspan
       sodipodi:role="line"
       x="285.05548"
       y="28.853683"
       style="stroke-width:0.24744703"
       id="tspan81-6-1-6">г. Приозерск</tspan></text>
  <ellipse
     style="fill:#000000;fill-opacity:1;stroke:#ffffff;stroke-width:0.74089873;stroke-opacity:1"
     id="path76-3-3-3-3-3-2-6-1"
     cx="323.42917"
     cy="13.601253"
     rx="14.538914"
     ry="13.12233" />
  <text
     xml:space="preserve"
     style="font-style:normal;font-weight:normal;font-size:10.18369675px;line-height:1.25;font-family:sans-serif;letter-spacing:0px;word-spacing:0px;fill:#000000;fill-opacity:1;stroke:none;stroke-width:0.25459248"
     x="352.49149"
     y="29.411009"
     id="text99-3-2-6-6-6-6-5-9-2-8"
     transform="scale(0.84830076,1.1788272)"><tspan
       sodipodi:role="line"
       x="352.49149"
       y="29.411009"
       style="stroke-width:0.25459248"
       id="tspan81-6-1-6-7">г. Каражал</tspan></text>
  <ellipse
     style="fill:#000000;fill-opacity:1;stroke:#ffffff;stroke-width:0.74089873;stroke-opacity:1"
     id="path76-3-3-3-3-3-2-6-1-9"
     cx="411.08072"
     cy="13.54215"
     rx="14.538914"
     ry="13.12233" />
  <text
     xml:space="preserve"
     style="font-style:normal;font-weight:normal;font-size:10.18369675px;line-height:1.25;font-family:sans-serif;letter-spacing:0px;word-spacing:0px;fill:#000000;fill-opacity:1;stroke:none;stroke-width:0.25459248"
     x="453.87018"
     y="30.915813"
     id="text99-3-2-6-6-6-6-5-9-2-8-2"
     transform="scale(0.84830076,1.1788272)"><tspan
       sodipodi:role="line"
       x="453.87018"
       y="30.915813"
       style="stroke-width:0.25459248"
       id="tspan81-6-1-6-7-0">г. Жезказган</tspan></text>
  <ellipse
     style="fill:#000000;fill-opacity:1;stroke:#ffffff;stroke-width:0.74089873;stroke-opacity:1"
     id="path76-3-3-3-3-3-2-6-1-9-2"
     cx="477.59671"
     cy="14.740636"
     rx="14.538914"
     ry="13.12233" />
  <text
     xml:space="preserve"
     style="font-style:normal;font-weight:normal;font-size:10.18369675px;line-height:1.25;font-family:sans-serif;letter-spacing:0px;word-spacing:0px;fill:#000000;fill-opacity:1;stroke:none;stroke-width:0.25459248"
     x="534.79553"
     y="30.63201"
     id="text99-3-2-6-6-6-6-5-9-2-8-2-3"
     transform="scale(0.84830076,1.1788272)"><tspan
       sodipodi:role="line"
       x="534.79553"
       y="30.63201"
       style="stroke-width:0.25459248"
       id="tspan81-6-1-6-7-0-7">г. Балхаш</tspan></text>
</svg>
