<?xml version="1.0" encoding="UTF-8" standalone="no"?>
<svg
   xmlns:dc="http://purl.org/dc/elements/1.1/"
   xmlns:cc="http://creativecommons.org/ns#"
   xmlns:rdf="http://www.w3.org/1999/02/22-rdf-syntax-ns#"
   xmlns:svg="http://www.w3.org/2000/svg"
   xmlns="http://www.w3.org/2000/svg"
   xmlns:sodipodi="http://sodipodi.sourceforge.net/DTD/sodipodi-0.dtd"
   xmlns:inkscape="http://www.inkscape.org/namespaces/inkscape"
   version="1.1"
   id="svg42"
   sodipodi:docname="Костанайская.svg"
   width="368.97672"
   height="448.19928"
   inkscape:version="0.92.3 (unknown)">
  <metadata
     id="metadata48">
    <rdf:RDF>
      <cc:Work
         rdf:about="">
        <dc:format>image/svg+xml</dc:format>
        <dc:type
           rdf:resource="http://purl.org/dc/dcmitype/StillImage" />
        <dc:title />
      </cc:Work>
    </rdf:RDF>
  </metadata>
  <defs
     id="defs46" />
  <sodipodi:namedview
     pagecolor="#ffffff"
     bordercolor="#666666"
     borderopacity="1"
     objecttolerance="10"
     gridtolerance="10"
     guidetolerance="10"
     inkscape:pageopacity="0"
     inkscape:pageshadow="2"
     inkscape:window-width="1855"
     inkscape:window-height="1056"
     id="namedview44"
     showgrid="false"
     fit-margin-top="0"
     fit-margin-left="0"
     fit-margin-right="0"
     fit-margin-bottom="0"
     inkscape:zoom="1.28"
     inkscape:cx="201.61278"
     inkscape:cy="240.64226"
     inkscape:window-x="65"
     inkscape:window-y="24"
     inkscape:window-maximized="1"
     inkscape:current-layer="svg42" />
  <path
     d="m 282.29213,278.33177 -3.17692,-3.5856 -3.17691,1.79279 -3.63077,2.241 -2.72307,-8.96399 -1.81539,-5.37839 -2.72308,-2.24099 -8.16922,0.44819 -0.9077,-2.68919 0.45385,-1.79279 0.90769,-2.241 -2.72307,-2.241 -4.53847,8.06759 -7.26153,8.51579 -2.72307,1.34459 -1.81538,0.4482 -1.81539,-0.89639 -0.90769,-1.7928 2.26923,-12.54959 v -11.65317 l -2.26923,-3.1374 -2.26923,-2.241 -2.72308,1.7928 -2.72307,-0.8964 h -6.35384 l -6.35385,3.5856 -3.63077,-3.1374 -2.26921,2.24099 2.72307,2.6892 v 4.9302 l -4.08462,12.99777 -2.26922,4.0338 -3.63078,0.44819 -1.36154,4.482 -2.26923,0.44819 -2.26922,-1.34459 -5.44615,4.0338 v 4.03379 l -5.9,0.44819 1.36154,3.1374 v 3.5856 l 1.81539,1.34459 h 4.0846 v 2.6892 h -0.90769 v 2.6892 l 2.26923,1.79279 -7.26153,7.17119 v 2.241 l 1.36153,1.7928 0.9077,2.241 v 4.03379 l 1.81539,1.79279 2.26923,0.44821 6.35384,4.48199 6.35383,5.82658 2.26924,18.37618 3.17692,8.96398 7.26153,14.34238 -16.33845,8.51579 -5.9,5.37839 -12.25384,8.06759 -4.53846,2.68919 -3.63076,0.8964 1.81538,8.06759 4.53847,2.241 3.17691,4.48198 3.17693,6.723 1.81537,0.8964 h 4.99231 l 3.63076,-1.7928 0.45386,-6.72299 0.90769,-5.82659 1.81538,-4.48199 h 4.53846 l 28.59229,8.06759 3.17692,-2.241 3.63076,-1.7928 4.99231,-0.4482 v -7.17119 l 2.72308,0.4482 1.81538,0.8964 2.26923,-1.79279 h 8.62307 l 10.43846,-10.30859 0.90769,-3.1374 7.71538,-4.03379 5.44614,-4.93019 4.08462,-8.06759 6.8077,-7.17119 v -10.30859 l -5.44616,-1.34459 -11.34614,-4.482 v -10.75678 l -1.81539,1.3446 h -13.61538 l -8.16922,6.72299 h -6.35384 v -4.03379 l -4.08462,-5.82659 v -4.482 l 1.81539,-1.79279 0.90769,-2.241 v -6.72299 h 1.81538 v -4.03379 h 7.26153 l 3.17693,-2.241 1.81537,-3.1374 1.36154,-4.48199 h 9.07692 l 5.44615,-2.241 0.45385,-14.34238"
     id="path4"
     inkscape:connector-curvature="0"
     style="stroke-width:1.19828165" />
  <path
     d="m 184.71527,280.57275 -0.9077,-3.13738 -4.53844,0.44819 v -2.68919 l 0.90768,-1.3446 -0.45384,-3.58559 5.89999,-4.93019 v -5.3784 l -5.44615,-9.41219 -8.62307,2.6892 -9.07691,1.3446 -5.44616,1.79279 -9.53076,5.3784 -6.35384,-3.1374 h -4.08461 l 0.90768,-5.37839 -3.63077,1.7928 -1.81537,2.241 -1.36154,2.68919 -2.72307,-3.1374 H 92.130713 l -6.807688,1.7928 1.815384,6.27479 -2.26923,4.0338 2.723075,2.241 4.992305,-1.7928 h 3.630767 v 2.24099 l 1.361537,3.1374 -0.907691,2.24099 1.361537,3.1374 -0.453846,4.03379 2.26923,0.8964 v 4.0338 h 3.176917 l 0.45385,5.82658 2.72308,2.241 v 4.93019 l 2.72307,0.8964 1.36154,1.7928 0.45384,3.13739 1.81539,3.58559 -0.45385,3.1374 3.17692,2.241 -1.81538,2.241 0.45385,5.82659 -6.80769,-4.93019 -2.72308,2.68919 -4.992303,0.89641 -0.907691,8.51578 -2.723076,3.58559 -4.992304,0.4482 v 11.20499 l -3.176922,-0.8964 -4.538458,5.82659 h 3.17692 v 4.93019 l 6.807689,11.65318 -8.623072,1.3446 v 2.68919 l 2.723076,0.89641 2.269228,0.89638 1.361539,4.03381 0.907691,4.03378 1.361538,2.6892 4.992304,3.5856 4.084611,3.5856 6.35385,6.72298 3.63076,-4.03379 2.26923,-1.3446 2.26923,-0.8964 4.08461,9.41219 -3.63076,4.03379 v 2.68919 l 2.26923,1.7928 2.72307,0.89641 2.72308,0.44819 3.17692,1.3446 9.53076,7.61939 3.17693,-1.7928 1.36153,1.7928 1.81538,3.13739 3.63077,2.6892 3.17692,1.7928 2.26923,3.13739 3.63077,7.61939 4.08461,8.51578 5.9,-5.37838 4.53846,-3.1374 3.63076,-1.79279 0.45385,-4.482 -0.90769,-5.82659 h 8.62307 l 6.80768,-2.68919 -4.53845,-4.0338 2.72308,-1.3446 v -4.93019 l -3.17693,-6.723 -3.17691,-4.48198 -4.53847,-2.241 -1.81538,-8.06759 3.63076,-0.8964 4.53846,-2.68919 12.25384,-8.06759 5.9,-5.37839 16.33845,-8.51579 -7.26153,-14.34238 -3.17692,-8.96398 -2.26924,-18.37618 -6.35383,-5.82658 -6.35384,-4.48199 -2.26923,-0.44821 -1.81539,-1.79279 v -4.03379 l -0.9077,-2.241 -1.36153,-1.7928 v -2.241 l 7.26153,-7.17119 -2.26923,-1.79279 v -2.6892 h 0.90769 v -2.6892 h -4.0846 l -1.81539,-1.34459 v -3.5856"
     id="path6"
     inkscape:connector-curvature="0"
     style="stroke-width:1.19828165" />
  <path
     d="m 98.030709,256.81819 -7.71538,-7.61938 v -4.482 h 3.176921 v -3.58559 l -3.176921,-3.5856 h -4.084613 l -2.269229,4.482 -4.538458,-4.03379 -0.907692,-6.2748 -2.26923,-4.03379 -2.723075,-2.68919 -2.723075,1.79279 h -4.538458 l -2.26923,-0.89639 -2.26923,-3.1374 -1.361537,-4.482 -2.723076,-4.93019 0.453847,-9.41218 7.261533,-0.4482 -0.907692,-13.89418 -1.815383,-5.82659 0.453846,-4.93019 -1.815384,-0.4482 -0.453846,-4.0338 h 8.169226 l 1.815384,-1.79279 1.361537,-4.0338 2.269229,-5.82659 1.815384,-5.37839 h 3.176922 l 0.453845,3.5856 1.815383,1.79279 2.723076,-0.4482 5.899996,-4.03379 6.353843,3.5856 4.538458,-2.241 2.72308,0.44819 1.81538,1.3446 v 6.72299 l 2.26923,1.7928 0.90769,2.6892 v 4.03379 l 3.63077,-0.4482 -0.45385,4.03379 9.53077,0.4482 v 11.65318 l -4.08462,0.44821 v 3.13739 l 1.36154,2.241 h 6.35384 l 5.44615,0.8964 -2.26922,11.20497 3.17691,0.89641 0.45386,14.34237 -2.72309,1.79281 -0.90768,29.58114"
     id="path8"
     inkscape:connector-curvature="0"
     style="stroke-width:1.19828165" />
  <path
     d="m 60.815347,219.61765 -6.807688,-4.482 -5.44615,-2.68919 -5.44615,-1.79279 -6.353843,-0.44821 -0.453846,-10.30857 -13.615376,-0.44821 -4.992305,-4.03379 -2.723075,-0.8964 v -1.79279 l 2.723075,-1.7928 v -2.6892 l 2.26923,-2.24099 -5.446151,-2.6892 -9.5307634,-6.72299 -0.4538459,4.482 -3.1769211,-0.44821 -0.45384584,-4.93019 H 0 v -4.48199 h 8.1692257 l 5.4461503,-5.82659 5.899997,-4.0338 9.984609,-0.44819 4.084613,-4.482 10.438455,-4.482 1.361537,-3.58559 -1.361537,-3.13739 v -4.48199 l 6.807689,-4.482 4.084612,3.1374 2.269229,-0.8964 0.453846,4.03379 6.807688,8.96399 1.361538,12.99778 h 4.084613 l 4.538458,-1.7928 -2.269229,5.82659 -1.361537,4.0338 -1.815384,1.79279 h -8.169226 l 0.453846,4.0338 1.815384,0.4482 -0.453846,4.93019 1.815383,5.82659 0.907692,13.89418 -7.261533,0.4482 -0.453847,9.41218 2.723076,4.93019"
     id="path10"
     inkscape:connector-curvature="0"
     style="stroke-width:1.19828165" />
  <path
     d="m 130.70761,199.00049 9.53076,1.34459 8.62307,0.8964 3.63077,-4.0338 9.98462,1.79281 -0.9077,3.1374 8.62307,-0.44821 1.36154,2.68919 h 3.17692 l 2.26923,-4.48198 -0.90769,-7.17119 1.81539,-2.241 6.80768,0.4482 5.9,-4.482 4.08461,5.3784 h 11.34615 l 1.36154,-7.17119 4.53846,4.93019 4.08461,-0.44819 v 8.51578 l -0.9077,3.13739 2.26923,4.48199 -0.90768,6.27479 -0.45385,7.17119 -3.63077,-0.4482 1.36153,6.27479 1.81539,3.5856 4.08461,2.24099 5.44616,2.241 7.26153,0.8964 3.17692,1.3446 -2.26923,4.93019 -2.72308,1.7928 -2.72307,-0.8964 h -6.35384 l -6.35385,3.5856 -3.63077,-3.1374 -2.26921,2.24099 2.72307,2.6892 v 4.9302 l -4.08462,12.99777 -2.26922,4.0338 -3.63078,0.44819 -1.36154,4.482 -2.26923,0.44819 -2.26922,-1.34459 -5.44615,4.0338 v 4.03379 l -5.9,0.44819 -0.9077,-3.13738 -4.53844,0.44819 v -2.68919 l 0.90768,-1.3446 -0.45384,-3.58559 5.89999,-4.93019 v -5.3784 l -5.44615,-9.41219 -8.62307,2.6892 -9.07691,1.3446 -5.44616,1.79279 -9.53076,5.3784 -6.35384,-3.1374 h -4.08461 l 0.90768,-5.37839 -3.63077,1.7928 -1.81537,2.241 -1.36154,2.68919 -2.72307,-3.1374 0.90768,-29.58114 2.72309,-1.79281 -0.45386,-14.34237 -3.17691,-0.89641"
     id="path12"
     inkscape:connector-curvature="0"
     style="stroke-width:1.19828165" />
  <path
     d="m 232.36909,233.51183 0.90769,-2.241 6.80769,-6.27478 v -2.241 l -2.26923,0.44819 v -1.79279 l 7.26153,-8.96399 -3.63077,-5.82659 h -8.62307 v -6.27479 l 6.8077,-0.44819 2.26923,-2.241 3.17691,-0.8964 4.53846,-1.3446 1.81539,-2.241 2.72307,-7.61938 0.45385,-5.3784 3.63076,-3.58559 2.72307,-5.37839 2.26923,-7.17118 0.9077,-11.65319 -2.26923,-1.34459 V 128.6332 h 3.17692 l 0.9077,0.44819 1.36154,-0.8964 1.36153,-5.37838 h 4.08461 l 0.90769,0.8964 6.35384,-5.82659 -14.97691,-2.241 v -4.03379 l -1.81539,-0.8964 h -9.07691 l -2.26923,-3.1374 -2.26923,1.3446 -3.17692,0.4482 -1.36154,-1.34459 h -3.17691 l -1.36155,-1.79281 -2.26922,0.8964 h -11.8 v -4.0338 l -5.89999,0.44821 -0.9077,1.79279 -0.45384,10.30859 -1.81539,1.3446 v 2.24099 l 4.08462,2.68919 3.63077,4.03381 v 3.13738 l -1.36154,3.1374 v 9.41219 l 0.45384,3.13739 -3.17692,5.37839 -0.45384,12.99778 h -15.43077 v 8.51579 l 1.36154,3.1374 0.45385,6.27479 1.81538,0.44819 1.36154,1.7928 v 4.482 l 1.81539,1.79279 4.08461,-0.44819 v 8.51578 l -0.9077,3.13739 2.26923,4.48199 -0.90768,6.27479 -0.45385,7.17119 -3.63077,-0.4482 1.36153,6.27479 1.81539,3.5856 4.08461,2.24099 5.44616,2.241"
     id="path14"
     inkscape:connector-curvature="0"
     style="stroke-width:1.19828165" />
  <path
     d="m 205.13833,163.14454 0.45386,-6.27478 2.26922,-1.79281 1.81539,1.79281 h 1.36153 v -2.241 h 5.9 l -0.45384,-3.58559 -2.72309,-3.1374 -1.36153,-4.482 h -2.72307 l -6.35384,-5.37839 -1.36155,-3.13739 -5.89999,-3.5856 -9.98461,-3.1374 -1.81538,-3.58559 -1.81539,2.6892 -3.17691,-5.3784 -4.53847,2.241 -6.35384,1.79281 -4.53846,2.68919 -3.63076,2.68919 -8.16923,-0.44819 v 3.58559 l 1.81539,1.3446 v 2.24099 l -2.26923,4.03379 -0.9077,5.3784 h -6.35384 l -1.81539,4.03379 0.9077,2.241 -0.9077,4.03379 -1.36153,6.72299 -1.81538,10.30859 3.63077,2.24098 -1.36155,3.5856 -19.96921,0.44821 v 11.20497 l -4.08462,0.44821 v 3.13739 l 1.36154,2.241 h 6.35384 l 5.44615,0.8964 9.53076,1.34459 8.62307,0.8964 3.63077,-4.0338 9.98462,1.79281 -0.9077,3.1374 8.62307,-0.44821 1.36154,2.68919 h 3.17692 l 2.26923,-4.48198 -0.90769,-7.17119 1.81539,-2.241 6.80768,0.4482 5.9,-4.482 4.08461,5.3784 h 11.34615 l 1.36154,-7.17119 2.72307,3.1374 v -4.482 l -1.36154,-1.7928 -1.81538,-0.44819 -0.45385,-6.27479 -1.36154,-3.1374"
     id="path16"
     inkscape:connector-curvature="0"
     style="stroke-width:1.19828165" />
  <path
     d="m 89.407637,112.49802 v 14.34237 l 0.907692,1.3446 h 3.630767 v 3.1374 l 3.176921,1.7928 1.361539,3.13739 0.453846,2.68919 0.453845,7.6194 5.446153,1.79279 4.08461,1.34461 2.72308,3.58559 0.45384,3.5856 -1.81538,0.89639 -0.90769,0.8964 -0.45385,4.03379 -3.17692,0.4482 v -1.7928 l -1.81538,-1.3446 -2.72308,-0.44819 -4.538458,2.241 -6.353843,-3.5856 -5.899996,4.03379 -2.723076,0.4482 -1.815383,-1.79279 -0.453845,-3.5856 h -3.176922 l -1.815384,5.37839 -4.538458,1.7928 h -4.084613 l -1.361538,-12.99778 -6.807688,-8.96399 -0.453846,-4.03379 -2.269229,0.8964 -4.084612,-3.1374 -6.807689,4.482 -5.44615,-4.93019 -2.26923,-4.93019 -2.723075,-2.68921 -0.907692,-5.37838 3.176921,-2.241 4.538459,-1.79279 4.084613,-3.58559 4.538458,-3.1374 0.453846,-4.9302 h 5.446151 l 4.084613,-2.68919 3.630767,3.13739 4.992305,-2.241 4.992304,2.241 3.630767,3.1374 4.538459,-2.241 h 2.26923 l 4.084613,1.79279"
     id="path18"
     inkscape:connector-curvature="0"
     style="stroke-width:1.19828165" />
  <path
     d="m 105.74609,116.08361 -0.45385,-6.27478 4.99231,1.7928 2.26923,-3.58559 1.81538,1.79279 2.72308,-2.241 h 2.26923 l 3.17692,1.3446 9.98461,0.4482 v 6.27479 l 0.90769,4.48199 3.17692,-1.7928 1.36153,2.68919 1.36155,1.34461 h 1.36154 v 8.06758 l 11.34614,0.44821 v 3.58559 l 1.81539,1.3446 v 2.24099 l -2.26923,4.03379 -0.9077,5.3784 h -6.35384 l -1.81539,4.03379 0.9077,2.241 -0.9077,4.03379 -1.36153,6.72299 -1.81538,10.30859 3.63077,2.24098 -1.36155,3.5856 -19.96921,0.44821 v -0.44821 l -9.53077,-0.4482 0.45385,-4.03379 -3.63077,0.4482 v -4.03379 l -0.90769,-2.6892 -2.26923,-1.7928 v -4.93019 l 3.17692,-0.4482 0.45385,-4.03379 0.90769,-0.8964 1.81538,-0.89639 -0.45384,-3.5856 -2.72308,-3.58559 -9.530763,-3.1374 -0.453845,-7.6194 -0.453846,-2.68919 -1.361539,-3.13739 -3.176921,-1.7928 v -3.1374 h -3.630767 l -0.907692,-1.3446 v -14.34237 l -2.269228,-2.241 12.253838,0.44821"
     id="path20"
     inkscape:connector-curvature="0"
     style="stroke-width:1.19828165" />
  <path
     d="m 179.26913,121.9102 -0.9077,-4.03378 -3.17692,1.79279 -0.45385,-3.5856 -1.81539,-0.44819 -1.36153,-4.03379 -0.45384,-3.58559 1.36153,-2.68921 3.17693,-0.89639 2.72307,2.24099 0.9077,-2.68919 -2.72309,-2.6892 7.71539,-4.930188 v -4.033801 l -3.63077,-1.792791 -1.81539,-1.792803 v -2.240998 h 1.81539 l 8.16923,3.1374 4.53845,0.448194 0.45385,4.033801 1.81538,0.896402 2.72307,-0.448207 0.45386,-5.826592 -5.44616,-4.033789 -2.26923,-2.689196 v -1.792797 l 1.36155,-0.4482 3.63076,0.896399 4.08461,3.137392 7.71538,-5.378389 9.07692,-5.378391 1.81538,1.792797 h 1.81539 v 0.896398 h 2.26923 v 2.240997 l -2.26923,2.240997 v 23.306365 l -0.9077,1.79279 -0.45384,10.30859 -1.81539,1.3446 v 2.24099 l 4.08462,2.68919 3.63077,4.03381 v 3.13738 l -1.36154,3.1374 v 9.41219 l 0.45384,3.13739 -3.17692,5.37839 -0.45384,12.99778 h -15.43077 l 0.45386,-6.27478 2.26922,-1.79281 1.81539,1.79281 h 1.36153 v -2.241 h 5.9 l -0.45384,-3.58559 -2.72309,-3.1374 -1.36153,-4.482 h -2.72307 l -6.35384,-5.37839 -1.36155,-3.13739 -5.89999,-3.5856 -9.98461,-3.1374 -1.81538,-3.58559 -1.81539,2.6892"
     id="path22"
     inkscape:connector-curvature="0"
     style="stroke-width:1.19828165" />
  <path
     d="m 223.74602,69.022692 4.53845,0.448199 2.26923,4.481993 2.72308,-2.689195 h 2.26923 l 3.63076,-6.274791 h 2.72309 v -1.792797 l 1.36153,-1.344598 v -2.689196 l 2.26923,-1.344597 0.45385,-2.240997 2.26923,-1.344597 4.53846,-0.4482 3.63076,-2.689196 h 4.08461 l 2.72307,2.240997 -0.45384,4.930191 1.36154,-0.448198 v 4.033793 h 5.44616 l 0.45384,6.72299 -3.63077,5.378391 v 8.963981 h 7.26153 l -0.90769,19.272575 1.81539,1.3446 3.63077,0.4482 v 4.48199 h -6.8077 l -0.90769,2.241 -5.44615,0.8964 -1.81539,-0.8964 h -9.07691 l -2.26923,-3.1374 -2.26923,1.3446 -3.17692,0.4482 -1.36154,-1.34459 h -3.17691 l -1.36155,-1.79281 -2.26922,0.8964 h -11.8 v -4.0338 l -5.89999,0.44821 V 80.227675 l 2.26923,-2.240997 v -2.240997 h -2.26923 v -0.896398 h -1.81539 l -1.81538,-1.792797"
     id="path24"
     inkscape:connector-curvature="0"
     style="stroke-width:1.19828165" />
  <path
     d="m 260.50753,51.09472 1.36154,-3.137395 7.71539,-4.033794 4.9923,-0.896399 1.36154,-1.792797 -2.26924,-7.171188 -6.35383,-0.4482 -3.17693,-1.792797 v -1.344598 l 2.72307,-0.448199 2.26923,-1.344598 v -1.792797 l -2.26923,-4.033794 -0.45384,-8.067587 1.36154,-3.137395 -1.81538,-4.0337939 -0.9077,-3.1373947 h -2.26923 L 261.86907,0 h -4.53846 l -4.99231,6.7229901 -7.26153,-3.5855954 h -1.81538 l -1.36153,2.2409967 0.90768,1.3445987 v 1.3445975 h -6.35384 l -3.63077,2.2409964 -2.26923,3.585595 -0.90769,4.033793 1.36155,6.27479 h -5.44616 l -5.44614,-6.722989 -6.35386,2.689195 -7.26153,5.378393 0.45385,1.792797 h 1.36154 l 1.36154,-1.344599 h 9.07691 l 0.90769,7.619388 v 7.17119 l -1.36153,0.448198 v 3.585594 l -2.72308,1.344599 h -5.89999 l -2.72308,1.792797 v 2.240997 l 4.99231,3.585594 0.45384,12.10138 4.53846,7.17119 6.80769,-4.033794 4.53845,0.448199 2.26923,4.481993 2.72308,-2.689195 h 2.26923 l 3.63076,-6.274791 h 2.72309 v -1.792797 l 1.36153,-1.344598 v -2.689196 l 2.26923,-1.344597 0.45385,-2.240997 2.26923,-1.344597 4.53846,-0.4482 3.63076,-2.689196"
     id="path26"
     inkscape:connector-curvature="0"
     style="stroke-width:1.19828165" />
  <path
     d="m 206.49987,18.376171 -6.80768,4.033794 -9.53076,0.448199 -4.08462,1.344598 -6.80768,0.448199 v 4.930192 l -1.81539,1.792798 -2.72308,-1.344598 -1.81539,-3.585595 -4.0846,0.4482 -3.63077,1.344598 -1.81539,1.792797 5.44616,0.448199 -2.26923,3.137395 v 2.240997 l -3.63077,2.240996 v 7.619388 l -1.36154,2.689197 -2.26923,0.896398 v 6.27479 l 5.9,0.896398 4.08461,2.240997 3.17692,2.689196 v 2.240997 l -1.36153,1.344597 1.81537,2.240997 1.36155,2.689195 0.90769,1.792797 1.81538,0.896399 2.72308,-1.344597 1.36153,1.344597 1.36154,3.137395 1.81539,3.585594 3.63077,2.240997 3.17691,0.4482 v -1.792797 l 1.36155,-0.4482 3.63076,0.896399 4.08461,3.137392 7.71538,-5.378389 9.07692,-5.378391 -4.53846,-7.17119 -0.45384,-12.10138 -4.99231,-3.585594 v -2.240997 l 2.72308,-1.792797 h 5.89999 l 2.72308,-1.344599 v -3.585594 l 1.36153,-0.448198 v -7.17119 l -0.90769,-7.619388 h -9.07691 l -1.36154,1.344599 h -1.36154 l -0.45385,-1.792797 4.08462,-2.689197 v -4.930192"
     id="path28"
     inkscape:connector-curvature="0"
     style="stroke-width:1.19828165" />
  <path
     d="m 159.2999,55.576713 -4.53846,3.137395 h -3.17691 v 1.344597 l 2.26923,1.792798 0.45384,2.240996 -1.36154,0.4482 h -6.35384 v 10.756783 l -8.62308,4.930193 -0.90768,-2.240997 -1.81539,-1.792797 -4.08461,5.826591 -1.81539,-2.240997 -1.36153,1.344598 -2.72308,0.448199 v 4.481992 h 4.08461 v 1.344597 h 2.72309 V 98.60385 h -6.35386 l -0.90768,-1.344608 h -0.90769 l -2.72309,4.033798 h -6.80768 l 1.81539,3.1374 0.45384,3.5856 0.45385,-0.44821 h 2.26923 l 3.17692,1.3446 9.98461,0.4482 v 6.27479 l 0.90769,4.48199 3.17692,-1.7928 1.36153,2.68919 1.36155,1.34461 h 1.36154 v 8.06758 l 11.34614,0.44821 8.16923,0.44819 3.63076,-2.68919 4.53846,-2.68919 6.35384,-1.79281 4.53847,-2.241 -0.9077,-4.03378 -3.17692,1.79279 -0.45385,-3.5856 -1.81539,-0.44819 -1.36153,-4.03379 -0.45384,-3.58559 1.36153,-2.68921 3.17693,-0.89639 2.72307,2.24099 0.9077,-2.68919 -2.72309,-2.6892 7.71539,-4.930188 v -4.033801 l -3.63077,-1.792791 -1.81539,-1.792803 v -2.240998 h 1.81539 l 8.16923,3.1374 4.53845,0.448194 0.45385,4.033801 1.81538,0.896402 2.72307,-0.448207 0.45386,-5.826592 -5.44616,-4.033789 -2.26923,-2.689196 -3.17691,-0.4482 -3.63077,-2.240997 -1.81539,-3.585594 -1.36154,-3.137395 -1.36153,-1.344597 -2.72308,1.344597 -1.81538,-0.896399 -0.90769,-1.792797 -1.36155,-2.689195 -1.81537,-2.240997 1.36153,-1.344597 v -2.240997 l -3.17692,-2.689196 -4.08461,-2.240997"
     id="path30"
     inkscape:connector-curvature="0"
     style="stroke-width:1.19828165" />
  <path
     d="m 145.23068,30.925752 -4.08461,4.033794 -16.7923,0.896398 -3.63077,3.137396 -0.90769,7.171188 -2.26923,1.344598 h -2.72307 l -1.81539,-2.240997 -0.90769,-1.792797 -2.26923,-0.896398 -2.72307,1.792797 -0.45385,7.171188 -3.17692,4.481994 -0.45385,1.792797 -3.176917,0.896398 -2.723076,1.792797 0.907692,3.137396 3.176921,1.344597 1.81538,-1.344597 0.45385,-1.344599 1.81538,-0.896398 2.26923,2.689195 6.80769,0.896399 -2.72307,2.689195 v 8.067588 l -3.63077,3.137396 v 0.896398 l 0.45385,1.344598 h 3.63076 v 4.481996 l -1.81538,3.585595 -2.72308,8.963979 -2.26923,-0.448194 -2.72307,4.481991 -6.353844,5.8266 0.907691,2.68919 h 2.26923 l 6.353843,5.37838 -0.45385,-6.27478 4.99231,1.7928 2.26923,-3.58559 1.81538,1.79279 2.26923,-1.79279 -0.45384,-3.5856 -1.81539,-3.1374 h 6.80768 l 2.72309,-4.033798 h 0.90769 l 0.90768,1.344608 h 6.35386 V 87.398861 h -2.72309 v -1.344597 h -4.08461 v -4.481992 l 2.72308,-0.448199 1.36153,-1.344598 1.81539,2.240997 4.08461,-5.826591 1.81539,1.792797 0.90768,2.240997 8.62308,-4.930193 V 64.540699 h 6.35384 l 1.36154,-0.4482 -0.45384,-2.240996 -2.26923,-1.792798 v -1.344597 h 3.17691 l 4.53846,-3.137395 v -6.27479 l 2.26923,-0.896398 1.36154,-2.689197 V 38.09694 l 3.63077,-2.240996 v -2.240997 l 2.26923,-3.137395 -5.44616,-0.448199 -1.36154,-1.344598 -3.17691,2.240997"
     id="path32"
     inkscape:connector-curvature="0"
     style="stroke-width:1.19828165" />
  <path
     d="M 74.430723,34.063147 H 63.992269 l 0.907691,8.963985 -3.176921,-0.448198 -1.815383,-2.240997 -3.176922,0.896398 -3.630767,2.240997 2.723076,3.137396 h 4.084613 l 2.723075,2.689195 -0.453845,2.689196 -4.084613,2.240997 -1.361539,2.240995 h -1.815383 l -0.453845,3.585594 -6.353843,1.344599 v 3.137395 h 6.807688 l 1.815383,2.689196 3.176922,0.896398 5.44615,0.4482 h 3.176921 l 2.723076,-1.792797 2.723076,0.448199 2.269228,2.689195 -6.353842,6.274791 H 67.623036 L 64.89996,73.952884 h -3.630767 l -4.538459,7.619388 0.453846,3.137396 1.361539,2.689193 7.71538,0.896401 4.084611,4.481996 h 5.899997 l 2.26923,-1.792803 2.723075,6.274787 7.71538,3.585598 4.084613,0.4482 2.723075,0.8964 3.176922,3.13739 3.630768,-3.13739 2.72307,-4.481991 2.26923,0.448194 2.72308,-8.963979 1.81538,-3.585595 v -4.481996 h -3.63076 l -0.45385,-1.344598 v -0.896398 l 3.63077,-3.137396 v -8.067588 l 2.72307,-2.689195 -6.80769,-0.896399 -2.26923,-2.689195 -1.81538,0.896398 -0.45385,1.344599 -1.81538,1.344597 -3.176921,-1.344597 -0.907692,-3.137396 2.723076,-1.792797 3.176917,-0.896398 0.45385,-1.792797 3.17692,-4.481994 0.45385,-7.171188 2.72307,-1.792797 2.26923,0.896398 0.90769,1.792797 1.81539,2.240997 h 2.72307 l 2.26923,-1.344598 0.90769,-7.171188 -0.90769,-2.240997 -6.35384,1.792797 -31.769213,0.4482 -1.361537,-0.8964 -3.176921,2.240997 -2.269229,-3.137396"
     id="path34"
     inkscape:connector-curvature="0"
     style="stroke-width:1.19828165" />
  <path
     style="fill:none;stroke:#000000;stroke-width:1px;stroke-linecap:butt;stroke-linejoin:miter;stroke-opacity:1"
     d="m 250.52293,336.14947 v -4.0338 l -4.08462,-5.82658 1e-5,-4.482 2.72307,-4.03379 v -6.72299 l 1.81538,-4.03379 h 7.26153 l 3.17693,-2.24101 3.17691,-7.61938 h 9.07692 l 5.44615,-2.241 0.45385,-14.34238 2.72307,-2.24098 3.63078,-2e-5 1.81538,-1.34459 3.63077,2.68919 6.35384,-2.68919 h 11.79999 l 2.26923,3.1374 -1.81539,3.58559 -1.81537,0.4482 2.72307,5.37839 0.90769,4.93019 6.35384,0.4482 11.34616,-7.17119 h 4.9923 l 2.26923,-1.3446 6.80768,1.3446 1.81539,-0.44819 3.63077,-4.482 h 3.63076 l 3.17692,1.79279 -1.81538,2.241 3.17692,2.6892 0.45385,2.6892 -8.16923,8.96398 -4.08461,0.8964 -4.53846,4.0338 -6.80769,-1.7928 -0.45385,7.61938 h 3.63077 v 1.7928 l -5.9,3.5856 -3.63076,8.51578 -5.44615,2.68919 -15.43076,20.16897 -9.53076,-4.03379 -16.7923,-5.82659 v -10.75678 l -1.81539,1.3446 h -13.61538 l -8.16922,6.72299 z"
     id="path27"
     inkscape:connector-curvature="0" />
  <path
     style="fill:#000000;fill-opacity:1;stroke:#ffffff;stroke-width:0.55242717;stroke-opacity:1"
     d="m 302.59891,346.10546 c -1.82301,-0.78432 -7.29204,-2.84576 -12.1534,-4.58098 l -8.83883,-3.15494 -0.15743,-5.59079 c -0.0866,-3.07493 -0.34982,-5.59078 -0.58495,-5.59078 -0.23514,0 -0.91007,0.36498 -1.49985,0.81107 -0.80589,0.60954 -2.7777,0.81543 -7.93571,0.82864 l -6.86337,0.0176 -4.03846,3.31456 c -3.61323,2.96555 -4.30113,3.31456 -6.53299,3.31456 -2.41725,0 -2.49452,-0.0527 -2.49452,-1.69974 0,-1.10044 -0.77911,-2.78774 -2.20971,-4.78556 -2.64692,-3.69638 -2.85169,-5.88681 -0.82864,-8.86399 1.11007,-1.63362 1.38107,-2.71185 1.38107,-5.49496 0,-2.70953 0.1802,-3.46254 0.82864,-3.46254 0.55242,0 0.82864,-0.55243 0.82864,-1.65728 v -1.65729 h 3.41848 c 4.77331,0 6.61894,-1.33196 8.60213,-6.20799 l 1.51385,-3.72208 4.48386,-0.007 c 3.27583,-0.005 5.2293,-0.3166 7.25074,-1.15667 2.63766,-1.09616 2.78301,-1.26747 3.11202,-3.66788 0.18982,-1.38491 0.34513,-4.70655 0.34513,-7.38143 0,-4.39948 0.11712,-4.94545 1.22777,-5.72338 0.67528,-0.47298 1.93458,-0.85997 2.79846,-0.85997 0.86387,0 2.02495,-0.24312 2.58017,-0.54027 0.75409,-0.40357 1.36097,-0.2638 2.39864,0.55243 1.78608,1.40494 2.36656,1.37765 6.13372,-0.28837 2.61245,-1.15535 3.97591,-1.38107 8.34241,-1.38107 4.98039,0 5.26172,0.0643 6.13931,1.4037 0.73653,1.12407 0.79644,1.6743 0.30079,2.76213 -0.34042,0.74714 -0.81072,1.36225 -1.04511,1.3669 -0.23439,0.005 -0.75841,0.21906 -1.1645,0.47647 -0.5911,0.37468 -0.45275,1.03157 0.69382,3.29421 0.78768,1.55442 1.69601,4.05653 2.0185,5.56025 l 0.58634,2.73404 3.47975,0.37265 3.47975,0.37265 5.45999,-3.47591 c 4.39629,-2.79874 6.10573,-3.57016 8.77456,-3.95969 4.62,-0.67431 6.76795,-0.71455 9.83219,-0.1842 l 2.65063,0.45877 2.34358,-2.55263 c 2.44678,-2.66505 3.659,-3.04188 6.14364,-1.90981 1.35205,0.61604 1.37081,0.6871 0.44988,1.70471 -0.92168,1.01845 -0.89087,1.12207 0.75347,2.53362 2.83296,2.43192 2.73098,2.93625 -1.54899,7.65984 -2.87352,3.17137 -4.44388,4.45378 -5.95177,4.86045 -1.12659,0.30384 -3.10508,1.39595 -4.39665,2.42692 l -2.34831,1.87449 -3.34353,-0.92959 c -1.83894,-0.51127 -3.40433,-0.8576 -3.47865,-0.76963 -0.0743,0.088 -0.307,2.19489 -0.51707,4.68205 l -0.38196,4.5221 2.10648,0.17353 2.10648,0.17353 -3.0666,1.77308 c -2.86871,1.65866 -3.18284,2.05463 -4.86811,6.13647 -1.69633,4.10861 -1.95974,4.43751 -4.51106,5.63249 -2.36988,1.10999 -3.6534,2.50481 -10.23891,11.12687 -4.14115,5.42178 -7.69179,9.83613 -7.8903,9.80966 -0.19852,-0.0265 -1.8525,-0.68985 -3.67551,-1.47418 z"
     id="path29"
     inkscape:connector-curvature="0" />
  <text
     xml:space="preserve"
     style="font-style:normal;font-weight:normal;font-size:40px;line-height:1.25;font-family:sans-serif;letter-spacing:0px;word-spacing:0px;fill:#000000;fill-opacity:1;stroke:none"
     x="332.56116"
     y="112.32356"
     id="text35"><tspan
       sodipodi:role="line"
       id="tspan33"
       x="332.56116"
       y="147.71419" /></text>
  <ellipse
     style="fill:#000000;fill-opacity:1;stroke:#ffffff;stroke-opacity:1"
     id="path76"
     cx="339.0625"
     cy="25.54303"
     rx="18.855932"
     ry="18.432203" />
  <text
     xml:space="preserve"
     style="font-style:normal;font-weight:normal;font-size:14.56755352px;line-height:1.25;font-family:sans-serif;letter-spacing:0px;word-spacing:0px;fill:#000000;fill-opacity:1;stroke:none;stroke-width:0.36418885"
     x="349.84479"
     y="53.565075"
     id="text99-3"
     transform="scale(0.87634461,1.1411036)"><tspan
       sodipodi:role="line"
       id="tspan97-5"
       x="349.84479"
       y="53.565075"
       style="stroke-width:0.36418885">г. Рудный</tspan></text>
  <ellipse
     style="fill:#000000;fill-opacity:1;stroke:#ffffff;stroke-opacity:1"
     id="path76-6"
     cx="335.9375"
     cy="94.29303"
     rx="18.855932"
     ry="18.432203" />
  <text
     xml:space="preserve"
     style="font-style:normal;font-weight:normal;font-size:14.56755352px;line-height:1.25;font-family:sans-serif;letter-spacing:0px;word-spacing:0px;fill:#000000;fill-opacity:1;stroke:none;stroke-width:0.36418885"
     x="338.75375"
     y="112.66856"
     id="text99-3-2"
     transform="scale(0.87634461,1.1411036)"><tspan
       sodipodi:role="line"
       id="tspan97-5-9"
       x="338.75375"
       y="112.66856"
       style="stroke-width:0.36418885">г. Костанай</tspan></text>
  <ellipse
     style="fill:#000000;fill-opacity:1;stroke:#ffffff;stroke-opacity:1"
     id="path76-6-1"
     cx="334.375"
     cy="155.23053"
     rx="18.855932"
     ry="18.432203" />
  <text
     xml:space="preserve"
     style="font-style:normal;font-weight:normal;font-size:14.56755352px;line-height:1.25;font-family:sans-serif;letter-spacing:0px;word-spacing:0px;fill:#000000;fill-opacity:1;stroke:none;stroke-width:0.36418885"
     x="334.10175"
     y="168.16739"
     id="text99-3-2-2"
     transform="scale(0.87634461,1.1411036)"><tspan
       sodipodi:role="line"
       id="tspan97-5-9-7"
       x="334.10175"
       y="168.16739"
       style="stroke-width:0.36418885">г. Лисаковск</tspan></text>
</svg>
