<?xml version="1.0" encoding="UTF-8" standalone="no"?>
<svg
   xmlns:dc="http://purl.org/dc/elements/1.1/"
   xmlns:cc="http://creativecommons.org/ns#"
   xmlns:rdf="http://www.w3.org/1999/02/22-rdf-syntax-ns#"
   xmlns:svg="http://www.w3.org/2000/svg"
   xmlns="http://www.w3.org/2000/svg"
   xmlns:sodipodi="http://sodipodi.sourceforge.net/DTD/sodipodi-0.dtd"
   xmlns:inkscape="http://www.inkscape.org/namespaces/inkscape"
   version="1.1"
   id="svg18"
   sodipodi:docname="Кызылординская.svg"
   width="442.44067"
   height="267.99115"
   inkscape:version="0.92.3 (unknown)">
  <metadata
     id="metadata24">
    <rdf:RDF>
      <cc:Work
         rdf:about="">
        <dc:format>image/svg+xml</dc:format>
        <dc:type
           rdf:resource="http://purl.org/dc/dcmitype/StillImage" />
        <dc:title />
      </cc:Work>
    </rdf:RDF>
  </metadata>
  <defs
     id="defs22" />
  <sodipodi:namedview
     pagecolor="#ffffff"
     bordercolor="#666666"
     borderopacity="1"
     objecttolerance="10"
     gridtolerance="10"
     guidetolerance="10"
     inkscape:pageopacity="0"
     inkscape:pageshadow="2"
     inkscape:window-width="1855"
     inkscape:window-height="1056"
     id="namedview20"
     showgrid="false"
     fit-margin-top="0"
     fit-margin-left="0"
     fit-margin-right="0"
     fit-margin-bottom="0"
     inkscape:zoom="2.36"
     inkscape:cx="386.38011"
     inkscape:cy="151.58558"
     inkscape:window-x="65"
     inkscape:window-y="24"
     inkscape:window-maximized="1"
     inkscape:current-layer="svg18" />
  <path
     d="m 315.90264,78.317049 h 6.19417 l 8.40638,1.223704 38.04989,0.815803 11.06102,-1.223704 10.17614,1.223704 2.2122,1.631605 -0.44244,1.223704 1.76976,2.855309 -0.44244,4.894815 2.21221,2.039507 h 1.76976 v 1.631605 l 2.2122,0.407901 0.88488,0.407902 0.44244,1.223703 v 1.223704 l 2.21221,1.223704 v 0.815803 l -1.32733,1.223702 -0.44244,1.63161 -1.32732,0.8158 -0.44244,2.03951 h -3.98196 l -6.63661,-1.63161 -10.61858,-0.4079 h -9.29126 l -3.53952,4.48691 -2.65464,0.40791 -0.88489,1.6316 1.76977,1.63161 -0.44244,4.07901 1.76976,2.0395 v 8.97383 l 1.32732,2.44741 -0.44244,2.44741 -5.75173,0.4079 -9.29125,-4.07901 -6.63661,3.67111 -4.42441,3.26321 -0.44244,2.85531 -2.65464,2.44741 -2.21221,2.85531 h -3.09708 l -2.21221,1.2237 h -4.86684 l -1.76977,-0.4079 0.88488,-2.03951 2.21221,-0.4079 -0.88488,-1.6316 h 3.53952 l -1.32732,-2.03951 -2.2122,-0.8158 -3.09709,-0.40791 v -2.0395 h -5.75173 l -0.88488,-1.63161 h -8.40637 l 0.88488,-5.30271 1.32732,-3.26321 h 2.65465 l 2.2122,-2.85531 -5.30929,-0.4079 -2.2122,-1.63161 h -5.75173 l -3.98197,6.11852 4.86685,4.48691 -1.76976,3.26321 -0.44244,3.26321 2.2122,2.03951 1.76976,-0.4079 1.32733,1.2237 v 1.63161 l -2.21221,2.85531 2.21221,0.8158 0.44244,2.03951 1.76976,0.4079 0.44244,2.44741 v 2.0395 l 1.76976,0.4079 0.44244,1.63161 2.21221,0.4079 v 1.63161 h 4.86684 l 0.88489,-1.63161 0.44244,-1.6316 h 3.53952 l 2.2122,0.4079 1.76977,1.6316 h 5.30929 l 3.09708,2.85531 1.76976,4.07901 0.44244,2.85531 -0.88488,2.85531 -1.76976,2.85531 -3.98197,1.63161 -4.86684,-0.40791 -9.7337,6.93433 -8.84881,9.38173 -9.7337,9.38173 -9.73369,3.67111 -9.7337,3.67111 -1.32732,-12.23704 -0.44244,-22.43457 2.2122,-7.34222 v -9.38173 l -2.2122,-1.22371 -1.32732,-4.48691 -2.65465,-1.63161 5.75173,-2.4474 4.86685,-1.22371 2.65464,-1.6316 -2.65464,-0.81581 -2.65464,-1.2237 v -1.2237 l 1.76976,-0.40791 v -2.8553 l -0.44244,-3.67112 -2.21221,-2.0395 v -6.93432 l 1.76977,-17.13186 1.76976,-9.78963 0.88488,-3.671112 V 74.645937 l -0.88488,-1.631605 v -1.631605 l 3.09709,-6.526421 10.17613,1.223704 11.06102,7.342224"
     id="path4"
     inkscape:connector-curvature="0"
     style="stroke-width:1.38830101" />
  <path
     d="m 161.49085,14.684447 13.27322,11.421236 -1.32732,3.26321 12.83078,1.631606 2.65464,2.855309 -10.17614,5.710618 -3.53952,2.039506 -3.53953,4.079013 -5.75173,7.750125 -3.98196,5.302717 -3.53953,8.158026 -1.32732,2.855309 -1.32732,1.631605 v 2.447408 l -0.44244,3.26321 -2.65465,3.671112 -1.32732,1.631605 -3.09708,0.815803 -1.32733,3.26321 v 2.447408 l -4.4244,0.815802 -1.32732,1.631606 -3.53953,0.815802 v 2.447408 l 2.2122,0.407901 v 0.815803 h -4.4244 l -2.65465,0.407901 -2.2122,1.631605 h -0.88488 l -0.44244,-1.223704 -1.32732,-0.407901 -1.32733,-1.631605 h -1.76976 l -0.44244,1.223704 -11.50346,0.407901 0.44244,1.631605 0.88488,1.223704 -0.88488,1.631605 -2.65464,0.4079 -0.88488,4.07901 4.4244,3.26322 v 1.2237 l -1.76976,0.4079 -3.53952,0.8158 -1.32733,0.81581 0.88489,2.8553 3.09708,2.85531 3.53953,2.85531 2.65464,3.67111 0.88488,3.67112 -1.32732,3.26321 -4.42441,3.26321 L 81.851525,159.89731 42.474305,135.42323 17.697627,126.0415 0,117.47557 V 84.435569 l 4.4244068,-2.447408 9.7336952,-8.565927 13.27322,-12.237039 13.715661,-8.973829 14.600542,-8.973828 16.812746,-0.407902 1.327322,-9.789631 11.061017,0.815803 9.291254,0.407901 7.079056,-11.013335 8.84881,-14.6844468 3.53952,-6.5264207 L 116.3619,0 h 28.3162 l 6.19417,5.7106182 6.19417,8.5659268"
     id="path6"
     inkscape:connector-curvature="0"
     style="stroke-width:1.38830101" />
  <path
     d="m 196.8861,36.303215 5.75173,3.263211 2.65464,17.947657 0.88489,10.197532 2.65464,5.302717 v 2.447408 l -2.2122,2.039507 1.76976,2.039506 -15.92787,14.684447 v 10.19753 l 5.75173,5.30272 h 2.65465 l -10.17614,11.42124 -2.65464,1.2237 -1.76976,24.47408 -5.30929,9.38173 -3.53953,3.67111 -6.63661,10.60543 -3.53952,8.15803 -4.42441,11.42123 -2.65464,4.89482 H 156.624 l -7.52149,6.11852 -3.53953,2.03951 -3.98196,1.2237 v 2.03951 l -6.19417,1.2237 -23.44936,-20.80297 -15.485422,-12.64494 -0.442441,-6.11852 -14.158102,-8.15802 30.970845,-25.69778 4.42441,-3.26321 1.32732,-3.26321 -0.88488,-3.67112 -2.65464,-3.67111 -3.53953,-2.85531 -3.09708,-2.85531 -0.88489,-2.8553 1.32733,-0.81581 5.30928,-1.2237 v -1.2237 l -4.4244,-3.26322 0.88488,-4.07901 2.65464,-0.4079 0.88488,-1.631605 -0.88488,-1.223704 -0.44244,-1.631605 11.50346,-0.407901 0.44244,-1.223704 h 1.76976 l 1.32733,1.631605 1.32732,0.407901 0.44244,1.223704 H 130.52 l 2.2122,-1.631605 2.65465,-0.407901 h 4.4244 v -0.815803 l -2.2122,-0.407901 v -2.447408 l 3.53953,-0.815802 1.32732,-1.631606 4.4244,-0.815802 v -2.447408 l 1.32733,-3.26321 3.09708,-0.815803 1.32732,-1.631605 2.65465,-3.671112 0.44244,-3.26321 v -2.447408 l 1.32732,-1.631605 4.86685,-11.013335 3.98196,-5.302717 9.29126,-11.829138 4.42441,-2.855309"
     id="path8"
     inkscape:connector-curvature="0"
     style="stroke-width:1.38830101" />
  <path
     d="m 202.63783,39.566426 4.86685,3.26321 10.61857,2.447408 9.29126,3.26321 3.09708,-1.631605 1.76977,1.631605 v 7.342224 l 7.96393,15.092348 3.09708,3.671111 15.04299,9.38173 -0.44244,18.355563 1.76976,6.11852 1.76976,6.11851 v 2.85531 2.03951 l -1.76976,0.8158 -0.88488,0.81581 v 1.6316 l 2.2122,2.03951 -3.53953,4.89481 0.88489,2.44741 -3.98197,0.4079 v 2.85531 l -10.61858,7.75013 -7.52149,0.8158 v -0.8158 l -6.19417,1.2237 -2.2122,-2.03951 -6.19417,-0.4079 -2.2122,0.8158 -0.88489,3.67112 -0.88488,3.67111 -0.88488,3.67111 -0.44244,7.34222 -4.42441,12.23704 -0.88488,10.60544 -2.2122,3.26321 0.88488,3.67111 -0.44244,3.67111 -2.2122,9.78963 h -4.42441 l -38.93478,6.11852 -23.8918,0.4079 -4.4244,-3.26321 6.19417,-1.2237 v -2.03951 l 3.98196,-1.2237 3.53953,-2.03951 7.52149,-6.11852 h 3.53953 l 2.65464,-4.89482 4.42441,-11.42123 3.53952,-8.15803 6.63661,-10.60543 3.53953,-3.67111 5.30929,-9.38173 1.76976,-24.47408 2.65464,-1.2237 10.17614,-11.42124 h -2.65465 l -5.75173,-5.30272 V 94.2252 l 15.92787,-14.684447 -1.76976,-2.039506 2.2122,-2.039507 v -2.447408 l -2.65464,-5.302717 -0.88489,-10.197532"
     id="path10"
     inkscape:connector-curvature="0"
     style="stroke-width:1.38830101" />
  <path
     d="m 232.28136,48.540254 15.04298,4.486915 13.27322,2.447407 23.44936,9.38173 -3.09709,6.526421 v 1.631605 l 0.88488,1.631605 v 15.908151 l -0.88488,3.671112 -1.76976,9.78963 -1.76977,17.13186 v 6.93432 l 2.21221,2.0395 0.44244,3.67112 v 2.8553 l -1.76976,0.40791 v 1.2237 l 2.65464,1.2237 2.65464,0.81581 -2.65464,1.6316 -4.86685,1.22371 -5.75173,2.4474 2.65465,1.63161 1.32732,4.48691 2.2122,1.22371 v 9.38173 l -2.2122,7.34222 0.44244,22.43457 1.32732,12.23704 -10.17613,4.07901 -36.72258,-1.6316 -22.12203,-2.44741 2.2122,-9.78963 0.44244,-3.67111 -0.88488,-3.67111 2.2122,-3.26321 0.88488,-10.60544 4.42441,-12.23704 0.44244,-7.34222 0.88488,-3.67111 0.88488,-3.67111 0.88489,-3.67112 2.2122,-0.8158 6.19417,0.4079 2.2122,2.03951 6.19417,-1.2237 v 0.8158 l 7.52149,-0.8158 10.61858,-7.75013 v -2.85531 l 3.98197,-0.4079 -0.88489,-2.44741 3.53953,-4.89481 -2.2122,-2.03951 v -1.6316 l 0.88488,-0.81581 1.76976,-0.8158 v -2.03951 -2.85531 l -3.53952,-12.23703 0.44244,-18.355563 -15.04299,-9.38173 -3.09708,-3.671111 -7.96393,-15.092348"
     id="path12"
     inkscape:connector-curvature="0"
     style="stroke-width:1.38830101" />
  <path
     d="m 399.08149,105.64644 0.44244,2.0395 -1.32732,0.4079 -0.44244,2.03951 0.88488,0.8158 -0.44244,3.67111 -0.44244,0.81581 v 1.2237 h 0.44244 l -0.44244,1.2237 -2.2122,1.22371 -0.88489,1.2237 v 1.63161 l 1.32733,1.2237 9.73369,4.48692 6.19417,1.6316 v 8.15803 l 1.32732,6.52642 0.44244,20.39506 -1.32732,0.81581 -3.98196,-2.44741 -3.09709,2.85531 h -1.32732 l -4.42441,4.48691 -6.19417,0.4079 -2.2122,2.03951 -4.42441,4.48691 -1.76976,3.26321 -2.2122,2.85531 -2.65465,3.67111 -2.2122,4.89482 1.76976,21.61877 -16.81274,6.93432 5.75172,22.43457 -23.00691,11.42124 -0.44244,-15.50025 -12.38834,4.48691 -16.81275,-22.84247 -17.69762,-8.56593 -8.84882,-10.60543 -3.53952,-0.4079 1.32732,-0.8158 8.40637,-2.85531 9.7337,-9.38173 8.84881,-9.38173 9.7337,-6.93433 4.86684,0.40791 3.98197,-1.63161 1.76976,-2.85531 0.88488,-2.85531 -0.44244,-2.85531 -1.76976,-4.07901 -3.09708,-2.85531 v -0.8158 h 3.98196 l -3.53952,-2.44741 0.44244,-1.2237 2.2122,-2.03951 -0.88488,-1.2237 2.65464,-2.03951 -0.88488,-1.6316 2.21221,-2.85531 2.65464,-2.44741 0.44244,-2.85531 4.42441,-3.26321 6.63661,-3.67111 9.29125,4.07901 5.75173,-0.4079 0.44244,-2.44741 -1.32732,-2.44741 v -8.97383 l -1.76976,-2.0395 0.44244,-4.07901 -1.76977,-1.63161 0.88489,-1.6316 2.65464,-0.40791 3.53952,-4.48691 h 9.29126 l 10.61858,0.4079 6.63661,1.63161"
     id="path14"
     inkscape:connector-curvature="0"
     style="stroke-width:1.38830101" />
  <path
     d="m 412.35471,165.20003 -0.88488,2.0395 5.30929,2.85531 3.09708,-1.2237 5.75173,2.4474 0.44244,2.03951 6.63661,4.48692 8.84882,4.48691 -0.88489,4.07901 -3.53952,1.22371 -1.32732,2.0395 2.65464,3.26321 v 4.07902 l -1.76976,1.6316 -2.2122,0.4079 -1.32733,-1.2237 -1.76976,-0.4079 0.44244,3.67111 -0.44244,5.30272 h -1.76976 l -1.76976,2.85531 0.88488,1.2237 -1.32733,2.85531 -1.32732,1.6316 h 2.65465 l -0.44244,1.22371 2.65464,0.4079 0.44244,1.2237 0.44244,0.4079 -0.44244,2.03951 1.32732,0.4079 v 1.22371 h 2.65465 l 0.44244,0.8158 -2.21221,1.2237 -30.08596,12.64494 -53.09288,31.4084 -4.86685,-0.8158 v -13.05284 l 23.00691,-11.42124 -5.75172,-22.43457 16.81274,-6.93432 -1.76976,-21.61877 2.2122,-4.89482 2.65465,-3.67111 2.2122,-2.85531 1.76976,-3.26321 4.42441,-4.48691 2.2122,-2.03951 6.19417,-0.4079 4.42441,-4.48691 h 1.32732 l 3.09709,-2.85531"
     id="path16"
     inkscape:connector-curvature="0"
     style="stroke-width:1.38830101" />
  <path
     style="fill:#000000;fill-opacity:1;stroke:#00ff00;stroke-width:0.21186441"
     d="m 427.58984,35.524197 c 0.14566,-0.05877 0.384,-0.05877 0.52966,0 0.14566,0.05877 0.0265,0.106861 -0.26483,0.106861 -0.29131,0 -0.41049,-0.04809 -0.26483,-0.106861 z"
     id="path17"
     inkscape:connector-curvature="0" />
  <path
     style="fill:none;stroke:#000000;stroke-width:1px;stroke-linecap:butt;stroke-linejoin:miter;stroke-opacity:1"
     d="m 302.62942,138.27854 -1.76976,0.4079 -2.2122,-2.03951 0.44244,-3.26321 1.76976,-3.26321 -4.86685,-4.48691 3.98197,-6.11852 h 5.75173 l 2.2122,1.63161 5.30929,0.4079 -2.2122,2.85531 h -2.65465 l -1.32732,3.26321 -0.88488,5.30271 h 8.40637 l 0.88488,1.63161 h 5.75173 v 2.0395 l 3.09709,0.40791 2.2122,0.8158 1.32732,2.03951 h -3.53952 l 0.88488,1.6316 -2.21221,0.4079 -0.88488,2.03951 1.76977,0.4079 h 4.86684 l 2.21221,-1.2237 h 3.09708 l 0.88488,1.6316 -2.65464,2.03951 0.88488,1.2237 -2.2122,2.03951 -0.44244,1.2237 3.53952,2.44741 h -3.98196 v 0.8158 h -5.30929 l -1.76977,-1.6316 -5.75172,-0.4079 -1.32733,3.26321 h -4.86684 v -1.63161 l -2.21221,-0.4079 -0.44244,-1.63161 -1.76976,-0.4079 -0.44244,-4.48691 -1.76976,-0.4079 -0.44244,-2.03951 -2.21221,-0.8158 2.21221,-2.85531 v -1.63161 z"
     id="path18"
     inkscape:connector-curvature="0" />
  <path
     style="fill:#000000;fill-opacity:1;stroke:#ffffff;stroke-width:0.42372882;stroke-opacity:1"
     d="m 311.71909,154.42464 c 0,-0.54379 -0.40113,-0.87472 -1.27118,-1.04873 -0.75623,-0.15125 -1.27119,-0.52026 -1.27119,-0.91091 0,-0.36117 -0.46589,-0.83381 -1.0353,-1.0503 -0.86881,-0.33032 -1.05621,-0.72046 -1.16526,-2.42595 -0.10332,-1.61593 -0.32053,-2.11599 -1.06011,-2.44061 -0.51159,-0.22455 -1.0364,-0.83154 -1.16624,-1.34887 -0.12984,-0.51734 -0.61997,-1.06245 -1.08918,-1.21137 l -0.85311,-0.27077 0.85409,-1.08581 c 1.18403,-1.50524 1.13367,-3.75371 -0.0993,-4.43326 -0.52436,-0.289 -1.30342,-0.47163 -1.73125,-0.40584 -1.00674,0.1548 -2.4001,-1.11265 -2.4001,-2.18324 0,-0.4591 0.49157,-1.9301 1.09239,-3.26889 l 1.09239,-2.43417 -2.34019,-2.21325 -2.34018,-2.21324 1.77745,-2.70608 1.77746,-2.70608 2.3793,-0.009 c 1.69371,-0.006 2.67048,0.21992 3.38983,0.78499 0.55579,0.4366 2.00279,0.92997 3.21555,1.0964 2.03721,0.27956 2.1665,0.36425 1.69892,1.11297 -0.33203,0.53167 -0.98629,0.81039 -1.90228,0.81039 -1.23929,0 -1.48271,0.20236 -2.16622,1.80084 -0.42352,0.99047 -0.90712,2.75424 -1.07467,3.91949 -0.16755,1.16526 -0.40696,2.54767 -0.53203,3.07204 -0.22468,0.94202 -0.17499,0.95339 4.16577,0.95339 3.93426,0 4.44845,0.0885 4.92241,0.84746 0.44095,0.70607 0.98815,0.84745 3.27989,0.84745 2.61129,0 2.75065,0.0509 2.75065,1.00422 0,0.86458 0.2504,1.03467 1.80085,1.22325 0.99046,0.12047 2.37288,0.46814 3.07203,0.7726 l 1.27119,0.55356 -1.78929,0.2359 c -1.46124,0.19265 -1.71491,0.35243 -1.38361,0.87149 0.60682,0.95072 0.50701,1.27119 -0.39594,1.27119 -0.55816,0 -0.97162,0.47579 -1.31341,1.51144 -0.27436,0.83129 -0.3687,1.64167 -0.20966,1.80085 0.15904,0.15917 1.89754,0.35678 3.86333,0.43913 2.75652,0.11547 3.81137,-0.006 4.61104,-0.52967 2.12311,-1.39111 4.40611,-0.13118 2.35964,1.30222 -0.66356,0.46477 -0.86801,0.93165 -0.70041,1.59941 0.16764,0.66792 -0.0697,1.20943 -0.81352,1.85618 -1.30232,1.13235 -1.34361,2.36009 -0.10847,3.22522 l 0.94174,0.65962 h -1.1536 c -0.63448,0 -1.15361,0.19068 -1.15361,0.42373 0,0.79834 -4.32202,0.49001 -5.2693,-0.3759 -0.61885,-0.5657 -1.84108,-0.8867 -4.17784,-1.09727 l -3.30308,-0.29764 -0.68069,1.73286 c -0.65127,1.65797 -0.76033,1.73287 -2.52319,1.73287 -1.51908,0 -1.84251,-0.13947 -1.84251,-0.79449 z"
     id="path20"
     inkscape:connector-curvature="0" />
  <ellipse
     style="fill:#000000;fill-opacity:1;stroke:#ffffff;stroke-opacity:1"
     id="path76"
     cx="410.16949"
     cy="19.686066"
     rx="18.855932"
     ry="18.432203" />
  <text
     xml:space="preserve"
     style="font-style:normal;font-weight:normal;font-size:14.56755352px;line-height:1.25;font-family:sans-serif;letter-spacing:0px;word-spacing:0px;fill:#000000;fill-opacity:1;stroke:none;stroke-width:0.36418885"
     x="413.20331"
     y="45.554539"
     id="text99-3-2"
     transform="scale(0.87634461,1.1411036)"><tspan
       sodipodi:role="line"
       id="tspan97-5-9"
       x="413.20331"
       y="45.554539"
       style="stroke-width:0.36418885">г. Байконур</tspan></text>
</svg>
