<?xml version="1.0" encoding="UTF-8" standalone="no"?>
<svg
   xmlns:dc="http://purl.org/dc/elements/1.1/"
   xmlns:cc="http://creativecommons.org/ns#"
   xmlns:rdf="http://www.w3.org/1999/02/22-rdf-syntax-ns#"
   xmlns:svg="http://www.w3.org/2000/svg"
   xmlns="http://www.w3.org/2000/svg"
   xmlns:sodipodi="http://sodipodi.sourceforge.net/DTD/sodipodi-0.dtd"
   xmlns:inkscape="http://www.inkscape.org/namespaces/inkscape"
   version="1.1"
   id="svg16"
   sodipodi:docname="Мангистауская.svg"
   width="685.66101"
   height="424.767"
   inkscape:version="0.92.3 (unknown)">
  <metadata
     id="metadata22">
    <rdf:RDF>
      <cc:Work
         rdf:about="">
        <dc:format>image/svg+xml</dc:format>
        <dc:type
           rdf:resource="http://purl.org/dc/dcmitype/StillImage" />
        <dc:title />
      </cc:Work>
    </rdf:RDF>
  </metadata>
  <defs
     id="defs20" />
  <sodipodi:namedview
     pagecolor="#ffffff"
     bordercolor="#666666"
     borderopacity="1"
     objecttolerance="10"
     gridtolerance="10"
     guidetolerance="10"
     inkscape:pageopacity="0"
     inkscape:pageshadow="2"
     inkscape:window-width="928"
     inkscape:window-height="708"
     id="namedview18"
     showgrid="false"
     fit-margin-top="0"
     fit-margin-left="0"
     fit-margin-right="0"
     fit-margin-bottom="0"
     inkscape:zoom="1.18"
     inkscape:cx="440.14151"
     inkscape:cy="224.36833"
     inkscape:window-x="508"
     inkscape:window-y="34"
     inkscape:window-maximized="0"
     inkscape:current-layer="svg16" />
  <path
     d="m 461.44986,238.10286 v 182.42179 h -8.22793 l -6.17095,4.24236 -25.36945,-0.53029 -8.22793,-9.54532 -10.97058,-7.42415 -8.9136,-13.78769 -11.65623,-10.60592 -1.37133,-9.54532 -19.88416,-15.37859 -39.76835,-18.56036 -17.14152,-2.12117 -28.79776,4.77265 -23.31247,2.65148 -22.62682,7.42415 -18.51285,9.01503 -26.74077,21.21184 -3.42832,1.06058 0.68567,-18.03005 -4.79963,-6.36355 0.68566,-9.01504 9.59925,-9.01502 5.4853,-9.54533 3.4283,-9.54533 -0.68566,-7.95444 -6.85661,-7.42414 2.05698,-6.89384 -15.7702,-1.06059 -5.48529,4.24236 -8.91359,-7.42415 -9.59926,-1.06058 -8.22793,3.71206 h -8.22793 l -7.54227,-12.1968 -10.28491,-10.07562 -0.68567,-3.71207 -1.37132,-5.83325 -6.17095,-9.54534 -4.11397,-12.72709 -2.74264,-11.13622 3.4283,-5.83325 13.71323,-2.12118 12.3419,-1.0606 4.79962,-5.30296 17.14153,20.15125 1.37132,12.1968 9.59925,-4.24236 -1.37132,-4.77267 3.4283,-2.65148 3.42831,-1.06059 10.97058,7.95443 11.65623,-6.36354 10.97058,-2.12119 13.02756,5.83326 h 7.54227 l 2.74264,-9.54533 8.22794,-5.83325 18.51284,3.71207 16.45587,-7.42414 10.97058,-2.65148 17.82718,2.65148 15.77021,-0.5303 2.74264,-7.95444 2.74264,-3.71207 4.79963,-1.59088 0.68566,-5.30296 -6.85661,-2.65148 -2.05698,-5.30296 5.48528,-2.65148 14.39889,-0.5303 -5.48529,-14.31799 47.99628,0.5303 v 12.7271 l -0.68567,19.62094 3.4283,3.71208 15.08455,5.30296 15.08454,4.77266 19.19851,8.48473 17.14152,2.65148"
     id="path2"
     inkscape:connector-curvature="0"
     style="stroke-width:1.97057259" />
  <path
     d="m 61.709491,215.83043 10.284916,-4.77266 16.455865,-2.65148 10.284914,-0.53029 3.428304,4.77265 8.9136,1.5909 8.91359,2.65148 -4.79963,8.48473 -10.97058,1.59089 -3.4283,5.83325 2.74264,11.13622 4.11397,12.72709 6.17095,9.54534 1.37132,5.83325 H 82.964983 l 4.113966,-15.37859 -0.685661,-11.6665 -6.85661,-10.07563"
     id="path4"
     inkscape:connector-curvature="0"
     style="stroke-width:1.97057259" />
  <path
     d="m 98.735186,207.876 8.227934,-7.95444 -13.02756,0.53029 -8.227933,-12.19681 -4.799627,-10.07561 -13.027559,-2.12119 4.799627,-4.24237 9.599255,-1.59088 10.284914,3.71206 h 13.027553 l 15.08455,-13.78769 12.3419,-4.24236 4.11397,-4.24237 -12.34191,-6.36355 -15.08454,1.06059 -10.284917,-4.77267 -0.685657,-20.68153 17.827184,1.06058 23.31247,8.48474 13.02757,-2.65148 2.74264,-11.13622 -10.97058,-14.84828 -30.16908,3.71207 V 91.210896 L 104.22047,94.39267 97.363863,92.271487 78.851017,109.77125 v 8.48474 l -6.85661,0.53029 -12.341898,4.77267 -8.227933,7.42414 -0.68566,8.48474 h 15.770203 l 10.284915,7.42413 6.170949,7.42415 v 9.01502 H 67.880441 l -9.599255,-10.6059 H 41.139661 L 30.169084,150.60404 10.284916,150.07375 0.68566102,154.31611 0,171.81587 l 7.5422712,5.30296 7.5422708,3.18178 15.770204,0.5303 10.970577,3.18177 4.799626,3.18177 4.113967,4.24238 0.68566,9.54532 6.85661,4.24237 3.428305,10.60591 10.284916,-4.77266 16.455865,-2.65148"
     id="path6"
     inkscape:connector-curvature="0"
     style="stroke-width:1.97057259" />
  <path
     d="m 196.78472,73.180834 26.74077,8.484735 29.48342,14.317989 30.16909,11.666512 29.48342,14.31798 17.82719,8.48474 -6.17095,11.13621 41.82532,6.89385 50.73892,14.84828 11.65624,1.5909 17.82718,5.83325 15.77021,0.53029 -0.68567,66.81729 -14.39888,-0.5303 -17.14152,-2.65148 -19.19851,-8.48473 -30.16909,-10.07562 -3.4283,-3.71208 0.68567,-19.62094 v -12.7271 l -47.99628,-0.5303 5.48529,14.31799 -14.39889,0.5303 -5.48528,2.65148 2.05698,5.30296 6.85661,2.65148 -0.68566,5.30296 -4.79963,1.59088 -2.74264,3.71207 -2.74264,7.95444 -15.77021,0.5303 -17.82718,-2.65148 -10.97058,2.65148 -16.45587,7.42414 -18.51284,-3.71207 -8.22794,5.83325 -2.74264,9.54533 h -7.54227 l -13.02756,-5.83326 -10.97058,2.12119 -11.65623,6.36354 -10.97058,-7.95443 -3.42831,1.06059 -3.4283,2.65148 1.37132,4.77267 -9.59925,4.24236 -1.37132,-12.1968 -17.14153,-20.15125 -4.79962,5.30296 -12.3419,1.0606 -2.74265,0.53029 4.79963,-8.48473 -8.91359,-2.65148 -8.9136,-1.5909 -3.428304,-4.77265 8.227934,-7.95444 -13.02756,0.53029 -8.227933,-12.19681 -4.799627,-10.07561 -13.027559,-2.12119 4.799627,-4.24237 9.599255,-1.59088 10.284914,3.71206 h 13.027553 l 15.08455,-13.78769 12.3419,-4.24236 4.11397,-4.24237 -12.34191,-6.36355 -15.08454,1.06059 -10.284917,-4.77267 -0.685657,-20.68153 17.827184,1.06058 23.31247,8.48474 13.02757,-2.65148 2.74264,-11.13622 -10.97058,-14.84828 -30.16908,3.71207 V 91.210896 l 10.28491,-4.242368 9.59926,3.181776 17.14153,0.530296 v -2.65148 l 30.85474,0.530296 6.17095,-7.954439 6.17095,-0.530296"
     id="path8"
     inkscape:connector-curvature="0"
     style="stroke-width:1.97057259" />
  <path
     d="m 519.73105,115.07421 -57.59552,13.2574 v 42.95396 l -15.77021,-0.53029 -17.82718,-5.83325 -11.65624,-1.5909 -50.73892,-14.84828 -41.82532,-6.89385 6.17095,-11.13621 -17.82719,-8.48474 -29.48342,-14.31798 -30.16909,-11.666512 -29.48342,-14.317989 -26.74077,-8.484735 10.28491,-16.969469 0.68565,-19.090652 14.39889,3.712072 17.82718,1.590887 29.48343,1.060592 10.28492,-1.590888 13.02755,-9.545326 8.22794,-13.787693 h 31.54041 41.13965 l 31.54041,-1.060592 11.65624,-10.0756224 9.59926,8.4847344 11.65623,2.121184 3.42831,4.242367 2.05698,6.893847 15.7702,3.712071 13.71322,5.302959 25.36946,0.530296 10.97058,13.787693 5.48528,27.575387 3.42831,19.090653"
     id="path10"
     inkscape:connector-curvature="0"
     style="stroke-width:1.97057259" />
  <path
     d="m 557.44241,0 h 47.31061 V 12.727101 H 557.44241 V 0"
     id="path12"
     inkscape:connector-curvature="0"
     style="stroke-width:1.97057259" />
  <ellipse
     style="fill:#000000;fill-opacity:1;stroke:#ffffff;stroke-opacity:1"
     id="path76"
     cx="551.69495"
     cy="40.86869"
     rx="18.855932"
     ry="18.432203" />
  <text
     xml:space="preserve"
     style="font-style:normal;font-weight:normal;font-size:14.56755352px;line-height:1.25;font-family:sans-serif;letter-spacing:0px;word-spacing:0px;fill:#000000;fill-opacity:1;stroke:none;stroke-width:0.36418885"
     x="596.63873"
     y="66.56987"
     id="text99-3-2"
     transform="scale(0.87634461,1.1411036)"><tspan
       sodipodi:role="line"
       id="tspan97-5-9"
       x="596.63873"
       y="66.56987"
       style="stroke-width:0.36418885">г. Актау</tspan></text>
  <ellipse
     style="fill:#000000;fill-opacity:1;stroke:#ffffff;stroke-opacity:1"
     id="path76-3"
     cx="555.93219"
     cy="105.27547"
     rx="18.855932"
     ry="18.432203" />
  <text
     xml:space="preserve"
     style="font-style:normal;font-weight:normal;font-size:14.56755352px;line-height:1.25;font-family:sans-serif;letter-spacing:0px;word-spacing:0px;fill:#000000;fill-opacity:1;stroke:none;stroke-width:0.36418885"
     x="580.83337"
     y="123.53102"
     id="text99-3-2-6"
     transform="scale(0.87634461,1.1411036)"><tspan
       sodipodi:role="line"
       id="tspan97-5-9-7"
       x="580.83337"
       y="123.53102"
       style="stroke-width:0.36418885">г. Жанаозен</tspan></text>
</svg>
