<?xml version="1.0" encoding="UTF-8" standalone="no"?>
<svg
   xmlns:dc="http://purl.org/dc/elements/1.1/"
   xmlns:cc="http://creativecommons.org/ns#"
   xmlns:rdf="http://www.w3.org/1999/02/22-rdf-syntax-ns#"
   xmlns:svg="http://www.w3.org/2000/svg"
   xmlns="http://www.w3.org/2000/svg"
   xmlns:sodipodi="http://sodipodi.sourceforge.net/DTD/sodipodi-0.dtd"
   xmlns:inkscape="http://www.inkscape.org/namespaces/inkscape"
   version="1.1"
   id="svg28"
   sodipodi:docname="Павлодарская.svg"
   width="445.02438"
   height="418.02509"
   inkscape:version="0.92.3 (unknown)">
  <metadata
     id="metadata34">
    <rdf:RDF>
      <cc:Work
         rdf:about="">
        <dc:format>image/svg+xml</dc:format>
        <dc:type
           rdf:resource="http://purl.org/dc/dcmitype/StillImage" />
        <dc:title />
      </cc:Work>
    </rdf:RDF>
  </metadata>
  <defs
     id="defs32" />
  <sodipodi:namedview
     pagecolor="#ffffff"
     bordercolor="#666666"
     borderopacity="1"
     objecttolerance="10"
     gridtolerance="10"
     guidetolerance="10"
     inkscape:pageopacity="0"
     inkscape:pageshadow="2"
     inkscape:window-width="1855"
     inkscape:window-height="1056"
     id="namedview30"
     showgrid="false"
     fit-margin-top="0"
     fit-margin-left="0"
     fit-margin-right="0"
     fit-margin-bottom="0"
     inkscape:zoom="2.36"
     inkscape:cx="288.15351"
     inkscape:cy="270.00226"
     inkscape:window-x="65"
     inkscape:window-y="24"
     inkscape:window-maximized="1"
     inkscape:current-layer="svg28" />
  <path
     d="m 247.85579,366.60799 -1.86007,7.10643 -1.39506,2.09013 -0.46502,2.92617 -2.32511,2.50815 -0.93004,10.86866 -3.25514,4.59827 -11.16048,-5.85235 h -15.34568 v 1.25408 l -3.25514,0.41802 v 4.18025 l -4.18517,2.50814 -0.46502,2.92619 -8.8354,-5.0163 h -2.79011 -3.25515 l -4.18518,1.25406 -7.44033,2.50816 -10.23044,0.83605 -1.39506,-2.09013 -3.25514,-0.83605 -1.86008,1.6721 -2.79012,2.09013 -12.55555,0.41803 -6.04526,-0.41803 -5.58025,0.83605 -6.04526,3.3442 -4.18518,1.6721 -4.65021,0.83604 -5.11522,3.76224 -6.51028,4.18025 -6.975306,0.41802 -2.325101,-2.09013 -3.720162,-0.41802 -4.650203,-7.94247 11.160488,-6.68841 4.185184,-0.41803 3.25514,-1.6721 h 3.25514 l 2.3251,0.41803 2.3251,-2.09012 0.46502,-2.50816 -3.72016,-1.25406 -4.18518,-2.09013 -5.58024,-4.18025 0.46502,-2.92618 -1.86008,-4.18025 -1.860086,-3.3442 -2.325101,0.41803 -7.905345,-8.36051 -1.860081,0.83605 -0.46502,4.59828 h -2.790121 l -3.720162,1.6721 -4.650203,-5.43433 -1.395061,-4.59827 2.325101,-1.6721 1.395061,-1.67211 -0.465019,-2.09012 -2.790122,-0.83605 h -3.255142 l -8.370365,-3.76222 -3.720162,2.92617 -5.115223,1.25408 -24.181052,0.41802 -10.230446,-7.52445 v -2.09012 l 0.930041,-1.25408 4.185181,-3.34421 -1.86008,-2.50814 0.46502,-4.59827 2.325101,-1.25408 4.185183,-0.41803 1.860081,-0.41803 -0.930042,-8.77852 0.930042,-4.18024 0.93004,-2.09014 h 47.432066 l 2.325101,-1.25407 -0.93004,-1.67211 -0.46502,-8.77852 8.370365,-4.18025 6.510283,1.25408 0.93004,2.09012 19.530847,4.59827 5.11523,-17.55704 15.81069,-0.41803 0.46502,-3.34421 h 13.9506 l 7.90535,-4.59827 0.46502,-9.61457 23.25101,0.41802 v 4.18025 l 4.6502,0.41803 1.86008,2.50815 12.09053,-3.34421 v -2.92617 l 0.46502,-2.09013 1.39507,-2.09011 3.25513,-0.83606 2.32511,-1.25407 1.39505,-2.50816 1.39506,-2.50815 h 6.04527 l 1.39506,6.27038 1.86009,6.68841 -4.1852,0.83604 -2.32509,1.6721 v 2.09013 l 1.39507,5.0163 3.25513,6.68839 9.3004,5.01632 -0.93003,22.15531 -12.55555,0.41803 v 4.59827 l -6.04526,6.68841 v 1.6721 l 0.93004,1.25408 0.46501,1.67209 -0.46501,1.25408 -1.39506,0.41803 -5.58024,0.41802 0.46502,6.27038 6.51028,7.10642 11.16049,4.18026 13.02057,5.43433 h 11.6255"
     id="path6"
     inkscape:connector-curvature="0"
     style="stroke-width:1.3788836" />
  <path
     d="m 221.34965,280.91286 13.02057,-2.09013 13.02055,-0.83605 6.51029,-1.67211 1.86008,-0.83604 -0.46502,-3.76223 -0.93004,-4.59828 -0.46502,-3.34419 13.48559,-1.25408 3.25513,-1.67211 0.93005,-1.67209 3.72017,-2.92618 2.32509,-2.50814 6.51028,-2.09013 3.72016,-0.41803 3.72017,0.41803 3.72016,2.50815 1.39506,2.09012 1.39507,2.50816 v 1.67209 l -0.93005,2.92618 -0.46502,2.92617 0.93005,5.0163 1.86008,2.09013 0.46501,1.25408 v 0.83605 2.92617 l 2.32511,0.83605 3.25514,-0.41802 2.3251,-0.83605 4.18518,1.6721 9.76543,6.27038 6.51029,6.27036 6.51028,4.59829 5.11522,3.76222 3.72016,5.0163 2.3251,0.41803 0.93005,0.83605 -0.93005,1.25407 -1.39506,0.83605 -0.46502,0.83605 0.46502,1.25408 0.93004,0.41802 h 2.79012 1.39506 l 1.86009,2.92617 -2.32511,0.83606 v 2.09013 l 0.46502,2.50814 3.25515,0.83605 0.46501,3.3442 3.72017,0.83605 1.39506,2.09013 -0.46502,3.76222 3.72016,1.67211 0.93004,1.6721 v 2.09012 l 1.86009,1.6721 h 3.25513 l 2.32511,1.25408 1.39505,1.67209 2.32511,0.41803 h 2.79012 l 1.86007,0.41803 1.86009,1.6721 v 1.6721 l 3.72016,2.50815 h 1.86008 l 0.93005,2.09013 5.11522,0.41802 6.51028,5.43433 -1.86008,1.67209 v 1.67211 1.6721 l 0.93004,1.25407 -0.46502,2.09013 -0.46502,1.6721 0.46502,12.12272 6.51028,1.25408 2.79013,12.95878 -3.25515,2.92617 -1.86008,2.92618 -3.25514,5.43433 -2.79013,4.59827 -2.79011,3.3442 -6.97531,4.18025 -5.11522,2.50815 -4.18518,0.41803 -4.65021,-0.83605 -11.16049,-2.50816 -15.81068,-5.43433 -10.69546,-3.34419 -6.51029,-1.67211 -4.18518,-4.59827 -5.11523,1.25408 -6.97529,-5.43433 3.25513,-7.10643 v -9.61457 l -14.88064,-7.94247 -10.23045,-0.41803 -5.11523,-1.25408 -7.44032,-5.0163 -6.04527,-3.76222 h -8.83537 l -7.90535,1.25407 -1.86007,2.50815 -4.1852,2.50815 -1.86007,-0.83604 h -11.6255 l -13.02057,-5.43433 -11.16049,-4.18026 -6.51028,-7.10642 -0.46502,-6.27038 5.58024,-0.41802 1.39506,-0.41803 0.46501,-1.25408 -0.46501,-1.67209 -0.93004,-1.25408 v -1.6721 l 6.04526,-6.68841 v -4.59827 l 12.55555,-0.41803 0.93003,-22.15531 -9.3004,-5.01632 -3.25513,-6.68839 -1.39507,-5.0163 V 283.421 l 2.32509,-1.6721"
     id="path8"
     inkscape:connector-curvature="0"
     style="stroke-width:1.3788836" />
  <path
     d="m 291.5677,251.6511 v -3.3442 l -4.18518,-2.92618 5.11522,-2.09012 3.25514,-1.6721 4.6502,-2.92619 h 9.76543 l 6.97531,2.50816 11.16049,-2.09013 0.46502,-4.18025 h 5.11522 l 0.46502,-13.79482 6.97529,-2.09013 2.32511,2.50816 10.23044,-0.41803 0.46502,6.68839 -2.32509,4.59829 -1.86009,5.85235 0.93005,5.0163 -0.93005,7.94247 6.51029,0.41803 4.18518,3.34419 6.51028,-5.43432 13.02057,0.41802 5.11522,-2.09012 1.39507,-3.76223 5.11522,0.83605 3.72015,0.83605 3.72017,-1.25407 3.25514,-2.50815 7.90535,1.25408 15.34566,-10.86865 19.06583,28.42569 -6.51028,0.83606 -1.39506,1.6721 0.93004,1.67209 v 1.25408 l -1.39507,1.6721 -2.32509,1.25408 -4.6502,1.67209 -5.58024,1.67211 3.72016,5.0163 -10.23045,7.94248 -7.44032,-0.83605 -4.6502,1.25408 h -5.11522 v 4.18025 l 3.25513,0.41802 v 9.19655 h -6.51028 l -5.11522,2.09013 -8.8354,5.0163 h -5.58024 l -4.18518,2.09012 -5.11522,-3.3442 -1.86008,2.92617 -3.25514,2.09013 -6.04526,0.41803 -5.58024,3.34419 -1.86009,-2.92617 h -1.39506 -2.79012 l -0.93004,-0.41802 -0.46502,-1.25408 0.46502,-0.83605 1.39506,-0.83605 0.93005,-1.25407 -0.93005,-0.83605 -2.3251,-0.41803 -3.72016,-5.0163 -11.6255,-8.36051 -6.51029,-6.27036 -9.76543,-6.27038 -4.18518,-1.6721 -2.3251,0.83605 -3.25514,0.41802 -2.32511,-0.83605 v -2.92617 -0.83605 l -0.46501,-1.25408 -1.86008,-2.09013 -0.93005,-5.0163 0.46502,-2.92617 0.93005,-2.92618 v -1.67209 l -1.39507,-2.50816 -1.39506,-2.09012"
     id="path10"
     inkscape:connector-curvature="0"
     style="stroke-width:1.3788836" />
  <path
     d="m 334.34957,221.13527 -5.58024,-0.41803 -0.46502,-12.95878 -0.46503,-4.59827 -1.86008,-1.67211 -1.86009,-0.83604 -1.86007,0.41802 -1.39506,1.25407 -0.93005,0.41803 -1.86008,-2.09012 -0.46502,-2.09013 v -3.76222 -4.18026 l 1.39506,-2.09012 0.46502,-1.25408 0.93005,-0.83605 v -4.59827 h -6.97531 v -2.50815 h -2.32509 v -3.76223 l 3.25513,0.41803 v -10.0326 h 11.16049 v -1.67211 h 2.79013 v -1.67209 h 9.76542 v -2.09013 h -1.39507 v -8.77852 h 12.09053 v 1.25408 l 17.20575,-0.41803 59.98761,79.84279 -15.34566,10.86865 -7.90535,-1.25408 -3.25514,2.50815 -3.72017,1.25407 -8.83537,-1.6721 -1.39507,3.76223 -5.11522,2.09012 -13.02057,-0.41802 -6.51028,5.43432 -4.18518,-3.34419 -6.51029,-0.41803 0.93005,-7.94247 -0.93005,-5.0163 1.86009,-5.85235 2.32509,-4.59829 -0.46502,-6.68839 -10.23044,0.41803 -2.32511,-2.50816"
     id="path12"
     inkscape:connector-curvature="0"
     style="stroke-width:1.3788836" />
  <path
     d="m 365.97094,152.57916 -29.7613,-37.20423 -39.99174,-27.171635 -5.58024,2.926169 0.46502,8.778522 h 1.86009 v 6.688404 l -4.65022,0.41803 -0.46502,-6.27038 h -6.97529 v 2.09013 l 0.46502,1.25408 0.46502,1.25406 -9.76543,5.43433 -4.6502,0.41802 -2.79013,0.83606 -1.86007,2.50815 -0.46502,3.3442 v 2.50816 l 5.58024,0.83603 v 8.77854 l -15.34568,0.41803 -0.465,10.86865 h 6.04526 l 0.46501,2.09012 2.3251,2.09013 0.46502,2.09013 v 2.09012 l 1.39507,2.92618 0.93004,1.25406 3.25514,1.25408 3.72015,0.83606 h 2.32511 l 0.93004,4.59827 0.46502,4.18025 1.86008,2.50815 2.3251,0.83606 3.72016,-0.41803 0.46502,-2.09013 h 7.90535 2.79013 l 1.86007,0.83605 1.39506,2.50816 2.32511,0.83604 3.72016,-0.41803 2.79012,-1.67209 3.25514,-0.41803 h 3.72016 1.86008 v -1.25407 h 11.16049 v -1.67211 h 2.79013 v -1.67209 h 9.76542 v -2.09013 h -1.39507 v -8.77852 h 12.09053 v 1.25408"
     id="path14"
     inkscape:connector-curvature="0"
     style="stroke-width:1.3788836" />
  <path
     d="m 296.2179,88.203295 -24.18105,-14.630887 -8.37036,4.18026 -5.11523,-2.508156 -3.25514,2.09013 -7.90535,-2.926182 -9.3004,6.270378 0.93005,2.090131 -1.86009,2.090117 -2.32511,2.508157 -7.44031,0.836052 -3.72017,0.836039 -0.46502,-1.672091 -2.3251,-1.254079 h -4.18519 l -0.465,-2.09013 h -5.11524 l -1.39505,-3.344196 -1.86009,-1.254078 -5.58024,-2.508144 -4.6502,2.090118 -0.93004,5.434326 -2.32511,1.672104 -0.46502,2.508157 -4.18518,2.508143 -2.79012,-0.836052 -3.72016,2.926183 -8.37036,2.508143 h -6.04526 l -5.11524,2.926183 3.72018,5.852349 -6.97531,8.3605 2.32511,2.50816 2.32509,0.41801 1.86008,1.25408 1.86009,1.25408 v 2.09013 l 1.86007,1.67209 3.25515,0.83605 1.86007,0.83605 0.93004,1.67211 -0.46502,2.50814 1.86009,2.50816 1.86008,0.83605 h 3.25514 l 2.79013,0.41801 V 133.35 l -0.46502,1.6721 1.39505,2.50815 2.3251,0.41802 3.25515,-0.83605 3.72016,0.41803 5.58024,0.83605 4.18518,2.50815 2.79013,2.50815 0.93004,3.34421 2.79011,2.92617 3.25515,-2.09012 1.86007,2.09012 2.79013,3.34421 3.25514,2.50814 4.65021,-3.76222 4.6502,-2.92619 4.6502,-2.50814 2.32511,-1.25408 3.25513,-0.41802 5.58025,-0.41803 h 3.25515 v -2.92617 l 0.465,-10.86865 15.34568,-0.41803 v -8.77854 l -5.58024,-0.83603 v -2.50816 l 0.46502,-3.3442 1.86007,-2.50815 2.79013,-0.83606 4.6502,-0.41802 9.76543,-5.43433 -0.46502,-1.25406 -0.46502,-1.25408 v -2.09013 h 6.97529 l 0.46502,6.27038 4.65022,-0.41803 v -6.688404 h -1.86009 l -0.46502,-8.778522"
     id="path16"
     inkscape:connector-curvature="0"
     style="stroke-width:1.3788836" />
  <path
     d="m 272.03685,73.572408 -39.99174,-28.425701 -0.46502,-4.18025 -4.6502,-4.598275 0.46502,-3.762226 8.83538,2.090125 2.3251,-1.6721 2.79012,4.18025 7.44033,-3.762226 1.86008,-2.926174 4.6502,-4.180252 1.39506,-4.180251 2.3251,-2.926175 -0.46502,-5.434326 -7.44032,-0.418025 9.76542,-2.926175 3.25514,-0.8360503 -0.93003,-2.9261761 -1.86009,-2.0901253 -5.11522,1.6721005 -3.72017,1.2540757 -5.11522,0.4180248 v 2.0901257 l -3.25513,2.090125 -2.32511,3.344201 h -3.72016 l -4.6502,0.836049 -4.65021,0.418026 -6.51027,-1.254075 -4.18519,-1.254076 -3.72016,-0.83605 -1.86009,0.83605 -0.46502,2.090125 -1.86007,1.672101 -2.32511,1.254075 0.46503,1.672101 1.39506,0.836049 -44.17693,15.048903 -4.6502,-1.6721 -13.02057,4.598275 4.6502,6.270377 -0.46502,1.254075 -1.39505,1.6721 -4.18519,1.254076 -21.39093,13.794824 -0.93004,2.926183 -2.79012,1.672091 0.46502,1.672105 1.86008,0.836052 3.72016,1.254078 1.86008,1.672092 v 2.09013 2.508144 l 2.3251,2.508156 3.72016,2.92617 7.90535,5.434326 8.83538,5.434326 2.32511,2.926183 8.83537,11.286681 4.1852,-4.59828 -3.72018,-5.852349 5.11524,-2.926183 h 6.04526 l 8.37036,-2.508143 3.72016,-2.926183 2.79012,0.836052 4.18518,-2.508143 0.46502,-2.508157 2.32511,-1.672104 0.93004,-5.434326 4.6502,-2.090118 5.58024,2.508144 1.86009,1.254078 1.39505,3.344196 h 5.11524 l 0.465,2.09013 h 4.18519 l 2.3251,1.254079 0.46502,1.672091 3.72017,-0.836039 7.44031,-0.836052 4.1852,-4.598274 -0.93005,-2.090131 9.3004,-6.270378 7.90535,2.926182 3.25514,-2.09013 5.11523,2.508156"
     id="path18"
     inkscape:connector-curvature="0"
     style="stroke-width:1.3788836" />
  <path
     d="m 125.09045,63.957833 -3.72016,-2.508143 -15.81069,-0.418026 -3.25514,6.688391 -6.045267,-0.418013 -3.255142,7.94247 -12.555547,-2.508144 -4.650203,9.196548 4.650203,3.344196 -6.510284,8.778535 -5.115222,-2.508157 0.93004,-2.508156 -2.790121,-0.836039 1.395061,-2.926183 -3.720163,-1.254078 1.395062,-2.090118 -7.905345,-2.09013 -1.860081,4.598274 -5.115223,-1.254065 1.860082,-5.434327 -12.555548,-2.926182 -7.905344,6.270378 -3.720163,-2.508156 h -6.975303 l -1.39506,4.598287 h -4.650204 l -0.93004,3.344195 -11.160486,7.94247 9.765425,12.95878 -0.93004,2.92617 L 2.3251013,107.01442 0,117.88307 l 0.46502026,4.59827 2.79012154,1.67211 3.720162,-0.83605 12.5555472,-6.68841 2.325101,2.50816 3.255142,-1.67211 1.39506,2.50816 -7.905343,6.27038 -0.930042,2.09012 -6.975303,5.85235 v 2.50816 l -5.5802432,3.34419 0.4650203,1.25408 2.3251013,0.41803 2.7901216,-1.25408 1.860081,-1.67211 2.325101,0.41803 0.93004,1.6721 -0.93004,2.09012 -2.790121,2.09013 -0.465021,1.67211 1.395061,0.83605 v 7.10642 h 6.045264 6.045263 l 4.650203,-4.59828 6.975303,-3.76222 5.115222,-2.09013 0.930042,3.34421 2.325101,4.18025 1.860081,-4.59828 1.39506,-4.18026 3.720162,-0.83604 h 7.905345 4.185182 l 1.860082,3.76223 2.790121,2.50814 3.720162,-1.25407 h 11.625506 l 7.905345,-1.25407 1.860081,-2.92619 3.255141,-2.50814 h 4.185187 l 3.72016,0.83605 h 5.11522 l 3.25514,-3.76223 2.79012,-2.50815 6.04527,-0.41802 6.51028,0.41802 h 4.18518 l 1.86008,2.92617 h 4.18519 l 1.86008,-1.67209 5.11521,-1.6721 5.11524,-1.25408 8.83538,-3.3442 4.6502,-2.50816 1.86008,-1.25406 3.25514,-0.41803 3.72017,0.83604 2.79011,1.25408 0.46502,-2.50814 -0.93004,-1.67211 -5.11522,-1.6721 -1.86007,-1.67209 v -2.09013 l -1.86009,-1.25408 -1.86008,-1.25408 -2.32509,-0.41801 -2.32511,-2.50816 2.79011,-3.76222 -11.16048,-14.212864 -8.83538,-5.434326 -7.90535,-5.434326 -3.72016,-2.92617 -2.3251,-2.508156 v -4.598274 l -1.86008,-1.672092 -3.72016,-1.254078 -1.86008,-0.836052 -0.46502,-1.672105 2.79012,-1.672091"
     id="path20"
     inkscape:connector-curvature="0"
     style="stroke-width:1.3788836" />
  <path
     d="m 45.106965,151.74311 h -5.115222 v 6.68839 h -5.580244 l 0.46502,10.03261 h -3.720163 l -3.255141,-4.18026 -4.185182,-1.67209 -4.185182,-1.25408 -2.790121,1.67211 -1.860082,0.83603 6.510284,7.10644 12.555547,0.83605 v 8.77852 l 6.045264,0.41803 -1.395062,19.22916 h 23.251013 l 0.93004,-20.06522 h 25.576114 l 5.580244,2.50816 3.255141,0.41803 h 3.720167 v 2.09011 l 15.34566,1.25408 -0.46502,3.34421 0.46502,2.92617 2.3251,2.92618 2.32511,0.41802 2.3251,-1.25407 0.93004,1.67209 v 2.09013 l 1.39506,2.50815 h 2.79012 l 2.79012,-0.83604 8.37037,-0.41803 v -4.59827 h 2.3251 l 2.3251,2.09011 2.79012,-0.41802 1.86008,-0.41803 3.25514,-0.41802 2.32511,1.25407 2.3251,1.67211 2.32509,-1.67211 -0.93004,-3.76222 -0.46502,-3.34419 0.46502,-3.76224 h 3.72017 l 6.97531,0.41803 4.6502,-2.09012 2.32509,-2.09013 26.04114,-0.41803 1.86009,-1.6721 10.69546,-0.83605 15.34566,-2.50815 5.11522,-1.6721 -11.16048,-20.0652 -3.25514,-2.50814 -2.79013,-3.34421 -1.86007,-2.09012 -3.25515,2.09012 -2.79011,-2.92617 -0.93004,-3.34421 -2.79013,-2.50815 -4.18518,-2.50815 -5.58024,-0.83605 -3.72016,-0.41803 -3.25515,0.83605 -2.3251,-0.41802 -1.39505,-2.50815 0.46502,-1.6721 v -1.67211 l -2.79013,-0.41801 h -3.25514 l -1.86008,-0.83605 -1.86009,-2.50816 -2.79011,-1.25408 -3.72017,-0.83604 -3.25514,0.41803 -1.86008,1.25406 -4.6502,2.50816 -8.83538,3.3442 -10.23045,2.92618 -1.86008,1.67209 h -4.18519 l -1.86008,-2.92617 -10.69546,-0.41802 -6.04527,0.41802 -2.79012,2.50815 -3.25514,3.76223 h -5.11522 l -3.72016,-0.83605 h -4.185187 l -3.255141,2.50814 -1.860081,2.92619 -7.905345,1.25407 H 72.54316 l -3.720162,1.25407 -2.790121,-2.50814 -1.860082,-3.76223 h -4.185182 -7.905345 l -3.720162,0.83604 -1.39506,4.18026"
     id="path22"
     inkscape:connector-curvature="0"
     style="stroke-width:1.3788836" />
  <path
     d="m 252.04099,141.29248 h 6.04526 l 0.46501,2.09012 2.3251,2.09013 0.46502,2.09013 v 2.09012 l 1.39507,2.92618 0.93004,1.25406 3.25514,1.25408 3.72015,0.83606 h 2.32511 l 1.39506,8.77852 1.86008,2.50815 2.3251,0.83606 3.72016,-0.41803 0.46502,-2.09013 h 10.69548 l 1.86007,0.83605 1.39506,2.50816 2.32511,0.83604 3.72016,-0.41803 2.79012,-1.67209 3.25514,-0.41803 h 3.72016 1.86008 v 8.77853 l -3.25513,-0.41803 v 3.76223 h 2.32509 v 2.50815 h 6.97531 v 4.59827 l -0.93005,0.83605 -0.46502,1.25408 -1.39506,2.09012 v 4.18026 3.76222 l 0.46502,2.09013 1.86008,2.09012 0.93005,-0.41803 1.39506,-1.25407 1.86007,-0.41802 1.86009,0.83604 1.86008,1.67211 0.46503,4.59827 0.46502,12.95878 5.58024,0.41803 -0.46502,13.79482 h -5.11522 l -0.46502,4.18025 -11.16049,2.09013 -6.97531,-2.50816 h -9.76543 l -4.6502,2.92619 -3.25514,1.6721 -1.39506,0.83604 -2.79013,-2.50814 -3.25513,-1.67211 -4.18518,-0.41802 -4.18519,-0.83606 -2.3251,-1.67209 -2.3251,-1.6721 -0.93005,-2.09013 -2.32509,-1.67209 -1.39506,-1.67211 -3.72016,-3.76222 -2.79013,-4.18025 -1.39506,-4.18026 -3.72016,-7.52444 -3.25515,-7.10643 -6.04526,-9.19655 2.79013,-1.25408 0.46502,-2.92617 -1.86009,-2.50816 -2.79011,-2.92617 -4.65021,-2.09013 -2.79012,-2.92617 -0.93004,-2.09013 -1.86009,-1.6721 -11.16048,-20.0652 4.65021,-3.76222 4.6502,-2.92619 4.6502,-2.50814 2.32511,-1.25408 3.25513,-0.41802 8.8354,-0.41803"
     id="path24"
     inkscape:connector-curvature="0"
     style="stroke-width:1.3788836" />
  <path
     style="fill:none;stroke:#000000;stroke-width:1px;stroke-linecap:butt;stroke-linejoin:miter;stroke-opacity:1"
     d="M 61.847694,200.23402 H 38.596681 L 36.7366,236.6022 h 1.860081 v 2.50814 h -5.580243 l -11.625506,9.61459 -1.860081,3.76222 -0.93004,8.36049 -0.930042,1.67211 v 2.50814 h 12.090528 l 5.115222,-0.83604 2.325101,4.18025 4.185182,-0.41803 11.160486,3.3442 v 2.50816 l -5.115222,-0.83605 -3.255141,1.6721 -11.625507,0.83605 -13.485587,5.0163 -0.46502,4.18025 -7.440325,3.3442 -2.3251012,4.18024 -3.2551417,4.18026 26.9711749,7.52445 -0.46502,1.6721 2.325101,5.85235 v 2.50815 l -2.790121,3.34421 -0.465022,1.67209 1.395062,2.50815 h 47.432066 l 2.325101,-1.25407 -0.93004,-1.67211 -0.46502,-8.77852 8.370365,-4.18025 6.510283,1.25408 0.93004,2.09012 19.530847,4.59827 5.11523,-17.55704 15.81069,-0.41803 0.46502,-3.34421 h 13.9506 l 7.90535,-4.59827 0.46502,-9.61457 23.25101,0.41802 v 4.18025 l 4.6502,0.41803 1.86008,2.50815 12.09053,-3.34421 0.46502,-5.0163 1.39507,-2.09011 5.58024,-2.09013 2.79011,-5.01631 h 6.04527 l -0.93005,-5.43432 -4.18517,-6.68841 1.39506,-6.27037 h 12.55555 l -0.46502,-14.21285 -32.55143,0.41802 -3.72015,3.3442 -7.90535,0.83605 -14.0676,-3.4891 -8.25337,-4.03534 v -2.50816 l -1.86009,-2.50814 v -2.09013 l 0.93004,-1.25408 -0.46502,-1.67211 -1.39505,-0.83603 -0.46502,-2.92619 6.51027,-4.59827 -6.04525,-3.3442 -0.46502,-11.7047 -4.65021,-2.92618 -7.90534,1.25407 -2.3251,-2.09011 h -2.3251 v 4.59827 l -8.37037,0.41803 -2.79012,0.83604 h -2.79012 l -1.39506,-4.59828 -0.93004,-1.67209 -2.3251,1.25407 -4.65021,-3.3442 v -6.27038 L 100.9094,185.1851 v -2.09011 l -6.975308,-0.41803 -5.580244,-2.50816 H 62.777734 Z"
     id="path19"
     inkscape:connector-curvature="0" />
  <path
     style="fill:#000000;fill-opacity:1;stroke:#ffffff;stroke-width:0.42372882;stroke-opacity:1"
     d="m 32.440158,319.89371 c -0.696927,-1.30222 -0.534421,-1.88205 1.044414,-3.72657 1.845896,-2.15651 1.946661,-4.07547 0.412289,-7.85159 -0.684963,-1.6857 -0.981076,-3.04349 -0.821847,-3.76845 0.189047,-0.86073 0.0644,-1.18905 -0.518222,-1.3651 -0.421925,-0.1275 -6.29234,-1.7762 -13.045368,-3.66379 -6.753028,-1.88759 -12.3609689,-3.51472 -12.4620915,-3.61584 -0.1011225,-0.10112 0.1804379,-0.58268 0.6256899,-1.07014 0.445252,-0.48744 1.572261,-2.12306 2.5044646,-3.63469 1.619675,-2.62642 1.8548,-2.81898 5.29661,-4.33777 l 3.601695,-1.58934 0.369204,-2.14465 0.369204,-2.14465 6.410457,-2.38422 c 6.084149,-2.26285 6.712336,-2.40782 12.340995,-2.84798 4.321166,-0.33791 6.367215,-0.68653 7.539694,-1.28469 1.400946,-0.71471 1.918379,-0.76377 3.99898,-0.37915 1.314402,0.24298 2.545479,0.44178 2.735729,0.44178 0.19025,0 0.345906,-0.84326 0.345906,-1.87392 0,-1.74348 -0.09586,-1.90384 -1.377118,-2.30386 -8.784759,-2.74266 -10.342468,-3.11062 -12.224751,-2.88769 l -1.969983,0.23332 -1.161107,-2.13334 c -1.095532,-2.01285 -1.236133,-2.11788 -2.489498,-1.85963 -0.730615,0.15054 -4.522246,0.38164 -8.425848,0.51356 -7.084757,0.23943 -7.097457,0.23821 -7.097457,-0.68435 0,-0.50831 0.172273,-1.2461 0.382828,-1.63953 0.210556,-0.39342 0.609768,-2.61601 0.887138,-4.93908 0.72841,-6.10069 1.298704,-6.99271 8.002111,-12.51637 l 5.649043,-4.65487 h 2.920796 2.920796 v -1.90678 c 0,-1.62429 -0.12555,-1.90678 -0.847458,-1.90678 -1.029336,0 -1.029336,1.7103 0,-17.37288 0.458828,-8.50636 0.837208,-15.99047 0.840845,-16.63136 l 0.0066,-1.16525 H 50.80705 62.409203 l 0.255538,-3.91949 c 0.140546,-2.15572 0.378343,-6.63665 0.528432,-9.95763 l 0.272898,-6.03813 h 12.387077 12.387076 l 2.803542,1.27118 c 1.541945,0.69916 3.522772,1.27329 4.401827,1.27585 0.879059,0.003 2.31333,0.12286 3.187271,0.26731 1.278881,0.21138 1.588986,0.44582 1.588986,1.20124 0,0.91068 0.21109,0.95424 7.09746,1.46467 3.9036,0.28934 7.3358,0.59875 7.62712,0.68758 0.35389,0.10791 0.52966,1.08932 0.52966,2.95749 0,2.66588 0.0716,2.86354 1.53902,4.24747 2.33353,2.20081 3.60861,2.72978 4.92169,2.04179 1.00053,-0.52423 1.10293,-0.48438 1.52166,0.59219 0.24692,0.63483 0.68551,1.98454 0.97463,2.99934 l 0.52569,1.84509 2.56797,-0.24606 c 1.96194,-0.18799 9.3668,-0.84722 12.20781,-1.08682 0.17479,-0.0147 0.3178,-1.07553 0.3178,-2.35731 0,-2.73826 0.68506,-3.0506 2.6216,-1.19528 l 1.18492,1.13523 4.03882,-0.55451 4.03882,-0.55451 2.00283,1.23632 2.00284,1.23633 0.26205,4.85668 c 0.14413,2.67118 0.28714,5.33704 0.3178,5.92414 0.0443,0.84747 0.59399,1.36335 2.66765,2.50335 2.9554,1.62474 3.04356,1.29477 -1.11951,4.1902 -1.95191,1.35757 -2.01247,1.46284 -1.79104,3.11369 0.12604,0.93974 0.6425,2.14857 1.14767,2.68631 0.74402,0.79197 0.83111,1.14098 0.45846,1.83727 -0.69897,1.30605 -0.53523,3.12557 0.38743,4.30512 0.45945,0.58738 0.83281,1.7269 0.83803,2.55775 0.009,1.48328 0.0555,1.52075 4.56451,3.70833 3.44794,1.67278 6.25442,2.62946 11.54661,3.93605 l 6.99153,1.72614 4.23728,-0.48508 c 4.0516,-0.46381 4.31157,-0.55578 5.93221,-2.09864 l 1.69491,-1.61357 15.73037,-0.25202 15.73037,-0.25203 0.26073,1.57722 c 0.1434,0.86746 0.26283,3.72234 0.26539,6.34416 l 0.005,4.76695 h -6.11011 -6.1101 l -0.66956,2.94381 c -0.36825,1.6191 -0.66955,3.34755 -0.66955,3.84099 0,0.49345 0.93703,2.45793 2.08229,4.36551 1.35356,2.25453 2.17825,4.17272 2.35647,5.48104 l 0.27418,2.01271 h -2.79991 c -2.69587,0 -2.82672,0.049 -3.52172,1.31793 -1.78379,3.25693 -2.42145,3.88001 -4.91322,4.80086 -2.96971,1.09748 -4.48729,2.74981 -4.49873,4.89816 -0.0168,3.15035 -0.0493,3.1771 -5.86076,4.82426 l -5.36437,1.52043 -1.09018,-1.26556 c -0.91772,-1.06536 -1.40019,-1.26557 -3.04989,-1.26557 h -1.95971 l -0.12807,-2.22457 -0.12808,-2.22458 -12.39407,-0.11233 -12.39406,-0.11233 v 3.55513 c 0,5.88114 -0.0271,5.93639 -4.09477,8.33896 l -3.55835,2.10176 h -7.18538 -7.18539 l -0.26189,1.63778 -0.26189,1.63778 -7.89361,0.37493 -7.8936,0.37493 -2.48057,8.47458 c -1.3643,4.66101 -2.5272,8.52235 -2.58421,8.58075 -0.13671,0.14004 -18.086937,-4.10996 -18.539128,-4.38943 -0.192148,-0.11875 -0.349356,-0.48397 -0.349356,-0.81159 0,-0.87096 -1.095415,-1.32082 -4.661017,-1.91418 l -3.177966,-0.52885 -4.34322,2.18382 -4.34322,2.18381 0.0085,2.64445 c 0.0047,1.45444 0.186775,3.87789 0.404648,5.38546 0.295305,2.04334 0.266169,2.82362 -0.114449,3.06555 -0.280822,0.17848 -11.134174,0.32744 -24.11856,0.33101 -22.910338,0.006 -23.620933,-0.0178 -24.046608,-0.81312 z"
     id="path21"
     inkscape:connector-curvature="0" />
  <path
     style="fill:none;stroke:#000000;stroke-width:1px;stroke-linecap:butt;stroke-linejoin:miter;stroke-opacity:1"
     d="m 163.2221,214.02884 -6.04525,-3.3442 -0.46502,-11.7047 2.32509,-1.67211 -1.39506,-7.10641 0.46502,-3.76224 10.69548,0.41803 4.6502,-2.09012 2.32509,-2.09013 26.04114,-0.41803 1.86009,-1.6721 10.69546,-0.83605 15.34566,-2.50815 5.11522,-1.6721 1.86009,1.6721 0.93004,2.09013 2.79012,2.92617 4.65021,2.09013 4.6502,5.43433 -0.46502,2.92617 -2.79013,1.25408 6.04526,9.19655 8.37037,18.81113 10.23044,11.28667 5.58025,5.43432 8.37037,1.25408 6.04526,4.18025 -3.72016,1.25408 4.18518,2.92618 v 3.3442 h -7.44033 l -6.51028,2.09013 -6.04526,5.43432 -4.18518,3.3442 -13.48559,1.25408 1.86008,11.7047 -8.37037,2.50815 -13.02055,0.83605 -13.02057,2.09013 -3.25515,-12.95879 -0.93005,-5.43432 -4.18517,-6.68841 1.39506,-6.27037 h 12.55555 l -0.46502,-14.21285 -32.55143,0.41802 -3.72015,3.3442 -7.90535,0.83605 -22.32097,-7.52444 v -2.50816 l -1.86009,-2.50814 0.93004,-3.34421 -0.46502,-1.67211 -1.39505,-0.83603 -0.46502,-2.92619 z"
     id="path23"
     inkscape:connector-curvature="0" />
  <path
     style="fill:#000000;fill-opacity:1;stroke:#ffffff;stroke-width:0.21186441;stroke-opacity:1"
     d="m 220.15762,273.61002 c -0.90048,-3.64142 -1.81094,-7.67536 -2.02324,-8.96432 l -0.38602,-2.34355 -2.05728,-3.29392 -2.05729,-3.29391 0.60321,-2.73118 0.6032,-2.73117 6.36148,-0.056 6.36148,-0.056 -0.0794,-2.06262 c -0.0437,-1.13444 -0.16343,-4.57249 -0.26615,-7.64011 -0.10272,-3.06762 -0.21926,-5.60506 -0.25898,-5.63877 -0.0397,-0.0337 -7.55634,0.0357 -16.70359,0.15428 l -16.63135,0.21556 -1.83591,1.67594 -1.8359,1.67594 -3.79439,0.41401 -3.79439,0.414 -10.89513,-3.68434 -10.89513,-3.68434 -0.065,-1.24182 c -0.0558,-1.06595 -0.18353,-1.39879 -0.90178,-2.3501 l -0.83676,-1.10827 0.44141,-1.60896 c 0.39356,-1.43451 0.41184,-1.72435 0.16866,-2.67321 -0.2074,-0.80923 -0.41657,-1.13861 -0.87289,-1.37459 -0.67497,-0.34904 -1.00566,-1.0362 -1.00566,-2.08974 0,-0.68009 0.15599,-0.82261 3.40001,-3.10661 3.06488,-2.15786 3.36246,-2.42134 3.01907,-2.67311 -0.20952,-0.15361 -1.68019,-0.98846 -3.26816,-1.85524 l -2.88721,-1.57595 -0.1379,-3.97563 c -0.0758,-2.18659 -0.19261,-4.65154 -0.25949,-5.47767 l -0.1216,-1.50203 1.134,-0.81536 c 0.6237,-0.44844 1.17656,-0.84792 1.22858,-0.88774 0.052,-0.0398 -0.2242,-1.71415 -0.61381,-3.72074 -0.60957,-3.13946 -0.68646,-3.8803 -0.55124,-5.31121 l 0.15715,-1.66286 1.83377,0.12355 c 1.00858,0.0679 3.32406,0.18372 5.1455,0.25726 l 3.31172,0.13371 2.44678,-1.10831 c 1.64193,-0.74374 2.81952,-1.44052 3.5799,-2.11824 l 1.13311,-1.00993 11.64652,-0.13678 c 14.53676,-0.17073 14.22973,-0.14741 15.40102,-1.16977 l 0.90652,-0.79124 4.97881,-0.37186 c 6.89564,-0.51503 19.55065,-2.54738 23.19916,-3.72572 l 2.54237,-0.82109 0.7145,0.67613 c 0.39298,0.37188 0.92128,1.11432 1.17399,1.64988 0.25271,0.53555 1.10464,1.69174 1.89318,2.5693 1.33564,1.48645 1.59357,1.66618 3.7715,2.62796 2.33304,1.03028 2.34152,1.03671 4.15501,3.15103 0.99946,1.16525 1.99968,2.32399 2.22272,2.57497 0.34121,0.38394 0.38232,0.64206 0.2592,1.62745 l -0.14632,1.17114 -1.56638,0.68837 c -0.86151,0.37861 -1.56638,0.72628 -1.56638,0.77262 0,0.0463 1.39901,2.19806 3.10891,4.78162 l 3.10891,4.69739 4.2672,9.57601 c 3.67043,8.23683 4.39949,9.71826 5.21318,10.59322 0.5203,0.55947 1.22716,1.39857 1.57082,1.86467 0.34365,0.4661 1.85435,2.13028 3.35711,3.69817 3.0947,3.22883 5.64435,6.07978 5.6465,6.31377 8.5e-4,0.0866 0.35832,0.39406 0.79449,0.68313 0.43618,0.28908 1.46042,1.15868 2.2761,1.93246 l 1.48305,1.40688 4.13135,0.59295 4.13136,0.59295 2.33051,1.58607 c 1.28178,0.87233 2.41044,1.65588 2.50814,1.7412 0.0977,0.0853 -0.59831,0.41356 -1.54669,0.72939 -0.94837,0.31584 -1.69568,0.65309 -1.66068,0.74945 0.035,0.0964 1.06469,0.87348 2.28821,1.72693 l 2.22458,1.55173 0.0635,1.21822 0.0635,1.21822 -3.45337,0.007 -3.45337,0.007 -3.41799,1.11704 -3.41799,1.11704 -2.93794,2.64366 c -1.61587,1.45402 -3.89134,3.41217 -5.05659,4.35145 l -2.11865,1.70779 -6.83383,0.63408 c -3.75861,0.34875 -6.88738,0.68763 -6.95282,0.75307 -0.0931,0.0931 1.36188,9.95337 1.68269,11.40336 0.0581,0.26236 -0.79066,0.58047 -4.08086,1.52954 l -4.15416,1.19829 -6.5678,0.42135 c -5.41486,0.34738 -7.60081,0.59026 -12.45248,1.38359 -3.23658,0.52923 -5.9076,0.96224 -5.93561,0.96224 -0.028,0 -0.78767,-2.97934 -1.68815,-6.62076 z"
     id="path25"
     inkscape:connector-curvature="0" />
  <ellipse
     style="fill:#000000;fill-opacity:1;stroke:#ffffff;stroke-opacity:1"
     id="path76-3"
     cx="341.94916"
     cy="29.889492"
     rx="18.855932"
     ry="18.432203" />
  <text
     xml:space="preserve"
     style="font-style:normal;font-weight:normal;font-size:14.56755352px;line-height:1.25;font-family:sans-serif;letter-spacing:0px;word-spacing:0px;fill:#000000;fill-opacity:1;stroke:none;stroke-width:0.36418885"
     x="335.3638"
     y="58.136196"
     id="text99-3-2-6"
     transform="scale(0.87634461,1.1411036)"><tspan
       sodipodi:role="line"
       id="tspan97-5-9-7"
       x="335.3638"
       y="58.136196"
       style="stroke-width:0.36418885">г. Павлордар</tspan></text>
</svg>
