<?xml version="1.0" encoding="UTF-8" standalone="no"?>
<svg
   xmlns:dc="http://purl.org/dc/elements/1.1/"
   xmlns:cc="http://creativecommons.org/ns#"
   xmlns:rdf="http://www.w3.org/1999/02/22-rdf-syntax-ns#"
   xmlns:svg="http://www.w3.org/2000/svg"
   xmlns="http://www.w3.org/2000/svg"
   xmlns:sodipodi="http://sodipodi.sourceforge.net/DTD/sodipodi-0.dtd"
   xmlns:inkscape="http://www.inkscape.org/namespaces/inkscape"
   version="1.1"
   id="svg30"
   sodipodi:docname="Северо-Казахстанкая.svg"
   width="600.35596"
   height="400.02921"
   inkscape:version="0.92.3 (unknown)">
  <metadata
     id="metadata36">
    <rdf:RDF>
      <cc:Work
         rdf:about="">
        <dc:format>image/svg+xml</dc:format>
        <dc:type
           rdf:resource="http://purl.org/dc/dcmitype/StillImage" />
        <dc:title />
      </cc:Work>
    </rdf:RDF>
  </metadata>
  <defs
     id="defs34" />
  <sodipodi:namedview
     pagecolor="#ffffff"
     bordercolor="#666666"
     borderopacity="1"
     objecttolerance="10"
     gridtolerance="10"
     guidetolerance="10"
     inkscape:pageopacity="0"
     inkscape:pageshadow="2"
     inkscape:window-width="923"
     inkscape:window-height="636"
     id="namedview32"
     showgrid="false"
     fit-margin-top="0"
     fit-margin-left="0"
     fit-margin-right="0"
     fit-margin-bottom="0"
     inkscape:zoom="1.18"
     inkscape:cx="538.78298"
     inkscape:cy="336.77908"
     inkscape:window-x="809"
     inkscape:window-y="170"
     inkscape:window-maximized="0"
     inkscape:current-layer="svg30" />
  <path
     d="m 132.07831,68.783302 1.80106,-7.240348 0.60036,-2.413449 1.20071,-1.206724 7.20427,-0.603363 4.20249,1.810087 3.00178,1.810087 10.80641,-1.206725 3.00178,-1.206724 -1.20071,-1.206725 v -1.810087 l 0.60035,-1.206724 1.20072,-5.430261 1.20071,-1.206724 h 1.80107 l 1.80106,-0.603363 -0.60035,-1.206724 -1.80107,-1.810087 -1.20071,-1.810087 -6.00356,-4.826899 0.60035,-1.206724 1.20072,-0.603362 0.60035,-1.206725 -0.60035,-0.603362 h -1.20072 l -0.60035,-0.603363 0.60035,-0.603362 0.60036,-1.206725 1.80107,0.603363 3.00178,-0.603363 1.80107,-0.603362 2.40142,0.603362 2.40142,1.206725 0.60036,-0.603362 0.60035,-1.206725 0.60036,-0.603362 h 0.60036 l 1.80106,0.603362 h 2.40143 3.60213 l 3.00178,-1.810087 1.80107,-1.206724 3.00178,3.016811 1.80107,3.016812 0.60035,3.016811 1.20072,1.206725 14.40854,-0.603363 1.80107,4.223537 1.20071,3.620173 v 0.603363 l -1.80107,0.603362 v 3.620174 l 0.60036,0.603362 0.60035,2.413449 1.20071,0.603362 h 1.20072 v 1.810087 1.810087 l -0.60036,2.413449 h -3.60214 v 0.603363 l -0.60035,1.206724 h -8.40498 v 4.223536 l 1.20071,1.206725 1.80107,0.603362 V 73.6102 l -6.00356,0.603363 0.60035,9.050434 h -2.40142 l -1.80107,-0.603362 h -1.80107 v 0.603362 l 0.60036,0.603362 h 1.20071 v 5.430261 l 0.60036,0.603362 v 0.603363 l -0.60036,1.206724 -3.60214,3.016812 -6.60391,4.223536 v 1.810083 l -0.60036,1.81009 h -1.20071 l -1.20071,-1.20672 h -1.20071 -1.20071 l -2.40143,0.60336 -1.80107,1.81009 -0.60035,0.60336 0.60035,0.60336 0.60036,1.20672 -0.60036,2.41345 -0.60035,0.60337 v 1.81008 l 0.60035,3.62018 1.20072,3.62017 v 3.01681 h -6.00356 v 1.20673 h -5.40321 -3.00178 l -2.40142,-1.20673 -1.20071,-1.20672 -0.60036,-1.81009 -5.4032,0.60336 v 3.62018 l -2.40142,1.20672 v 3.62017 h -5.40321 v -4.22353 l -6.00356,-0.60336 -1.20071,0.60336 -0.60036,4.22353 h -7.20427 v -18.70423 h -6.00356 l -3.00178,-0.60336 -5.4032,2.41345 -4.80285,-0.60336 v -6.63699 -6.03362 l 13.80819,0.603362 7.80463,-2.413449 3.00178,2.413449 h 2.40142 l 5.4032,-3.016811 1.80107,-1.206725 v -1.810087 -1.206724 h -3.60213 l -1.20072,-4.223536 1.80107,-1.206725 -0.60035,-2.413449 -1.20072,-5.430261 -1.20071,-1.810087 -1.20071,-1.206724 -0.60036,-3.016812 -1.80106,-1.810087"
     id="path2"
     inkscape:connector-curvature="0"
     style="stroke-width:1.15964782" />
  <path
     d="m 120.07119,142.3935 h 0.60035 v 10.25716 h -1.20071 v 7.24035 h 2.40142 l 1.20072,1.20672 1.20071,0.60337 2.40142,0.60336 h 2.40143 l -0.60036,1.81008 0.60036,1.81009 -3.00178,2.41345 -3.00178,-0.60336 -1.80107,1.81009 -1.80107,0.60336 0.60036,1.20672 0.60035,1.81009 1.20071,1.20672 -1.20071,3.01682 1.20071,1.81008 2.40143,1.20673 7.80463,2.41345 v 10.86052 l 4.20249,2.41345 4.20249,0.60336 2.40142,7.24035 v 5.43026 6.03362 h -4.80285 v -0.60336 h -1.20071 v 8.44707 l 2.40143,4.22354 h -3.60214 l -6.00356,1.81008 1.20071,3.01681 -2.40142,3.01682 v 1.20672 l -4.80285,1.20673 -0.60035,-1.20673 -4.2025,1.20673 -0.60035,1.81008 -3.60214,4.8269 -6.60391,-1.20672 -0.60036,-1.20673 -1.20071,-0.60336 -0.60036,-0.60336 v -2.41345 l -1.80106,-0.60336 -7.204275,-1.20673 -0.600356,5.43026 9.005341,9.6538 -3.00178,3.01681 h -4.202493 l -1.801068,1.81009 v 3.01681 l -1.200712,2.41345 -1.801068,1.20672 -2.401423,1.20673 -1.801068,1.20672 -5.403203,-8.44707 h -3.602136 l -0.600356,1.20672 -1.200712,1.20673 -2.401424,-1.20673 -1.200711,-0.60336 -1.200712,1.81009 -0.600356,2.41345 -5.403204,-0.60337 -4.202491,-1.20672 v -22.3244 h 2.401424 v -18.10087 h 10.806406 v -2.41345 l 1.801068,-0.60337 v -13.27397 l 3.00178,-0.60336 v -10.25716 l 4.802847,1.81009 0.600356,-9.05043 -5.403203,-1.20673 -1.200712,-3.62017 3.00178,-3.62018 -3.00178,-8.44707 -2.401424,-5.43026 2.401424,-0.60336 -1.200712,-4.22354 -1.200712,-4.22353 7.204271,-0.60337 v -1.81008 h 8.404983 l 1.200712,1.81008 9.605699,-0.60336 3.60213,-0.60336 v -2.41345 l 3.00178,-1.20672 v -4.8269 h 1.80107 v -1.20673"
     id="path4"
     inkscape:connector-curvature="0"
     style="stroke-width:1.15964782" />
  <path
     d="m 291.77298,128.51617 v 4.22354 4.22353 h -1.80106 v 8.44707 l 1.20071,1.81009 2.40142,1.20673 h 3.00178 l 0.60036,8.44707 -6.60392,3.62017 -1.20071,2.41345 -3.60214,3.01681 -2.40142,2.41345 h -4.80285 l -3.00178,-1.20672 -1.80106,0.60336 -0.60036,-1.20673 -2.40142,0.60337 1.20071,6.03362 -9.00534,0.60336 v 6.63699 l -1.20071,0.60336 h -6.60392 v -5.43026 -7.24035 l -1.20071,-1.20672 h -2.40142 -3.00178 v -0.60337 -1.81008 -4.22354 -0.60336 h 4.20249 v -2.41345 h -1.80107 l -3.00178,-5.43026 -3.60214,-5.43026 -1.20071,-1.20673 -3.00178,1.20673 -0.60035,2.41345 -0.60036,1.81008 -3.00178,1.20673 -2.40142,1.20672 h -2.40143 v 6.03363 h -6.60391 l -0.60036,-2.41345 -0.60035,-3.01681 -1.20072,-0.60337 h -3.00177 l -1.80107,-0.60336 -0.60036,-1.81009 v -2.41344 l 1.80107,-0.60337 0.60036,-1.81008 v -3.01682 l 2.40142,-0.60336 v -4.8269 l -1.80107,-2.41345 -7.80463,-3.62017 1.20072,-2.41345 1.20071,-2.41345 0.60035,-3.62017 v -3.62018 l 1.80107,-1.81008 1.20071,-1.81009 7.20427,-7.84371 h 4.2025 l 3.00178,0.60336 -1.20072,-4.82689 6.60392,-6.63699 4.80285,-4.223536 3.00178,8.447076 h 2.40142 l 1.80107,-1.810091 h 4.20249 l 0.60036,-2.413449 1.20071,-2.413449 1.20071,-3.016812 V 89.29762 87.487533 l 1.80107,-0.603362 1.80106,-1.206725 v -0.603362 l -1.20071,-3.016812 v -1.810086 l 1.20071,-1.810087 v -1.206725 l -1.80106,-1.810087 v -1.206724 -1.810087 h 0.60035 l 3.00178,-0.603363 0.60036,-1.206724 1.20071,-1.810087 v -4.826898 h 0.60036 l 3.00178,1.810086 h 3.60213 l 3.00178,-3.016811 v 4.223536 h 3.00178 l 0.60036,1.206725 v 1.810087 h -1.20072 -1.20071 v 1.810086 l 0.60036,2.41345 v 1.810087 l 1.80107,1.206724 h 3.00178 l 0.60035,1.810087 1.20071,0.603362 v 6.033623 0.603363 l 4.80285,2.413449 v 1.206724 l 0.60036,1.206725 h 1.20071 3.60213 l 0.60036,0.603362 v 1.810087 l 1.20071,0.603362 1.80107,-0.603362 2.40142,1.206725 v 18.100869 h -1.80106 v 6.63698 l 8.40498,0.60337 v 7.84371"
     id="path6"
     inkscape:connector-curvature="0"
     style="stroke-width:1.15964782" />
  <path
     d="m 372.22068,182.21541 9.00534,0.60337 v 13.27397 14.48069 l -0.60036,4.22354 -0.60035,3.62017 h -3.60214 l -1.20071,4.8269 v 3.01681 l 0.60035,3.01681 h 4.80285 l -3.60213,13.27397 -0.60036,4.8269 -31.81886,1.20673 v 5.43026 4.8269 l -0.60036,0.60336 -4.20249,0.60336 -3.00178,1.20672 h -1.80107 l 0.60036,6.63699 v 3.01681 l -2.40143,1.20673 -3.00178,0.60336 h -3.60213 l -1.20071,-1.20673 -1.20072,-3.62017 -1.20071,-4.8269 -1.80107,-3.01681 -1.20071,-2.41345 -1.20071,-1.81009 h -0.60036 -0.60035 l -0.60036,1.20673 h -2.40142 l -5.4032,-0.60336 -3.60214,-1.20673 -8.40498,-0.60336 1.20071,-2.41345 0.60035,-4.8269 h 3.00178 v -9.65379 l -2.40142,-0.60337 -1.80107,-0.60336 -1.80107,-1.20672 h -0.60035 l -1.20071,0.60336 h -1.20072 l -2.40142,-1.20673 h -1.80107 -0.60035 v 1.20673 h -0.60036 l -1.20071,-0.60336 v -1.20673 -7.24035 l -1.20071,-7.24034 h -14.40854 v -1.81009 l -8.40499,-0.60336 -1.20071,5.43026 -4.20249,0.60336 -0.60036,0.60336 v 1.81009 l -0.60035,1.20672 -1.80107,0.60337 -1.80107,0.60336 0.60036,2.41345 h 1.20071 l 1.20071,1.81008 0.60036,2.41345 -0.60036,1.81009 -2.40142,0.60336 h -2.40143 l -2.40142,0.60337 -0.60036,-1.81009 -0.60035,-1.81009 -1.80107,-1.20672 -1.20071,-0.60337 -0.60036,-1.20672 v -0.60336 h -1.20071 v -3.62018 l -7.80463,0.60337 v -4.22354 l -7.80462,-0.60336 -0.60036,3.01681 h -10.80641 l -0.60035,-2.41345 -0.60036,-2.41345 h -4.80285 v 1.81009 l -1.20071,1.20672 h -1.80107 l -2.40142,-0.60336 -0.60035,1.20672 0.60035,3.01682 1.20071,1.20672 -0.60035,1.20673 0.60035,1.81008 v 1.81009 h -9.60569 v -3.62017 -3.01682 h 2.40142 v -4.22353 l -0.60035,-1.81009 h 1.20071 v -6.03362 l 1.80107,0.60336 1.20071,-4.22354 2.40142,1.20673 h 2.40142 l 0.60036,-1.81009 v -3.62017 l -1.20071,-0.60336 h -1.80107 l -4.20249,-0.60337 -3.60214,-0.60336 h -1.20071 v -3.01681 h 1.80107 l 1.20071,-0.60336 v -0.60336 -3.01682 l 12.00712,0.60337 0.60036,-8.44708 -6.00356,-0.60336 -3.60214,-1.81009 -12.00712,-0.60336 v -4.8269 l 7.20427,-0.60336 0.60036,-1.81009 12.00712,0.60337 v -4.8269 h -4.20249 l -1.20071,-0.60336 1.20071,-13.27397 0.60035,-1.20673 0.60036,-1.81009 -0.60036,-4.82689 0.60036,-0.60337 h 1.80107 l 1.80106,-0.60336 1.20072,-1.20672 0.60035,-6.63699 2.40143,1.81009 1.80106,1.20672 1.80107,0.60337 v 2.41344 l 0.60036,1.81009 1.80107,0.60336 h 3.00177 l 1.20072,0.60337 0.60035,3.01681 0.60036,2.41345 h 6.60391 v -6.03363 h 2.40143 l 5.4032,-2.41345 0.60036,-1.81008 0.60035,-2.41345 3.00178,-1.20673 4.80285,6.63699 3.00178,5.43026 h 1.80107 v 2.41345 h -4.20249 v 0.60336 6.03362 0.60337 h 3.00178 2.40142 l 1.20071,1.20672 v 7.24035 5.43026 h 6.60392 l 1.20071,-0.60336 v -6.63699 l 9.00534,-0.60336 -1.20071,-6.03362 2.40142,-0.60337 0.60036,1.20673 1.80106,-0.60336 3.00178,1.20672 h 4.80285 l 2.40142,-2.41345 3.60214,-3.01681 1.20071,-2.41345 6.60392,-3.62017 -0.60036,-8.44707 h -3.00178 l -2.40142,-1.20673 -1.20071,-1.81009 v -8.44707 h 1.80106 v -4.22353 -4.22354 l 13.80819,-0.60336 v 3.01681 h 3.60214 l 0.60035,3.01681 1.80107,1.20672 0.60035,12.67061 10.20606,0.60337 2.40142,-1.81009 h 8.40498 l 1.80107,1.20672 12.60747,-0.60336 v 4.8269 l 0.60036,4.8269 0.60036,25.34121"
     id="path8"
     inkscape:connector-curvature="0"
     style="stroke-width:1.15964782" />
  <path
     d="m 21.612814,270.30631 0.600355,-12.67061 h -1.801067 l 1.200712,-18.70423 -10.806407,-0.60336 v -16.29078 l 0.600356,-3.62018 0.600356,-2.41345 1.801067,-1.20672 v -3.01681 l 1.200712,-4.22354 0.600356,-6.03362 -10.2060506,-1.20673 -0.6003559,-16.29078 -1.8010678,1.20673 -1.8010678,-9.05044 24.0142371,-14.48069 4.202492,15.68742 1.200712,1.81008 h 4.202491 l 1.200712,-7.24035 13.20783,1.20673 v 7.24035 H 67.84022 v -6.63699 l 2.401424,-2.41345 1.801068,0.60336 7.804627,-3.62017 3.00178,8.44707 -3.00178,3.62018 1.200712,3.62017 5.403203,1.20673 -0.600356,9.05043 -4.802847,-1.81009 v 10.25716 l -3.00178,0.60336 v 13.27397 l -1.801068,0.60337 v 2.41345 H 65.438797 v 18.10087 h -2.401424 v 22.3244 l -7.804627,-1.20672 -4.802848,0.60336 -0.600356,1.20672 1.200712,1.20673 0.600356,1.81008 -12.607474,-4.82689 -0.600356,1.20672 v 1.20672 l 0.600356,0.60337 -1.200712,10.25716"
     id="path10"
     inkscape:connector-curvature="0"
     style="stroke-width:1.15964782" />
  <path
     d="m 478.48368,187.04231 1.80107,-1.81008 1.20071,-3.62018 1.20071,-2.41345 1.80107,-1.81008 h 2.40142 l 3.00178,1.20672 3.00178,1.20672 h 1.80107 l 1.20071,-1.81008 -1.20071,-4.22354 -1.80107,-4.22353 -3.00178,-1.20673 h -3.00178 l -1.80107,0.60336 -1.80106,0.60337 -0.60036,-1.20673 v -6.03362 l 2.40142,-2.41345 2.40143,-1.81009 h 3.60213 l 4.20249,0.60336 h 3.60214 l 1.80107,0.60337 3.60213,1.81008 h 9.00534 l 1.20071,1.20673 v 3.62017 l 1.20072,1.81009 h 1.80106 1.80107 l 0.60036,1.81009 v 3.62017 l 1.80107,1.81009 3.60213,1.20672 h 3.60214 l 4.80284,1.81009 4.80285,1.20672 h 3.60214 l 1.80106,-0.60336 1.20072,-1.81009 0.60035,-1.20672 1.20071,-0.60336 3.00178,2.41345 2.40143,0.60336 h 1.80107 v -2.41345 l -0.60036,-2.41345 v -2.41345 l 0.60036,-0.60336 h 1.80106 l 2.40143,-0.60336 2.40142,-1.20673 1.80107,-1.20672 v -1.81009 l -1.20071,-1.81009 v -1.20672 h 3.00178 l 3.00178,1.81008 h 3.00178 l 0.60035,2.41345 -3.60213,18.10087 -1.20072,3.62018 -16.20961,-0.60337 -1.20071,0.60337 -1.20071,1.81008 0.60036,3.01682 0.60035,1.81008 -1.80107,1.81009 -2.40142,1.20672 -1.80107,1.20673 v 3.01681 4.22354 l -0.60035,3.01681 -1.20072,3.01681 -1.20071,1.20672 h -1.80106 l -1.80107,0.60337 v 1.81008 l 0.60035,1.20673 h 1.80107 l 0.60036,0.60336 v 1.81009 l -0.60036,2.41345 -0.60035,2.41344 v 1.81009 l 1.80106,1.81009 3.00178,1.20672 3.00178,1.20673 2.40143,1.20672 1.20071,1.81009 -0.60036,2.41345 v 1.81009 l 0.60036,1.81008 2.40142,2.41345 2.40143,2.41345 9.60569,15.08406 0.60036,1.81008 -0.60036,1.81009 -2.40142,0.60336 -3.00178,-1.20672 -6.00356,-1.81009 -1.20071,2.41345 -0.60036,5.43026 v 5.43026 l 1.20071,3.62018 2.40143,2.41345 h 2.40142 l 3.00178,-1.81009 5.4032,-4.22354 3.60214,-4.22353 h 1.20071 l 1.20071,1.20672 h 2.40143 l 1.80106,-0.60336 1.20071,0.60336 1.20072,1.81009 v 2.41345 l -0.60036,2.41345 -1.80107,3.01681 -3.00178,1.81009 -1.20071,0.60336 -0.60035,3.62017 -1.80107,3.01681 -2.40143,3.62018 -0.60035,1.81008 -1.20071,2.41345 -1.20072,2.41345 -1.80106,1.20673 v 1.81008 h 1.80106 l 3.00178,-4.22353 1.20072,-1.81009 4.80284,4.8269 v 1.20672 l -1.20071,1.81009 -1.20071,1.81009 -1.20071,1.20672 v 1.20673 1.81008 l 0.60035,2.41345 0.60036,3.62018 1.80107,1.81008 2.40142,0.60337 2.40142,-0.60337 1.80107,-1.81008 0.60036,0.60336 1.80107,-0.60336 1.80106,-3.62018 1.80107,-3.01681 1.80107,-2.41345 3.00178,-1.20672 1.80107,-1.20673 2.40142,-1.81008 1.80107,-0.60337 1.20071,0.60337 1.80107,3.62017 1.20071,4.22354 1.20071,3.01681 -4.20249,0.60336 0.60036,8.44707 h -4.80285 l 0.60036,9.05044 v 2.41345 l -1.20072,1.20672 -1.80106,1.20672 -3.00178,-0.60336 -1.80107,-1.81008 v -1.20673 l -1.80107,-1.81009 h -3.60214 l -1.20071,-1.81008 -3.60213,4.22353 5.4032,6.03363 h 11.40676 l 1.20072,3.62017 h -28.81709 l -1.20071,-1.81009 -1.20071,-3.01681 -0.60036,-1.81009 -1.20071,-0.60336 -2.40142,1.20673 h -1.20072 l -1.80106,-1.81009 -0.60036,-2.41345 -2.40142,-1.20672 -2.40143,-1.20673 -4.20249,0.60336 h -3.00178 l -3.60213,-1.20672 -3.00178,-0.60336 -7.20428,-3.01681 -2.40142,0.60336 -8.40498,3.62017 0.60035,-24.73785 -2.40142,-2.41345 v -3.62018 l -0.60036,-3.01681 -0.60035,-1.81008 -1.20071,-1.20673 h -4.2025 -3.00178 l -3.00177,0.60336 -3.00178,0.60337 -2.40143,-0.60337 -3.60213,1.20673 -5.40321,1.20672 -6.00356,1.81009 -13.80818,-3.01681 -0.60036,-1.20673 -3.00178,-0.60336 v 13.87733 l -3.00178,2.41345 -3.00178,1.81009 -15.0089,1.20672 -4.80284,-2.41344 -3.60214,-2.41345 -1.80107,0.60336 -1.80106,-2.41345 0.60035,-1.81009 -1.20071,-1.20672 v -4.22354 h -3.00178 l -3.60214,3.62018 -4.80284,-11.46389 7.20427,-3.62017 0.60035,-1.81009 -1.20071,-4.22353 -0.60035,-2.41345 1.20071,-3.01682 3.60213,-4.82689 15.60926,-3.62018 3.00178,-0.60336 3.00178,-0.60336 2.40142,-1.81009 8.40498,-7.84371 -9.60569,-7.24035 -1.20071,-2.41345 0.60035,-2.41344 12.00712,-1.20673 -0.60035,-7.24035 -1.80107,-11.46388 -1.20071,-4.8269 -1.20072,-3.01681 v -3.62017 l 2.40143,-8.44708 2.40142,0.60337 5.4032,1.20672 v -7.24035 l 2.40143,-5.43026 1.20071,-3.01681 4.80285,0.60336"
     id="path12"
     inkscape:connector-curvature="0"
     style="stroke-width:1.15964782" />
  <path
     d="m 139.28258,345.12323 h -9.00534 l 1.20071,-7.84371 h -1.20071 l -1.80107,2.41345 -2.40142,0.60337 -3.60214,-4.8269 -1.80107,-1.20673 h -6.00356 l -1.20071,4.8269 -1.80107,1.20673 -2.40142,4.22353 -3.60214,-1.81008 h -2.40142 l -4.202491,0.60336 -1.801068,-0.60336 -1.801068,-2.41345 v -3.62018 l -6.003559,-5.43026 3.00178,-2.41345 3.001779,-1.20672 2.401424,-0.60336 1.801068,1.20672 h 1.200715 l -0.60036,-2.41345 v -1.20672 l 0.60036,-1.81009 v -1.20673 l -0.60036,-1.20672 -0.600355,-1.81009 -0.600356,-1.81008 5.403201,1.20672 0.60036,-3.62017 h 3.00178 l 0.60035,3.62017 -1.20071,1.81009 0.60036,1.81008 1.20071,0.60337 0.60036,1.20672 h 0.60035 l 1.80107,-0.60336 1.20071,-0.60336 0.60036,1.81008 0.60035,1.20673 3.00178,-1.20673 -1.20071,-1.20672 v -0.60336 l -1.20071,-0.60337 -1.20071,-0.60336 0.60035,-0.60336 1.20071,-0.60336 h 2.40143 l 1.20071,0.60336 0.60036,-1.81009 v -1.20672 l 0.60035,-0.60336 h 1.20071 l 0.60036,0.60336 1.20071,-1.20673 v -1.81008 l -1.20071,-0.60337 v -1.20672 l -4.20249,-4.8269 3.00178,-3.62017 -1.80107,-0.60336 -1.80107,-1.20673 -1.20071,-1.81009 -2.40142,-1.20672 -3.00178,-0.60336 1.20071,-3.01681 2.40142,-1.20673 1.80107,-9.6538 -2.40142,-3.62017 h -3.60214 l -0.60035,1.20673 -6.00356,-0.60337 v -1.81008 l -6.003563,-18.70424 -3.00178,0.60337 -1.801068,1.20672 -2.401423,1.20673 -1.801068,1.20672 -5.403203,-8.44707 h -3.602136 l -0.600356,1.20672 -1.200712,1.20673 -2.401424,-1.20673 -1.200711,-0.60336 -1.200712,1.81009 -0.600356,2.41345 -5.403204,-0.60337 -4.202491,-1.20672 -7.804627,-1.20672 -4.802848,0.60336 -0.600356,1.20672 1.200712,1.20673 0.600356,1.81008 -12.607474,-4.82689 -0.600356,1.20672 v 1.20672 l 0.600356,0.60337 -1.200712,10.25716 -16.20961,-1.81009 -1.801068,6.63698 10.806407,5.43027 v 7.24034 l -14.408543,-3.01681 -0.600356,2.41345 -3.001779,1.20673 -4.2024919,1.20672 -3.0017797,1.20672 0.6003559,9.05044 1.8010678,1.20672 3.6021359,0.60337 4.202491,0.60336 7.204271,0.60336 v 9.6538 L 9.6056949,313.14503 v 9.6538 H 1.8010678 L 0,369.86109 5.4032034,368.051 16.20961,381.92833 l 1.200712,0.60337 1.801068,-0.60337 2.401424,-1.20672 2.401423,-0.60336 h 6.00356 l 3.602135,-1.20673 3.602136,-0.60336 1.801068,1.81009 1.200711,3.62017 v 2.41345 l -1.200711,1.81009 v 1.20672 l 3.001779,0.60336 2.401424,0.60337 h 3.602136 l 4.802847,-0.60337 h 1.801068 l 3.001779,0.60337 9.605695,3.62017 3.602136,0.60336 h 3.00178 l 3.602135,0.60337 3.602136,-1.20673 5.403203,1.81009 10.806407,4.22353 v -27.1513 l 18.010679,0.60336 3.00178,4.22354 1.80107,2.41345 3.00178,0.60336 2.40142,0.60336 3.00178,1.81009 10.20605,9.05043 1.80107,-3.01681 1.20071,-3.01681 -0.60036,-3.62017 1.20072,-2.41345 1.80106,-0.60336 3.60214,1.81008 v -1.81008 l 1.20071,-1.20673 0.60036,-3.62017 3.00178,-6.03363 v -1.81008 l -1.80107,-1.20673 -1.80107,-0.60336 v -7.24035 h -1.80107 v 1.20673 l -7.80462,0.60336"
     id="path14"
     inkscape:connector-curvature="0"
     style="stroke-width:1.15964782" />
  <path
     d="m 148.88827,357.79384 h 9.6057 l 0.60035,-3.01681 1.20071,-3.01681 4.2025,-1.81009 8.40498,0.60336 1.80107,-6.63698 h 2.40142 l 1.20071,-6.63699 v -1.20672 l 4.20249,-2.41345 1.80107,-1.81009 0.60036,2.41345 3.00178,-0.60336 1.20071,-2.41345 0.60035,-2.41345 2.40143,-0.60336 2.40142,-1.81009 2.40143,1.20673 1.20071,-0.60336 v -2.41345 h 1.20071 l -0.60036,-1.81009 -1.20071,-1.81009 -1.20071,-1.20672 -0.60036,-1.20673 v -0.60336 h 1.80107 l -3.00178,-13.27397 0.60036,-1.20672 2.40142,-1.20673 2.40143,-1.20672 2.40142,-3.01681 2.40142,-3.01682 1.80107,-5.43026 h -3.60213 l -2.40143,-2.41345 3.00178,-1.20672 0.60036,-9.05044 h -2.40143 v -1.20672 h -1.80106 l 0.60035,-7.24035 -3.00178,-0.60336 -1.80107,-0.60336 -2.40142,0.60336 -3.00178,0.60336 v -3.62017 h -1.20071 l -1.20071,-1.81009 v -1.81009 l -1.20072,0.60337 -1.20071,-6.63699 -1.20071,-1.81008 v -1.81009 -2.41345 l -1.20071,-1.81009 v -2.41345 l 1.20071,-1.20672 1.80107,1.20672 h 1.80107 l 1.20071,-0.60336 v -2.41345 h 0.60035 l 0.60036,0.60336 1.20071,-1.81008 v -1.81009 h 1.80107 l 1.20071,0.60336 0.60036,-0.60336 v -9.05043 -3.01682 h 2.40142 v -4.22353 l -0.60035,-1.81009 h 1.20071 v -6.03362 l 1.80107,0.60336 1.20071,-4.22354 -6.60392,-0.60336 -0.60035,-4.8269 h -1.80107 l -1.80107,0.60337 -1.80107,-4.22354 -0.60035,-1.81009 1.20071,-1.20672 -1.20071,-0.60336 -1.80107,0.60336 -2.40142,-1.20673 -0.60036,1.20673 -0.60036,2.41345 v 0.60336 l 0.60036,0.60336 -1.20071,3.62018 -1.80107,-1.20673 -0.60036,-2.41345 -1.80106,-1.20672 h -1.80107 l -3.60214,1.20672 -2.40142,0.60336 h -9.6057 l -2.40142,-3.01681 -0.60036,0.60337 -3.60213,-2.41345 h -9.00534 l -4.20249,-1.81009 2.40142,7.24035 v 5.43026 6.03362 h -4.80285 v -0.60336 h -1.20071 v 8.44707 l 2.40143,4.22354 h -3.60214 l -6.00356,1.81008 1.20071,3.01681 -2.40142,3.01682 v 1.20672 l -4.80285,1.20673 -0.60035,-1.20673 -4.2025,1.20673 -0.60035,1.81008 -3.60214,4.8269 -6.60391,-1.20672 -0.60036,-1.20673 -1.20071,-0.60336 -0.60036,-0.60336 v -2.41345 l -1.80106,-0.60336 -7.204275,-1.20673 -0.600356,5.43026 9.005341,9.6538 -3.00178,3.01681 h -4.202493 l -1.801068,1.81009 v 3.01681 l -1.200712,2.41345 3.00178,-0.60337 6.003563,18.70424 v 1.81008 l 6.00356,0.60337 0.60035,-1.20673 h 3.60214 l 2.40142,3.62017 -1.80107,9.6538 -2.40142,1.20673 -1.20071,3.01681 3.00178,0.60336 2.40142,1.20672 1.20071,1.81009 1.80107,1.20673 1.80107,0.60336 -3.00178,3.62017 4.20249,4.8269 v 1.20672 l 1.20071,0.60337 v 1.81008 l -1.20071,1.20673 -1.80107,-0.60336 -0.60035,0.60336 v 1.20672 l -0.60036,1.81009 -1.20071,-0.60336 h -2.40143 l -1.20071,0.60336 -0.60035,0.60336 1.20071,0.60336 1.20071,0.60337 v 0.60336 l 1.20071,1.20672 -3.00178,1.20673 -0.60035,-1.20673 -0.60036,-1.81008 -3.00178,1.20672 h -0.60035 l -0.60036,-1.20672 -1.20071,-0.60337 -0.60036,-1.81008 1.20071,-1.81009 -0.60035,-3.62017 h -3.00178 l -0.60036,3.62017 -5.403201,-1.20672 0.600356,1.81008 1.200715,3.01681 v 1.20673 l -0.60036,1.81009 v 1.20672 l 0.60036,2.41345 h -1.200715 l -1.801068,-1.20672 -2.401424,0.60336 -3.001779,1.20672 -3.00178,2.41345 6.003559,5.43026 v 3.62018 l 1.801068,2.41345 1.801068,0.60336 4.202491,-0.60336 h 2.40142 l 3.60214,1.81008 2.40142,-4.22353 1.80107,-1.20673 1.20071,-4.8269 h 6.00356 l 1.80107,1.20673 3.60214,4.8269 2.40142,-0.60337 1.80107,-2.41345 h 1.20071 l -1.20071,7.84371 h 9.00534 v 14.4807 l 7.80462,-0.60336 v -1.20673"
     id="path16"
     inkscape:connector-curvature="0"
     style="stroke-width:1.15964782" />
  <path
     d="m 127.87581,127.30944 h 7.20427 l 0.60036,-4.22353 1.20071,-0.60336 6.00356,0.60336 v 4.22353 h 5.40321 v -3.62017 l 2.40142,-1.20672 v -3.62018 l 5.4032,-0.60336 0.60036,1.81009 1.20071,1.20672 2.40142,1.20673 h 3.00178 5.40321 v -1.20673 h 6.00356 v -3.01681 h 2.40142 l 2.40142,1.20672 2.40143,1.81009 2.40142,-1.81009 h 0.60036 l 1.20071,0.60337 0.60035,1.81008 1.20072,0.60337 2.40142,1.20672 2.40142,0.60336 h 3.00178 l 4.80285,3.01681 0.60036,4.22354 0.60035,1.20673 h 3.00178 l 2.40143,1.81008 1.80106,-0.60336 3.00178,-2.41345 3.60214,1.81009 4.20249,1.81008 1.80107,2.41345 v 4.8269 l -2.40142,0.60336 v 3.01682 l -0.60036,1.81008 -1.80107,0.60337 -1.80107,-0.60337 -1.80106,-1.20672 -2.40143,-1.81009 -0.60035,6.63699 -1.20072,1.20672 -1.80106,0.60336 h -1.80107 l -0.60036,0.60337 0.60036,4.82689 -0.60036,1.81009 -0.60035,1.20673 -1.20071,13.27397 1.20071,0.60336 h 4.20249 v 4.8269 l -12.00712,-0.60337 -0.60036,1.81009 -7.20427,0.60336 v 4.8269 l 12.00712,0.60336 3.60214,1.81009 6.00356,0.60336 -0.60036,8.44708 -12.00712,-0.60337 v 3.01682 0.60336 l -1.20071,0.60336 h -1.80107 v 3.01681 h 1.20071 l 3.60214,0.60336 4.20249,0.60337 h 1.80107 l 1.20071,0.60336 v 3.62017 l -0.60036,1.81009 h -2.40142 l -2.40142,-1.20673 -6.60392,-0.60336 -0.60035,-4.8269 h -1.80107 l -1.80107,0.60337 -1.80107,-4.22354 -0.60035,-1.81009 1.20071,-1.20672 -1.20071,-0.60336 -1.80107,0.60336 -2.40142,-1.20673 -0.60036,1.20673 -0.60036,2.41345 v 0.60336 l 0.60036,0.60336 -1.20071,3.62018 -1.80107,-1.20673 -0.60036,-2.41345 -1.80106,-1.20672 h -1.80107 l -3.60214,1.20672 -2.40142,0.60336 h -9.6057 l -2.40142,-3.01681 -0.60036,0.60337 -3.60213,-2.41345 h -9.00534 l -4.20249,-1.81009 -4.20249,-0.60336 -4.20249,-2.41345 v -10.86052 l -7.80463,-2.41345 -2.40143,-1.20673 -1.20071,-1.81008 1.20071,-3.01682 -1.20071,-1.20672 -0.60035,-1.81009 -0.60036,-1.20672 1.80107,-0.60336 1.80107,-1.81009 3.00178,0.60336 3.00178,-2.41345 -0.60036,-1.81009 0.60036,-1.81008 -4.80285,-0.60336 -1.20071,-0.60337 -1.20072,-1.20672 h -2.40142 v -7.24035 h 1.20071 V 142.3935 h -0.60035 v -12.67061 h 7.80462"
     id="path18"
     inkscape:connector-curvature="0"
     style="stroke-width:1.15964782" />
  <path
     d="m 25.214949,161.7011 -1.801068,-6.63699 -4.202491,-0.60336 -3.00178,-0.60336 -10.2060507,-8.44708 4.2024917,-0.60336 2.401424,-1.20672 4.202491,-3.01681 v -2.41345 l -4.202491,-9.6538 -0.600356,-4.22354 0.600356,-3.01681 -1.200712,-2.41345 -0.600356,-1.20672 2.401424,-1.20673 -0.600356,-3.62017 -1.200712,-5.43026 -0.600356,-6.63699 v -3.62017 l 11.406762,-4.223536 10.206051,-3.620174 11.406763,-2.413449 5.403203,-0.603362 9.005339,-1.810087 7.804628,-3.016812 7.204271,-0.603362 7.204271,0.603362 3.602136,-4.223536 5.403203,0.603362 4.202491,-0.603362 3.602136,-1.810087 1.801068,-3.620174 1.200711,-0.603362 h 6.60392 l 7.20427,1.206725 3.00178,1.206724 15.0089,-4.826898 1.20071,0.603362 1.80106,1.810087 0.60036,3.016812 1.20071,1.206724 1.20071,1.810087 0.60036,2.413449 0.60036,3.016812 0.60035,2.413449 -1.80107,1.206725 1.20072,4.223536 h 3.60213 v 1.206724 1.810087 l -1.80107,1.206725 -5.4032,3.016811 h -2.40142 l -1.20071,-1.206724 -1.80107,-1.206725 -7.80463,2.413449 -13.80819,-0.603362 v 6.03362 6.63699 l 4.80285,0.60336 5.4032,-2.41345 3.00178,0.60336 h 6.00356 v 21.11768 h -7.80462 v 12.67061 h -7.80463 v 1.20673 h -1.80107 v 4.8269 l -3.00178,1.20672 v 2.41345 l -3.60213,0.60336 h -4.202495 l -5.403204,0.60336 -1.200712,-1.81008 h -8.404983 v 1.81008 l -7.204271,0.60337 1.200712,4.22353 1.200712,4.22354 -2.401424,0.60336 2.401424,5.43026 -7.804627,3.62017 -1.801068,-0.60336 -2.401424,2.41345 v 6.63699 H 49.229186 v -7.24035 l -13.20783,-1.20673 -1.200712,7.24035 h -4.202491 l -1.200712,-1.81008"
     id="path20"
     inkscape:connector-curvature="0"
     style="stroke-width:1.15964782" />
  <path
     d="m 372.82103,153.85739 3.60214,1.81008 0.60036,1.81009 1.20071,1.81009 v 1.81008 l 0.60035,2.41345 2.40143,1.81009 2.40142,0.60336 2.40142,-1.81009 3.60214,-4.22353 1.20071,-1.81009 0.60036,-1.81008 1.80107,-1.20673 h 3.00178 l 3.60213,1.81009 h 3.00178 l 2.40142,1.20672 v 2.41345 3.01681 h 2.40143 l 1.80107,-0.60336 3.00178,-0.60336 3.00178,1.20672 3.00177,0.60336 3.60214,-1.20672 2.40142,-1.81009 1.20072,-2.41345 -0.60036,-3.01681 -1.20071,-3.01681 -0.60036,-3.01681 v -1.81009 l 0.60036,-1.20672 1.20071,-0.60336 h 1.80107 l 3.60213,0.60336 2.40143,0.60336 h 3.60213 4.20249 l 3.00178,1.20673 3.00178,2.41344 1.80107,2.41345 1.80107,1.20673 1.20071,2.41345 3.00178,1.81008 2.40142,-1.81008 v -3.01681 l -1.20071,-2.41345 -4.20249,-1.81009 -2.40142,-1.20672 v -2.41345 l 1.20071,-2.41345 0.60036,-3.01681 v -1.81009 l -2.40143,-2.41345 -1.80107,-0.60336 -1.80106,-0.60337 -1.20072,-3.01681 0.60036,-1.20672 h 2.40142 l 6.00356,0.60336 4.20249,1.20673 2.40143,1.81008 2.40142,2.41345 1.20071,2.41345 0.60036,1.81009 -0.60036,2.41345 1.80107,1.81008 2.40143,1.81009 1.20071,1.81009 -0.60036,1.81008 h -0.60035 l -1.80107,-1.20672 h -0.60036 v 0.60336 2.41345 l 1.80107,0.60336 4.80285,2.41345 3.60213,1.20673 2.40143,0.60336 1.80106,1.20672 1.20072,1.81009 v 1.81009 h -1.20072 l -1.20071,-0.60336 h -1.20071 -1.20071 l -1.80107,1.20672 h -2.40142 v 0.60336 1.81009 l 1.80106,2.41345 1.80107,3.62017 v 2.41345 l -2.40142,6.63699 v 2.41345 l 2.40142,2.41345 3.60214,1.81008 v 5.43026 l -4.80285,-0.60336 -1.20071,3.01681 -2.40143,5.43026 v 7.24035 l -3.00177,-0.60336 -2.40143,-0.60336 -2.40142,-0.60337 -2.40143,8.44708 v 3.62017 l 1.20072,3.01681 1.20071,4.8269 0.60035,5.43026 1.20072,6.03362 0.60035,7.24035 -12.00712,1.20673 -0.60035,2.41344 1.20071,2.41345 9.60569,7.24035 -8.40498,7.84371 -2.40142,1.81009 -3.00178,0.60336 -3.00178,0.60336 -15.60926,3.62018 -1.20071,-1.81009 -1.20071,-3.01681 -1.80107,-3.01681 -3.00178,-3.01682 -2.40142,-3.62017 -1.20071,-3.62017 v -2.41345 l -1.20072,-1.81009 -1.20071,-1.20672 -1.20071,-1.20673 h -1.20071 l -1.80107,1.81009 -1.80107,1.81009 -2.40142,0.60336 -1.80107,1.20672 -1.80107,3.01681 -1.20071,1.81009 -2.40142,0.60336 h -2.40143 l -2.40142,1.20673 -1.80107,1.20672 -1.20071,0.60336 h -3.60213 -4.2025 l -1.20071,-1.81008 h -9.00534 v -1.20673 l 1.20072,-2.41345 1.20071,-3.01681 0.60035,-2.41345 -2.40142,-3.01681 0.60036,-4.8269 3.60213,-13.27397 h -4.80285 l -0.60035,-3.01681 v -3.01681 l 1.20071,-4.8269 h 3.60214 l 0.60035,-3.62017 0.60036,-4.22354 v -14.48069 -13.27397 l -9.00534,-0.60337 v -1.81008 l -3.00178,0.60336 v -5.43026 l -0.60036,-3.62018 v -4.82689 l 0.60036,-3.62018 1.80107,-5.43026"
     id="path22"
     inkscape:connector-curvature="0"
     style="stroke-width:1.15964782" />
  <path
     d="m 274.36266,15.084057 3.60214,3.620174 3.00178,4.223536 3.00178,5.430261 h 3.00178 4.20249 l 1.20071,1.206725 1.80107,2.413449 3.60213,1.206724 6.60392,3.620174 4.80285,-3.620174 3.60213,-2.413449 4.80285,-3.016811 1.20071,-4.223536 0.60036,-2.41345 1.20071,-1.206724 2.40142,1.206724 4.80285,1.810087 5.4032,1.206725 4.80285,-4.826898 2.40142,-0.603363 h 3.60214 2.40142 l 0.60036,1.206725 v 1.206724 l -0.60036,1.206725 v 1.206725 l 1.80107,3.016811 3.00178,4.826898 2.40142,1.810087 1.80107,1.810087 v 3.016812 l 6.60392,6.033623 -1.80107,3.016811 1.20071,1.810087 v 2.413449 l -1.20071,3.620174 v 2.413449 l 1.80107,0.603363 -1.80107,6.033623 -0.60036,2.413449 -0.60035,1.206724 0.60035,1.810087 2.40143,1.810087 2.40142,1.810087 -0.60036,3.620174 v 1.810087 2.413449 l 1.20072,3.016811 4.80284,6.033623 h 6.60392 l 0.60036,0.603363 1.20071,1.206724 h 1.20071 l 0.60036,1.810087 1.80106,0.603362 0.60036,0.603363 v 6.033619 0.60337 l -1.80107,0.60336 -0.60035,0.60336 -1.80107,1.20673 -1.80107,2.41344 v 6.03363 l 0.60036,3.62017 v 4.22354 h 3.00178 v 2.41345 2.41345 l 2.40142,2.41344 0.60035,1.20673 v 4.22354 l -0.60035,1.20672 h -1.80107 v 1.20672 1.20673 l -0.60035,1.20672 -1.80107,0.60337 h -2.40143 -1.80106 l -1.20072,-1.20673 -1.80106,-1.20672 -6.00356,-0.60337 0.60035,6.63699 0.60036,1.20672 h 1.80107 2.40142 l 0.60036,0.60337 0.60035,4.8269 -0.60035,2.41344 v 1.20673 l 1.80106,1.81009 -1.80106,4.22353 -1.80107,5.43026 -0.60036,3.62018 v 4.82689 l 0.60036,3.62018 v 5.43026 l 3.00178,-0.60336 v 1.81008 l -5.40321,0.60337 -18.01067,-0.60337 -0.60036,-25.34121 -0.60036,-4.8269 v -4.8269 l -12.60747,0.60336 -1.80107,-1.20672 h -8.40498 l -2.40142,1.81009 -10.20606,-0.60337 -0.60035,-12.67061 -1.80107,-1.20672 -0.60035,-3.01681 h -3.60214 V 120.0691 l -8.40498,-0.60337 v -6.63698 h 1.80106 V 94.727881 l -2.40142,-1.206725 -1.80107,0.603362 -1.20071,-0.603362 v -1.810087 l -0.60036,-0.603362 h -3.60213 -1.20071 l -0.60036,-1.206725 v -1.206724 l -3.00178,-1.810087 -1.80107,-0.603362 v -0.603363 -6.033623 l -1.20071,-0.603362 -0.60035,-1.810087 h -3.00178 l -1.80107,-1.206724 v -1.810087 l -0.60036,-2.41345 v -1.810086 h 1.20071 1.20072 V 68.17994 l -0.60036,-1.206725 h -3.00178 v -4.223536 h 0.60036 l 0.60035,-1.206725 2.40143,-1.810087 3.60213,-1.206724 2.40143,-0.603362 h 3.60213 v -2.41345 h 1.20071 l 6.60392,-8.447072 h 4.20249 l -0.60036,-6.033623 -0.60035,-0.603362 -2.40143,-0.603362 -3.00178,0.603362 h -3.00177 l -3.00178,-3.016812 -1.80107,-1.810086 -2.40143,-1.206725 -2.40142,-1.206725 -0.60036,-1.810087 V 30.168115 L 277.9648,28.96139 h -3.60214"
     id="path24"
     inkscape:connector-curvature="0"
     style="stroke-width:1.15964782" />
  <path
     d="m 190.31283,30.771477 1.80107,-1.206724 v -1.810087 -2.413449 -1.206725 -1.810087 l 1.80107,-1.206725 1.80106,-1.810086 1.20072,-2.41345 0.60035,-3.016811 0.60036,-3.016812 0.60035,-1.8100865 1.80107,-0.6033623 1.80107,0.6033623 2.40142,1.2067245 6.60392,3.620174 1.20071,0.603362 h 1.80107 l 0.60035,0.603362 0.60036,2.41345 0.60036,1.810087 1.20071,0.603362 1.20071,-0.603362 0.60036,-1.810087 -0.60036,-2.41345 -1.20071,-2.413449 -1.20071,-1.810087 -1.80107,-1.2067242 H 212.526 211.32529 V 0 l 3.00178,0.6033623 3.00178,1.8100869 2.40142,1.2067246 1.20071,0.6033623 h 1.80107 l 3.00178,1.2067246 2.40142,2.4134492 1.80107,2.4134491 1.80107,3.016812 0.60036,1.206724 2.40142,-0.603362 3.00178,-1.810087 3.00178,-2.4134492 1.80107,-1.8100869 1.80106,-0.6033623 1.20072,0.6033623 0.60035,1.8100869 1.20071,1.8100872 1.20072,1.206724 3.00178,0.603363 h 3.00178 l 2.40142,-1.206725 3.00178,-0.603362 h 3.60213 l 4.80285,0.603362 4.20249,1.810087 1.80107,1.206724 V 28.96139 h 3.60214 l 1.80106,1.206725 v 1.206724 l 0.60036,1.810087 2.40142,1.206725 2.40143,1.206725 1.80107,1.810086 1.80106,1.810087 1.20072,1.206725 h 3.00177 l 3.00178,-0.603362 2.40143,0.603362 0.60035,0.603362 0.60036,6.033623 h -4.20249 l -6.60392,8.447072 h -1.20071 v 2.41345 h -3.60213 l -2.40143,0.603362 -3.60213,1.206724 -2.40143,1.810087 -0.60035,1.206725 h -0.60036 l -3.00178,3.016811 h -3.60213 l -3.00178,-1.810086 h -0.60036 v 4.826898 l -1.20071,1.810087 -0.60036,1.206724 -3.00178,0.603363 h -0.60035 v 1.810087 1.206724 l 1.80106,1.810087 v 1.206725 l -1.20071,1.810087 v 1.810086 l 0.60036,1.206725 0.60035,1.810087 v 0.603362 l -1.80106,1.206725 -1.80107,0.603362 v 1.810087 2.413449 l -1.20071,3.016812 -1.20071,2.413449 -0.60036,2.413449 h -4.20249 l -1.80107,1.810091 h -2.40142 l -3.00178,-8.447076 -4.80285,4.223536 -6.60392,6.63699 1.20072,4.82689 -3.00178,-0.60336 h -4.2025 l -7.20427,7.84371 -1.20071,1.81009 -1.80107,1.81008 v 3.62018 l -0.60035,3.62017 -1.20071,2.41345 -1.20072,2.41345 -3.00178,2.41345 -1.80106,0.60336 -2.40143,-1.81008 h -3.00178 l -0.60035,-1.20673 -0.60036,-4.22354 -4.80285,-3.01681 h -3.00178 l -2.40142,-0.60336 -2.40142,-1.20672 -1.20072,-0.60337 -0.60035,-1.81008 -1.20071,-0.60337 h -0.60036 l -2.40142,1.81009 -2.40143,-1.81009 -2.40142,-1.20672 h -2.40142 l -1.20072,-3.62017 -0.60035,-3.62018 v -1.81008 l 0.60035,-0.60337 0.60036,-2.41345 -0.60036,-1.20672 -0.60035,-0.60336 0.60035,-0.60336 1.80107,-1.81009 2.40143,-0.60336 h 1.20071 1.20071 l 1.20071,1.20672 h 1.20071 l 0.60036,-1.81009 v -1.810083 l 6.60391,-4.223536 3.60214,-3.016812 0.60036,-1.206724 v -0.603363 l -0.60036,-0.603362 v -5.430261 l -1.80107,-0.603362 v -0.603362 h 1.80107 l 1.80107,0.603362 h 2.40142 l -0.60035,-9.050434 6.00356,-0.603363 v -6.033623 l -1.80107,-0.603362 -1.20071,-1.206725 v -4.223536 h 8.40498 l 0.60035,-1.206724 v -0.603363 h 3.60214 l 0.60036,-2.413449 v -1.810087 -1.810087 h -1.20072 l -1.20071,-0.603362 -0.60035,-2.413449 -0.60036,-0.603362 v -3.620174 l 1.80107,-0.603362 v -0.603363 l -1.20071,-3.620173 -1.80107,-4.223537 -14.40854,0.603363 -1.20072,-1.206725 -0.60035,-3.016811"
     id="path26"
     inkscape:connector-curvature="0"
     style="stroke-width:1.15964782" />
  <ellipse
     style="fill:#000000;fill-opacity:1;stroke:#ffffff;stroke-opacity:1"
     id="path76-3"
     cx="488.3291"
     cy="35.728268"
     rx="18.855932"
     ry="18.432203" />
  <text
     xml:space="preserve"
     style="font-style:normal;font-weight:normal;font-size:14.56755352px;line-height:1.25;font-family:sans-serif;letter-spacing:0px;word-spacing:0px;fill:#000000;fill-opacity:1;stroke:none;stroke-width:0.36418885"
     x="495.71527"
     y="62.196117"
     id="text99-3-2-6"
     transform="scale(0.87634461,1.1411036)"><tspan
       sodipodi:role="line"
       id="tspan97-5-9-7"
       x="495.71527"
       y="62.196117"
       style="stroke-width:0.36418885">г. Петропавловск</tspan></text>
</svg>
