<?xml version="1.0" encoding="UTF-8" standalone="no"?>
<svg
   xmlns:dc="http://purl.org/dc/elements/1.1/"
   xmlns:cc="http://creativecommons.org/ns#"
   xmlns:rdf="http://www.w3.org/1999/02/22-rdf-syntax-ns#"
   xmlns:svg="http://www.w3.org/2000/svg"
   xmlns="http://www.w3.org/2000/svg"
   xmlns:sodipodi="http://sodipodi.sourceforge.net/DTD/sodipodi-0.dtd"
   xmlns:inkscape="http://www.inkscape.org/namespaces/inkscape"
   version="1.1"
   id="svg32"
   sodipodi:docname="Туркестанская.svg"
   width="1002.6716"
   height="1494.7467"
   inkscape:version="0.92.3 (unknown)"
   viewBox="0 0 401.06866 597.89868">
  <metadata
     id="metadata38">
    <rdf:RDF>
      <cc:Work
         rdf:about="">
        <dc:format>image/svg+xml</dc:format>
        <dc:type
           rdf:resource="http://purl.org/dc/dcmitype/StillImage" />
        <dc:title />
      </cc:Work>
    </rdf:RDF>
  </metadata>
  <defs
     id="defs36">
    <inkscape:path-effect
       effect="spiro"
       id="path-effect27"
       is_visible="true" />
  </defs>
  <sodipodi:namedview
     pagecolor="#ffffff"
     bordercolor="#666666"
     borderopacity="1"
     objecttolerance="10"
     gridtolerance="10"
     guidetolerance="10"
     inkscape:pageopacity="0"
     inkscape:pageshadow="2"
     inkscape:window-width="1855"
     inkscape:window-height="1056"
     id="namedview34"
     showgrid="false"
     fit-margin-top="0"
     fit-margin-left="0"
     fit-margin-right="0"
     fit-margin-bottom="0"
     inkscape:zoom="1.18"
     inkscape:cx="374.77379"
     inkscape:cy="1290.7628"
     inkscape:window-x="65"
     inkscape:window-y="24"
     inkscape:window-maximized="1"
     inkscape:current-layer="svg32"
     scale-x="0.4" />
  <path
     d="M 148.02075,297.39609 92.74329,317.86695 51.59229,341.18098 7.98452,373.02455 2.45678,370.18138 0,419.08398 l 7.37032,1.13727 12.28389,2.27454 17.81162,1.70591 2.45678,1.7059 26.41034,-0.56863 -1.84258,-21.0395 0.61419,-7.39225 23.33937,-5.11772 40.53681,-6.25498 9.2129,-1.13727 14.74065,1.13727 15.35486,-0.56863 12.28388,0.56863 0.61419,-3.41181 1.84258,-3.41181 0.6142,-2.27454 -3.07097,-0.56863 -0.6142,-1.13727 0.6142,-2.27454 1.22839,-1.70591 -1.84259,-3.41181 2.45678,-0.56863 h 5.52774 l 4.91356,0.56863 h 5.52774 l 5.52775,-1.13727 4.91355,-0.56863 6.75614,-1.13727 6.14193,-0.56864 5.52774,-1.7059 2.45678,-5.11772 1.84259,-5.68636 0.61419,-3.41181 -3.07097,-1.13727 -1.84259,-2.27454 1.84259,-3.41181 1.84258,-2.27453 -2.45678,-2.27454 -2.45677,-2.84318 v -3.98044 l 2.45677,-2.84318 0.6142,-3.98044 -1.22839,-3.41181 -2.45677,-3.41181 -6.75614,-3.41181 -7.37032,1.13727 -4.91356,-1.13727 -9.82711,-5.68635 -9.2129,2.27454 -4.91355,-10.23543 -9.21291,-1.13727 -1.22838,3.41181 -2.45678,1.7059 1.84258,3.41181 3.07096,1.70591 4.29936,2.27454 0.6142,2.27454 -5.52775,4.54908 -3.68516,0.56863 -3.68517,-3.98044 -3.68515,-0.56864 1.84257,-4.54908 v -1.7059 l -1.22839,0.56863 -1.84257,1.13727 -1.22839,0.56864 -1.22839,-1.70591 -0.61419,-1.13727 h -0.6142 l -1.22839,1.13727 -1.22839,1.13727 -1.22839,-0.56863 v -2.27454 l -0.61419,-0.56864 h -1.22838 l -1.22839,1.70591 -1.22839,0.56863 -0.61419,-0.56863 v -2.84318 l 1.22839,-2.84317 3.07096,-3.41181 z m 79.84521,129.08015 5.52775,-6.25499 0.61419,-3.41181 -3.68516,-1.13727 v -5.11771 l -3.68517,-1.13727 -11.05548,2.27454 -7.37034,1.7059 -10.4413,1.13727 -7.98452,0.56864 -6.75613,-0.56864 -5.52775,-2.84317 -2.45678,-1.70591 -1.84257,1.13727 2.45677,3.41181 v 5.11772 2.84317 l -1.84258,1.13727 -3.68516,1.13727 0.6142,2.84318 -1.22839,3.41181 -1.22839,1.13727 v 2.84317 l 3.07097,1.70591 4.29935,-1.13727 7.98453,-0.56864 4.29935,0.56864 7.37033,5.11771 8.59872,-1.13727 8.59871,0.56863 8.59872,-5.68634 z"
     id="path6"
     inkscape:connector-curvature="0"
     style="stroke-width:1.34925938" />
  <path
     d="m 230.93693,310.4747 4.29936,1.13727 8.59872,6.82362 1.22838,2.84317 0.6142,2.27454 -1.84258,3.98045 -1.22839,1.7059 0.61419,2.84318 1.84258,1.7059 1.84259,1.70591 1.84257,1.7059 2.45678,-1.7059 3.07097,1.13727 1.22839,2.84317 -0.61419,2.27454 -4.91356,3.98044 -7.37032,0.56864 -4.91356,-1.13727 -3.68516,-2.84318 -3.07097,-3.4118 -2.45678,-2.27454 -2.45677,-2.84318 v -3.98044 l 2.45677,-2.84318 0.6142,-3.98044 -1.22839,-3.41181 -1.84258,-3.41181 z m 23.95357,34.68673 1.84258,3.41181 5.52774,-4.54908 7.37033,-1.13727 3.68516,3.98044 5.52776,-2.84317 5.52774,-1.70591 4.29936,-3.98044 1.22838,3.41181 -4.29935,3.98044 -6.14195,3.98045 1.22839,2.84317 3.07097,3.41182 -0.61419,5.11772 -3.07098,3.41181 -2.45676,2.27454 v 2.27454 l 3.68515,5.11771 -1.84258,3.98045 -2.45677,5.11771 -2.45678,2.84318 -4.29936,4.54907 -4.29935,2.84318 -4.29936,2.27454 -6.14194,1.7059 h -3.07097 l -4.91356,2.27454 -4.29935,-5.68635 -3.07097,-3.98044 -5.52774,-2.84317 v -3.41181 l -1.84259,-2.27454 -4.91355,-3.98045 v -2.27454 l 2.45678,-0.56863 3.68516,1.7059 4.29935,-1.13727 0.6142,-4.54908 -2.45677,-5.11771 -0.61419,-2.27454 4.29935,-4.54908 7.98452,-8.52954 4.29936,-3.41181 z"
     id="path8"
     inkscape:connector-curvature="0"
     style="stroke-width:1.34925938" />
  <path
     d="m 105.64136,0 143.72139,2.84317 13.51227,21.0395 h 3.68516 l 6.14194,30.137651 6.14195,15.353145 8.59871,17.627684 4.29935,23.31404 4.91356,5.68635 12.28388,80.17752 -1.22839,1.70591 v 4.54908 l -4.91356,6.82362 -2.45678,7.39225 -0.61418,11.3727 -2.45678,6.82362 -5.52775,6.82363 -1.22839,5.11771 -2.45677,9.6668 -3.07097,5.11771 -4.91356,3.98045 -2.45676,4.54908 -3.07098,2.27454 -4.91355,-1.70591 -4.29935,-5.11771 -3.07098,-2.84318 -3.68517,-1.7059 -4.29935,-1.13727 -4.91355,-4.54908 -3.68516,-3.41181 -3.68517,-2.27454 -1.84258,-1.70591 0.61419,-1.7059 1.22839,-2.27454 -1.84258,-1.7059 h -3.68516 -4.91356 l -1.84258,-3.98046 -3.68516,-5.11771 -4.91355,-3.41181 -6.75613,-1.13727 -6.14195,-0.56864 -6.14193,-3.41181 -10.4413,-6.82362 -4.29936,1.70591 -16.58323,-10.80407 h -3.68517 l -4.29935,-5.68635 h -4.91356 l -1.22839,-5.68635 -3.68517,-3.4118 -4.91354,-6.82362 -4.91356,-5.11772 -3.68516,-2.84317 -6.14194,-0.56864 -6.75613,-5.68635 2.45678,-39.23581 v -45.4908 h -9.21291 L 104.41297,72.785276 v -5.68635 l 3.07098,-4.54908 2.45678,-10.804064 1.22837,-7.392256 2.45678,-3.980444 0.6142,-6.254986 3.07097,-3.980444 1.84258,-3.41181 -0.61419,-5.117712 -3.07097,-1.70591 -3.68517,-2.27454 -6.14194,-6.25498 -1.22839,-5.11772 V 2.84317"
     id="path10"
     inkscape:connector-curvature="0"
     style="stroke-width:1.34925938" />
  <path
     d="m 39.92261,425.9076 6.14193,35.824 7.98453,43.21627 53.43488,2.84317 7.37032,-2.84317 8.59872,-1.13727 h 7.37033 l 7.37032,-2.84318 6.14194,2.27454 9.21291,-1.13727 3.68517,1.70591 v 5.68635 l 0.61419,5.11771 5.52774,1.13727 7.37034,2.27454 6.75612,-0.56863 3.68517,2.84317 3.68516,0.56864 4.29936,2.27454 9.21291,-1.70591 9.21291,-2.27454 -2.45677,-8.52952 h -3.68517 l -2.45678,-2.27454 h -9.8271 l -4.29936,-2.84318 -1.84258,-2.84317 1.84258,-1.13727 -0.6142,-1.70591 h -2.45676 l -1.84259,-1.7059 2.45678,-5.11773 -0.61419,-3.41181 -1.84259,-1.7059 -2.45678,2.27454 -1.22839,3.41182 -3.07096,-0.56865 -0.61419,-3.41181 -2.45678,-4.54907 -1.22839,-0.56864 v -5.11771 l -1.22839,-3.41181 1.84259,-3.98045 -2.45678,-2.27454 -1.22839,-2.84317 0.61419,-1.70591 0.6142,-1.7059 -1.22839,-2.27454 -0.6142,-3.41181 -1.22838,-3.41181 -0.6142,-2.27454 0.6142,-4.54908 -1.84258,-2.27454 0.6142,-2.27454 h 3.07096 l 5.52775,-6.25498 -3.07097,-1.70591 v -2.84317 l 1.22839,-1.13727 1.22839,-2.84318 v -3.41181 l 3.07096,-1.13727 1.84258,-1.13727 v -2.84317 l 0.61419,-5.11772 -3.07096,-3.41181 -2.45677,-2.84317 -3.07098,-1.70591 -1.84258,-2.27454 v -3.41181 l -3.68516,-2.84317 -3.68516,3.98044 0.61419,2.84318 -1.22839,1.7059 -3.07097,1.70591 -2.45677,0.56863 -1.84258,6.25499 -4.91356,-2.27454 -9.21291,-1.13727 -13.51227,-0.56864 -16.58323,0.56864 -12.28388,-1.70591 -15.96905,-1.7059 -12.89807,-1.13727 1.22839,18.19632"
     id="path12"
     inkscape:connector-curvature="0"
     style="stroke-width:1.34925938" />
  <path
     d="m 165.21817,516.32057 v 5.11771 l -0.61419,3.41181 -1.84257,2.27454 -1.22839,3.41181 -6.14195,2.27454 -1.22839,2.27454 -0.61419,3.98044 3.07097,2.84318 9.8271,5.11771 7.37033,5.68635 3.07097,4.54908 3.07097,2.84318 6.75613,0.56863 6.14195,1.13727 3.07096,3.98045 6.75614,2.84317 12.89808,-4.54908 v -2.84317 l -4.29937,-6.25499 -3.68516,-7.96089 v -21.03949 -6.82362 l -9.21291,2.27454 -9.21291,1.70591 -4.29936,-2.27454 -3.68516,-0.56864 -3.68517,-2.84317 -6.75612,0.56863"
     id="path14"
     inkscape:connector-curvature="0"
     style="stroke-width:1.34925938" />
  <path
     d="m 207.59756,519.16374 3.68516,1.70591 1.84259,2.84317 3.68515,0.56864 3.07098,-1.13727 -0.6142,-5.11772 1.84259,-3.41181 3.68516,-4.54908 7.37033,-5.11771 11.05549,-9.66681 -0.61419,-5.11771 1.84258,-4.54908 3.68516,-2.84317 6.14194,-2.84318 4.29935,-3.98044 3.07098,-2.27454 h 15.35485 l 1.22839,-2.84318 v -3.41181 l -3.68517,-0.56863 -1.22839,-3.41181 v -5.11772 l -4.91354,0.56864 -1.84259,-1.70591 1.84259,-2.27454 -1.22839,-1.7059 -1.84258,-0.56864 0.61419,-2.84317 -1.22839,-3.41181 1.84258,-2.84318 -0.61419,-2.84317 -0.61419,-2.27454 3.07097,-2.84317 -1.22839,-4.54908 -2.45678,-3.98045 -2.45678,-1.7059 -3.07097,-0.56864 -8.59871,5.11772 -4.91355,-0.56864 -3.07097,-1.13727 -1.84259,-1.13727 -4.29935,1.13727 -3.07097,-0.56863 -1.84259,-1.13727 -3.68516,0.56863 -6.75613,7.39226 -8.59872,5.68634 h -8.59871 l -8.59872,0.56864 -7.37033,-4.54908 -4.29935,-1.13727 -7.37034,0.56864 -4.91354,1.13727 -5.52775,6.25498 h -3.07096 l -0.6142,2.27454 1.84258,2.27454 -0.6142,4.54908 0.6142,2.27454 1.22838,3.41181 0.6142,3.41181 1.22839,2.27454 -0.6142,1.7059 -0.61419,1.70591 1.22839,2.84317 2.45678,2.27454 -1.84259,3.98045 1.22839,3.41181 v 5.11771 l 1.22839,0.56864 2.45678,4.54907 0.61419,3.41181 3.07096,0.56865 1.22839,-3.41182 2.45678,-2.27454 1.84259,1.7059 0.61419,3.41181 -2.45678,5.11773 1.84259,1.7059 h 2.45676 l 0.6142,1.70591 -1.84258,1.13727 1.84258,2.84317 4.29936,2.84318 h 9.8271 l 2.45678,2.27454 h 3.68517"
     id="path16"
     inkscape:connector-curvature="0"
     style="stroke-width:1.34925938" />
  <path
     d="m 274.5447,466.84932 2.45678,-3.41181 9.21291,-5.11772 7.37032,-5.11771 4.29937,-1.13727 5.52774,-3.98045 6.75614,1.70591 4.91354,-1.13727 4.91356,-2.84318 4.29935,-6.82362 1.84259,3.98045 1.22838,-3.98045 3.68517,-3.4118 2.45677,-2.27454 3.07097,-2.27454 3.07098,-4.54908 3.07096,-2.84318 6.14194,-5.11771 v -2.84318 l -3.07097,-3.98044 -0.61419,-2.27454 -1.22839,0.56863 h -2.45677 l -0.61419,-1.7059 -1.22839,-3.41181 -5.52776,0.56863 -0.61419,3.98045 -3.07096,1.7059 h -2.45678 l -0.6142,1.70591 -1.22838,2.84317 0.61419,2.27454 -2.45678,2.84318 -3.07097,2.27454 -4.91355,2.84317 -0.61419,2.27454 -1.22839,1.13727 -3.68517,-2.84317 v -5.68635 l -1.84257,-3.98045 -3.68517,-3.41181 -4.29936,0.56864 -4.29935,1.7059 h -1.84259 l -1.84258,-3.41181 -1.22839,-3.41181 -1.22839,-1.13727 -1.84257,0.56864 -1.84259,1.7059 v 1.70591 l -1.84258,0.56863 -1.22839,1.13727 v 2.27454 l -1.84258,0.56864 -1.84259,-1.70591 -1.84257,-4.54908 v -5.68635 l -1.84258,-3.41181 -3.68517,-2.84317 -3.07097,3.98044 -4.91355,1.70591 -9.21291,-6.25499 h -3.07097 l -4.91356,2.27454 -4.91354,18.76496 -9.21291,1.7059 -5.52775,6.82362 3.68516,-0.56863 1.84259,1.13727 3.07097,0.56863 4.29935,-1.13727 1.84259,1.13727 3.07097,1.13727 4.91355,0.56864 8.59871,-5.11772 3.07097,0.56864 2.45678,1.7059 2.45678,3.98045 1.22839,4.54908 -3.07097,2.84317 0.61419,2.27454 0.61419,2.84317 -1.84258,2.84318 1.22839,3.41181 -0.61419,2.84317 1.84258,0.56864 1.22839,1.7059 -1.84259,2.27454 1.84259,1.70591 4.91354,-0.56864 v 5.11772"
     id="path18"
     inkscape:connector-curvature="0"
     style="stroke-width:1.34925938" />
  <path
     d="m 283.75761,355.9655 4.91356,-1.7059 5.52774,-1.13727 5.52775,-0.56865 6.75613,5.11773 0.61419,3.41181 4.91355,2.84317 7.37034,6.25499 3.68515,3.41181 0.6142,4.54908 -6.75613,0.56863 -1.84259,2.84318 3.07098,3.98044 4.91354,0.56864 3.07098,1.13727 v 2.84317 l -4.91356,-0.56864 h -3.07096 l -0.6142,2.27454 -7.37032,-0.56863 -6.14195,0.56863 -5.52774,0.56864 -4.91356,7.39225 -1.22838,3.41181 -3.68516,1.70591 -4.91356,2.84317 -0.61419,-3.98044 0.61419,-3.98045 1.22839,-2.27454 -2.45678,-2.84317 -3.07097,-1.70591 -6.75613,1.70591 -1.22839,1.7059 1.22839,1.70591 -3.07097,3.98044 -4.91355,1.70591 -9.21291,-6.25499 6.14194,-1.7059 4.29936,-2.27454 4.29935,-2.84318 4.29936,-4.54907 2.45678,-2.84318 2.45677,-5.11771 1.84258,-3.98045 -3.68515,-5.11771 v -2.27454 l 2.45676,-2.27454 3.07098,-3.41181"
     id="path20"
     inkscape:connector-curvature="0"
     style="stroke-width:1.34925938" />
  <path
     d="m 323.68022,378.14227 5.52775,3.41181 h 7.98452 l 10.4413,0.56863 9.8271,-0.56863 h 9.21291 l 6.75614,-1.70591 6.75613,-1.7059 6.14193,-2.27454 0.6142,3.98044 14.12646,9.09816 -0.61419,3.41181 -4.29936,3.41181 -4.91355,2.84317 -5.52775,1.13727 -0.6142,3.41181 -4.91354,2.27454 -4.91356,6.25499 -1.84257,3.41181 -6.75614,0.56863 -4.29935,-7.96089 -13.51228,7.96089 -3.07097,-3.98044 -0.61419,-2.27454 -1.22839,0.56863 h -2.45677 l -0.61419,-1.7059 -1.22839,-3.41181 -5.52776,0.56863 -0.61419,3.98045 -3.07096,1.7059 h -2.45678 l -0.6142,1.70591 -1.22838,2.84317 0.61419,2.27454 -2.45678,2.84318 -3.07097,2.27454 -4.91355,2.84317 -0.61419,2.27454 -1.22839,1.13727 -3.68517,-2.84317 v -5.68635 l -1.84257,-3.98045 -3.68517,-3.41181 -4.29936,0.56864 -4.29935,1.7059 h -1.84259 l -1.84258,-3.41181 -1.22839,-3.41181 -1.22839,-1.13727 -1.84257,0.56864 -1.84259,1.7059 v 1.70591 l -1.84258,0.56863 -1.22839,1.13727 v 2.27454 l -1.84258,0.56864 -1.84259,-1.70591 -1.84257,-4.54908 v -5.68635 l -1.84258,-3.41181 -3.68517,-2.84317 -1.22839,-1.70591 1.22839,-1.7059 6.75613,-1.70591 3.07097,1.70591 2.45678,2.84317 -1.22839,2.27454 -0.61419,3.98045 0.61419,3.98044 4.91356,-2.84317 3.68516,-1.70591 1.22838,-3.41181 4.91356,-7.39225 5.52774,-0.56864 6.14195,-0.56863 7.37032,0.56863 0.6142,-2.27454 h 3.07096 l 4.91356,0.56864 v -2.84317 l -3.07098,-1.13727 -4.91354,-0.56864 -3.07098,-3.98044 1.84259,-2.84318"
     id="path22"
     inkscape:connector-curvature="0"
     style="stroke-width:1.34925938" />
  <path
     d="m 386.328,375.86773 0.6142,-3.41181 -4.91355,-2.84318 -4.91356,0.56864 -2.45677,-10.23543 -3.07097,-1.70591 h -7.37033 l -1.84257,-3.41181 -1.84259,-5.11772 -4.29936,-0.56864 -3.07097,-3.98044 -7.37033,0.56863 -2.45678,-2.84317 -4.29935,-1.13727 -11.66969,-7.39225 -4.29936,-0.56864 2.45678,3.98045 -3.68517,2.84317 -2.45676,3.41181 -1.22839,3.41181 -1.84259,3.98044 -1.22839,2.84319 -1.84258,1.13727 -1.84258,-0.56864 -0.6142,-2.84317 -3.68516,-2.84319 -3.68516,6.255 3.07097,2.27454 0.61419,3.41181 4.91355,2.84317 7.37034,6.25499 3.68515,3.41181 0.6142,4.54908 5.52775,3.41181 h 7.98452 l 10.4413,0.56863 9.8271,-0.56863 h 9.21291 l 6.75614,-1.70591 6.75613,-1.7059"
     id="path24"
     inkscape:connector-curvature="0"
     style="stroke-width:1.34925938" />
  <path
     d="m 331.05055,308.20016 -1.84258,-5.68635 -0.6142,-3.98045 -1.84258,-3.98044 -4.91356,-1.70591 -5.52774,-0.56863 -3.07097,-2.84317 -1.84258,-1.13727 -3.68516,1.13727 -1.22839,1.13727 -4.29936,-2.27454 -3.07096,-2.27454 -3.68517,2.27454 -1.22839,-2.27454 v -2.84318 l -4.29936,-1.13727 h -3.07097 l -0.61419,-5.11771 0.61419,-5.11772 -4.91355,-0.56863 -4.29935,-1.13727 -3.07098,2.27454 -4.91355,-1.70591 -4.29935,-5.11771 -3.07098,-2.84318 -3.68517,-1.7059 -4.29935,-1.13727 -5.52775,-5.11772 -3.68516,2.84318 -3.68516,3.98044 -0.6142,2.84318 v 5.68635 3.98044 l -2.45678,2.84318 -3.07096,0.56863 -0.61419,10.23543 -6.14195,6.25498 -2.45677,9.6668 4.91355,6.82362 4.29936,1.13727 8.59872,6.82362 1.22838,2.84317 v 2.27454 l -1.22838,3.98045 -1.22839,1.7059 0.61419,2.84318 1.84258,1.7059 3.68516,3.41181 2.45678,-1.7059 3.07097,1.13727 0.6142,2.84317 v 2.27454 3.41181 l 1.84258,3.41181 5.52774,-5.11772 7.37033,-0.56863 3.68516,3.98044 5.52776,-2.84317 5.52774,-1.70591 4.29936,-3.98044 1.22838,3.41181 -4.29935,3.98044 -6.14195,3.98045 1.22839,2.84317 3.07097,3.41182 4.91356,-1.7059 5.52774,-1.13727 5.52775,-0.56865 3.68516,2.84319 3.68516,-6.255 3.68516,2.84319 0.6142,2.84317 1.84258,0.56864 1.84258,-1.13727 1.22839,-2.84319 1.84259,-3.98044 1.22839,-3.41181 2.45676,-3.41181 3.68517,-2.84317 -2.45678,-3.98045 4.29936,0.56864 11.66969,7.39225 0.6142,-13.64724 1.84258,-3.41181 -0.61419,-9.66679 -4.29937,-2.27454 1.22839,-3.41181 -3.07097,-3.41181"
     id="path26"
     inkscape:connector-curvature="0"
     style="stroke-width:1.34925938" />
  <path
     style="fill:none;stroke:#000000;stroke-width:1px;stroke-linecap:butt;stroke-linejoin:miter;stroke-opacity:1"
     d="M 10.786375,597.39868 H 31.160638"
     id="path25"
     inkscape:connector-curvature="0"
     inkscape:path-effect="#path-effect27"
     inkscape:original-d="M 10.786375,597.39868 H 31.160638" />
  <path
     style="fill:none;stroke:#000000;stroke-width:0.40000001px;stroke-linecap:butt;stroke-linejoin:miter;stroke-opacity:1"
     d="m 65.104559,407.14266 -0.614188,-2.8432 0.614188,-7.39224 23.823113,-5.02828 49.265968,-7.48168 14.74065,1.13726 15.35486,-0.56862 12.28388,0.56862 0.61419,-3.4118 1.84258,-3.41182 0.6142,-2.27454 -3.07097,-0.56863 -0.6142,-1.13727 0.6142,-2.27454 1.22839,-1.70591 -1.84259,-3.41181 2.45678,-0.56863 h 5.52774 l 4.91356,0.56863 h 5.52774 l 5.52775,-1.13727 11.66969,-1.7059 6.14193,-0.56864 5.52774,-1.7059 2.45678,-5.11772 2.45678,-9.09816 -3.07097,-1.13728 -1.84259,-2.27454 1.84259,-3.4118 1.84258,-2.27454 3.07097,3.4118 3.68516,2.84318 4.91356,1.13728 7.37032,-0.56864 4.91356,-3.98044 v 3.4118 l -6.75614,5.11772 -12.28387,13.07861 0.61419,2.27454 2.45677,5.11771 -0.6142,4.54908 -4.29935,1.13727 -3.68516,-1.7059 -2.45678,0.56863 v 2.27454 l 4.91355,3.98045 1.84259,2.27454 v 3.41182 l 5.52774,2.84316 7.37032,9.6668 -4.91354,18.76494 -9.21291,1.70592 0.61419,-3.4118 -3.68516,-1.13728 v -5.11772 l -3.68517,-1.13728 -18.42582,3.98044 -18.42582,1.70592 -6.75613,-0.56864 -7.98453,-4.54908 -1.84257,1.13728 -2.45677,-2.84316 -3.07098,-1.70592 -1.84258,-2.27456 v -3.4118 l -3.68516,-2.84316 -3.68516,3.98044 0.61419,2.84316 -1.22839,1.70592 -3.07097,1.70592 -2.45677,0.5686 -1.84258,6.255 -4.91356,-2.27452 -9.21291,-1.13728 -13.51227,-0.56864 -16.58323,0.56864 z"
     id="path38"
     inkscape:connector-curvature="0" />
  <path
     style="fill:#000000;fill-opacity:1;stroke:#ffffff;stroke-width:0.29962152;stroke-opacity:1"
     d="m 584.43553,1049.2524 c 0,-0.1981 0.28809,-1.9652 0.6402,-3.927 0.50451,-2.8107 0.56059,-3.616 0.2646,-3.7989 -0.20662,-0.1277 -2.31236,-0.8168 -4.67946,-1.5312 l -4.30379,-1.299 -0.0806,-6.439 -0.0806,-6.4389 -4.80024,-1.4668 -4.80023,-1.4668 -23.04018,4.9808 -23.04017,4.9809 -7.81455,0.736 c -4.29801,0.4048 -14.55604,1.364 -22.79563,2.1316 l -14.98107,1.3955 -8.53922,-0.6896 -8.53921,-0.6897 -10.14789,-5.7679 -10.14789,-5.768 -2.08933,1.3392 c -1.14913,0.7366 -2.1951,1.2985 -2.32437,1.2486 -0.12926,-0.05 -1.52124,-1.5738 -3.09328,-3.3865 -2.75825,-3.1806 -2.9908,-3.3689 -6.6479,-5.3829 -3.64507,-2.0075 -3.87467,-2.1928 -6.01754,-4.857 l -2.22787,-2.7699 v -4.2924 -4.2925 l -4.7711,-3.65937 c -2.62411,-2.01267 -4.89436,-3.65941 -5.04501,-3.65941 -0.15065,0 -2.43776,2.33594 -5.08248,5.19098 l -4.80858,5.191 0.70098,3.1235 c 0.38554,1.7179 0.70735,3.369 0.71513,3.6691 0.008,0.3 -0.58135,1.38 -1.30918,2.4 -1.19089,1.6689 -1.69317,2.0612 -5.01866,3.92 -3.06072,1.7108 -4.25729,2.1993 -6.96764,2.8445 l -3.27231,0.7789 -2.21034,7.479 c -1.21569,4.1135 -2.26238,7.5311 -2.32599,7.5947 -0.0636,0.064 -2.71994,-1.0901 -5.90297,-2.5638 l -5.78732,-2.6794 -11.42367,-1.4053 c -10.75235,-1.3228 -12.42746,-1.4486 -28.5048,-2.1401 l -17.08113,-0.7348 -20.68266,0.7267 -20.68265,0.7266 -9.23874,-1.0339 c -5.08131,-0.5687 -12.07016,-1.4299 -15.53079,-1.914 -3.46063,-0.484 -8.24708,-1.087 -10.63656,-1.34 -2.38949,-0.253 -11.28824,-1.1985 -19.77502,-2.1011 -8.48678,-0.9026 -17.79003,-1.8574 -20.67389,-2.1219 -5.14244,-0.4716 -22.92741,-2.3619 -25.34921,-2.6943 l -1.22968,-0.1688 -0.6851,-3.2647 -0.68509,-3.2648 0.70312,-8.7156 c 0.38671,-4.79355 0.77646,-8.8329 0.8661,-8.97631 0.0896,-0.1434 13.64595,-3.09978 30.12513,-6.56974 l 29.96215,-6.30901 23.96972,-3.62301 c 13.18335,-1.99265 32.86848,-4.97471 43.74475,-6.62679 10.87626,-1.65209 27.59514,-4.18649 37.15306,-5.632 l 17.37805,-2.6282 18.1271,1.42729 18.12711,1.42729 19.32558,-0.71687 19.32559,-0.71686 12.73392,0.5809 c 7.00365,0.3195 14.0485,0.66695 15.65522,0.77211 1.60672,0.10516 2.92131,0.0943 2.92131,-0.0241 0,-0.11843 0.3471,-2.12171 0.77133,-4.45174 0.75234,-4.13207 0.82871,-4.34341 3.10108,-8.58092 1.76787,-3.29672 2.5263,-5.09218 3.14473,-7.4446 0.44823,-1.70504 0.75453,-3.16052 0.68065,-3.23439 -0.0739,-0.0739 -1.84303,-0.4498 -3.93146,-0.83538 -2.08843,-0.38557 -3.83421,-0.75029 -3.87951,-0.81048 -0.0453,-0.0602 -0.36753,-0.58444 -0.71604,-1.16499 l -0.63366,-1.05554 0.75345,-2.67534 c 0.57825,-2.05325 1.12756,-3.2062 2.36238,-4.95841 l 1.60893,-2.28308 -2.1974,-4.02336 -2.1974,-4.02337 2.58891,-0.65252 c 3.91693,-0.98726 13.78456,-0.96198 22.21411,0.0569 4.92796,0.59565 7.54534,0.74272 13.23968,0.74393 l 7.09743,0.001 7.2844,-1.47903 c 9.23754,-1.8756 34.13084,-5.49623 43.5386,-6.33251 7.68583,-0.68321 7.19979,-0.57704 17.92192,-3.91491 l 3.83971,-1.19533 3.11732,-6.44649 c 2.72174,-5.62837 3.29132,-7.0889 4.48824,-11.50855 0.754,-2.78413 1.63177,-5.8203 1.9506,-6.74704 0.31886,-0.92673 0.7925,-2.71676 1.05254,-3.97783 0.26007,-1.26108 0.81003,-3.49348 1.22219,-4.9609 0.56952,-2.02783 0.6618,-2.72214 0.38456,-2.89348 -0.20063,-0.12399 -1.98565,-0.81099 -3.96675,-1.52666 -3.56175,-1.28668 -3.62006,-1.32298 -5.21967,-3.24876 -3.0491,-3.67087 -2.98942,-2.87434 -0.55137,-7.35781 2.13259,-3.92172 6.08594,-9.33663 6.50005,-8.90311 0.12144,0.12714 1.74904,1.93536 3.61688,4.01826 2.59415,2.89284 4.49388,4.63513 8.04514,7.3784 l 4.64902,3.59131 6.24096,1.44576 6.24094,1.44575 9.33447,-0.68794 c 5.40259,-0.39817 9.54912,-0.83371 9.84403,-1.034 0.28027,-0.19033 2.87574,-2.2707 5.76772,-4.62305 l 5.25815,-4.27701 v 3.41442 3.41442 l -8.36043,6.34731 -8.36043,6.34731 -15.47216,16.46903 -15.47212,16.46902 0.87822,3.21446 c 0.61713,2.25883 1.77004,5.05459 3.87809,9.40416 l 2.99987,6.1897 -0.74174,5.3431 c -0.40797,2.93871 -0.76542,5.36557 -0.79433,5.39303 -0.0291,0.0274 -2.28929,0.62866 -5.0231,1.33603 l -4.97057,1.28613 -1.77091,-0.77973 c -0.97401,-0.42885 -3.05183,-1.37648 -4.61735,-2.10585 l -2.8464,-1.32613 -3.37074,0.75414 -3.37075,0.75414 v 3.348 3.34801 l 6.21715,5.03151 c 4.9594,4.01361 6.65621,5.58273 8.38749,7.75628 l 2.17033,2.72478 0.009,4.34451 0.009,4.34452 6.99934,3.57508 6.99934,3.57508 8.79898,11.51365 c 4.83943,6.3325 8.90458,11.80227 9.03365,12.15505 0.16405,0.44833 -1.56354,7.47976 -5.73922,23.35916 -3.28565,12.4948 -6.04591,22.7898 -6.13397,22.8778 -0.1585,0.1585 -20.37408,3.98 -21.09512,3.9877 -0.20599,0 -0.37453,-0.158 -0.37453,-0.3561 z"
     id="path40"
     inkscape:connector-curvature="0"
     transform="scale(0.40000002)" />
  <path
     style="fill:none;stroke:#000000;stroke-width:0.40000001px;stroke-linecap:butt;stroke-linejoin:miter;stroke-opacity:1"
     d="m 225.40919,316.16105 5.52774,-5.68635 -4.91355,-7.39226 1.84258,-9.09816 6.75614,-6.25498 0.61419,-10.23543 3.07096,-0.56863 2.45678,-3.41181 0.6142,-11.94134 7.37032,-6.82362 -8.59871,-6.82362 1.84258,-3.98044 -1.84258,-1.7059 h -8.59872 l -5.52774,-9.09817 -4.91355,-3.41181 -12.89808,-1.70591 -17.19743,-10.23543 -20.26839,-9.09816 -9.21291,13.64724 3.07096,7.39226 -1.84257,9.09817 -1.22839,2.27454 h -3.07097 l -1.22839,-1.70592 v -2.84316 l -5.52774,-1.13728 v 16.49042 l -8.59873,9.66679 -1.22838,7.39226 -6.75614,4.54908 1.84259,2.27454 v 1.7059 l 0.61419,2.27454 2.45678,0.56864 0.61419,-3.41181 0.6142,-2.27454 2.45677,-0.56864 1.22838,2.84318 h 2.45678 l -0.61419,6.82362 4.29936,4.54908 -0.61419,1.13727 -2.45678,0.56863 v 7.39225 l 5.52774,0.56864 -3.07096,3.41181 -1.22839,2.84318 0.61419,3.4118 1.22839,-0.56862 1.22839,-1.70592 1.84257,0.56864 v 2.27454 l 1.22839,0.56864 3.07098,-2.27454 1.84258,2.84318 4.29935,-2.27454 -1.84257,6.25497 4.29935,0.56864 3.07097,3.98044 3.68516,-0.56863 5.52775,-4.54908 -0.6142,-2.27454 -7.37032,-3.98044 -1.84258,-3.41182 2.45678,-1.7059 1.22838,-3.41181 9.21291,1.13727 4.91355,10.23544 9.2129,-2.27454 9.82711,5.68634 4.91356,1.13727 7.37032,-1.13727 z"
     id="path42"
     inkscape:connector-curvature="0" />
  <path
     style="fill:#000000;fill-opacity:1;stroke:#ffffff;stroke-width:0.42372882;stroke-opacity:1"
     d="m 421.81581,788.9484 -3.79764,-4.94593 -4.24178,-0.49873 c -5.86075,-0.68908 -5.83512,-0.67838 -5.48703,-2.2928 0.15897,-0.73724 1.00182,-3.15187 1.873,-5.36586 0.90276,-2.29422 1.6993,-5.17837 1.85214,-6.70629 l 0.26817,-2.68087 -5.64873,2.98129 -5.64873,2.98129 -2.26354,-3.54043 c -2.17713,-3.40529 -2.3051,-3.52294 -3.35242,-3.08207 -0.59888,0.2521 -1.75625,1.05885 -2.57192,1.79277 -0.81568,0.73392 -2.13948,1.82856 -2.94177,2.43253 -1.35944,1.02339 -1.53969,1.05626 -2.64831,0.48298 -1.12486,-0.58169 -1.18958,-0.77034 -1.18958,-3.46695 0,-2.70921 -0.0583,-2.87639 -1.16526,-3.34404 -0.64089,-0.27074 -1.92797,-0.60482 -2.86017,-0.7424 -1.65693,-0.24454 -1.72735,-0.20202 -3.14216,1.89725 -0.79598,1.18108 -1.95102,2.40791 -2.56675,2.72632 l -1.1195,0.57892 -0.64511,-3.77588 -0.6451,-3.77589 1.45076,-3.36893 c 1.17692,-2.73304 2.24646,-4.2515 5.66629,-8.04465 4.85444,-5.38435 5.11155,-4.83616 -2.60012,-5.54398 -2.68009,-0.246 -5.49259,-0.54693 -6.25,-0.66874 l -1.37712,-0.22148 v -8.61427 -8.61427 l 1.35403,-0.27081 c 3.71082,-0.74216 4.50845,-1.13001 5.38733,-2.6196 0.48716,-0.82569 0.88576,-1.66208 0.88576,-1.85865 0,-0.19657 -2.38348,-2.88923 -5.29661,-5.9837 -3.98865,-4.23693 -5.2935,-5.89537 -5.28402,-6.71584 0.007,-0.59925 0.28727,-3.85437 0.623,-7.23361 0.33573,-3.37923 0.61608,-6.85911 0.623,-7.73305 l 0.0126,-1.58898 h -3.12075 -3.12075 l -1.40113,-3.2839 c -0.77063,-1.80614 -1.51322,-3.41918 -1.65021,-3.58452 -0.21094,-0.25458 -6.76421,1.17861 -7.15344,1.56445 -0.29715,0.29456 -1.42557,4.93547 -2.2077,9.07972 -0.4579,2.42624 -0.88622,4.46502 -0.95183,4.53063 -0.0656,0.0656 -1.16313,-0.1115 -2.43894,-0.39357 -2.27614,-0.50324 -2.33293,-0.55246 -3.02721,-2.62385 -0.38915,-1.16105 -0.72768,-3.3504 -0.75228,-4.86523 -0.0431,-2.65457 -0.12089,-2.84581 -2.14924,-5.28486 -1.65146,-1.98586 -1.99121,-2.63678 -1.57822,-3.02377 0.28945,-0.27124 3.95848,-2.81364 8.1534,-5.64979 l 7.62712,-5.15663 1.55001,-9.26429 1.55002,-9.26428 10.84405,-12.18741 10.84405,-12.18742 v -20.29052 c 0,-19.12306 0.0427,-20.27824 0.74153,-20.07723 0.40784,0.1173 2.83898,0.61905 5.40254,1.11501 2.56356,0.49596 4.9947,0.99772 5.40254,1.11502 0.6264,0.18016 0.74153,0.73793 0.74153,3.59265 0,3.28562 0.0477,3.44392 1.71903,5.70634 l 1.71904,2.32697 4.29198,-0.12049 4.29199,-0.12049 1.59943,-2.97553 c 1.40724,-2.61798 1.87936,-4.35776 3.92913,-14.47876 l 2.32971,-11.50324 -3.81178,-9.14147 -3.81178,-9.14146 11.13857,-16.52231 c 6.87873,-10.20351 11.39902,-16.52451 11.81958,-16.52807 0.37456,-0.003 9.60356,5.80991 20.5089,12.91796 10.90534,7.10805 20.03744,12.92267 20.29357,12.92138 0.25612,-0.001 2.43186,-0.76604 4.83496,-1.69944 l 4.36929,-1.69709 21.27488,12.67011 21.27488,12.6701 16.20083,2.17079 16.20083,2.17079 5.95552,4.12549 5.95551,4.1255 7.01736,11.54661 7.01735,11.54661 h 10.81616 10.81616 l 1.97511,1.84748 1.97511,1.84749 -2.27969,4.9862 c -1.25382,2.74241 -2.12285,5.12415 -1.93116,5.29274 0.19168,0.16859 4.97526,3.97386 10.63017,8.45614 l 10.28165,8.14962 -2.17844,1.9586 c -1.19814,1.07724 -2.96471,2.5631 -3.92572,3.30193 -0.961,0.73882 -4.03542,3.66312 -6.83203,6.49843 -6.07261,6.15666 -5.54561,4.22934 -6.10757,22.33607 l -0.38311,12.3442 -2.85297,3.96936 c -1.56914,2.18315 -2.91999,4.04757 -3.0019,4.14316 -0.0819,0.0956 -1.87975,0.5063 -3.9952,0.91271 -2.11545,0.40641 -3.90265,0.8049 -3.97156,0.88553 -0.13283,0.15542 -1.52641,22.69989 -1.5159,24.52325 0.005,0.85351 -1.71122,2.65304 -8.43406,8.84388 l -8.44023,7.77232 -0.63067,2.80866 c -0.34687,1.54477 -1.43869,6.86027 -2.42626,11.81222 l -1.79558,9.00356 1.22665,1.88226 c 0.67467,1.03524 3.37862,5.03955 6.0088,8.89847 3.82971,5.61886 4.70021,7.16401 4.37081,7.75826 -0.22622,0.40812 -3.15796,3.47384 -6.51496,6.81273 l -6.10364,6.07069 -8.30643,-4.14674 -8.30643,-4.14673 -9.24603,1.41998 -9.24603,1.41997 -5.92657,-1.38629 -5.92658,-1.38628 -12.44939,-7.18729 -12.44938,-7.18729 -11.24016,2.81129 c -6.18209,1.5462 -11.37493,2.66014 -11.53965,2.4754 -0.21293,-0.23881 -11.848,-24.37074 -12.04478,-24.98171 -0.0222,-0.0688 -21.12901,-2.64118 -23.05167,-2.80944 -0.89569,-0.0784 -1.15709,0.35108 -2.61072,4.28916 -0.88846,2.40695 -1.67996,4.42098 -1.75889,4.47562 -0.0789,0.0546 -1.47825,1.02488 -3.1096,2.15607 -1.63136,1.1312 -3.01459,2.08938 -3.07385,2.1293 -0.0593,0.0399 1.01748,2.15334 2.39276,4.69648 l 2.5005,4.6239 8.22006,4.44915 c 10.25687,5.55157 10.34052,5.60757 10.64405,7.12526 0.13755,0.68775 0.36717,1.71692 0.51027,2.28706 0.23283,0.92769 -0.43722,1.61193 -6.37631,6.5113 l -6.63649,5.47468 -4.31379,0.65598 -4.31379,0.65598 z"
     id="path44"
     inkscape:connector-curvature="0"
     transform="scale(0.40000002)" />
  <ellipse
     style="fill:#000000;fill-opacity:1;stroke:#ffffff;stroke-width:0.72557008;stroke-opacity:1"
     id="path76-3-3"
     cx="41.227924"
     cy="21.666578"
     rx="13.611716"
     ry="13.442225" />
  <text
     xml:space="preserve"
     style="font-style:normal;font-weight:normal;font-size:11.10141373px;line-height:1.25;font-family:sans-serif;letter-spacing:0px;word-spacing:0px;fill:#000000;fill-opacity:1;stroke:none;stroke-width:0.27753538"
     x="5.6691499"
     y="37.197147"
     id="text99-3-2-6-6"
     transform="scale(0.7616769,1.3128926)"><tspan
       sodipodi:role="line"
       id="tspan97-5-9-7-7"
       x="5.6691499"
       y="37.197147"
       style="stroke-width:0.27753538">Жетысайский район</tspan></text>
  <ellipse
     style="fill:#000000;fill-opacity:1;stroke:#ffffff;stroke-width:0.72557008;stroke-opacity:1"
     id="path76-3-3-3"
     cx="42.18671"
     cy="69.606026"
     rx="13.611716"
     ry="13.442226" />
  <text
     xml:space="preserve"
     style="font-style:normal;font-weight:normal;font-size:12.70378113px;line-height:1.25;font-family:sans-serif;letter-spacing:0px;word-spacing:0px;fill:#000000;fill-opacity:1;stroke:none;stroke-width:0.31759459"
     x="4.3998661"
     y="77.023659"
     id="text99-3-2-6-6-6"
     transform="scale(0.76177331,1.3127265)"><tspan
       sodipodi:role="line"
       id="tspan97-5-9-7-7-7"
       x="4.3998661"
       y="77.023659"
       style="stroke-width:0.31759459">Келесский район</tspan></text>
  <ellipse
     style="fill:#000000;fill-opacity:1;stroke:#ffffff;stroke-width:0.72557008;stroke-opacity:1"
     id="path76-3-3-3-5"
     cx="42.372883"
     cy="125.01734"
     rx="13.611716"
     ry="13.442226" />
  <text
     xml:space="preserve"
     style="font-style:normal;font-weight:normal;font-size:12.70378113px;line-height:1.25;font-family:sans-serif;letter-spacing:0px;word-spacing:0px;fill:#000000;fill-opacity:1;stroke:none;stroke-width:0.31759459"
     x="4.654242"
     y="117.33201"
     id="text99-3-2-6-6-6-3"
     transform="scale(0.76177331,1.3127265)"><tspan
       sodipodi:role="line"
       id="tspan97-5-9-7-7-7-5"
       x="4.654242"
       y="117.33201"
       style="stroke-width:0.31759459">г. Туркестан</tspan></text>
</svg>
