<?xml version="1.0" encoding="UTF-8" standalone="no"?>
<svg
   xmlns:dc="http://purl.org/dc/elements/1.1/"
   xmlns:cc="http://creativecommons.org/ns#"
   xmlns:rdf="http://www.w3.org/1999/02/22-rdf-syntax-ns#"
   xmlns:svg="http://www.w3.org/2000/svg"
   xmlns="http://www.w3.org/2000/svg"
   xmlns:sodipodi="http://sodipodi.sourceforge.net/DTD/sodipodi-0.dtd"
   xmlns:inkscape="http://www.inkscape.org/namespaces/inkscape"
   version="1.0"
   width="590.75293pt"
   height="470.34225pt"
   viewBox="0 0 590.75293 470.34225"
   preserveAspectRatio="xMidYMid meet"
   id="svg664"
   sodipodi:docname="4-района-Шымкента-696x518.svg"
   inkscape:version="0.92.3 (unknown)">
  <metadata
     id="metadata670">
    <rdf:RDF>
      <cc:Work
         rdf:about="">
        <dc:format>image/svg+xml</dc:format>
        <dc:type
           rdf:resource="http://purl.org/dc/dcmitype/StillImage" />
        <dc:title />
      </cc:Work>
    </rdf:RDF>
  </metadata>
  <defs
     id="defs668" />
  <sodipodi:namedview
     pagecolor="#ffffff"
     bordercolor="#666666"
     borderopacity="1"
     objecttolerance="10"
     gridtolerance="10"
     guidetolerance="10"
     inkscape:pageopacity="0"
     inkscape:pageshadow="2"
     inkscape:window-width="1855"
     inkscape:window-height="1056"
     id="namedview666"
     showgrid="false"
     fit-margin-top="0"
     fit-margin-left="0"
     fit-margin-right="0"
     fit-margin-bottom="0"
     inkscape:zoom="0.64"
     inkscape:cx="-215.95369"
     inkscape:cy="240.89418"
     inkscape:window-x="65"
     inkscape:window-y="24"
     inkscape:window-maximized="1"
     inkscape:current-layer="svg664" />
  <path
     style="fill:none;stroke:#000000;stroke-width:0.75px;stroke-linecap:butt;stroke-linejoin:miter;stroke-opacity:1"
     d="m 151.63098,46.570637 -1.19453,-9.35715 -4.18086,-4.97721 -1.39362,-7.96353 -1.39361,-1.39362 -2.78724,-0.59726 -3.18541,-5.57448 12.29801,-6.7281496 0.8,-8.8 20.14974,1.99015 h 7.76444 l 1.39362,-1.99089 5.97265,-0.79635002 6.17174,1.79180002 4.97721,0.39817 4.77812,-0.39817 4.57903,-0.79636 4.97721,-0.39817002 4.77811,1.99088002 4.18086,3.18541 5.5745,3.78268 6.1717,3.7826796 3.2311,3.05817 20.8586,5.30354 7.5654,3.18541 9.3571,3.18541 9.1581,2.38906 16.9225,4.77812 9.8383,2.95846 15.1,3.3 21.4493,3.39733 5.8731,0.69681 7.8639,1.29407 10.1535,1.7918 10.8504,2.28951 4.1808,1.09499 2.0904,2.09042 1.4932,1.99089 1.2941,2.78723 0.6968,2.58815 0.4977,2.38906 3.1854,-0.69681 2.4886,0.79636 0.7964,1.69224 1.3936,2.48861 -0.9954,1.99088 -1.3937,2.48861 -3.0858,6.96809 v 4.47949 l 6.5699,2.4886 7.864,4.18085 13.7371,10.053963 14.8818,12.94074 4.5293,2.18997 2.9365,0.24887 0.1991,9.2576 v 5.92288 l 0.6471,2.09043 8.1671,6.15297 4.7646,7.25061 3.8325,0.41432 2.6931,0.62148 2.0716,3.31456 -0.1036,2.38235 4.3504,0.93222 4.9718,2.69308 4.6611,3.1074 -0.725,2.17518 -1.0358,2.90025 -0.3108,3.6253 0.2072,3.21098 2.1752,0.93222 1.5537,1.24296 1.0358,2.38235 2.3823,2.38234 2.6931,1.96802 1.8644,0.31074 3.7289,4.55752 2.6931,1.24297 4.0396,0.82864 2.7967,-1.13938 3.0038,-1.55371 h 4.5575 l 4.1432,0.20717 3.0039,0.93222 3.6253,1.0358 4.8682,1.76086 3.211,0.93222 1.9291,1.69164 0.1464,1.61133 2.124,6.00585 4.6143,3.07618 2.6367,1.61132 1.2451,3.00294 -2.3437,0.95214 1.9775,2.56348 3.003,1.09863 1.4648,1.17188 -1.6113,2.56347 -1.8311,1.46485 2.4903,2.49023 5.4199,-1.17187 1.0986,-0.29297 0.9521,2.92968 2.9297,2.70997 2.1973,3.22265 7.6172,6.37207 4.9805,3.22266 9.2995,2.90441 2.6931,4.35037 2.3823,4.1432 5.6676,2.81062 -2.7673,8.27245 -0.9322,3.10741 -2.2788,0.72506 -7.6649,-5.80049 -4.454,-4.14321 -3.0038,-4.55752 -3.6253,-3.72888 -5.0754,-3.31457 -5.2826,-3.6253 -2.7967,-1.96802 -6.5255,-3.52173 -9.0115,-0.41431 -8.5971,0.82864 -6.6291,3.83246 -8.5972,-3.21098 -9.115,-2.58951 -12.7404,-0.41431 -9.5688,3.23804 -8.0566,1.61132 -5.2734,3.66212 -7.4707,3.95508 -5.2735,1.90429 -5.789,0.75184 -1.0358,-2.69308 -5.5933,-1.86444 -4.5576,-1.45013 -6.0076,1.45013 -5.3862,1.86444 -3.1074,2.90024 -9.115,1.86444 -6.422,0.82864 -3.4462,4.29988 -14.5767,5.64381 -9.7366,4.1432 -5.8005,2.07161 -7.0434,1.0358 -7.6649,-3.52173 -4.7647,-4.76468 -1.6573,-2.27876 -5.5933,-2.0716 -7.6649,0.82864 -7.8721,-7.25061 -3.5218,-4.14321 -3.3038,-11.79247 -2.4966,-3.33022 10.7723,-7.04344 7.4578,-2.27877 3.3145,-1.0358 1.6573,-4.1432 -1.4501,-4.1432 -7.0435,-1.24296 -3.1074,1.0358 -6.2148,0.82864 -2.6931,-4.35037 1.4502,-3.72888 4.3503,-2.27876 4.5576,-2.48592 7.0434,-2.69309 6.422,-1.45012 2.9002,-2.48592 3.7289,-5.38617 5.3862,-4.1432 3.7288,-2.48593 -4.164,-5.45849 -9.0942,4.4227 -6.5058,4.2773 -6.131,-9.24915 -6.0076,-2.27876 -11.3938,-2.69308 -27.3452,-8.90789 9.7365,-24.85922 0.4144,-4.76468 -2.9003,-3.31457 -7.6649,-0.82864 -10.7723,-0.41432 0.4143,2.48592 7.0434,5.59333 0.01,2.63106 -3.1138,1.51214 -19.4731,-7.66492 -24.8592,-9.11505 h -5.8005 l 1.6573,-3.72889 -4.9718,-2.48592 -6.8363,-4.97184 -19.05877,-17.608623 -3.93605,2.48592 -0.62148,4.76469 -2.07159,1.03579 -8.70073,0.41433 -3.72889,2.693083 -1.45012,2.27876 -3.52172,-4.1432 -6.31353,-20.366273 6.52038,-9.87912 -3.1074,-1.65728 -8.28641,0.82864 -2.69308,-7.45776 -6.83629,-5.17901 -5.12721,-5.54154 z"
     id="path684"
     inkscape:connector-curvature="0" />
  <path
     style="fill:none;stroke:#000000;stroke-width:0.75px;stroke-linecap:butt;stroke-linejoin:miter;stroke-opacity:1"
     d="m 305.46895,161.22987 33.3985,9.37501 6.6484,9.64062 15.6,-8.7 4.7,0.4 -2.925,6.8625 -7.0312,4.6875 -2.3438,4.6875 -8.2031,4.6875 -12.8906,3.51562 -5.2735,4.6875 -1.7578,4.10157 2.9297,3.51562 8.7891,-0.58594 5.8593,-1.17187 2.3438,3.51562 v 3.51563 l -2.9297,1.17187 -4.1016,2.92969 -7.6171,2.92969 -7.4379,4.69114 2.2894,4.15886 2.2681,10.96384 3.1074,4.55752 4.3504,2.69308 5.5933,1.65728 8.2864,2.07161 3.7289,2.69308 4.3503,3.31456 4.5576,4.14321 8.0792,3.31456 3.7289,1.24296 5.3862,-1.24296 4.7646,-3.31456 7.0435,-2.69309 5.3862,-4.1432 5.5933,-2.0716 6.4219,-3.72888 3.9361,-2.27877 c 0,0 8.4936,-0.62148 9.3222,-0.82864 0.8286,-0.20716 12.6955,-1.55 12.6955,-1.55 l 20.1,1.4 17.2,-9 0.9659,-2.45097 7.0435,-1.24296 6.8362,-2.69309 7.0435,-0.20715 6.8363,0.20715 6.6291,0.62148 5.3862,1.86445 6.0076,2.0716 5.5933,0.41432 2.9003,-2.69308 5.8581,-3.69175 18.5868,3.48459 5.3861,3.93604 5.179,3.52173 3.9361,4.1432 4.3503,5.38616 4.3504,5.17901 3.7289,4.55752 -1.4501,3.52172 -3.7289,0.82865 -3.4386,-2.25862 -1.1189,-4.16335 -3.1075,3.52173 -7.2506,-4.14321 -11.1866,-3.93604 -2.4859,-2.90024 -4.7647,1.03579 -1.0358,1.86445 -1.243,4.1432 -2.807,3.97767 -6.1009,8.03762 -2.0715,4.55753 -3.5218,2.27876 -6.6291,1.0358 -16.1585,2.27876 -1.6573,2.0716 -0.6609,2.13993 -7.6255,-6.49029 -3.1074,2.0716 -9.7365,12.42961 -10.9306,9.58908 6.1659,2.84053 6.422,11.60097 6.6291,9.73653 3.5217,3.31457 0.2072,5.179 0.4143,3.93604 4.7647,5.38617 2.6931,3.52172 2.4859,0.20716 1.0358,3.31457 -2.0716,0.41432 -6.8681,-4.45158 -10.9,-1 -3.4,3 -1.8267,4.9375 -0.6215,5.38616 4.6482,4.37634 0.9,7.8 5.4313,-2.43981 0.8687,4.33981 -9.4,3.9 -12.3919,-5.96105 -0.4143,-4.97184 -3.1074,-3.52173 -6.8864,8.25462 -7.4,-1.7 4.9642,-15.04818 -10.358,1.86444 -5.179,7.45777 -6.6291,4.76468 -1.8645,4.55752 -0.6215,5.80049 -0.4143,1.45012 -5.3861,-12.42961 -0.6215,-2.90024 2.9002,-19.47306 4.9719,-13.87973 -0.6215,-2.48592 -2.2788,-2.27877 -1.8644,-1.86444 -21.1304,1.03581 -1.6572,3.31455 -9.3222,-1.45011 -2.2788,2.69307 -5.8005,-0.41431 -2.0716,0.20716 -2.9002,5.38616 -10.7724,25.89502 -2.0716,9.11505 -1.8644,5.38616 -25.4807,-6.42196 -6.8476,0.11833 -5.9963,-2.60425 -6.422,-1.45013 -6.0077,-1.03579 -1.974,-1.00983 -0.9262,-10.59114 -2.2788,-2.90024 2.2788,-13.67258 -20.0945,4.35036 -4.3504,-6.2148 -3.5289,-8.3716 -2.8931,-7.99406 -2.2787,-6.00764 -3.5217,-5.179 1.4935,-16.0193 -2.8,-9.5 3.7924,-5.34758 1.2429,-7.66492 -7.2506,-4.35036 -2.2787,-6.21481 4.1432,-1.24296 7.2506,-5.179 3.1074,-6.62913 1.4501,-3.31456 8.7007,-9.52937 -4.858,-7.52731 1.7506,-8.21687 z"
     id="path686"
     inkscape:connector-curvature="0" />
  <path
     style="fill:none;stroke:#000000;stroke-width:0.75px;stroke-linecap:butt;stroke-linejoin:miter;stroke-opacity:1"
     d="m 122.97389,56.409267 11.42579,-4.10156 5.27343,-3.80859 3.80859,-2.05078 5.85157,-0.52656 6.74609,1.9914 6.73828,4.39453 2.34375,3.8086 5.56641,2.92968 1.75781,7.61719 3.80859,0.8789 7.32423,-0.29296 2.63671,2.05078 -7.82187,8.92188 7.52891,21.54687 2.92968,2.636723 3.22266,-4.101563 10.83984,-1.17188 2.05078,-2.92968 v -3.22266 l 4.39454,-2.05078 23.73047,22.265623 4.6875,1.46484 1.7578,1.75782 -0.293,2.63672 6.4453,1.75781 7.0313,2.63672 9.668,2.92968 8.2031,3.51563 15.5273,5.27344 2.3438,2.34375 -3.2227,2.63672 -2.3437,3.80859 -2.0508,5.85937 -2.3438,6.15235 -10.2539,35.74219 2.9297,1.46484 0.293,5.27343 -2.6367,5.56641 -1.1719,3.22266 -2.0508,2.63672 -2.3437,0.58594 -1.7578,1.75781 -7.1309,20.47339 -2.4859,7.87209 -5.5933,8.07924 -2.2788,4.35037 -2.4859,4.55752 -2.4859,7.87209 -8.2864,22.3733 -8.4678,19.02591 0.1814,7.90491 -4.35038,11.39381 -2.27877,10.97949 -3.52172,10.35801 -3.1074,12.01529 -1.0358,7.04345 -0.62148,6.42196 1.24296,4.76469 4.97185,8.49357 5.81936,6.62482 -3.33344,12.84824 -0.26656,8.75176 1.92384,7.19957 -0.20716,4.55752 -1.65728,8.70074 0.41431,6.83628 -0.27371,5.40589 0.8952,4.95212 -12.42961,-1.45012 -3.1074,6.62912 -2.85819,9.96888 -19.1,1.9 -3.1082,2.63233 -2.0716,-3.93603 -5.59333,-1.24297 0.47313,-17.05333 -4.5,0.3 -1.9,-9.3 -12.30323,0.98695 -4.97184,-2.48592 -6.00765,-3.52172 -8.70072,-10.15086 -8.07925,-6.83628 -6.42196,-6.83629 -0.82864,-6.2148 -2.69309,-10.15085 -6.2148,-19.47306 -15.53702,-29.00243 -3.93604,-5.38616 -11.60097,-4.1432 -15.74418,-2.27876 -8.2864,-0.82865 -14.91554,-3.31456 v -1.86444 l 29.20959,-25.06638 -8.90789,-18.85158 -6.62912,-14.91554 -1.24296,-12.42961 -0.62148,-18.02293 -2.06681,-13.01293 -3.52652,-11.22481 -4.76468,-7.04346 -4.76469,7.04346 -9.32221,1.45011 -2.69308,6.42197 -3.31457,1.0358 -7.2506,-3.52172 -3.9360503,-0.20716 3.3145703,-6.00765 -1.0358003,-5.80048 -6.83629,-0.62148 7.66493,-20.71602 6.2148003,-11.60097 3.72889,-4.55753 0.20715,-3.31456 -3.1074,-1.24296 -2.0716,1.86444 -1.86444,0.82864 -3.5217203,-3.52172 -5.17901,-0.62148 -2.34168,-1.64242 -1.60000002,-7.7 6.90000002,-2.5 10.5070903,-10.32372 3.10741,-3.52173 11.18665,-2.27876 12.22245,-1.24296 h 7.66493 l 9.41147,-0.53283 3.84678,-8.58222 8.70073,-0.20716 5.17901,-8.49357 0.20715,-4.97184 3.52173,-3.31456 -3.1074,-6.21481 -0.41433,-7.872083 2.48592,-2.27876 -1.24296,-3.93605 15.32337,-9.52895 3.11389,-1.65771 3.72889,2.27877 5.38616,-1.0358 10.97949,3.72888 2.90024,-2.90024 5.38617,-0.41432 1.65728,-4.76469 -1.65728,-3.93604 -6.62913,-8.90789 z"
     id="path688"
     inkscape:connector-curvature="0" />
  <path
     style="fill:none;stroke:#000000;stroke-width:0.75px;stroke-linecap:butt;stroke-linejoin:miter;stroke-opacity:1"
     d="m 290.91585,133.6455 -7.7125,-9.91563 4.6875,-1.46484 14.9414,2.34375 2.3438,5.27344 -2.6368,9.375 -2.9297,6.15234 -2.9296,7.03125 -1.7579,4.10156 9.375,4.10156 0.586,4.10156 -16.9672,58.80001 4.9555,6.53203 -2.9297,4.98047 -7.0313,7.32421 -2.3437,6.44532 -5.5664,5.27343 -6.1524,2.05079 -0.2929,4.6875 6.7382,5.85937 3.2227,5.44688 -5.2,3.9 2.1,14 -2.6,13.7 5.407,10.12109 2.693,7.37891 6.3891,14.00781 2.3437,4.39453 7.0313,-0.29297 11.8359,-2.00937 0.1758,13.43515 2.0508,2.92969 0.7734,8.93516 20.4,6.1 -5.3531,31.2539 -5.0469,15.4461 -2.2774,4.76875 -10.0226,-2.46875 v 5.2 l -14.9,-5.3 -6.425,23.07656 6.7383,1.46484 3.5156,5.56641 -1.7578,4.98046 -2.6367,2.63673 -2.3438,3.22265 -1.1719,2.92969 -15.8203,-4.98047 -12.0117,-7.61719 -9.375,-1.17187 -2.9297,5.85937 -3.2226,3.80859 -16.9922,-2.05077 -0.8672,-8.025 -13.10001,-1.7 0.6,-30.4 1.35547,-20.8125 -1.17188,-5.27344 -5.27343,-7.61719 -4.98048,-9.96094 5.56641,-26.36718 4.10157,-8.20313 2.05077,-12.89062 4.68748,-14.94141 12.8906,-37.79297 9.668,-23.14453 6.1524,-8.78906 8.789,-26.36719 5.8594,-5.85938 5.8594,-14.94141 -2.9297,-2.05077 0.5859,-6.44532 13.1836,-42.48047 z"
     id="path690"
     inkscape:connector-curvature="0" />
  <path
     style="fill:#000000;fill-opacity:1;stroke:#00ff00;stroke-width:1.5625"
     d="m 230.95158,620.4634 -5.12599,-2.51582 1.01269,-11.32813 c 0.97103,-10.86223 0.87459,-11.32812 -2.34494,-11.32812 -3.3853,0 -3.8708,-0.70208 -5.40248,-7.8125 -0.78986,-3.66671 -1.35993,-3.87418 -9.29605,-3.38316 -6.70119,0.41461 -10.11823,-0.31995 -16.47653,-3.54195 -4.41208,-2.23577 -8.02197,-4.62886 -8.02197,-5.31799 0,-0.68912 -6.59516,-7.78903 -14.65589,-15.77759 -12.95333,-12.83733 -14.76325,-15.30788 -15.57998,-21.26661 -1.9373,-14.13411 -12.29222,-41.75053 -23.00448,-61.35263 -5.95989,-10.90586 -11.76235,-21.02226 -12.89437,-22.48092 -3.37214,-4.34515 -17.82192,-8.67178 -37.806569,-11.32022 -23.834034,-3.15857 -31.195591,-5.10198 -29.062438,-7.67226 0.870869,-1.04935 9.354368,-8.56171 18.852218,-16.69416 9.497851,-8.13244 17.27055,-15.68272 17.272665,-16.77839 0.0022,-1.09567 -2.365679,-6.72067 -5.261762,-12.5 C 68.959335,361.06315 68.070149,358.00684 66.56316,332.36106 64.970144,305.25129 60.858583,286.65326 54.662368,278.52961 l -4.076677,-5.3448 -3.79477,5.58452 c -2.899003,4.26626 -4.873431,5.5845 -8.364336,5.5845 -4.53015,0 -5.218394,0.49082 -10.600769,7.55995 -2.777681,3.64816 -2.791292,3.64941 -8.983826,0.82758 -3.411061,-1.55436 -6.434679,-2.96252 -6.719149,-3.12925 -0.284471,-0.16672 0.25989,-1.75517 1.209691,-3.52989 2.457572,-4.59202 0.506142,-10.82214 -3.5737923,-11.40966 -2.3174805,-0.33372 -3.2712802,-1.47477 -3.0565524,-3.65661 0.5999604,-6.09616 9.8958477,-28.21817 15.3157677,-36.44791 3.006221,-4.56471 5.465855,-9.66642 5.465855,-11.33714 0,-3.83262 -3.98795,-5.46529 -7.080458,-2.89873 -1.9088,1.58416 -2.887205,1.46964 -5.181258,-0.60645 -1.555454,-1.40766 -4.330027,-2.55939 -6.1657167,-2.55939 -6.9405203,0 -8.77739425,-10.18938 -2.2756923,-12.62356 2.3632812,-0.8848 8.515625,-5.75464 13.671875,-10.82189 11.126519,-10.93445 14.627839,-12.03298 43.013984,-13.49556 l 19.576483,-1.00867 2.573106,-6.02516 c 2.344005,-5.4887 3.105143,-6.02624 8.548518,-6.0372 5.314701,-0.0108 6.364139,-0.69281 9.491029,-6.16893 1.9336,-3.3863 3.51563,-7.36849 3.51563,-8.84931 0,-1.48083 1.1058,-3.91431 2.45734,-5.40774 2.2348,-2.46942 2.2348,-3.14571 0,-7.46732 -2.83313,-5.47867 -3.2406,-13.61365 -0.75872,-15.14754 0.93424,-0.5774 1.36087,-2.34139 0.94806,-3.91998 -0.57606,-2.20284 1.66289,-4.31635 9.6295,-9.09003 9.00498,-5.39589 11.41502,-6.15686 18.19257,-5.7443 4.29687,0.26157 10.82335,1.38543 14.50327,2.49748 5.10179,1.54172 7.12417,1.58852 8.51564,0.19706 1.00365,-1.00367 3.41729,-1.82485 5.36362,-1.82485 3.72056,0 6.77372,-4.0406 6.77372,-8.964466 0,-1.605947 -2.23014,-5.952432 -4.95588,-9.658853 -5.96312,-8.108582 -5.15601,-10.22121 5.50468,-14.40877 4.111,-1.614818 10.05126,-4.686957 13.20059,-6.826974 6.65497,-4.522174 11.66058,-4.817819 18.47309,-1.091073 7.73307,4.230331 21.59822,17.810077 23.89661,23.404706 1.92197,4.678409 2.53657,5.028854 7.26388,4.142003 7.87433,-1.477235 9.08278,0.33742 4.35365,6.537626 l -4.15087,5.442061 4.26153,14.38374 c 2.34384,7.91106 5.58033,16.00063 7.19217,17.97682 l 2.93064,3.59308 3.16271,-3.16271 c 3.22211,-3.2221 6.61864,-4.39404 14.94759,-5.1575 3.24889,-0.2978 4.84859,-1.38133 5.24627,-3.55344 1.4432,-7.88297 3.41118,-7.24097 17.20064,5.61123 7.42717,6.92236 16.42,14.31697 19.98406,16.43247 4.94181,2.93327 6.2895,4.57529 5.67714,6.91695 -0.67627,2.58607 -0.004,3.0706 4.26167,3.0706 4.68727,0 24.25641,6.59095 49.10819,16.5398 l 10.29381,4.12089 -3.02911,4.90403 c -3.09942,5.01788 -20.44806,60.07445 -20.44806,64.89273 0,1.46716 0.8038,3.47134 1.78622,4.45376 2.36801,2.36802 -4.29691,20.71379 -7.5252,20.71379 -2.51646,0 -4.14768,3.53037 -11.91232,25.78125 -2.99887,8.59375 -8.20062,20.19531 -11.55943,25.78125 -3.35883,5.58593 -9.16838,18.59375 -12.91013,28.90625 -3.74173,10.3125 -9.85775,25.91757 -13.59116,34.67795 -3.73339,8.76037 -6.78798,17.74003 -6.78798,19.95481 0,4.20622 -3.52988,17.92344 -11.07131,43.02349 -2.45294,8.16406 -5.60894,20.8805 -7.01335,28.25875 -2.52834,13.283 -2.51907,13.48237 0.94093,20.26454 1.92192,3.76727 4.98346,8.86517 6.80343,11.32869 3.16674,4.28648 3.30905,6.19228 3.30905,44.31294 v 39.83381 l -8.05569,-0.99962 -8.05569,-0.99963 -3.27243,8.74638 c -1.79985,4.8105 -3.27244,9.74281 -3.27244,10.9607 0,2.1988 -2.76414,2.92623 -17.25814,4.54181 -3.90605,0.43539 -8.1248,1.07803 -9.375,1.42808 -1.25022,0.35005 -4.5798,-0.49569 -7.39909,-1.87938 z"
     id="path12"
     inkscape:connector-curvature="0"
     transform="scale(0.75)" />
  <path
     style="fill:#000000;fill-opacity:1;stroke:#00ff00;stroke-width:1.5625"
     d="m 488.75667,350.56567 c -2.82336,-1.21188 -8.82478,-5.21009 -13.3365,-8.88494 -5.74755,-4.68144 -11.29984,-7.51978 -18.54808,-9.48178 -12.47609,-3.37712 -15.82241,-6.64206 -19.75369,-19.27328 l -3.0057,-9.65731 6.23066,-4.12325 c 3.42684,-2.26778 9.59475,-5.12228 13.70643,-6.34332 8.5313,-2.53353 11.28788,-7.71814 7.28508,-13.70185 -1.92014,-2.87036 -3.74259,-3.33986 -12.96451,-3.33986 -9.63082,0 -10.7303,-0.31511 -10.7303,-3.07529 0,-3.76445 8.82834,-8.99417 21.70037,-12.85484 7.0365,-2.11044 10.32641,-4.16062 13.98797,-8.71695 2.63316,-3.27663 6.9661,-7.30391 9.62874,-8.9495 3.86379,-2.38796 4.87281,-4.10919 4.998,-8.52583 0.13984,-4.93375 -0.27603,-5.53384 -3.83521,-5.53384 -2.19562,0 -8.315,2.41753 -13.5986,5.37228 l -9.60655,5.37228 -3.80035,-6.1491 c -4.04859,-6.55075 -2.78534,-5.99685 -31.97437,-14.01971 -15.71323,-4.31891 -28.90625,-9.20105 -28.90625,-10.69688 0,-0.63064 2.36445,-7.08403 5.25436,-14.34086 9.7902,-24.5843 8.63195,-28.534 -8.91875,-30.41353 -15.98788,-1.71216 -20.20316,1.61413 -11.25534,8.88164 6.03189,4.89917 1.2645,4.53131 -14.16852,-1.09326 -8.49364,-3.09554 -22.25841,-7.86493 -30.58834,-10.59868 -10.30024,-3.38036 -15.37537,-5.83916 -15.86442,-7.686 -0.3955,-1.49355 -2.67195,-3.45803 -5.05878,-4.3655 -2.38683,-0.90748 -11.56437,-8.34015 -20.39454,-16.51705 -14.13375,-13.08812 -16.43486,-14.66373 -19.23057,-13.16752 -1.74663,0.93477 -3.60354,3.40422 -4.12644,5.48765 -0.78066,3.11036 -2.25153,3.9751 -8.22158,4.83353 -3.99896,0.57502 -8.40048,2.03189 -9.78117,3.23751 -3.35678,2.93115 -4.48441,1.31743 -9.85376,-14.10137 l -4.28616,-12.30831 4.99663,-6.957689 c 2.81882,-3.925143 4.4043,-7.543205 3.63763,-8.301068 -0.74745,-0.738859 -4.81554,-1.561347 -9.0402,-1.82775 -7.16176,-0.451612 -7.7999,-0.838559 -9.43661,-5.722057 -0.96547,-2.880732 -3.25066,-6.044794 -5.07819,-7.03125 -1.82752,-0.986458 -4.737,-3.59733 -6.46549,-5.801938 -1.72849,-2.204609 -6.0063,-5.299677 -9.50624,-6.87793 -5.77632,-2.604759 -6.36352,-3.402029 -6.36352,-8.640078 0,-3.76717 -1.0743,-6.742754 -3.09444,-8.570959 -1.70194,-1.540236 -3.5561,-5.340619 -4.12035,-8.445292 -0.6458,-3.553405 -2.82806,-7.180411 -5.88993,-9.789322 -2.67522,-2.279452 -4.51247,-4.439477 -4.08278,-4.800053 0.42969,-0.360578 4.12109,-2.56818 8.20312,-4.905783 6.16985,-3.533205 7.42188,-5.014271 7.42188,-8.7796061 0,-2.4911814 0.6868,-4.9538893 1.52623,-5.4726843 0.83943,-0.518795 8.86521,-0.1531021 17.83507,0.8126509 14.57419,1.5691523 16.7392,1.4739227 20.35515,-0.8953353 3.49306,-2.2887461 5.05487,-2.3972923 11.42262,-0.7938753 4.5872,1.1550711 12.11758,1.4900261 19.91549,0.885852 l 12.53919,-0.9715228 14.46067,10.1886529 c 12.22556,8.613849 16.76335,10.815973 29.35856,14.247288 8.19385,2.232249 17.36966,5.091403 20.39071,6.353675 7.07173,2.954761 60.58983,18.274533 74.85256,21.42685 6.01562,1.329561 23.24219,4.270694 38.28125,6.53585 34.1978,5.150813 48.44927,8.268491 51.96662,11.368324 1.51132,1.331926 3.55216,5.106192 4.53519,8.387259 1.52649,5.094966 2.30113,5.83662 5.30794,5.081958 5.1303,-1.287621 6.09287,3.711987 2.31698,12.034367 -5.28701,11.653056 -4.50739,14.350456 5.32568,18.426026 8.96459,3.71562 22.68937,13.42128 40.39007,28.56237 5.84307,4.99812 12.34697,9.51999 14.45313,10.04861 3.57891,0.89824 3.82939,1.63373 3.82939,11.24421 0,10.2258 0.0414,10.3228 7.42187,17.40875 4.08204,3.91911 8.64547,8.70767 10.14096,10.64127 1.52911,1.97704 4.42228,3.51561 6.61086,3.51561 2.73114,0 4.15659,1.04845 4.77976,3.51562 0.60372,2.39014 3.84819,4.90199 10.13458,7.84611 8.76008,4.10263 9.16706,4.53958 7.73552,8.30484 -2.76594,7.27499 -1.73038,11.24238 4.53642,17.37968 15.64917,15.32576 22.81759,18.95479 30.05184,15.21382 5.96553,-3.0849 9.65181,-2.85996 23.19858,1.41554 11.03317,3.48217 11.74884,3.99254 13.69283,9.76492 1.35086,4.0112 3.98734,7.34586 7.72201,9.7669 4.41383,2.86133 5.18847,3.99514 3.49468,5.11507 -1.73308,1.1459 -1.22177,2.23104 2.51134,5.3297 3.71198,3.08112 4.23366,4.17872 2.50669,5.27412 -1.27341,0.80772 -1.75441,2.49446 -1.15602,4.05383 0.76919,2.00446 2.38481,2.51177 6.47767,2.03394 3.42946,-0.40036 5.45291,0.0284 5.45291,1.15556 0,2.47681 17.02345,18.49508 22.70166,21.36117 2.55314,1.28871 6.57436,2.80641 8.936,3.37268 2.59968,0.62332 5.90526,3.46445 8.37776,7.20065 2.24611,3.39411 5.4711,6.61141 7.16663,7.14955 3.20986,1.01876 3.15109,3.30695 -0.31941,12.43505 l -1.54991,4.07657 -5.8595,-4.3139 c -3.22271,-2.37266 -10.10606,-9.24571 -15.29631,-15.27346 -13.98248,-16.23862 -21.32747,-20.93423 -37.34706,-23.87571 l -13.33827,-2.44916 -5.38154,4.1047 c -6.37013,4.85874 -9.74471,5.01458 -21.21505,0.97971 -10.75945,-3.7848 -31.90967,-4.19702 -40.08475,-0.78125 -3.08517,1.28906 -7.20611,2.34375 -9.15766,2.34375 -1.95153,0 -3.94286,1.02831 -4.42515,2.28515 -0.8551,2.22836 -15.36497,10.24516 -22.61628,12.49566 -2.34722,0.72848 -4.55319,0.31862 -6.25,-1.16119 -5.25266,-4.58092 -13.86321,-6.23347 -22.1371,-4.24859 -4.22086,1.01256 -8.46144,2.7895 -9.42351,3.94873 -0.9621,1.15924 -5.56558,2.58452 -10.22999,3.1673 -7.33576,0.91655 -27.62504,9.50365 -33.90892,14.3514 -2.41609,1.86394 -20.91941,9.0715 -26.14164,10.18293 -2.14844,0.45723 -6.21627,-0.16019 -9.03964,-1.37205 z"
     id="path14"
     inkscape:connector-curvature="0"
     transform="scale(0.75)" />
  <path
     style="fill:#000000;fill-opacity:1;stroke:#00ff00;stroke-width:1.5625"
     d="m 565.84348,494.49798 c -2.67528,-7.00515 -2.78709,-9.11619 -1.15673,-21.84006 0.99265,-7.74694 3.22339,-17.7843 4.95718,-22.30523 6.28318,-16.3835 3.74358,-19.12386 -17.72282,-19.12386 -12.42466,0 -15.33264,0.44892 -16.11503,2.48779 -0.75652,1.97146 -2.3391,2.28021 -7.62493,1.48755 -4.05017,-0.60736 -7.06778,-0.35708 -7.68226,0.63719 -0.55661,0.90061 -3.35058,1.63747 -6.20885,1.63747 -3.68181,0 -5.85192,1.02489 -7.44396,3.51562 -3.74664,5.86158 -16.41065,37.28895 -18.94994,47.0267 -1.31032,5.02485 -2.69917,9.45285 -3.08634,9.84002 -0.38717,0.38717 -7.77055,-1.08734 -16.4075,-3.2767 -8.63696,-2.18935 -17.59114,-3.98064 -19.89819,-3.98064 -2.30705,0 -7.45306,-1.06661 -11.43559,-2.37025 -3.98253,-1.30364 -10.07394,-3.04674 -13.53646,-3.87355 l -6.29551,-1.5033 -2.01478,-10.89401 c -1.15263,-6.2323 -1.5587,-13.93543 -0.94896,-18.00146 1.25445,-8.36528 1.31208,-8.34768 -15.10489,-4.61372 -12.9149,2.93743 -12.71052,3.07838 -19.47456,-13.43121 -2.28858,-5.58594 -6.06216,-14.375 -8.38574,-19.53125 -3.84385,-8.52988 -4.21261,-11.00263 -4.09068,-27.43032 0.10343,-13.93507 0.71891,-18.94799 2.69709,-21.96707 3.49937,-5.34072 2.02008,-10.9095 -3.90217,-14.68971 -5.26492,-3.36063 -7.67106,-10.13165 -3.60036,-10.13165 3.73357,0 11.86429,-7.71419 14.31644,-13.583 1.24014,-2.96808 5.08161,-8.60793 8.53659,-12.53299 3.45498,-3.92507 6.28178,-7.76909 6.28178,-8.54227 0,-0.77318 -1.4169,-3.32224 -3.14866,-5.66457 l -3.14866,-4.25879 10.96116,-37.70899 c 6.02864,-20.73994 10.96116,-38.83408 10.96116,-40.20919 0,-3.12297 -0.87043,-3.2051 13.59122,1.28246 6.70451,2.08047 16.45303,4.94872 21.66336,6.37389 8.13401,2.22488 10.00862,3.45732 13.25949,8.71733 2.08238,3.36936 4.29908,6.12612 4.926,6.12612 0.62692,0 5.61712,-2.46101 11.08932,-5.46891 5.4722,-3.0079 10.41828,-5.00009 10.99128,-4.42709 2.27569,2.27569 0.78849,5.1102 -4.34625,8.28364 -2.96344,1.83151 -5.82707,4.71315 -6.36361,6.40364 -1.16108,3.65823 -9.23925,8.01846 -21.41184,11.55712 -6.23572,1.81278 -10.26126,4.17949 -13.62484,8.01041 -5.66088,6.44738 -5.67091,6.51645 -1.57865,10.87246 2.82757,3.0098 4.03175,3.24521 10.45868,2.04452 3.99476,-0.7463 8.57334,-0.94108 10.17463,-0.43285 5.65482,1.79477 1.78352,6.0377 -12.11498,13.27796 -14.05059,7.31949 -15.83399,9.55563 -11.742,14.72285 0.68055,0.85937 1.75609,4.70383 2.39008,8.54324 0.90246,5.46519 2.89363,8.79237 9.17147,15.32517 7.73506,8.0492 8.33911,8.35664 17.07389,8.69015 8.21405,0.31363 9.43232,0.8277 13.116,5.53457 4.42567,5.65496 13.92041,10.34123 21.99452,10.85573 3.33232,0.21235 10.16173,-2.06221 19.53125,-6.50496 7.92398,-3.75731 16.86817,-7.77766 19.87598,-8.9341 3.00781,-1.15644 6.31916,-3.27085 7.35855,-4.69869 3.1907,-4.38313 28.61579,-8.29348 47.56542,-7.3155 l 16.16978,0.83452 14.84375,-7.49416 c 26.70278,-13.48142 42.42836,-15.63575 63.21023,-8.65951 l 11.41747,3.83272 5.98528,-3.05147 c 3.98768,-2.03303 9.14619,-3.05146 15.45607,-3.05146 8.09612,0 10.93981,0.84877 19.5915,5.8476 11.48376,6.63517 32.99726,27.6977 31.71193,31.04719 -1.36361,3.55353 -6.67236,2.47962 -8.59428,-1.73854 -1.97812,-4.34151 -4.07125,-5.02689 -5.33047,-1.74543 -0.68092,1.77445 -1.85953,1.65034 -6.59157,-0.69414 -24.30158,-12.04009 -29.33904,-13.1629 -30.91335,-6.89032 -0.54545,2.17325 -4.42603,8.6621 -8.62351,14.41967 -4.19749,5.75756 -7.6318,10.98596 -7.6318,11.61866 0,2.36175 -6.07513,4.24164 -19.63438,6.07566 -7.67765,1.03847 -15.08132,2.85156 -16.4526,4.02907 -2.1393,1.83703 -3.08093,1.67867 -6.63327,-1.11561 -5.35588,-4.21293 -8.92294,-3.00379 -14.38331,4.87553 -2.38497,3.44152 -8.79772,10.43073 -14.25057,15.53159 l -9.91425,9.27432 4.37929,2.26461 c 2.60657,1.34792 7.60061,7.53285 12.3372,15.27925 4.37686,7.15806 9.44156,14.35407 11.25491,15.99118 2.25664,2.03732 3.29698,4.85511 3.29698,8.93 0,4.38691 1.23344,7.35828 4.6875,11.29224 5.41348,6.16562 5.96141,8.06168 1.66522,5.76243 -1.66225,-0.8896 -6.56792,-1.61746 -10.90149,-1.61746 -6.64776,0 -8.27311,0.6012 -10.39965,3.84671 -1.38627,2.11571 -2.87825,6.51411 -3.31552,9.77427 -0.62773,4.68006 -0.10484,6.55216 2.48444,8.89545 1.80372,1.63235 3.2795,4.20768 3.2795,5.72294 0,5.62022 1.748,7.71111 5.63166,6.73638 5.73637,-1.43975 4.44718,0.82712 -2.00313,3.52223 -5.41411,2.26216 -6.18228,2.19692 -13.28125,-1.12806 -5.61203,-2.62853 -7.53478,-4.39596 -7.53478,-6.9261 0,-1.86834 -1.43044,-4.69151 -3.17875,-6.27371 -3.11894,-2.8226 -3.26891,-2.76735 -7.97145,2.93767 -3.74988,4.54925 -5.5231,5.59023 -8.14938,4.7842 -1.84617,-0.56661 -3.53428,-1.17905 -3.75134,-1.36097 -0.21706,-0.18192 1.01522,-4.4287 2.73842,-9.43726 1.7232,-5.00857 2.84416,-9.39544 2.491,-9.74858 -0.35316,-0.35316 -3.92147,-0.15031 -7.92959,0.45073 -5.89261,0.88364 -7.92296,2.06222 -10.60739,6.15738 -1.82594,2.7855 -5.61513,6.63726 -8.42041,8.55948 -3.75063,2.56997 -5.43788,5.20081 -6.3752,9.94052 l -1.27468,6.44559 z"
     id="path16"
     inkscape:connector-curvature="0"
     transform="scale(0.75)" />
  <path
     style="fill:#000000;fill-opacity:1;stroke:#00ff00;stroke-width:1.5625"
     d="m 376.08533,610.60629 c -5.47027,-1.67928 -13.5458,-5.38539 -17.94561,-8.23579 -4.52435,-2.9311 -10.87793,-5.52906 -14.62502,-5.98014 -6.37759,-0.76775 -6.75357,-0.56947 -10.05335,5.3017 -3.69758,6.57895 -6.79167,7.35077 -20.43067,5.09638 -5.39029,-0.89096 -5.85937,-1.38094 -5.85937,-6.12038 0,-5.07177 -0.13339,-5.16853 -8.57844,-6.22367 l -8.57844,-1.07181 0.70342,-31.4625 c 0.38689,-17.30438 1.32052,-33.57188 2.07474,-36.15 1.18462,-4.04932 0.66925,-5.55063 -3.78543,-11.02729 -7.41616,-9.11751 -11.3978,-18.81942 -10.48581,-25.55029 1.50711,-11.12305 5.44727,-27.45814 8.30528,-34.43197 1.60383,-3.9135 3.34838,-9.92795 3.87678,-13.36545 0.52841,-3.4375 2.31563,-10.46875 3.9716,-15.625 1.65598,-5.15625 5.24245,-16.40625 7.96996,-25 10.90393,-34.35588 24.87364,-69.01605 30.90951,-76.68941 1.70484,-2.16736 5.69157,-11.8145 8.85941,-21.43812 4.02749,-12.23515 7.25237,-19.14219 10.72287,-22.96622 5.46381,-6.02041 10.28455,-15.5764 10.28455,-20.38672 0,-1.70125 -0.84215,-4.44169 -1.87145,-6.08986 -1.54512,-2.47412 -0.70129,-6.89793 4.8391,-25.36942 10.71269,-35.71575 12.76835,-40.64061 18.45654,-44.21741 6.06007,-3.81065 6.48776,-7.66786 1.23206,-11.11153 -6.06216,-3.97208 -4.70102,-5.32506 5.35714,-5.32506 9.03029,0 14.17411,2.37216 14.17411,6.53662 0,0.89425 -3.25248,9.66186 -7.22773,19.48358 -3.97526,9.82171 -6.96354,18.0559 -6.64063,18.29819 0.32291,0.24229 3.39961,1.48957 6.83711,2.77173 4.74983,1.77165 6.12354,3.05698 5.72316,5.35492 -0.28976,1.66304 -4.64558,17.08621 -9.6796,34.27371 -12.74304,43.50821 -12.68345,43.18136 -8.9489,49.07968 l 3.09307,4.88517 -6.2445,6.77449 c -3.43448,3.72596 -6.75493,8.45887 -7.37878,10.51756 -1.56446,5.16269 -8.40057,12.182 -14.26854,14.65091 -4.07117,1.7129 -4.76304,2.73058 -4.12513,6.06756 0.42155,2.2052 3.15011,5.82756 6.06346,8.04969 5.83168,4.44803 6.59186,7.67308 2.79701,11.86634 -2.72671,3.01297 -3.23833,11.00746 -1.07045,16.7266 0.80119,2.11367 0.75284,7.75711 -0.11628,13.57271 -1.37445,9.19683 -1.17633,10.58679 2.60217,18.257 2.24943,4.56625 7.12971,15.33354 10.84507,23.92729 7.52036,17.39486 6.06599,16.4977 23.30396,14.37553 l 8.84573,-1.08899 0.82229,8.98172 c 0.45225,4.93995 1.39355,12.40238 2.09177,16.58316 l 1.26949,7.60142 13.24064,3.8163 c 7.28234,2.09897 13.36619,3.95176 13.51966,4.11732 0.40497,0.43693 -7.04046,41.75908 -8.2061,45.54388 -0.54112,1.75706 -2.372,6.9422 -4.06861,11.52255 l -3.08473,8.32787 -7.65355,-1.05262 c -6.40206,-0.88052 -7.65356,-0.64541 -7.65356,1.43773 0,3.09936 -0.79086,3.09602 -10.00144,-0.0423 -4.15603,-1.41611 -7.97614,-1.93275 -8.6648,-1.17188 -0.67743,0.74847 -2.7952,7.27086 -4.70616,14.49424 -1.91097,7.22336 -3.80423,13.99265 -4.20724,15.0429 -0.45174,1.17722 1.3088,2.29252 4.59072,2.90821 3.47084,0.65114 5.90335,2.27137 6.98972,4.6557 1.74385,3.82733 1.45988,4.63664 -5.11769,14.5852 l -3.14814,4.76155 z"
     id="path18"
     inkscape:connector-curvature="0"
     transform="scale(0.75)" />
</svg>
